M48
INCH
T45C0.020
T44C0.048
T43C0.129
T42C0.038
%
T45
X016950Y016500
X015300Y016500
X017800Y013400
X004200Y011100
X004200Y010500
X004200Y009900
X001800Y010500
X002350Y010500
X002900Y010500
X005500Y017850
X005000Y017850
X004500Y017850
X004000Y017850
X004000Y017250
X005500Y016650
X005500Y015450
X005000Y016650
X004500Y016650
X004000Y016650
X005000Y015450
X004500Y015450
X004000Y015450
X004000Y016050
X009000Y014550
X008300Y013500
X008400Y014000
X009500Y014550
X008100Y016700
X008100Y017150
X008600Y016700
X008600Y017150
X008100Y017600
X008600Y017600
X007300Y013500
X007800Y013500
X007800Y012200
X008300Y012200
X008800Y012200
X009300Y012200
T42
X020000Y002000
X020000Y003000
X020000Y004000
X020000Y005000
X020000Y006000
X020000Y007000
X011980Y000945
X010980Y000945
X009980Y000945
X011980Y001945
X010980Y001945
X009980Y001945
X001000Y013000
X001000Y012000
X001000Y011000
X001000Y010000
X001000Y016000
X001000Y015000
X001000Y014000
X004700Y011850
X005700Y011850
X006700Y011850
X020000Y008000
X020000Y009000
X020000Y010600
X020000Y011600
X001000Y009000
X001000Y007000
X001000Y006000
X001000Y005000
X001000Y004000
X001000Y003000
X001000Y002000
X020000Y012600
X020000Y013600
X020000Y014600
X020000Y015600
X020000Y016600
X020000Y017600
X016250Y014400
X016250Y013400
X014750Y014400
X014750Y013400
X020000Y018600
X020000Y019600
X015150Y018600
X016150Y018600
X017150Y018600
X015150Y019600
X016150Y019600
X017150Y019600
X017150Y022100
X017150Y021100
X015150Y022100
X015150Y021100
T44
X010150Y024700
X009150Y024700
X008150Y024700
X007150Y024700
X006150Y024700
X005150Y024700
X004150Y024700
X003150Y024700
T43
X014000Y001000
X001000Y021500
X003000Y001000
X020000Y021000
M30
