G04 start of page 3 for group 1 idx 1 *
G04 Title: (unknown), solder *
G04 Creator: pcb 20110918 *
G04 CreationDate: Sat 02 Feb 2013 09:15:24 PM GMT UTC *
G04 For: petersen *
G04 Format: Gerber/RS-274X *
G04 PCB-Dimensions: 210000 270000 *
G04 PCB-Coordinate-Origin: lower left *
%MOIN*%
%FSLAX25Y25*%
%LNBOTTOM*%
%ADD40C,0.0480*%
%ADD39C,0.1285*%
%ADD38C,0.0380*%
%ADD37C,0.0400*%
%ADD36C,0.0800*%
%ADD35C,0.1500*%
%ADD34C,0.0600*%
%ADD33C,0.0200*%
%ADD32C,0.0100*%
%ADD31C,0.0001*%
G54D31*G36*
X82995Y236000D02*X134500D01*
Y34000D01*
X82995D01*
Y115500D01*
X91441D01*
X91500Y115495D01*
X91735Y115514D01*
X91735Y115514D01*
X91965Y115569D01*
X92183Y115659D01*
X92384Y115783D01*
X92564Y115936D01*
X92602Y115981D01*
X94019Y117398D01*
X94064Y117436D01*
X94217Y117615D01*
X94217Y117616D01*
X94341Y117817D01*
X94431Y118035D01*
X94486Y118265D01*
X94505Y118500D01*
X94500Y118559D01*
Y119401D01*
X94769Y119565D01*
X95128Y119872D01*
X95435Y120231D01*
X95681Y120634D01*
X95862Y121070D01*
X95972Y121529D01*
X96000Y122000D01*
X95972Y122471D01*
X95862Y122930D01*
X95681Y123366D01*
X95435Y123769D01*
X95128Y124128D01*
X94769Y124435D01*
X94366Y124681D01*
X93930Y124862D01*
X93471Y124972D01*
X93000Y125009D01*
X92529Y124972D01*
X92070Y124862D01*
X91634Y124681D01*
X91231Y124435D01*
X90872Y124128D01*
X90565Y123769D01*
X90500Y123662D01*
X90435Y123769D01*
X90128Y124128D01*
X89769Y124435D01*
X89500Y124599D01*
Y135941D01*
X89505Y136000D01*
X89486Y136235D01*
X89486Y136235D01*
X89431Y136465D01*
X89341Y136683D01*
X89217Y136884D01*
X89064Y137064D01*
X89019Y137102D01*
X86899Y139223D01*
X86972Y139529D01*
X87000Y140000D01*
X86972Y140471D01*
X86862Y140930D01*
X86681Y141366D01*
X86435Y141769D01*
X86128Y142128D01*
X85769Y142435D01*
X85366Y142681D01*
X84930Y142862D01*
X84471Y142972D01*
X84000Y143009D01*
X83529Y142972D01*
X83070Y142862D01*
X82995Y142831D01*
Y236000D01*
G37*
G36*
X66993D02*X82995D01*
Y142831D01*
X82634Y142681D01*
X82231Y142435D01*
X81872Y142128D01*
X81565Y141769D01*
X81319Y141366D01*
X81138Y140930D01*
X81028Y140471D01*
X80991Y140000D01*
X81028Y139529D01*
X81138Y139070D01*
X81319Y138634D01*
X81565Y138231D01*
X81872Y137872D01*
X81945Y137810D01*
X81634Y137681D01*
X81231Y137435D01*
X80872Y137128D01*
X80565Y136769D01*
X80500Y136662D01*
X80435Y136769D01*
X80128Y137128D01*
X79769Y137435D01*
X79366Y137681D01*
X78930Y137862D01*
X78471Y137972D01*
X78000Y138009D01*
X77529Y137972D01*
X77070Y137862D01*
X76634Y137681D01*
X76231Y137435D01*
X75872Y137128D01*
X75565Y136769D01*
X75500Y136662D01*
X75435Y136769D01*
X75128Y137128D01*
X74769Y137435D01*
X74366Y137681D01*
X73930Y137862D01*
X73471Y137972D01*
X73000Y138009D01*
X72529Y137972D01*
X72070Y137862D01*
X71634Y137681D01*
X71231Y137435D01*
X70872Y137128D01*
X70565Y136769D01*
X70319Y136366D01*
X70138Y135930D01*
X70028Y135471D01*
X69991Y135000D01*
X70028Y134529D01*
X70138Y134070D01*
X70319Y133634D01*
X70565Y133231D01*
X70872Y132872D01*
X71231Y132565D01*
X71500Y132401D01*
Y120559D01*
X71495Y120500D01*
X71514Y120265D01*
X71569Y120035D01*
X71659Y119817D01*
X71783Y119616D01*
X71783Y119615D01*
X71936Y119436D01*
X71981Y119398D01*
X75398Y115981D01*
X75436Y115936D01*
X75615Y115783D01*
X75616Y115783D01*
X75817Y115659D01*
X76035Y115569D01*
X76265Y115514D01*
X76500Y115495D01*
X76559Y115500D01*
X82995D01*
Y34000D01*
X66993D01*
Y113987D01*
X67000Y113986D01*
X67706Y114042D01*
X68395Y114207D01*
X69049Y114478D01*
X69653Y114848D01*
X70192Y115308D01*
X70652Y115847D01*
X71022Y116451D01*
X71293Y117105D01*
X71458Y117794D01*
X71500Y118500D01*
X71458Y119206D01*
X71293Y119895D01*
X71022Y120549D01*
X70652Y121153D01*
X70192Y121692D01*
X69653Y122152D01*
X69049Y122522D01*
X68395Y122793D01*
X67706Y122958D01*
X67000Y123014D01*
X66993Y123013D01*
Y236000D01*
G37*
G36*
X56993D02*X66993D01*
Y123013D01*
X66294Y122958D01*
X65605Y122793D01*
X64951Y122522D01*
X64347Y122152D01*
X63808Y121692D01*
X63348Y121153D01*
X62978Y120549D01*
X62707Y119895D01*
X62542Y119206D01*
X62486Y118500D01*
X62542Y117794D01*
X62707Y117105D01*
X62978Y116451D01*
X63348Y115847D01*
X63808Y115308D01*
X64347Y114848D01*
X64951Y114478D01*
X65605Y114207D01*
X66294Y114042D01*
X66993Y113987D01*
Y34000D01*
X56993D01*
Y113987D01*
X57000Y113986D01*
X57706Y114042D01*
X58395Y114207D01*
X59049Y114478D01*
X59653Y114848D01*
X60192Y115308D01*
X60652Y115847D01*
X61022Y116451D01*
X61293Y117105D01*
X61458Y117794D01*
X61500Y118500D01*
X61458Y119206D01*
X61293Y119895D01*
X61022Y120549D01*
X60652Y121153D01*
X60192Y121692D01*
X59653Y122152D01*
X59049Y122522D01*
X58395Y122793D01*
X57706Y122958D01*
X57000Y123014D01*
X56993Y123013D01*
Y236000D01*
G37*
G36*
X47000D02*X56993D01*
Y123013D01*
X56294Y122958D01*
X55605Y122793D01*
X54951Y122522D01*
X54347Y122152D01*
X53808Y121692D01*
X53348Y121153D01*
X52978Y120549D01*
X52707Y119895D01*
X52542Y119206D01*
X52486Y118500D01*
X52542Y117794D01*
X52707Y117105D01*
X52978Y116451D01*
X53348Y115847D01*
X53808Y115308D01*
X54347Y114848D01*
X54951Y114478D01*
X55605Y114207D01*
X56294Y114042D01*
X56993Y113987D01*
Y34000D01*
X47000D01*
Y114007D01*
X50235Y114014D01*
X50465Y114069D01*
X50683Y114159D01*
X50884Y114283D01*
X51064Y114436D01*
X51217Y114616D01*
X51341Y114817D01*
X51431Y115035D01*
X51486Y115265D01*
X51500Y115500D01*
X51486Y121735D01*
X51431Y121965D01*
X51341Y122183D01*
X51217Y122384D01*
X51064Y122564D01*
X50884Y122717D01*
X50683Y122841D01*
X50465Y122931D01*
X50235Y122986D01*
X50000Y123000D01*
X47000Y122993D01*
Y236000D01*
G37*
G36*
X15000D02*X47000D01*
Y122993D01*
X43765Y122986D01*
X43535Y122931D01*
X43317Y122841D01*
X43116Y122717D01*
X42936Y122564D01*
X42783Y122384D01*
X42659Y122183D01*
X42569Y121965D01*
X42514Y121735D01*
X42500Y121500D01*
X42514Y115265D01*
X42569Y115035D01*
X42659Y114817D01*
X42783Y114616D01*
X42936Y114436D01*
X43116Y114283D01*
X43317Y114159D01*
X43535Y114069D01*
X43765Y114014D01*
X44000Y114000D01*
X47000Y114007D01*
Y34000D01*
X15000D01*
Y208095D01*
X15012Y208102D01*
X16029Y208971D01*
X16898Y209988D01*
X17597Y211129D01*
X18109Y212365D01*
X18421Y213666D01*
X18500Y215000D01*
X18421Y216334D01*
X18109Y217635D01*
X17597Y218871D01*
X16898Y220012D01*
X16029Y221029D01*
X15012Y221898D01*
X15000Y221905D01*
Y236000D01*
G37*
G36*
X13613Y115000D02*X22500D01*
Y95000D01*
X13613D01*
Y97853D01*
X13656Y97860D01*
X13768Y97897D01*
X13873Y97952D01*
X13968Y98022D01*
X14051Y98106D01*
X14119Y98202D01*
X14170Y98308D01*
X14318Y98716D01*
X14422Y99137D01*
X14484Y99567D01*
X14505Y100000D01*
X14484Y100433D01*
X14422Y100863D01*
X14318Y101284D01*
X14175Y101694D01*
X14122Y101800D01*
X14053Y101896D01*
X13970Y101981D01*
X13875Y102051D01*
X13769Y102106D01*
X13657Y102143D01*
X13613Y102151D01*
Y107853D01*
X13656Y107860D01*
X13768Y107897D01*
X13873Y107952D01*
X13968Y108022D01*
X14051Y108106D01*
X14119Y108202D01*
X14170Y108308D01*
X14318Y108716D01*
X14422Y109137D01*
X14484Y109567D01*
X14505Y110000D01*
X14484Y110433D01*
X14422Y110863D01*
X14318Y111284D01*
X14175Y111694D01*
X14122Y111800D01*
X14053Y111896D01*
X13970Y111981D01*
X13875Y112051D01*
X13769Y112106D01*
X13657Y112143D01*
X13613Y112151D01*
Y115000D01*
G37*
G36*
X10002D02*X13613D01*
Y112151D01*
X13540Y112163D01*
X13421Y112164D01*
X13304Y112146D01*
X13191Y112110D01*
X13085Y112057D01*
X12988Y111988D01*
X12904Y111905D01*
X12833Y111809D01*
X12779Y111704D01*
X12741Y111592D01*
X12722Y111475D01*
X12721Y111356D01*
X12739Y111239D01*
X12777Y111126D01*
X12876Y110855D01*
X12944Y110575D01*
X12986Y110289D01*
X13000Y110000D01*
X12986Y109711D01*
X12944Y109425D01*
X12876Y109145D01*
X12780Y108872D01*
X12742Y108761D01*
X12725Y108644D01*
X12725Y108526D01*
X12745Y108409D01*
X12782Y108297D01*
X12836Y108193D01*
X12906Y108098D01*
X12991Y108015D01*
X13087Y107946D01*
X13192Y107893D01*
X13305Y107857D01*
X13421Y107840D01*
X13539Y107841D01*
X13613Y107853D01*
Y102151D01*
X13540Y102163D01*
X13421Y102164D01*
X13304Y102146D01*
X13191Y102110D01*
X13085Y102057D01*
X12988Y101988D01*
X12904Y101905D01*
X12833Y101809D01*
X12779Y101704D01*
X12741Y101592D01*
X12722Y101475D01*
X12721Y101356D01*
X12739Y101239D01*
X12777Y101126D01*
X12876Y100855D01*
X12944Y100575D01*
X12986Y100289D01*
X13000Y100000D01*
X12986Y99711D01*
X12944Y99425D01*
X12876Y99145D01*
X12780Y98872D01*
X12742Y98761D01*
X12725Y98644D01*
X12725Y98526D01*
X12745Y98409D01*
X12782Y98297D01*
X12836Y98193D01*
X12906Y98098D01*
X12991Y98015D01*
X13087Y97946D01*
X13192Y97893D01*
X13305Y97857D01*
X13421Y97840D01*
X13539Y97841D01*
X13613Y97853D01*
Y95000D01*
X10002D01*
Y95495D01*
X10433Y95516D01*
X10863Y95578D01*
X11284Y95682D01*
X11694Y95825D01*
X11800Y95878D01*
X11896Y95947D01*
X11981Y96030D01*
X12051Y96125D01*
X12106Y96231D01*
X12143Y96343D01*
X12163Y96460D01*
X12164Y96579D01*
X12146Y96696D01*
X12110Y96809D01*
X12057Y96915D01*
X11988Y97012D01*
X11905Y97096D01*
X11809Y97167D01*
X11704Y97221D01*
X11592Y97259D01*
X11475Y97278D01*
X11356Y97279D01*
X11239Y97261D01*
X11126Y97223D01*
X10855Y97124D01*
X10575Y97056D01*
X10289Y97014D01*
X10002Y97000D01*
Y103000D01*
X10289Y102986D01*
X10575Y102944D01*
X10855Y102876D01*
X11128Y102780D01*
X11239Y102742D01*
X11356Y102725D01*
X11474Y102725D01*
X11591Y102745D01*
X11703Y102782D01*
X11807Y102836D01*
X11902Y102906D01*
X11985Y102991D01*
X12054Y103087D01*
X12107Y103192D01*
X12143Y103305D01*
X12160Y103421D01*
X12159Y103539D01*
X12140Y103656D01*
X12103Y103768D01*
X12048Y103873D01*
X11978Y103968D01*
X11894Y104051D01*
X11798Y104119D01*
X11692Y104170D01*
X11284Y104318D01*
X10863Y104422D01*
X10433Y104484D01*
X10002Y104505D01*
Y105495D01*
X10433Y105516D01*
X10863Y105578D01*
X11284Y105682D01*
X11694Y105825D01*
X11800Y105878D01*
X11896Y105947D01*
X11981Y106030D01*
X12051Y106125D01*
X12106Y106231D01*
X12143Y106343D01*
X12163Y106460D01*
X12164Y106579D01*
X12146Y106696D01*
X12110Y106809D01*
X12057Y106915D01*
X11988Y107012D01*
X11905Y107096D01*
X11809Y107167D01*
X11704Y107221D01*
X11592Y107259D01*
X11475Y107278D01*
X11356Y107279D01*
X11239Y107261D01*
X11126Y107223D01*
X10855Y107124D01*
X10575Y107056D01*
X10289Y107014D01*
X10002Y107000D01*
Y113000D01*
X10289Y112986D01*
X10575Y112944D01*
X10855Y112876D01*
X11128Y112780D01*
X11239Y112742D01*
X11356Y112725D01*
X11474Y112725D01*
X11591Y112745D01*
X11703Y112782D01*
X11807Y112836D01*
X11902Y112906D01*
X11985Y112991D01*
X12054Y113087D01*
X12107Y113192D01*
X12143Y113305D01*
X12160Y113421D01*
X12159Y113539D01*
X12140Y113656D01*
X12103Y113768D01*
X12048Y113873D01*
X11978Y113968D01*
X11894Y114051D01*
X11798Y114119D01*
X11692Y114170D01*
X11284Y114318D01*
X10863Y114422D01*
X10433Y114484D01*
X10002Y114505D01*
Y115000D01*
G37*
G36*
X6387D02*X10002D01*
Y114505D01*
X10000Y114505D01*
X9567Y114484D01*
X9137Y114422D01*
X8716Y114318D01*
X8306Y114175D01*
X8200Y114122D01*
X8104Y114053D01*
X8019Y113970D01*
X7949Y113875D01*
X7894Y113769D01*
X7857Y113657D01*
X7837Y113540D01*
X7836Y113421D01*
X7854Y113304D01*
X7890Y113191D01*
X7943Y113085D01*
X8012Y112988D01*
X8095Y112904D01*
X8191Y112833D01*
X8296Y112779D01*
X8408Y112741D01*
X8525Y112722D01*
X8644Y112721D01*
X8761Y112739D01*
X8874Y112777D01*
X9145Y112876D01*
X9425Y112944D01*
X9711Y112986D01*
X10000Y113000D01*
X10002Y113000D01*
Y107000D01*
X10000Y107000D01*
X9711Y107014D01*
X9425Y107056D01*
X9145Y107124D01*
X8872Y107220D01*
X8761Y107258D01*
X8644Y107275D01*
X8526Y107275D01*
X8409Y107255D01*
X8297Y107218D01*
X8193Y107164D01*
X8098Y107094D01*
X8015Y107009D01*
X7946Y106913D01*
X7893Y106808D01*
X7857Y106695D01*
X7840Y106579D01*
X7841Y106461D01*
X7860Y106344D01*
X7897Y106232D01*
X7952Y106127D01*
X8022Y106032D01*
X8106Y105949D01*
X8202Y105881D01*
X8308Y105830D01*
X8716Y105682D01*
X9137Y105578D01*
X9567Y105516D01*
X10000Y105495D01*
X10002Y105495D01*
Y104505D01*
X10000Y104505D01*
X9567Y104484D01*
X9137Y104422D01*
X8716Y104318D01*
X8306Y104175D01*
X8200Y104122D01*
X8104Y104053D01*
X8019Y103970D01*
X7949Y103875D01*
X7894Y103769D01*
X7857Y103657D01*
X7837Y103540D01*
X7836Y103421D01*
X7854Y103304D01*
X7890Y103191D01*
X7943Y103085D01*
X8012Y102988D01*
X8095Y102904D01*
X8191Y102833D01*
X8296Y102779D01*
X8408Y102741D01*
X8525Y102722D01*
X8644Y102721D01*
X8761Y102739D01*
X8874Y102777D01*
X9145Y102876D01*
X9425Y102944D01*
X9711Y102986D01*
X10000Y103000D01*
X10002Y103000D01*
Y97000D01*
X10000Y97000D01*
X9711Y97014D01*
X9425Y97056D01*
X9145Y97124D01*
X8872Y97220D01*
X8761Y97258D01*
X8644Y97275D01*
X8526Y97275D01*
X8409Y97255D01*
X8297Y97218D01*
X8193Y97164D01*
X8098Y97094D01*
X8015Y97009D01*
X7946Y96913D01*
X7893Y96808D01*
X7857Y96695D01*
X7840Y96579D01*
X7841Y96461D01*
X7860Y96344D01*
X7897Y96232D01*
X7952Y96127D01*
X8022Y96032D01*
X8106Y95949D01*
X8202Y95881D01*
X8308Y95830D01*
X8716Y95682D01*
X9137Y95578D01*
X9567Y95516D01*
X10000Y95495D01*
X10002Y95495D01*
Y95000D01*
X6387D01*
Y97849D01*
X6460Y97837D01*
X6579Y97836D01*
X6696Y97854D01*
X6809Y97890D01*
X6915Y97943D01*
X7012Y98012D01*
X7096Y98095D01*
X7167Y98191D01*
X7221Y98296D01*
X7259Y98408D01*
X7278Y98525D01*
X7279Y98644D01*
X7261Y98761D01*
X7223Y98874D01*
X7124Y99145D01*
X7056Y99425D01*
X7014Y99711D01*
X7000Y100000D01*
X7014Y100289D01*
X7056Y100575D01*
X7124Y100855D01*
X7220Y101128D01*
X7258Y101239D01*
X7275Y101356D01*
X7275Y101474D01*
X7255Y101591D01*
X7218Y101703D01*
X7164Y101807D01*
X7094Y101902D01*
X7009Y101985D01*
X6913Y102054D01*
X6808Y102107D01*
X6695Y102143D01*
X6579Y102160D01*
X6461Y102159D01*
X6387Y102147D01*
Y107849D01*
X6460Y107837D01*
X6579Y107836D01*
X6696Y107854D01*
X6809Y107890D01*
X6915Y107943D01*
X7012Y108012D01*
X7096Y108095D01*
X7167Y108191D01*
X7221Y108296D01*
X7259Y108408D01*
X7278Y108525D01*
X7279Y108644D01*
X7261Y108761D01*
X7223Y108874D01*
X7124Y109145D01*
X7056Y109425D01*
X7014Y109711D01*
X7000Y110000D01*
X7014Y110289D01*
X7056Y110575D01*
X7124Y110855D01*
X7220Y111128D01*
X7258Y111239D01*
X7275Y111356D01*
X7275Y111474D01*
X7255Y111591D01*
X7218Y111703D01*
X7164Y111807D01*
X7094Y111902D01*
X7009Y111985D01*
X6913Y112054D01*
X6808Y112107D01*
X6695Y112143D01*
X6579Y112160D01*
X6461Y112159D01*
X6387Y112147D01*
Y115000D01*
G37*
G36*
X4500D02*X6387D01*
Y112147D01*
X6344Y112140D01*
X6232Y112103D01*
X6127Y112048D01*
X6032Y111978D01*
X5949Y111894D01*
X5881Y111798D01*
X5830Y111692D01*
X5682Y111284D01*
X5578Y110863D01*
X5516Y110433D01*
X5495Y110000D01*
X5516Y109567D01*
X5578Y109137D01*
X5682Y108716D01*
X5825Y108306D01*
X5878Y108200D01*
X5947Y108104D01*
X6030Y108019D01*
X6125Y107949D01*
X6231Y107894D01*
X6343Y107857D01*
X6387Y107849D01*
Y102147D01*
X6344Y102140D01*
X6232Y102103D01*
X6127Y102048D01*
X6032Y101978D01*
X5949Y101894D01*
X5881Y101798D01*
X5830Y101692D01*
X5682Y101284D01*
X5578Y100863D01*
X5516Y100433D01*
X5495Y100000D01*
X5516Y99567D01*
X5578Y99137D01*
X5682Y98716D01*
X5825Y98306D01*
X5878Y98200D01*
X5947Y98104D01*
X6030Y98019D01*
X6125Y97949D01*
X6231Y97894D01*
X6343Y97857D01*
X6387Y97849D01*
Y95000D01*
X4500D01*
Y115000D01*
G37*
G54D32*X192000Y32000D02*Y198000D01*
X190000Y34000D02*Y174000D01*
X153000Y165000D02*X169500D01*
G54D33*X178000Y134000D02*X129000D01*
G54D32*X187000Y27000D02*X192000Y32000D01*
X78000Y135000D02*Y122000D01*
X83000Y135000D02*Y122000D01*
X84000Y140000D02*X88000Y136000D01*
Y122000D01*
X73000Y135000D02*Y120500D01*
X76500Y117000D01*
X91500D01*
X93000Y118500D01*
Y122000D01*
X192000Y198000D02*X187000Y203000D01*
X158500D01*
X151500Y196000D01*
X190000Y174000D02*X185000Y179000D01*
X158500D01*
X151500Y186000D01*
X10000Y20000D02*X17000D01*
X24000Y27000D01*
X187000D01*
X10000Y30000D02*X186000D01*
X190000Y34000D01*
G54D31*G36*
X197000Y23000D02*Y17000D01*
X203000D01*
Y23000D01*
X197000D01*
G37*
G54D34*X200000Y30000D03*
Y40000D03*
Y50000D03*
Y60000D03*
Y70000D03*
G54D35*X140000Y10000D03*
G54D34*X119803Y9449D03*
X109803D03*
X99803D03*
G54D31*G36*
X116803Y22449D02*Y16449D01*
X122803D01*
Y22449D01*
X116803D01*
G37*
G54D34*X109803Y19449D03*
X99803D03*
X10000Y130000D03*
Y120000D03*
Y110000D03*
Y100000D03*
G54D31*G36*
X7000Y163000D02*Y157000D01*
X13000D01*
Y163000D01*
X7000D01*
G37*
G54D34*X10000Y150000D03*
Y140000D03*
G54D35*Y215000D03*
G54D31*G36*
X44000Y121500D02*Y115500D01*
X50000D01*
Y121500D01*
X44000D01*
G37*
G54D34*X57000Y118500D03*
X67000D03*
X200000Y80000D03*
Y90000D03*
Y106000D03*
Y116000D03*
X10000Y90000D03*
Y70000D03*
Y60000D03*
Y50000D03*
Y40000D03*
Y30000D03*
Y20000D03*
G54D35*X30000Y10000D03*
G54D34*X200000Y126000D03*
Y136000D03*
Y146000D03*
Y156000D03*
Y166000D03*
Y176000D03*
G54D31*G36*
X159500Y147000D02*Y141000D01*
X165500D01*
Y147000D01*
X159500D01*
G37*
G54D34*X162500Y134000D03*
G54D31*G36*
X144500Y147000D02*Y141000D01*
X150500D01*
Y147000D01*
X144500D01*
G37*
G54D34*X147500Y134000D03*
X200000Y186000D03*
Y196000D03*
G54D35*Y210000D03*
G54D31*G36*
X148500Y189000D02*Y183000D01*
X154500D01*
Y189000D01*
X148500D01*
G37*
G54D34*X161500Y186000D03*
X171500D03*
X151500Y196000D03*
X161500D03*
X171500D03*
G54D31*G36*
X168500Y224000D02*Y218000D01*
X174500D01*
Y224000D01*
X168500D01*
G37*
G54D34*X171500Y211000D03*
G54D31*G36*
X148500Y224000D02*Y218000D01*
X154500D01*
Y224000D01*
X148500D01*
G37*
G54D34*X151500Y211000D03*
G54D31*G36*
X97500Y251000D02*Y243000D01*
X105500D01*
Y251000D01*
X97500D01*
G37*
G54D36*X91500Y247000D03*
X81500D03*
X71500D03*
X61500D03*
X51500D03*
X41500D03*
X31500D03*
G54D37*X169500Y165000D03*
X153000D03*
X178000Y134000D03*
X42000Y111000D03*
Y105000D03*
Y99000D03*
X18000Y105000D03*
X23500D03*
X29000D03*
X55000Y178500D03*
X50000D03*
X45000D03*
X40000D03*
Y172500D03*
X55000Y166500D03*
Y154500D03*
X50000Y166500D03*
X45000D03*
X40000D03*
X50000Y154500D03*
X45000D03*
X40000D03*
Y160500D03*
X90000Y145500D03*
X83000Y135000D03*
X84000Y140000D03*
X95000Y145500D03*
X81000Y167000D03*
Y171500D03*
X86000Y167000D03*
Y171500D03*
X81000Y176000D03*
X86000D03*
X73000Y135000D03*
X78000D03*
Y122000D03*
X83000D03*
X88000D03*
X93000D03*
G54D33*G54D38*G54D39*G54D38*G54D39*G54D38*G54D39*G54D38*G54D39*G54D38*G54D40*M02*
