G04 start of page 6 for group -4063 idx -4063 *
G04 Title: (unknown), componentmask *
G04 Creator: pcb 20110918 *
G04 CreationDate: Sat 02 Feb 2013 09:15:24 PM GMT UTC *
G04 For: petersen *
G04 Format: Gerber/RS-274X *
G04 PCB-Dimensions: 210000 270000 *
G04 PCB-Coordinate-Origin: lower left *
%MOIN*%
%FSLAX25Y25*%
%LNTOPMASK*%
%ADD55R,0.0550X0.0550*%
%ADD54R,0.0225X0.0225*%
%ADD53R,0.0300X0.0300*%
%ADD52R,0.1005X0.1005*%
%ADD51R,0.0438X0.0438*%
%ADD50R,0.0572X0.0572*%
%ADD49C,0.0860*%
%ADD48C,0.1560*%
%ADD47C,0.0660*%
%ADD46C,0.0001*%
G54D46*G36*
X196700Y23300D02*Y16700D01*
X203300D01*
Y23300D01*
X196700D01*
G37*
G54D47*X200000Y30000D03*
Y40000D03*
Y50000D03*
Y60000D03*
Y70000D03*
G54D48*X140000Y10000D03*
G54D47*X119803Y9449D03*
X109803D03*
X99803D03*
G54D46*G36*
X116503Y22749D02*Y16149D01*
X123103D01*
Y22749D01*
X116503D01*
G37*
G54D47*X109803Y19449D03*
X99803D03*
X10000Y130000D03*
Y120000D03*
Y110000D03*
Y100000D03*
G54D46*G36*
X6700Y163300D02*Y156700D01*
X13300D01*
Y163300D01*
X6700D01*
G37*
G54D47*X10000Y150000D03*
Y140000D03*
G54D48*Y215000D03*
G54D46*G36*
X43700Y121800D02*Y115200D01*
X50300D01*
Y121800D01*
X43700D01*
G37*
G54D47*X57000Y118500D03*
X67000D03*
X200000Y80000D03*
Y90000D03*
Y106000D03*
Y116000D03*
X10000Y90000D03*
Y70000D03*
Y60000D03*
Y50000D03*
Y40000D03*
Y30000D03*
Y20000D03*
G54D48*X30000Y10000D03*
G54D47*X200000Y126000D03*
Y136000D03*
Y146000D03*
Y156000D03*
Y166000D03*
Y176000D03*
G54D46*G36*
X159200Y147300D02*Y140700D01*
X165800D01*
Y147300D01*
X159200D01*
G37*
G54D47*X162500Y134000D03*
G54D46*G36*
X144200Y147300D02*Y140700D01*
X150800D01*
Y147300D01*
X144200D01*
G37*
G54D47*X147500Y134000D03*
X200000Y186000D03*
Y196000D03*
G54D48*Y210000D03*
G54D46*G36*
X148200Y189300D02*Y182700D01*
X154800D01*
Y189300D01*
X148200D01*
G37*
G54D47*X161500Y186000D03*
X171500D03*
X151500Y196000D03*
X161500D03*
X171500D03*
G54D46*G36*
X168200Y224300D02*Y217700D01*
X174800D01*
Y224300D01*
X168200D01*
G37*
G54D47*X171500Y211000D03*
G54D46*G36*
X148200Y224300D02*Y217700D01*
X154800D01*
Y224300D01*
X148200D01*
G37*
G54D47*X151500Y211000D03*
G54D46*G36*
X97200Y251300D02*Y242700D01*
X105800D01*
Y251300D01*
X97200D01*
G37*
G54D49*X91500Y247000D03*
X81500D03*
X71500D03*
X61500D03*
X51500D03*
X41500D03*
X31500D03*
G54D50*X138457Y221893D02*Y221107D01*
X131371Y221893D02*Y221107D01*
X138500Y210893D02*Y210107D01*
X131414Y210893D02*Y210107D01*
X57543Y102393D02*Y101607D01*
X50457Y102393D02*Y101607D01*
G54D51*X51000Y91989D02*Y80179D01*
G54D52*Y78445D02*Y76555D01*
G54D46*G36*
X52885Y86434D02*X56149Y83170D01*
X54305Y81326D01*
X51041Y84590D01*
X52885Y86434D01*
G37*
G36*
X45851Y83170D02*X49115Y86434D01*
X50959Y84590D01*
X47695Y81326D01*
X45851Y83170D01*
G37*
G54D51*X45094Y91989D02*Y87895D01*
G54D50*X34607Y98543D02*X35393D01*
X34607Y111414D02*X35393D01*
X34607Y118500D02*X35393D01*
X34607Y91457D02*X35393D01*
G54D51*X56906Y91989D02*Y87895D01*
G54D53*X165500Y165800D02*Y164200D01*
X161600Y165800D02*Y164200D01*
X157700Y165800D02*Y164200D01*
Y157600D02*Y156000D01*
X161600Y157600D02*Y156000D01*
G54D50*X166086Y120893D02*Y120107D01*
X159000Y120893D02*Y120107D01*
X143957Y120893D02*Y120107D01*
X151043Y120893D02*Y120107D01*
G54D53*X165500Y157600D02*Y156000D01*
G54D50*X175107Y157457D02*X175893D01*
X175107Y164543D02*X175893D01*
G54D54*X90750Y183425D02*Y180575D01*
X88250Y183425D02*Y180575D01*
X85750Y183425D02*Y180575D01*
X83250Y183425D02*Y180575D01*
X80750Y183425D02*Y180575D01*
X78250Y183425D02*Y180575D01*
X75750Y183425D02*Y180575D01*
X73250Y183425D02*Y180575D01*
G54D50*X62043Y172393D02*Y171607D01*
X54957Y172393D02*Y171607D01*
G54D55*X63500Y187800D02*Y184200D01*
X53500Y187800D02*Y184200D01*
G54D50*X62043Y161393D02*Y160607D01*
X54957Y161393D02*Y160607D01*
G54D55*X63500Y148800D02*Y145200D01*
X53500Y148800D02*Y145200D01*
G54D54*X73250Y162425D02*Y159575D01*
X75750Y162425D02*Y159575D01*
X78250Y162425D02*Y159575D01*
X80750Y162425D02*Y159575D01*
X83250Y162425D02*Y159575D01*
X85750Y162425D02*Y159575D01*
X88250Y162425D02*Y159575D01*
X90750Y162425D02*Y159575D01*
G54D55*X101500Y139300D02*Y135700D01*
X91500Y139300D02*Y135700D01*
G54D50*X100043Y151893D02*Y151107D01*
X92957Y151893D02*Y151107D01*
M02*
