G04 start of page 8 for group -4079 idx -4079 *
G04 Title: (unknown), topsilk *
G04 Creator: pcb 20110918 *
G04 CreationDate: Sat 02 Feb 2013 09:15:24 PM GMT UTC *
G04 For: petersen *
G04 Format: Gerber/RS-274X *
G04 PCB-Dimensions: 210000 270000 *
G04 PCB-Coordinate-Origin: lower left *
%MOIN*%
%FSLAX25Y25*%
%LNTOPSILK*%
%ADD61C,0.0200*%
%ADD60C,0.0100*%
G54D60*X209500Y269500D02*Y10500D01*
X159500D02*X149500Y500D01*
X209500Y10500D02*X159500D01*
X160500Y240100D02*X167500D01*
X160500Y235100D02*X167500D01*
X149500Y500D02*X20500D01*
X500Y10500D02*X10500D01*
X20500Y500D02*X10500Y10500D01*
X500D02*Y269500D01*
X209500D01*
X154000Y246100D02*X169000D01*
Y251100D02*X154000D01*
Y256100D02*X169000D01*
Y246100D01*
X164000Y256100D02*Y246100D01*
X159000Y256100D02*Y246100D01*
X154000Y256100D02*Y246100D01*
Y232600D02*X169000D01*
Y237600D02*X154000D01*
Y242600D02*X169000D01*
Y232600D01*
X164000Y242600D02*Y232600D01*
X159000Y242600D02*Y232600D01*
X154000Y242600D02*Y232600D01*
X155500Y253600D02*X162500D01*
X155500Y248600D02*X162500D01*
X18000Y22500D02*Y19000D01*
Y22500D02*X18500Y23000D01*
X20000D01*
X20500Y22500D01*
Y19000D01*
X18000Y21000D02*X20500D01*
X21700Y23000D02*X23700D01*
X21700D02*Y21000D01*
X22200Y21500D01*
X23200D01*
X23700Y21000D01*
Y19500D01*
X23200Y19000D02*X23700Y19500D01*
X22200Y19000D02*X23200D01*
X21700Y19500D02*X22200Y19000D01*
X24900Y19500D02*X27900Y22500D01*
X31100Y23000D02*X31600Y22500D01*
X29600Y23000D02*X31100D01*
X29100Y22500D02*X29600Y23000D01*
X29100Y22500D02*Y21500D01*
X29600Y21000D01*
X31100D01*
X31600Y20500D01*
Y19500D01*
X31100Y19000D02*X31600Y19500D01*
X29600Y19000D02*X31100D01*
X29100Y19500D02*X29600Y19000D01*
X33300D02*X34800D01*
X32800Y19500D02*X33300Y19000D01*
X32800Y22500D02*Y19500D01*
Y22500D02*X33300Y23000D01*
X34800D01*
X36000D02*Y19000D01*
X38000D01*
X18000Y31500D02*Y28000D01*
Y31500D02*X18500Y32000D01*
X20000D01*
X20500Y31500D01*
Y28000D01*
X18000Y30000D02*X20500D01*
X21700D02*X23700Y32000D01*
X21700Y30000D02*X24200D01*
X23700Y32000D02*Y28000D01*
X25400Y28500D02*X28400Y31500D01*
X31600Y32000D02*X32100Y31500D01*
X30100Y32000D02*X31600D01*
X29600Y31500D02*X30100Y32000D01*
X29600Y31500D02*Y30500D01*
X30100Y30000D01*
X31600D01*
X32100Y29500D01*
Y28500D01*
X31600Y28000D02*X32100Y28500D01*
X30100Y28000D02*X31600D01*
X29600Y28500D02*X30100Y28000D01*
X33800Y32000D02*Y28000D01*
X35300Y32000D02*X35800Y31500D01*
Y28500D01*
X35300Y28000D02*X35800Y28500D01*
X33300Y28000D02*X35300D01*
X33300Y32000D02*X35300D01*
X37000Y31500D02*Y28000D01*
Y31500D02*X37500Y32000D01*
X39000D01*
X39500Y31500D01*
Y28000D01*
X37000Y30000D02*X39500D01*
X18000Y41500D02*Y38000D01*
Y41500D02*X18500Y42000D01*
X20000D01*
X20500Y41500D01*
Y38000D01*
X18000Y40000D02*X20500D01*
X21700Y41500D02*X22200Y42000D01*
X23200D01*
X23700Y41500D01*
Y38500D01*
X23200Y38000D02*X23700Y38500D01*
X22200Y38000D02*X23200D01*
X21700Y38500D02*X22200Y38000D01*
Y40000D02*X23700D01*
X18000Y51500D02*Y48000D01*
Y51500D02*X18500Y52000D01*
X20000D01*
X20500Y51500D01*
Y48000D01*
X18000Y50000D02*X20500D01*
X21700Y51500D02*X22200Y52000D01*
X23700D01*
X24200Y51500D01*
Y50500D01*
X21700Y48000D02*X24200Y50500D01*
X21700Y48000D02*X24200D01*
X18000Y61500D02*Y58000D01*
Y61500D02*X18500Y62000D01*
X20000D01*
X20500Y61500D01*
Y58000D01*
X18000Y60000D02*X20500D01*
X22200Y58000D02*X23200D01*
X22700Y62000D02*Y58000D01*
X21700Y61000D02*X22700Y62000D01*
X18000Y71500D02*Y68000D01*
Y71500D02*X18500Y72000D01*
X20000D01*
X20500Y71500D01*
Y68000D01*
X18000Y70000D02*X20500D01*
X21700Y68500D02*X22200Y68000D01*
X21700Y71500D02*Y68500D01*
Y71500D02*X22200Y72000D01*
X23200D01*
X23700Y71500D01*
Y68500D01*
X23200Y68000D02*X23700Y68500D01*
X22200Y68000D02*X23200D01*
X21700Y69000D02*X23700Y71000D01*
X18000Y122000D02*X20000D01*
X18000D02*Y120000D01*
X18500Y120500D01*
X19500D01*
X20000Y120000D01*
Y118500D01*
X19500Y118000D02*X20000Y118500D01*
X18500Y118000D02*X19500D01*
X18000Y118500D02*X18500Y118000D01*
X21200Y122000D02*Y119000D01*
X22200Y118000D01*
X23200Y119000D01*
Y122000D02*Y119000D01*
X45000Y128000D02*Y126000D01*
X47000D01*
X46500Y126500D01*
Y127500D02*Y126500D01*
Y127500D02*X47000Y128000D01*
X48500D01*
X49000Y127500D02*X48500Y128000D01*
X49000Y127500D02*Y126500D01*
X48500Y126000D02*X49000Y126500D01*
X45000Y129200D02*X48000D01*
X49000Y130200D01*
X48000Y131200D01*
X45000D02*X48000D01*
X65000Y128000D02*Y126000D01*
Y128000D02*X65500Y128500D01*
X66500D01*
X67000Y128000D02*X66500Y128500D01*
X67000Y128000D02*Y126500D01*
X65000D02*X69000D01*
X67000D02*X69000Y128500D01*
X67000Y131200D02*Y129700D01*
X69000Y131700D02*Y129700D01*
X65000D02*X69000D01*
X65000Y131700D02*Y129700D01*
Y134900D02*X65500Y135400D01*
X65000Y134900D02*Y133400D01*
X65500Y132900D02*X65000Y133400D01*
X65500Y132900D02*X68500D01*
X69000Y133400D01*
Y134900D02*Y133400D01*
Y134900D02*X68500Y135400D01*
X67500D02*X68500D01*
X67000Y134900D02*X67500Y135400D01*
X67000Y134900D02*Y133900D01*
X18000Y131500D02*X18500Y132000D01*
X19500D01*
X20000Y131500D01*
Y128500D01*
X19500Y128000D02*X20000Y128500D01*
X18500Y128000D02*X19500D01*
X18000Y128500D02*X18500Y128000D01*
Y130000D02*X20000D01*
X21200Y128000D02*X21700D01*
X22900Y131500D02*X23400Y132000D01*
X24400D01*
X24900Y131500D01*
Y128500D01*
X24400Y128000D02*X24900Y128500D01*
X23400Y128000D02*X24400D01*
X22900Y128500D02*X23400Y128000D01*
Y130000D02*X24900D01*
X26100Y132000D02*Y129000D01*
X27100Y128000D01*
X28100Y129000D01*
Y132000D02*Y129000D01*
X18000Y152000D02*X19000D01*
X18500D02*Y148000D01*
X18000D02*X19000D01*
X20200Y151500D02*Y148500D01*
Y151500D02*X20700Y152000D01*
X21700D01*
X22200Y151500D01*
Y148500D01*
X21700Y148000D02*X22200Y148500D01*
X20700Y148000D02*X21700D01*
X20200Y148500D02*X20700Y148000D01*
X23400Y152000D02*X25400D01*
X25900Y151500D01*
Y150500D01*
X25400Y150000D02*X25900Y150500D01*
X23900Y150000D02*X25400D01*
X23900Y152000D02*Y148000D01*
Y150000D02*X25900Y148000D01*
X27100Y150000D02*X28600D01*
X27100Y148000D02*X29100D01*
X27100Y152000D02*Y148000D01*
Y152000D02*X29100D01*
X30300D02*Y148000D01*
Y152000D02*X32300D01*
X30300Y150000D02*X31800D01*
X18000Y142000D02*X20000D01*
X20500Y141500D01*
Y140500D01*
X20000Y140000D02*X20500Y140500D01*
X18500Y140000D02*X20000D01*
X18500Y142000D02*Y138000D01*
Y140000D02*X20500Y138000D01*
X21700Y140000D02*X23200D01*
X21700Y138000D02*X23700D01*
X21700Y142000D02*Y138000D01*
Y142000D02*X23700D01*
X26900D02*X27400Y141500D01*
X25400Y142000D02*X26900D01*
X24900Y141500D02*X25400Y142000D01*
X24900Y141500D02*Y140500D01*
X25400Y140000D01*
X26900D01*
X27400Y139500D01*
Y138500D01*
X26900Y138000D02*X27400Y138500D01*
X25400Y138000D02*X26900D01*
X24900Y138500D02*X25400Y138000D01*
X28600Y140000D02*X30100D01*
X28600Y138000D02*X30600D01*
X28600Y142000D02*Y138000D01*
Y142000D02*X30600D01*
X31800D02*X33800D01*
X32800D02*Y138000D01*
X18000Y162000D02*Y158000D01*
Y162000D02*Y161500D01*
X20500Y159000D01*
Y162000D02*Y158000D01*
X21700Y158500D02*X24700Y161500D01*
X26400Y158000D02*X27900D01*
X25900Y158500D02*X26400Y158000D01*
X25900Y161500D02*Y158500D01*
Y161500D02*X26400Y162000D01*
X27900D01*
X18000Y92000D02*Y89000D01*
X19000Y88000D01*
X20000Y89000D01*
Y92000D02*Y89000D01*
X21200Y92000D02*X22200D01*
X21700D02*Y88000D01*
X21200D02*X22200D01*
X23400Y92000D02*Y88000D01*
Y92000D02*Y91500D01*
X25900Y89000D01*
Y92000D02*Y88000D01*
X20000Y102000D02*X20500Y101500D01*
X18500Y102000D02*X20000D01*
X18000Y101500D02*X18500Y102000D01*
X18000Y101500D02*Y98500D01*
X18500Y98000D01*
X20000D01*
X20500Y98500D01*
Y99500D02*Y98500D01*
X20000Y100000D02*X20500Y99500D01*
X19000Y100000D02*X20000D01*
X21700Y102000D02*Y98000D01*
Y102000D02*Y101500D01*
X24200Y99000D01*
Y102000D02*Y98000D01*
X25900Y102000D02*Y98000D01*
X27400Y102000D02*X27900Y101500D01*
Y98500D01*
X27400Y98000D02*X27900Y98500D01*
X25400Y98000D02*X27400D01*
X25400Y102000D02*X27400D01*
X20000Y112000D02*X20500Y111500D01*
X18500Y112000D02*X20000D01*
X18000Y111500D02*X18500Y112000D01*
X18000Y111500D02*Y108500D01*
X18500Y108000D01*
X20000D01*
X20500Y108500D01*
Y109500D02*Y108500D01*
X20000Y110000D02*X20500Y109500D01*
X19000Y110000D02*X20000D01*
X21700Y112000D02*Y108000D01*
Y112000D02*Y111500D01*
X24200Y109000D01*
Y112000D02*Y108000D01*
X25900Y112000D02*Y108000D01*
X27400Y112000D02*X27900Y111500D01*
Y108500D01*
X27400Y108000D02*X27900Y108500D01*
X25400Y108000D02*X27400D01*
X25400Y112000D02*X27400D01*
X185500Y108000D02*Y104000D01*
X187000Y108000D02*X187500Y107500D01*
Y104500D01*
X187000Y104000D02*X187500Y104500D01*
X185000Y104000D02*X187000D01*
X185000Y108000D02*X187000D01*
X188700Y104500D02*X189200Y104000D01*
X188700Y105500D02*Y104500D01*
Y105500D02*X189200Y106000D01*
X190200D01*
X190700Y105500D01*
Y104500D01*
X190200Y104000D02*X190700Y104500D01*
X189200Y104000D02*X190200D01*
X188700Y106500D02*X189200Y106000D01*
X188700Y107500D02*Y106500D01*
Y107500D02*X189200Y108000D01*
X190200D01*
X190700Y107500D01*
Y106500D01*
X190200Y106000D02*X190700Y106500D01*
X183500Y158000D02*Y154000D01*
X185000Y158000D02*X185500Y157500D01*
Y154500D01*
X185000Y154000D02*X185500Y154500D01*
X183000Y154000D02*X185000D01*
X183000Y158000D02*X185000D01*
X187200Y154000D02*X188200D01*
X187700Y158000D02*Y154000D01*
X186700Y157000D02*X187700Y158000D01*
X189400Y157500D02*X189900Y158000D01*
X190900D01*
X191400Y157500D01*
Y154500D01*
X190900Y154000D02*X191400Y154500D01*
X189900Y154000D02*X190900D01*
X189400Y154500D02*X189900Y154000D01*
Y156000D02*X191400D01*
X183500Y148000D02*Y144000D01*
X185000Y148000D02*X185500Y147500D01*
Y144500D01*
X185000Y144000D02*X185500Y144500D01*
X183000Y144000D02*X185000D01*
X183000Y148000D02*X185000D01*
X187200Y144000D02*X188200D01*
X187700Y148000D02*Y144000D01*
X186700Y147000D02*X187700Y148000D01*
X189400Y147500D02*X189900Y148000D01*
X191400D01*
X191900Y147500D01*
Y146500D01*
X189400Y144000D02*X191900Y146500D01*
X189400Y144000D02*X191900D01*
X183500Y138000D02*Y134000D01*
X185000Y138000D02*X185500Y137500D01*
Y134500D01*
X185000Y134000D02*X185500Y134500D01*
X183000Y134000D02*X185000D01*
X183000Y138000D02*X185000D01*
X187200Y134000D02*X188200D01*
X187700Y138000D02*Y134000D01*
X186700Y137000D02*X187700Y138000D01*
X189900Y134000D02*X190900D01*
X190400Y138000D02*Y134000D01*
X189400Y137000D02*X190400Y138000D01*
X183500Y128000D02*Y124000D01*
X185000Y128000D02*X185500Y127500D01*
Y124500D01*
X185000Y124000D02*X185500Y124500D01*
X183000Y124000D02*X185000D01*
X183000Y128000D02*X185000D01*
X187200Y124000D02*X188200D01*
X187700Y128000D02*Y124000D01*
X186700Y127000D02*X187700Y128000D01*
X189400Y124500D02*X189900Y124000D01*
X189400Y127500D02*Y124500D01*
Y127500D02*X189900Y128000D01*
X190900D01*
X191400Y127500D01*
Y124500D01*
X190900Y124000D02*X191400Y124500D01*
X189900Y124000D02*X190900D01*
X189400Y125000D02*X191400Y127000D01*
X185500Y118000D02*Y114000D01*
X187000Y118000D02*X187500Y117500D01*
Y114500D01*
X187000Y114000D02*X187500Y114500D01*
X185000Y114000D02*X187000D01*
X185000Y118000D02*X187000D01*
X188700Y114000D02*X190700Y116000D01*
Y117500D02*Y116000D01*
X190200Y118000D02*X190700Y117500D01*
X189200Y118000D02*X190200D01*
X188700Y117500D02*X189200Y118000D01*
X188700Y117500D02*Y116500D01*
X189200Y116000D01*
X190700D01*
X180000Y177500D02*Y174000D01*
Y177500D02*X180500Y178000D01*
X182000D01*
X182500Y177500D01*
Y174000D01*
X180000Y176000D02*X182500D01*
X183700Y178000D02*X185700D01*
X186200Y177500D01*
Y176500D01*
X185700Y176000D02*X186200Y176500D01*
X184200Y176000D02*X185700D01*
X184200Y178000D02*Y174000D01*
Y176000D02*X186200Y174000D01*
X187400Y176000D02*X188900D01*
X187400Y174000D02*X189400D01*
X187400Y178000D02*Y174000D01*
Y178000D02*X189400D01*
X190600D02*Y174000D01*
Y178000D02*X192600D01*
X190600Y176000D02*X192100D01*
X184000Y188000D02*X184500Y187500D01*
X182500Y188000D02*X184000D01*
X182000Y187500D02*X182500Y188000D01*
X182000Y187500D02*Y186500D01*
X182500Y186000D01*
X184000D01*
X184500Y185500D01*
Y184500D01*
X184000Y184000D02*X184500Y184500D01*
X182500Y184000D02*X184000D01*
X182000Y184500D02*X182500Y184000D01*
X186200Y188000D02*Y184000D01*
X187700Y188000D02*X188200Y187500D01*
Y184500D01*
X187700Y184000D02*X188200Y184500D01*
X185700Y184000D02*X187700D01*
X185700Y188000D02*X187700D01*
X189400Y187500D02*Y184000D01*
Y187500D02*X189900Y188000D01*
X191400D01*
X191900Y187500D01*
Y184000D01*
X189400Y186000D02*X191900D01*
X185000Y198000D02*X185500Y197500D01*
X183500Y198000D02*X185000D01*
X183000Y197500D02*X183500Y198000D01*
X183000Y197500D02*Y196500D01*
X183500Y196000D01*
X185000D01*
X185500Y195500D01*
Y194500D01*
X185000Y194000D02*X185500Y194500D01*
X183500Y194000D02*X185000D01*
X183000Y194500D02*X183500Y194000D01*
X187200D02*X188700D01*
X186700Y194500D02*X187200Y194000D01*
X186700Y197500D02*Y194500D01*
Y197500D02*X187200Y198000D01*
X188700D01*
X189900D02*Y194000D01*
X191900D01*
X184000Y168000D02*X184500Y167500D01*
X182500Y168000D02*X184000D01*
X182000Y167500D02*X182500Y168000D01*
X182000Y167500D02*Y164500D01*
X182500Y164000D01*
X184000D01*
X184500Y164500D01*
Y165500D02*Y164500D01*
X184000Y166000D02*X184500Y165500D01*
X183000Y166000D02*X184000D01*
X185700Y168000D02*Y164000D01*
Y168000D02*Y167500D01*
X188200Y165000D01*
Y168000D02*Y164000D01*
X189900Y168000D02*Y164000D01*
X191400Y168000D02*X191900Y167500D01*
Y164500D01*
X191400Y164000D02*X191900Y164500D01*
X189400Y164000D02*X191400D01*
X189400Y168000D02*X191400D01*
X115000Y195000D02*X116000D01*
X115500D02*Y191000D01*
X115000D02*X116000D01*
X117200Y194500D02*X117700Y195000D01*
X119200D01*
X119700Y194500D01*
Y193500D01*
X117200Y191000D02*X119700Y193500D01*
X117200Y191000D02*X119700D01*
X121400D02*X122900D01*
X120900Y191500D02*X121400Y191000D01*
X120900Y194500D02*Y191500D01*
Y194500D02*X121400Y195000D01*
X122900D01*
X126400D02*Y191000D01*
X125900Y195000D02*X127900D01*
X128400Y194500D01*
Y193500D01*
X127900Y193000D02*X128400Y193500D01*
X126400Y193000D02*X127900D01*
X129600D02*Y191500D01*
X130100Y191000D01*
X131100D01*
X131600Y191500D01*
Y193000D02*Y191500D01*
X132800Y195000D02*Y191500D01*
X133300Y191000D01*
X134300Y195000D02*Y191500D01*
X134800Y191000D01*
X135800Y193000D02*Y191500D01*
X136300Y191000D01*
X137300D01*
X137800Y191500D01*
Y193000D02*Y191500D01*
X139500Y192500D02*Y189500D01*
X139000Y193000D02*X139500Y192500D01*
X140000Y193000D01*
X141000D01*
X141500Y192500D01*
Y191500D01*
X141000Y191000D02*X141500Y191500D01*
X140000Y191000D02*X141000D01*
X139500Y191500D02*X140000Y191000D01*
X102500Y202000D02*X104000D01*
Y198500D01*
X103500Y198000D02*X104000Y198500D01*
X103000Y198000D02*X103500D01*
X102500Y198500D02*X103000Y198000D01*
X105700Y202000D02*Y198000D01*
X105200Y202000D02*X107200D01*
X107700Y201500D01*
Y200500D01*
X107200Y200000D02*X107700Y200500D01*
X105700Y200000D02*X107200D01*
X109400Y198000D02*X110400D01*
X109900Y202000D02*Y198000D01*
X108900Y201000D02*X109900Y202000D01*
X111600Y201500D02*Y198000D01*
Y201500D02*X112100Y202000D01*
X113600D01*
X114100Y201500D01*
Y198000D01*
X111600Y200000D02*X114100D01*
X115300Y198500D02*X118300Y201500D01*
X119500Y198000D02*X121500D01*
X122000Y198500D01*
Y199500D02*Y198500D01*
X121500Y200000D02*X122000Y199500D01*
X120000Y200000D02*X121500D01*
X120000Y202000D02*Y198000D01*
X119500Y202000D02*X121500D01*
X122000Y201500D01*
Y200500D01*
X121500Y200000D02*X122000Y200500D01*
X125000Y200000D02*X126500D01*
X125000Y198000D02*X127000D01*
X125000Y202000D02*Y198000D01*
Y202000D02*X127000D01*
X128700Y199500D02*Y198000D01*
Y199500D02*X129200Y200000D01*
X129700D01*
X130200Y199500D01*
Y198000D01*
X128200Y200000D02*X128700Y199500D01*
X132900Y200000D02*X133400Y199500D01*
X131900Y200000D02*X132900D01*
X131400Y199500D02*X131900Y200000D01*
X131400Y199500D02*Y198500D01*
X131900Y198000D01*
X133400Y200000D02*Y198500D01*
X133900Y198000D01*
X131900D02*X132900D01*
X133400Y198500D01*
X135100Y202000D02*Y198000D01*
Y198500D02*X135600Y198000D01*
X136600D01*
X137100Y198500D01*
Y199500D02*Y198500D01*
X136600Y200000D02*X137100Y199500D01*
X135600Y200000D02*X136600D01*
X135100Y199500D02*X135600Y200000D01*
X138300Y202000D02*Y198500D01*
X138800Y198000D01*
X140300D02*X141800D01*
X139800Y198500D02*X140300Y198000D01*
X139800Y199500D02*Y198500D01*
Y199500D02*X140300Y200000D01*
X141300D01*
X141800Y199500D01*
X139800Y199000D02*X141800D01*
Y199500D02*Y199000D01*
X185500Y52000D02*Y48000D01*
X187000Y52000D02*X187500Y51500D01*
Y48500D01*
X187000Y48000D02*X187500Y48500D01*
X185000Y48000D02*X187000D01*
X185000Y52000D02*X187000D01*
X188700Y51500D02*X189200Y52000D01*
X190200D01*
X190700Y51500D01*
Y48500D01*
X190200Y48000D02*X190700Y48500D01*
X189200Y48000D02*X190200D01*
X188700Y48500D02*X189200Y48000D01*
Y50000D02*X190700D01*
X185500Y62000D02*Y58000D01*
X187000Y62000D02*X187500Y61500D01*
Y58500D01*
X187000Y58000D02*X187500Y58500D01*
X185000Y58000D02*X187000D01*
X185000Y62000D02*X187000D01*
X188700Y60000D02*X190700Y62000D01*
X188700Y60000D02*X191200D01*
X190700Y62000D02*Y58000D01*
X185500Y42000D02*Y38000D01*
X187000Y42000D02*X187500Y41500D01*
Y38500D01*
X187000Y38000D02*X187500Y38500D01*
X185000Y38000D02*X187000D01*
X185000Y42000D02*X187000D01*
X188700Y41500D02*X189200Y42000D01*
X190700D01*
X191200Y41500D01*
Y40500D01*
X188700Y38000D02*X191200Y40500D01*
X188700Y38000D02*X191200D01*
X174000Y22000D02*X176000D01*
X176500Y21500D01*
Y20500D01*
X176000Y20000D02*X176500Y20500D01*
X174500Y20000D02*X176000D01*
X174500Y22000D02*Y18000D01*
Y20000D02*X176500Y18000D01*
X177700Y22000D02*Y21500D01*
X180200Y19000D01*
Y18000D01*
X177700Y19000D02*Y18000D01*
Y19000D02*X180200Y21500D01*
Y22000D02*Y21500D01*
X181400Y18500D02*X184400Y21500D01*
X186100Y22000D02*Y18000D01*
X187600Y22000D02*X188100Y21500D01*
Y18500D01*
X187600Y18000D02*X188100Y18500D01*
X185600Y18000D02*X187600D01*
X185600Y22000D02*X187600D01*
X189300Y18500D02*X189800Y18000D01*
X189300Y21500D02*Y18500D01*
Y21500D02*X189800Y22000D01*
X190800D01*
X191300Y21500D01*
Y18500D01*
X190800Y18000D02*X191300Y18500D01*
X189800Y18000D02*X190800D01*
X189300Y19000D02*X191300Y21000D01*
X175000Y32000D02*X177000D01*
X176000D02*Y28000D01*
X178200Y32000D02*Y31500D01*
X180700Y29000D01*
Y28000D01*
X178200Y29000D02*Y28000D01*
Y29000D02*X180700Y31500D01*
Y32000D02*Y31500D01*
X181900Y28500D02*X184900Y31500D01*
X186600Y32000D02*Y28000D01*
X188100Y32000D02*X188600Y31500D01*
Y28500D01*
X188100Y28000D02*X188600Y28500D01*
X186100Y28000D02*X188100D01*
X186100Y32000D02*X188100D01*
X190300Y28000D02*X191300D01*
X190800Y32000D02*Y28000D01*
X189800Y31000D02*X190800Y32000D01*
X185500Y92000D02*Y88000D01*
X187000Y92000D02*X187500Y91500D01*
Y88500D01*
X187000Y88000D02*X187500Y88500D01*
X185000Y88000D02*X187000D01*
X185000Y92000D02*X187000D01*
X188700Y88000D02*X191200Y90500D01*
Y92000D02*Y90500D01*
X188700Y92000D02*X191200D01*
X96000Y83500D02*Y80000D01*
Y83500D02*X96500Y84000D01*
X98000D01*
X98500Y83500D01*
Y80000D01*
X96000Y82000D02*X98500D01*
X99700Y84000D02*X101700D01*
X102200Y83500D01*
Y82500D01*
X101700Y82000D02*X102200Y82500D01*
X100200Y82000D02*X101700D01*
X100200Y84000D02*Y80000D01*
Y82000D02*X102200Y80000D01*
X103900Y84000D02*Y80000D01*
X105400Y84000D02*X105900Y83500D01*
Y80500D01*
X105400Y80000D02*X105900Y80500D01*
X103400Y80000D02*X105400D01*
X103400Y84000D02*X105400D01*
X107100Y82000D02*X109100D01*
X110300Y84000D02*Y80000D01*
X112300D01*
X113500Y84000D02*X115500D01*
X114500D02*Y80000D01*
X117200D02*X118700D01*
X116700Y80500D02*X117200Y80000D01*
X116700Y83500D02*Y80500D01*
Y83500D02*X117200Y84000D01*
X118700D01*
X120400Y80000D02*X121400D01*
X120900Y84000D02*Y80000D01*
X119900Y83000D02*X120900Y84000D01*
X122600Y80500D02*X123100Y80000D01*
X122600Y81500D02*Y80500D01*
Y81500D02*X123100Y82000D01*
X124100D01*
X124600Y81500D01*
Y80500D01*
X124100Y80000D02*X124600Y80500D01*
X123100Y80000D02*X124100D01*
X122600Y82500D02*X123100Y82000D01*
X122600Y83500D02*Y82500D01*
Y83500D02*X123100Y84000D01*
X124100D01*
X124600Y83500D01*
Y82500D01*
X124100Y82000D02*X124600Y82500D01*
X127300Y84000D02*X127800Y83500D01*
X126300Y84000D02*X127300D01*
X125800Y83500D02*X126300Y84000D01*
X125800Y83500D02*Y80500D01*
X126300Y80000D01*
X127300Y82000D02*X127800Y81500D01*
X125800Y82000D02*X127300D01*
X126300Y80000D02*X127300D01*
X127800Y80500D01*
Y81500D02*Y80500D01*
X129000Y83500D02*X129500Y84000D01*
X130500D01*
X131000Y83500D01*
Y80500D01*
X130500Y80000D02*X131000Y80500D01*
X129500Y80000D02*X130500D01*
X129000Y80500D02*X129500Y80000D01*
Y82000D02*X131000D01*
X134000D02*Y81000D01*
X135000Y80000D01*
X136000Y81000D01*
Y82000D02*Y81000D01*
X137700Y80000D02*X138700D01*
X138200Y84000D02*Y80000D01*
X137200Y83000D02*X138200Y84000D01*
X139900Y80000D02*X140400D01*
X141600Y80500D02*X142100Y80000D01*
X141600Y83500D02*Y80500D01*
Y83500D02*X142100Y84000D01*
X143100D01*
X143600Y83500D01*
Y80500D01*
X143100Y80000D02*X143600Y80500D01*
X142100Y80000D02*X143100D01*
X141600Y81000D02*X143600Y83000D01*
X96000Y76500D02*X97000D01*
X96500D02*Y72500D01*
X96000D02*X97000D01*
X98200Y74000D02*Y73000D01*
Y74000D02*X98700Y74500D01*
X99700D01*
X100200Y74000D01*
Y73000D01*
X99700Y72500D02*X100200Y73000D01*
X98700Y72500D02*X99700D01*
X98200Y73000D02*X98700Y72500D01*
X101400Y74500D02*Y73000D01*
X101900Y72500D01*
X102400D01*
X102900Y73000D01*
Y74500D02*Y73000D01*
X103400Y72500D01*
X103900D01*
X104400Y73000D01*
Y74500D02*Y73000D01*
X107100Y74500D02*X107600Y74000D01*
X106100Y74500D02*X107100D01*
X105600Y74000D02*X106100Y74500D01*
X105600Y74000D02*Y73000D01*
X106100Y72500D01*
X107600Y74500D02*Y73000D01*
X108100Y72500D01*
X106100D02*X107100D01*
X107600Y73000D01*
X113100Y76500D02*X113600Y76000D01*
X111600Y76500D02*X113100D01*
X111100Y76000D02*X111600Y76500D01*
X111100Y76000D02*Y75000D01*
X111600Y74500D01*
X113100D01*
X113600Y74000D01*
Y73000D01*
X113100Y72500D02*X113600Y73000D01*
X111600Y72500D02*X113100D01*
X111100Y73000D02*X111600Y72500D01*
X115300Y74500D02*X116800D01*
X114800Y74000D02*X115300Y74500D01*
X114800Y74000D02*Y73000D01*
X115300Y72500D01*
X116800D01*
X119500Y74500D02*X120000Y74000D01*
X118500Y74500D02*X119500D01*
X118000Y74000D02*X118500Y74500D01*
X118000Y74000D02*Y73000D01*
X118500Y72500D01*
X120000Y74500D02*Y73000D01*
X120500Y72500D01*
X118500D02*X119500D01*
X120000Y73000D01*
X121700Y76500D02*Y73000D01*
X122200Y72500D01*
X123700D02*X125200D01*
X123200Y73000D02*X123700Y72500D01*
X123200Y74000D02*Y73000D01*
Y74000D02*X123700Y74500D01*
X124700D01*
X125200Y74000D01*
X123200Y73500D02*X125200D01*
Y74000D02*Y73500D01*
X128400Y76500D02*Y72500D01*
X127900D02*X128400Y73000D01*
X126900Y72500D02*X127900D01*
X126400Y73000D02*X126900Y72500D01*
X126400Y74000D02*Y73000D01*
Y74000D02*X126900Y74500D01*
X127900D01*
X128400Y74000D01*
X131400Y74500D02*X132900D01*
X131400Y72500D02*X133400D01*
X131400Y76500D02*Y72500D01*
Y76500D02*X133400D01*
X135100Y74000D02*Y72500D01*
Y74000D02*X135600Y74500D01*
X136100D01*
X136600Y74000D01*
Y72500D01*
X134600Y74500D02*X135100Y74000D01*
X139300Y74500D02*X139800Y74000D01*
X138300Y74500D02*X139300D01*
X137800Y74000D02*X138300Y74500D01*
X137800Y74000D02*Y73000D01*
X138300Y72500D01*
X139300D01*
X139800Y73000D01*
X137800Y71500D02*X138300Y71000D01*
X139300D01*
X139800Y71500D01*
Y74500D02*Y71500D01*
X141000Y75500D02*Y75000D01*
Y74000D02*Y72500D01*
X142500Y74000D02*Y72500D01*
Y74000D02*X143000Y74500D01*
X143500D01*
X144000Y74000D01*
Y72500D01*
X142000Y74500D02*X142500Y74000D01*
X145700Y72500D02*X147200D01*
X145200Y73000D02*X145700Y72500D01*
X145200Y74000D02*Y73000D01*
Y74000D02*X145700Y74500D01*
X146700D01*
X147200Y74000D01*
X145200Y73500D02*X147200D01*
Y74000D02*Y73500D01*
X148900Y72500D02*X150400D01*
X148400Y73000D02*X148900Y72500D01*
X148400Y74000D02*Y73000D01*
Y74000D02*X148900Y74500D01*
X149900D01*
X150400Y74000D01*
X148400Y73500D02*X150400D01*
Y74000D02*Y73500D01*
X152100Y74000D02*Y72500D01*
Y74000D02*X152600Y74500D01*
X153600D01*
X151600D02*X152100Y74000D01*
X154800Y75500D02*Y75000D01*
Y74000D02*Y72500D01*
X156300Y74000D02*Y72500D01*
Y74000D02*X156800Y74500D01*
X157300D01*
X157800Y74000D01*
Y72500D01*
X155800Y74500D02*X156300Y74000D01*
X160500Y74500D02*X161000Y74000D01*
X159500Y74500D02*X160500D01*
X159000Y74000D02*X159500Y74500D01*
X159000Y74000D02*Y73000D01*
X159500Y72500D01*
X160500D01*
X161000Y73000D01*
X159000Y71500D02*X159500Y71000D01*
X160500D01*
X161000Y71500D01*
Y74500D02*Y71500D01*
X96000Y69000D02*Y65000D01*
Y66500D02*X96500Y67000D01*
X97500D01*
X98000Y66500D01*
Y65000D01*
X99700Y69000D02*Y65500D01*
X100200Y65000D01*
X99200Y67500D02*X100200D01*
X101700Y69000D02*Y65500D01*
X102200Y65000D01*
X101200Y67500D02*X102200D01*
X103700Y66500D02*Y63500D01*
X103200Y67000D02*X103700Y66500D01*
X104200Y67000D01*
X105200D01*
X105700Y66500D01*
Y65500D01*
X105200Y65000D02*X105700Y65500D01*
X104200Y65000D02*X105200D01*
X103700Y65500D02*X104200Y65000D01*
X106900Y67500D02*X107400D01*
X106900Y66500D02*X107400D01*
X108600Y65500D02*X111600Y68500D01*
X112800Y65500D02*X115800Y68500D01*
X117000Y67000D02*Y65500D01*
X117500Y65000D01*
X118000D01*
X118500Y65500D01*
Y67000D02*Y65500D01*
X119000Y65000D01*
X119500D01*
X120000Y65500D01*
Y67000D02*Y65500D01*
X121200Y67000D02*Y65500D01*
X121700Y65000D01*
X122200D01*
X122700Y65500D01*
Y67000D02*Y65500D01*
X123200Y65000D01*
X123700D01*
X124200Y65500D01*
Y67000D02*Y65500D01*
X125400Y67000D02*Y65500D01*
X125900Y65000D01*
X126400D01*
X126900Y65500D01*
Y67000D02*Y65500D01*
X127400Y65000D01*
X127900D01*
X128400Y65500D01*
Y67000D02*Y65500D01*
X129600Y65000D02*X130100D01*
X131300Y68000D02*Y67500D01*
Y66500D02*Y65000D01*
X133800Y67000D02*X134300Y66500D01*
X132800Y67000D02*X133800D01*
X132300Y66500D02*X132800Y67000D01*
X132300Y66500D02*Y65500D01*
X132800Y65000D01*
X134300Y67000D02*Y65500D01*
X134800Y65000D01*
X132800D02*X133800D01*
X134300Y65500D01*
X136500Y65000D02*X138000D01*
X138500Y65500D01*
X138000Y66000D02*X138500Y65500D01*
X136500Y66000D02*X138000D01*
X136000Y66500D02*X136500Y66000D01*
X136000Y66500D02*X136500Y67000D01*
X138000D01*
X138500Y66500D01*
X136000Y65500D02*X136500Y65000D01*
X140200Y67000D02*X141700D01*
X139700Y66500D02*X140200Y67000D01*
X139700Y66500D02*Y65500D01*
X140200Y65000D01*
X141700D01*
X144400Y67000D02*X144900Y66500D01*
X143400Y67000D02*X144400D01*
X142900Y66500D02*X143400Y67000D01*
X142900Y66500D02*Y65500D01*
X143400Y65000D01*
X144900Y67000D02*Y65500D01*
X145400Y65000D01*
X143400D02*X144400D01*
X144900Y65500D01*
X146600Y69000D02*Y65500D01*
X147100Y65000D01*
X148600D02*X150100D01*
X148100Y65500D02*X148600Y65000D01*
X148100Y66500D02*Y65500D01*
Y66500D02*X148600Y67000D01*
X149600D01*
X150100Y66500D01*
X148100Y66000D02*X150100D01*
Y66500D02*Y66000D01*
X153300Y69000D02*Y65000D01*
X152800D02*X153300Y65500D01*
X151800Y65000D02*X152800D01*
X151300Y65500D02*X151800Y65000D01*
X151300Y66500D02*Y65500D01*
Y66500D02*X151800Y67000D01*
X152800D01*
X153300Y66500D01*
X154500Y65000D02*X155000D01*
X156700Y67000D02*X158200D01*
X156200Y66500D02*X156700Y67000D01*
X156200Y66500D02*Y65500D01*
X156700Y65000D01*
X158200D01*
X159400Y66500D02*Y65500D01*
Y66500D02*X159900Y67000D01*
X160900D01*
X161400Y66500D01*
Y65500D01*
X160900Y65000D02*X161400Y65500D01*
X159900Y65000D02*X160900D01*
X159400Y65500D02*X159900Y65000D01*
X163100Y66500D02*Y65000D01*
Y66500D02*X163600Y67000D01*
X164100D01*
X164600Y66500D01*
Y65000D01*
Y66500D02*X165100Y67000D01*
X165600D01*
X166100Y66500D01*
Y65000D01*
X162600Y67000D02*X163100Y66500D01*
X96500Y57500D02*X98000D01*
X96000Y58000D02*X96500Y57500D01*
X96000Y61000D02*Y58000D01*
Y61000D02*X96500Y61500D01*
X98000D01*
X99700Y57500D02*X101200D01*
X99200Y58000D02*X99700Y57500D01*
X99200Y61000D02*Y58000D01*
Y61000D02*X99700Y61500D01*
X101200D01*
X104200Y57500D02*X106200D01*
X106700Y58000D01*
Y59000D02*Y58000D01*
X106200Y59500D02*X106700Y59000D01*
X104700Y59500D02*X106200D01*
X104700Y61500D02*Y57500D01*
X104200Y61500D02*X106200D01*
X106700Y61000D01*
Y60000D01*
X106200Y59500D02*X106700Y60000D01*
X107900Y61500D02*Y61000D01*
X108900Y60000D01*
X109900Y61000D01*
Y61500D02*Y61000D01*
X108900Y60000D02*Y57500D01*
X111100Y59500D02*X113100D01*
X116300Y61500D02*X116800Y61000D01*
X114800Y61500D02*X116300D01*
X114300Y61000D02*X114800Y61500D01*
X114300Y61000D02*Y60000D01*
X114800Y59500D01*
X116300D01*
X116800Y59000D01*
Y58000D01*
X116300Y57500D02*X116800Y58000D01*
X114800Y57500D02*X116300D01*
X114300Y58000D02*X114800Y57500D01*
X118000Y61000D02*Y57500D01*
Y61000D02*X118500Y61500D01*
X120000D01*
X120500Y61000D01*
Y57500D01*
X118000Y59500D02*X120500D01*
X123500Y58000D02*X124000Y57500D01*
X123500Y61000D02*X124000Y61500D01*
X123500Y61000D02*Y58000D01*
X125700Y57500D02*X127200D01*
X125200Y58000D02*X125700Y57500D01*
X125200Y61000D02*Y58000D01*
Y61000D02*X125700Y61500D01*
X127200D01*
X128400D02*X128900Y61000D01*
Y58000D01*
X128400Y57500D02*X128900Y58000D01*
X130100Y61000D02*X130600Y61500D01*
X132100D01*
X132600Y61000D01*
Y60000D01*
X130100Y57500D02*X132600Y60000D01*
X130100Y57500D02*X132600D01*
X133800Y58000D02*X134300Y57500D01*
X133800Y61000D02*Y58000D01*
Y61000D02*X134300Y61500D01*
X135300D01*
X135800Y61000D01*
Y58000D01*
X135300Y57500D02*X135800Y58000D01*
X134300Y57500D02*X135300D01*
X133800Y58500D02*X135800Y60500D01*
X137500Y57500D02*X138500D01*
X138000Y61500D02*Y57500D01*
X137000Y60500D02*X138000Y61500D01*
X139700Y61000D02*X140200Y61500D01*
X141200D01*
X141700Y61000D01*
Y58000D01*
X141200Y57500D02*X141700Y58000D01*
X140200Y57500D02*X141200D01*
X139700Y58000D02*X140200Y57500D01*
Y59500D02*X141700D01*
X185500Y82000D02*Y78000D01*
X187000Y82000D02*X187500Y81500D01*
Y78500D01*
X187000Y78000D02*X187500Y78500D01*
X185000Y78000D02*X187000D01*
X185000Y82000D02*X187000D01*
X190200D02*X190700Y81500D01*
X189200Y82000D02*X190200D01*
X188700Y81500D02*X189200Y82000D01*
X188700Y81500D02*Y78500D01*
X189200Y78000D01*
X190200Y80000D02*X190700Y79500D01*
X188700Y80000D02*X190200D01*
X189200Y78000D02*X190200D01*
X190700Y78500D01*
Y79500D02*Y78500D01*
X185500Y72000D02*Y68000D01*
X187000Y72000D02*X187500Y71500D01*
Y68500D01*
X187000Y68000D02*X187500Y68500D01*
X185000Y68000D02*X187000D01*
X185000Y72000D02*X187000D01*
X188700D02*X190700D01*
X188700D02*Y70000D01*
X189200Y70500D01*
X190200D01*
X190700Y70000D01*
Y68500D01*
X190200Y68000D02*X190700Y68500D01*
X189200Y68000D02*X190200D01*
X188700Y68500D02*X189200Y68000D01*
X171000Y256600D02*X172000D01*
X171500D02*Y252600D01*
X171000D02*X172000D01*
X173200Y256100D02*X173700Y256600D01*
X175200D01*
X175700Y256100D01*
Y255100D01*
X173200Y252600D02*X175700Y255100D01*
X173200Y252600D02*X175700D01*
X177400D02*X178900D01*
X176900Y253100D02*X177400Y252600D01*
X176900Y256100D02*Y253100D01*
Y256100D02*X177400Y256600D01*
X178900D01*
X181900Y254100D02*Y253100D01*
Y254100D02*X182400Y254600D01*
X183400D01*
X183900Y254100D01*
Y253100D01*
X183400Y252600D02*X183900Y253100D01*
X182400Y252600D02*X183400D01*
X181900Y253100D02*X182400Y252600D01*
X185600Y254100D02*Y252600D01*
Y254100D02*X186100Y254600D01*
X186600D01*
X187100Y254100D01*
Y252600D01*
X185100Y254600D02*X185600Y254100D01*
X171000Y250100D02*Y246600D01*
Y250100D02*X171500Y250600D01*
X173000D01*
X173500Y250100D01*
Y246600D01*
X171000Y248600D02*X173500D01*
X174700D02*X176700Y250600D01*
X174700Y248600D02*X177200D01*
X176700Y250600D02*Y246600D01*
X178400Y247100D02*X181400Y250100D01*
X182600D02*Y246600D01*
Y250100D02*X183100Y250600D01*
X184600D01*
X185100Y250100D01*
Y246600D01*
X182600Y248600D02*X185100D01*
X186300Y250600D02*X188300D01*
X186300D02*Y248600D01*
X186800Y249100D01*
X187800D01*
X188300Y248600D01*
Y247100D01*
X187800Y246600D02*X188300Y247100D01*
X186800Y246600D02*X187800D01*
X186300Y247100D02*X186800Y246600D01*
X171000Y242600D02*X172000D01*
X171500D02*Y238600D01*
X171000D02*X172000D01*
X173200Y242100D02*X173700Y242600D01*
X175200D01*
X175700Y242100D01*
Y241100D01*
X173200Y238600D02*X175700Y241100D01*
X173200Y238600D02*X175700D01*
X177400D02*X178900D01*
X176900Y239100D02*X177400Y238600D01*
X176900Y242100D02*Y239100D01*
Y242100D02*X177400Y242600D01*
X178900D01*
X181900Y240100D02*Y239100D01*
Y240100D02*X182400Y240600D01*
X183400D01*
X183900Y240100D01*
Y239100D01*
X183400Y238600D02*X183900Y239100D01*
X182400Y238600D02*X183400D01*
X181900Y239100D02*X182400Y238600D01*
X185600Y240100D02*Y238600D01*
Y240100D02*X186100Y240600D01*
X186600D01*
X187100Y240100D01*
Y238600D01*
X185100Y240600D02*X185600Y240100D01*
X173000Y236600D02*X173500Y236100D01*
X171500Y236600D02*X173000D01*
X171000Y236100D02*X171500Y236600D01*
X171000Y236100D02*Y235100D01*
X171500Y234600D01*
X173000D01*
X173500Y234100D01*
Y233100D01*
X173000Y232600D02*X173500Y233100D01*
X171500Y232600D02*X173000D01*
X171000Y233100D02*X171500Y232600D01*
X175200Y236600D02*Y232600D01*
X176700Y236600D02*X177200Y236100D01*
Y233100D01*
X176700Y232600D02*X177200Y233100D01*
X174700Y232600D02*X176700D01*
X174700Y236600D02*X176700D01*
X178400Y236100D02*Y232600D01*
Y236100D02*X178900Y236600D01*
X180400D01*
X180900Y236100D01*
Y232600D01*
X178400Y234600D02*X180900D01*
X182100Y233100D02*X185100Y236100D01*
X188300Y236600D02*X188800Y236100D01*
X186800Y236600D02*X188300D01*
X186300Y236100D02*X186800Y236600D01*
X186300Y236100D02*Y235100D01*
X186800Y234600D01*
X188300D01*
X188800Y234100D01*
Y233100D01*
X188300Y232600D02*X188800Y233100D01*
X186800Y232600D02*X188300D01*
X186300Y233100D02*X186800Y232600D01*
X190500D02*X192000D01*
X190000Y233100D02*X190500Y232600D01*
X190000Y236100D02*Y233100D01*
Y236100D02*X190500Y236600D01*
X192000D01*
X193200D02*Y232600D01*
X195200D01*
X156000Y263600D02*X157500D01*
Y260100D01*
X157000Y259600D02*X157500Y260100D01*
X156500Y259600D02*X157000D01*
X156000Y260100D02*X156500Y259600D01*
X159200Y263600D02*Y259600D01*
X158700Y263600D02*X160700D01*
X161200Y263100D01*
Y262100D01*
X160700Y261600D02*X161200Y262100D01*
X159200Y261600D02*X160700D01*
X162400Y263100D02*X162900Y263600D01*
X164400D01*
X164900Y263100D01*
Y262100D01*
X162400Y259600D02*X164900Y262100D01*
X162400Y259600D02*X164900D01*
X167900Y263600D02*Y260100D01*
X168400Y259600D01*
X169400D01*
X169900Y260100D01*
Y263600D02*Y260100D01*
X171600Y259600D02*X173100D01*
X173600Y260100D01*
X173100Y260600D02*X173600Y260100D01*
X171600Y260600D02*X173100D01*
X171100Y261100D02*X171600Y260600D01*
X171100Y261100D02*X171600Y261600D01*
X173100D01*
X173600Y261100D01*
X171100Y260100D02*X171600Y259600D01*
X176300Y261600D02*X176800Y261100D01*
X175300Y261600D02*X176300D01*
X174800Y261100D02*X175300Y261600D01*
X174800Y261100D02*Y260100D01*
X175300Y259600D01*
X176800Y261600D02*Y260100D01*
X177300Y259600D01*
X175300D02*X176300D01*
X176800Y260100D01*
X180000Y261600D02*X180500Y261100D01*
X179000Y261600D02*X180000D01*
X178500Y261100D02*X179000Y261600D01*
X178500Y261100D02*Y260100D01*
X179000Y259600D01*
X180000D01*
X180500Y260100D01*
X178500Y258600D02*X179000Y258100D01*
X180000D01*
X180500Y258600D01*
Y261600D02*Y258600D01*
X182200Y259600D02*X183700D01*
X181700Y260100D02*X182200Y259600D01*
X181700Y261100D02*Y260100D01*
Y261100D02*X182200Y261600D01*
X183200D01*
X183700Y261100D01*
X181700Y260600D02*X183700D01*
Y261100D02*Y260600D01*
X184900Y262100D02*X185400D01*
X184900Y261100D02*X185400D01*
X32500Y266500D02*X30000Y264000D01*
Y262500D01*
X32500D01*
X41000D02*X40500Y263000D01*
X41000Y262500D02*X42000D01*
X42500Y263000D02*X42000Y262500D01*
X42500Y266000D02*Y263000D01*
Y266000D02*X42000Y266500D01*
X41000Y264500D02*X40500Y265000D01*
X41000Y264500D02*X42500D01*
X41000Y266500D02*X42000D01*
X41000D02*X40500Y266000D01*
Y265000D01*
X50500Y262500D02*X52500D01*
Y264500D02*Y262500D01*
Y264500D02*X52000Y264000D01*
X51000D02*X52000D01*
X51000D02*X50500Y264500D01*
Y266000D02*Y264500D01*
X51000Y266500D02*X50500Y266000D01*
X51000Y266500D02*X52000D01*
X52500Y266000D02*X52000Y266500D01*
X63000Y264500D02*X61000Y262500D01*
X60500Y264500D02*X63000D01*
X61000Y266500D02*Y262500D01*
X72500Y263000D02*X72000Y262500D01*
X71000D02*X72000D01*
X71000D02*X70500Y263000D01*
Y266000D02*Y263000D01*
X71000Y266500D02*X70500Y266000D01*
X71000Y266500D02*X72000D01*
X72500Y266000D02*X72000Y266500D01*
X70500Y264500D02*X72000D01*
X83000Y263000D02*X82500Y262500D01*
X81000D02*X82500D01*
X81000D02*X80500Y263000D01*
Y264000D02*Y263000D01*
X83000Y266500D02*X80500Y264000D01*
Y266500D02*X83000D01*
X91000D02*X92000D01*
X91500D02*Y262500D01*
X92500Y263500D02*X91500Y262500D01*
X102500Y266000D02*X102000Y266500D01*
X102500Y266000D02*Y263000D01*
X102000Y262500D01*
X101000D02*X102000D01*
X101000D02*X100500Y263000D01*
Y266000D02*Y263000D01*
X101000Y266500D02*X100500Y266000D01*
X101000Y266500D02*X102000D01*
X102500Y265500D02*X100500Y263500D01*
X167500Y167900D02*Y154000D01*
X155700Y167900D02*X167500D01*
X155700D02*Y154000D01*
X167500D01*
X146500Y181000D02*X176500D01*
Y201000D02*Y181000D01*
X146500Y201000D02*X176500D01*
X146500D02*Y181000D01*
X156500Y191000D02*Y181000D01*
X146500Y191000D02*X156500D01*
X166500Y226000D02*Y206000D01*
X176500D01*
Y226000D02*Y206000D01*
X166500Y226000D02*X176500D01*
X166500Y216000D02*X176500D01*
Y226000D02*Y216000D01*
X146500Y226000D02*Y206000D01*
X156500D01*
Y226000D02*Y206000D01*
X146500Y226000D02*X156500D01*
X146500Y216000D02*X156500D01*
Y226000D02*Y216000D01*
X172745Y161393D02*Y160607D01*
X178255Y161393D02*Y160607D01*
X205000Y95000D02*Y15000D01*
X195000Y95000D02*X205000D01*
X195000D02*Y15000D01*
X205000D01*
X195000Y25000D02*X205000D01*
X195000D02*Y15000D01*
X205000Y201000D02*Y101000D01*
X195000Y201000D02*X205000D01*
X195000D02*Y101000D01*
X205000D01*
X195000Y111000D02*X205000D01*
X195000D02*Y101000D01*
X134521Y218745D02*X135307D01*
X134521Y224255D02*X135307D01*
X134564Y207745D02*X135350D01*
X134564Y213255D02*X135350D01*
X162150Y117745D02*X162936D01*
X162150Y123255D02*X162936D01*
X157500Y149000D02*Y129000D01*
X167500D01*
Y149000D01*
X157500D01*
Y139000D02*X167500D01*
Y149000D01*
X142500D02*Y129000D01*
X152500D01*
Y149000D01*
X142500D01*
Y139000D02*X152500D01*
Y149000D01*
X147107Y123255D02*X147893D01*
X147107Y117745D02*X147893D01*
X5000Y165000D02*Y85000D01*
X15000D01*
Y165000D01*
X5000D01*
Y155000D02*X15000D01*
Y165000D01*
X5000Y75000D02*Y15000D01*
X15000D01*
Y75000D01*
X5000D01*
Y65000D02*X15000D01*
Y75000D01*
X32245Y115350D02*Y114564D01*
X37755Y115350D02*Y114564D01*
Y95393D02*Y94607D01*
X32245Y95393D02*Y94607D01*
X42000Y113500D02*X72000D01*
Y123500D02*Y113500D01*
X42000Y123500D02*X72000D01*
X42000D02*Y113500D01*
X52000Y123500D02*Y113500D01*
X42000Y123500D02*X52000D01*
X60250Y88485D02*Y77855D01*
X41750Y88485D02*Y77855D01*
X57000D02*X60250D01*
X41750D02*X45000D01*
X60071Y88485D02*X60250D01*
X41750D02*X41929D01*
X94803Y24449D02*X124803D01*
X94803D02*Y4449D01*
X124803D01*
Y24449D02*Y4449D01*
X114803Y24449D02*Y14449D01*
X124803D01*
X96107Y148745D02*X96893D01*
X96107Y154255D02*X96893D01*
X53607Y99245D02*X54393D01*
X53607Y104755D02*X54393D01*
G54D61*X68100Y151300D02*Y142700D01*
G54D60*Y151300D02*X65700Y152500D01*
X49900D02*X65700D01*
X49900D02*Y141500D01*
X65700D01*
X68100Y142700D01*
G54D61*X106100Y141800D02*Y133200D01*
G54D60*Y141800D02*X103700Y143000D01*
X87900D02*X103700D01*
X87900D02*Y132000D01*
X103700D01*
X106100Y133200D01*
X107500Y259500D02*Y234000D01*
X25500Y259500D02*Y234000D01*
X107500D01*
X25500Y236000D02*X107500D01*
X25500Y259500D02*X107500D01*
X58107Y169245D02*X58893D01*
X58107Y174755D02*X58893D01*
G54D61*X68100Y190300D02*Y181700D01*
G54D60*Y190300D02*X65700Y191500D01*
X49900D02*X65700D01*
X49900D02*Y180500D01*
X65700D01*
X68100Y181700D01*
X72000Y178500D02*X92000D01*
Y174000D01*
Y169000D02*Y164500D01*
X72000D02*X92000D01*
X72000Y178500D02*Y164500D01*
X92000Y174000D02*G75*G03X92000Y169000I0J-2500D01*G01*
X58107Y158245D02*X58893D01*
X58107Y163755D02*X58893D01*
X8000Y172000D02*X9500D01*
Y168500D01*
X9000Y168000D02*X9500Y168500D01*
X8500Y168000D02*X9000D01*
X8000Y168500D02*X8500Y168000D01*
X11200D02*X12200D01*
X11700Y172000D02*Y168000D01*
X10700Y171000D02*X11700Y172000D01*
X32893Y102650D02*X34393D01*
X32393Y103150D02*X32893Y102650D01*
X32393Y106150D02*Y103150D01*
Y106150D02*X32893Y106650D01*
X34393D01*
X35593Y106150D02*X36093Y106650D01*
X37593D01*
X38093Y106150D01*
Y105150D01*
X35593Y102650D02*X38093Y105150D01*
X35593Y102650D02*X38093D01*
X38505Y75500D02*Y72000D01*
X39005Y71500D01*
X40005D01*
X40505Y72000D01*
Y75500D02*Y72000D01*
X41705Y75000D02*X42205Y75500D01*
X43205D01*
X43705Y75000D01*
Y72000D01*
X43205Y71500D02*X43705Y72000D01*
X42205Y71500D02*X43205D01*
X41705Y72000D02*X42205Y71500D01*
Y73500D02*X43705D01*
X87697Y16551D02*X89197D01*
Y13051D01*
X88697Y12551D02*X89197Y13051D01*
X88197Y12551D02*X88697D01*
X87697Y13051D02*X88197Y12551D01*
X90397Y16051D02*X90897Y16551D01*
X91897D01*
X92397Y16051D01*
Y13051D01*
X91897Y12551D02*X92397Y13051D01*
X90897Y12551D02*X91897D01*
X90397Y13051D02*X90897Y12551D01*
Y14551D02*X92397D01*
X33307Y122650D02*X34807D01*
X32807Y123150D02*X33307Y122650D01*
X32807Y126150D02*Y123150D01*
Y126150D02*X33307Y126650D01*
X34807D01*
X36507Y122650D02*X37507D01*
X37007Y126650D02*Y122650D01*
X36007Y125650D02*X37007Y126650D01*
X185500Y206500D02*X187000D01*
Y203000D01*
X186500Y202500D02*X187000Y203000D01*
X186000Y202500D02*X186500D01*
X185500Y203000D02*X186000Y202500D01*
X188200Y206000D02*X188700Y206500D01*
X190200D01*
X190700Y206000D01*
Y205000D01*
X188200Y202500D02*X190700Y205000D01*
X188200Y202500D02*X190700D01*
X178500Y211500D02*Y210000D01*
Y211500D02*X182000D01*
X182500Y211000D02*X182000Y211500D01*
X182500Y211000D02*Y210500D01*
X182000Y210000D02*X182500Y210500D01*
X178500Y213200D02*X182500D01*
X178500Y214700D02*Y212700D01*
Y214700D02*X179000Y215200D01*
X180000D01*
X180500Y214700D02*X180000Y215200D01*
X180500Y214700D02*Y213200D01*
X182500Y217900D02*Y216900D01*
X178500Y217400D02*X182500D01*
X179500Y216400D02*X178500Y217400D01*
X179000Y219100D02*X182500D01*
X179000D02*X178500Y219600D01*
Y221100D02*Y219600D01*
Y221100D02*X179000Y221600D01*
X182500D01*
X180500D02*Y219100D01*
X158500Y211500D02*Y210000D01*
Y211500D02*X162000D01*
X162500Y211000D02*X162000Y211500D01*
X162500Y211000D02*Y210500D01*
X162000Y210000D02*X162500Y210500D01*
X158500Y213200D02*X162500D01*
X158500Y214700D02*Y212700D01*
Y214700D02*X159000Y215200D01*
X160000D01*
X160500Y214700D02*X160000Y215200D01*
X160500Y214700D02*Y213200D01*
X162500Y217900D02*Y216900D01*
X158500Y217400D02*X162500D01*
X159500Y216400D02*X158500Y217400D01*
X162500Y221100D02*Y219100D01*
Y221100D02*X162000Y221600D01*
X161000D02*X162000D01*
X160500Y221100D02*X161000Y221600D01*
X160500Y221100D02*Y219600D01*
X158500D02*X162500D01*
X158500Y221100D02*Y219100D01*
Y221100D02*X159000Y221600D01*
X160000D01*
X160500Y221100D02*X160000Y221600D01*
X121721Y223650D02*X123721D01*
X124221Y223150D01*
Y222150D01*
X123721Y221650D02*X124221Y222150D01*
X122221Y221650D02*X123721D01*
X122221Y223650D02*Y219650D01*
Y221650D02*X124221Y219650D01*
X125921D02*X126921D01*
X126421Y223650D02*Y219650D01*
X125421Y222650D02*X126421Y223650D01*
X120721Y212650D02*X122721D01*
X123221Y212150D01*
Y211150D01*
X122721Y210650D02*X123221Y211150D01*
X121221Y210650D02*X122721D01*
X121221Y212650D02*Y208650D01*
Y210650D02*X123221Y208650D01*
X124421Y212150D02*X124921Y212650D01*
X126421D01*
X126921Y212150D01*
Y211150D01*
X124421Y208650D02*X126921Y211150D01*
X124421Y208650D02*X126921D01*
X170764Y122650D02*X172764D01*
X173264Y122150D01*
Y121150D01*
X172764Y120650D02*X173264Y121150D01*
X171264Y120650D02*X172764D01*
X171264Y122650D02*Y118650D01*
Y120650D02*X173264Y118650D01*
X174464Y122150D02*X174964Y122650D01*
X175964D01*
X176464Y122150D01*
Y119150D01*
X175964Y118650D02*X176464Y119150D01*
X174964Y118650D02*X175964D01*
X174464Y119150D02*X174964Y118650D01*
Y120650D02*X176464D01*
X133307Y122650D02*X135307D01*
X135807Y122150D01*
Y121150D01*
X135307Y120650D02*X135807Y121150D01*
X133807Y120650D02*X135307D01*
X133807Y122650D02*Y118650D01*
Y120650D02*X135807Y118650D01*
X137007Y120650D02*X139007Y122650D01*
X137007Y120650D02*X139507D01*
X139007Y122650D02*Y118650D01*
X170000Y136500D02*Y135000D01*
Y136500D02*X173500D01*
X174000Y136000D02*X173500Y136500D01*
X174000Y136000D02*Y135500D01*
X173500Y135000D02*X174000Y135500D01*
X170000Y138200D02*X174000D01*
X170000Y139700D02*Y137700D01*
Y139700D02*X170500Y140200D01*
X171500D01*
X172000Y139700D02*X171500Y140200D01*
X172000Y139700D02*Y138200D01*
Y141400D02*X170000Y143400D01*
X172000Y143900D02*Y141400D01*
X170000Y143400D02*X174000D01*
X136000Y136500D02*Y135000D01*
Y136500D02*X139500D01*
X140000Y136000D02*X139500Y136500D01*
X140000Y136000D02*Y135500D01*
X139500Y135000D02*X140000Y135500D01*
X136000Y138200D02*X140000D01*
X136000Y139700D02*Y137700D01*
Y139700D02*X136500Y140200D01*
X137500D01*
X138000Y139700D02*X137500Y140200D01*
X138000Y139700D02*Y138200D01*
X136000Y143400D02*Y141400D01*
X138000D01*
X137500Y141900D01*
Y142900D02*Y141900D01*
Y142900D02*X138000Y143400D01*
X139500D01*
X140000Y142900D02*X139500Y143400D01*
X140000Y142900D02*Y141900D01*
X139500Y141400D02*X140000Y141900D01*
X148000Y159800D02*Y156300D01*
X148500Y155800D01*
X149500D01*
X150000Y156300D01*
Y159800D02*Y156300D01*
X151200Y159300D02*X151700Y159800D01*
X153200D01*
X153700Y159300D01*
Y158300D01*
X151200Y155800D02*X153700Y158300D01*
X151200Y155800D02*X153700D01*
X157500Y178500D02*X159000D01*
Y175000D01*
X158500Y174500D02*X159000Y175000D01*
X158000Y174500D02*X158500D01*
X157500Y175000D02*X158000Y174500D01*
X160700Y178500D02*Y174500D01*
X160200Y178500D02*X162200D01*
X162700Y178000D01*
Y177000D01*
X162200Y176500D02*X162700Y177000D01*
X160700Y176500D02*X162200D01*
X163900Y178000D02*X164400Y178500D01*
X165900D01*
X166400Y178000D01*
Y177000D01*
X163900Y174500D02*X166400Y177000D01*
X163900Y174500D02*X166400D01*
X172000Y149000D02*X173500D01*
X171500Y149500D02*X172000Y149000D01*
X171500Y152500D02*Y149500D01*
Y152500D02*X172000Y153000D01*
X173500D01*
X175200Y149000D02*X176200D01*
X175700Y153000D02*Y149000D01*
X174700Y152000D02*X175700Y153000D01*
X177400Y149500D02*X177900Y149000D01*
X177400Y152500D02*Y149500D01*
Y152500D02*X177900Y153000D01*
X178900D01*
X179400Y152500D01*
Y149500D01*
X178900Y149000D02*X179400Y149500D01*
X177900Y149000D02*X178900D01*
X177400Y150000D02*X179400Y152000D01*
X62807Y100150D02*X64307D01*
X62307Y100650D02*X62807Y100150D01*
X62307Y103650D02*Y100650D01*
Y103650D02*X62807Y104150D01*
X64307D01*
X65507Y103650D02*X66007Y104150D01*
X67007D01*
X67507Y103650D01*
Y100650D01*
X67007Y100150D02*X67507Y100650D01*
X66007Y100150D02*X67007D01*
X65507Y100650D02*X66007Y100150D01*
Y102150D02*X67507D01*
X53000Y130000D02*X54500D01*
Y126500D01*
X54000Y126000D02*X54500Y126500D01*
X53500Y126000D02*X54000D01*
X53000Y126500D02*X53500Y126000D01*
X56200Y130000D02*Y126000D01*
X55700Y130000D02*X57700D01*
X58200Y129500D01*
Y128500D01*
X57700Y128000D02*X58200Y128500D01*
X56200Y128000D02*X57700D01*
X59400Y129500D02*X59900Y130000D01*
X60900D01*
X61400Y129500D01*
Y126500D01*
X60900Y126000D02*X61400Y126500D01*
X59900Y126000D02*X60900D01*
X59400Y126500D02*X59900Y126000D01*
Y128000D02*X61400D01*
X45936Y169978D02*X47436D01*
X45436Y170478D02*X45936Y169978D01*
X45436Y173478D02*Y170478D01*
Y173478D02*X45936Y173978D01*
X47436D01*
X48636Y170478D02*X49136Y169978D01*
X48636Y171478D02*Y170478D01*
Y171478D02*X49136Y171978D01*
X50136D01*
X50636Y171478D01*
Y170478D01*
X50136Y169978D02*X50636Y170478D01*
X49136Y169978D02*X50136D01*
X48636Y172478D02*X49136Y171978D01*
X48636Y173478D02*Y172478D01*
Y173478D02*X49136Y173978D01*
X50136D01*
X50636Y173478D01*
Y172478D01*
X50136Y171978D02*X50636Y172478D01*
X42500Y184100D02*X44000D01*
X42000Y184600D02*X42500Y184100D01*
X42000Y187600D02*Y184600D01*
Y187600D02*X42500Y188100D01*
X44000D01*
X45200Y184100D02*X47200Y186100D01*
Y187600D02*Y186100D01*
X46700Y188100D02*X47200Y187600D01*
X45700Y188100D02*X46700D01*
X45200Y187600D02*X45700Y188100D01*
X45200Y187600D02*Y186600D01*
X45700Y186100D01*
X47200D01*
X45936Y159150D02*X47436D01*
X45436Y159650D02*X45936Y159150D01*
X45436Y162650D02*Y159650D01*
Y162650D02*X45936Y163150D01*
X47436D01*
X50136D02*X50636Y162650D01*
X49136Y163150D02*X50136D01*
X48636Y162650D02*X49136Y163150D01*
X48636Y162650D02*Y159650D01*
X49136Y159150D01*
X50136Y161150D02*X50636Y160650D01*
X48636Y161150D02*X50136D01*
X49136Y159150D02*X50136D01*
X50636Y159650D01*
Y160650D02*Y159650D01*
X42500Y145100D02*X44000D01*
X42000Y145600D02*X42500Y145100D01*
X42000Y148600D02*Y145600D01*
Y148600D02*X42500Y149100D01*
X44000D01*
X45200Y145100D02*X47700Y147600D01*
Y149100D02*Y147600D01*
X45200Y149100D02*X47700D01*
X94500Y173500D02*Y170000D01*
X95000Y169500D01*
X96000D01*
X96500Y170000D01*
Y173500D02*Y170000D01*
X98200Y169500D02*X99200D01*
X98700Y173500D02*Y169500D01*
X97700Y172500D02*X98700Y173500D01*
X109500Y135600D02*X111000D01*
X109000Y136100D02*X109500Y135600D01*
X109000Y139100D02*Y136100D01*
Y139100D02*X109500Y139600D01*
X111000D01*
X112200Y137600D02*X114200Y139600D01*
X112200Y137600D02*X114700D01*
X114200Y139600D02*Y135600D01*
X104850Y149650D02*X106350D01*
X104350Y150150D02*X104850Y149650D01*
X104350Y153150D02*Y150150D01*
Y153150D02*X104850Y153650D01*
X106350D01*
X107550D02*X109550D01*
X107550D02*Y151650D01*
X108050Y152150D01*
X109050D01*
X109550Y151650D01*
Y150150D01*
X109050Y149650D02*X109550Y150150D01*
X108050Y149650D02*X109050D01*
X107550Y150150D02*X108050Y149650D01*
M02*
