G04 start of page 2 for group 0 idx 0 *
G04 Title: (unknown), component *
G04 Creator: pcb 20140316 *
G04 CreationDate: Wed 30 Mar 2016 07:43:05 PM GMT UTC *
G04 For: ndholmes *
G04 Format: Gerber/RS-274X *
G04 PCB-Dimensions (mil): 2100.00 2700.00 *
G04 PCB-Coordinate-Origin: lower left *
%MOIN*%
%FSLAX25Y25*%
%LNTOP*%
%ADD33C,0.0480*%
%ADD32C,0.1285*%
%ADD31C,0.0380*%
%ADD30R,0.0240X0.0240*%
%ADD29R,0.0150X0.0150*%
%ADD28R,0.0165X0.0165*%
%ADD27R,0.0490X0.0490*%
%ADD26R,0.0945X0.0945*%
%ADD25R,0.0378X0.0378*%
%ADD24R,0.0512X0.0512*%
%ADD23R,0.0167X0.0167*%
%ADD22R,0.0500X0.0500*%
%ADD21C,0.0800*%
%ADD20C,0.1500*%
%ADD19C,0.0600*%
%ADD18C,0.0200*%
%ADD17C,0.0400*%
%ADD16C,0.0250*%
%ADD15C,0.0150*%
%ADD14C,0.0100*%
%ADD13C,0.0500*%
%ADD12C,0.0350*%
%ADD11C,0.0001*%
G54D11*G36*
X99000Y125500D02*Y170000D01*
X107500D01*
Y125500D01*
X99000D01*
G37*
G36*
X103000D02*X64500D01*
Y131500D01*
X103000D01*
Y125500D01*
G37*
G36*
X95500Y155000D02*X97500Y153000D01*
Y139500D01*
X94500D01*
Y155000D01*
X95500D01*
G37*
G36*
X87500Y164000D02*X93000D01*
X95500Y161500D01*
Y139500D01*
X87500D01*
Y164000D01*
G37*
G36*
X90043Y170000D02*X107500D01*
Y165000D01*
X90043D01*
X90066Y165093D01*
X90075Y165250D01*
X90066Y169907D01*
X90043Y170000D01*
G37*
G36*
X99000Y161500D02*X94500Y166000D01*
X100000D01*
Y161500D01*
X99000D01*
G37*
G36*
X13613Y115000D02*X26863D01*
X27000Y114989D01*
X27137Y115000D01*
X31707D01*
X31738Y114987D01*
X31891Y114950D01*
X32048Y114941D01*
X38109Y114950D01*
X38262Y114987D01*
X38293Y115000D01*
X46863D01*
X47000Y114989D01*
X47137Y115000D01*
X53000D01*
Y95000D01*
X13613D01*
Y97853D01*
X13656Y97860D01*
X13768Y97897D01*
X13873Y97952D01*
X13968Y98022D01*
X14051Y98106D01*
X14119Y98202D01*
X14170Y98308D01*
X14318Y98716D01*
X14422Y99137D01*
X14484Y99567D01*
X14505Y100000D01*
X14484Y100433D01*
X14422Y100863D01*
X14318Y101284D01*
X14175Y101694D01*
X14122Y101800D01*
X14053Y101896D01*
X13970Y101981D01*
X13875Y102051D01*
X13769Y102106D01*
X13657Y102143D01*
X13613Y102151D01*
Y107853D01*
X13656Y107860D01*
X13768Y107897D01*
X13873Y107952D01*
X13968Y108022D01*
X14051Y108106D01*
X14119Y108202D01*
X14170Y108308D01*
X14318Y108716D01*
X14422Y109137D01*
X14484Y109567D01*
X14505Y110000D01*
X14484Y110433D01*
X14422Y110863D01*
X14318Y111284D01*
X14175Y111694D01*
X14122Y111800D01*
X14053Y111896D01*
X13970Y111981D01*
X13875Y112051D01*
X13769Y112106D01*
X13657Y112143D01*
X13613Y112151D01*
Y115000D01*
G37*
G36*
X10002D02*X13613D01*
Y112151D01*
X13540Y112163D01*
X13421Y112164D01*
X13304Y112146D01*
X13191Y112110D01*
X13085Y112057D01*
X12988Y111988D01*
X12904Y111905D01*
X12833Y111809D01*
X12779Y111704D01*
X12741Y111592D01*
X12722Y111475D01*
X12721Y111356D01*
X12739Y111239D01*
X12777Y111126D01*
X12876Y110855D01*
X12944Y110575D01*
X12986Y110289D01*
X13000Y110000D01*
X12986Y109711D01*
X12944Y109425D01*
X12876Y109145D01*
X12780Y108872D01*
X12742Y108761D01*
X12725Y108644D01*
X12725Y108526D01*
X12745Y108409D01*
X12782Y108297D01*
X12836Y108193D01*
X12906Y108098D01*
X12991Y108015D01*
X13087Y107946D01*
X13192Y107893D01*
X13305Y107857D01*
X13421Y107840D01*
X13539Y107841D01*
X13613Y107853D01*
Y102151D01*
X13540Y102163D01*
X13421Y102164D01*
X13304Y102146D01*
X13191Y102110D01*
X13085Y102057D01*
X12988Y101988D01*
X12904Y101905D01*
X12833Y101809D01*
X12779Y101704D01*
X12741Y101592D01*
X12722Y101475D01*
X12721Y101356D01*
X12739Y101239D01*
X12777Y101126D01*
X12876Y100855D01*
X12944Y100575D01*
X12986Y100289D01*
X13000Y100000D01*
X12986Y99711D01*
X12944Y99425D01*
X12876Y99145D01*
X12780Y98872D01*
X12742Y98761D01*
X12725Y98644D01*
X12725Y98526D01*
X12745Y98409D01*
X12782Y98297D01*
X12836Y98193D01*
X12906Y98098D01*
X12991Y98015D01*
X13087Y97946D01*
X13192Y97893D01*
X13305Y97857D01*
X13421Y97840D01*
X13539Y97841D01*
X13613Y97853D01*
Y95000D01*
X10002D01*
Y95495D01*
X10433Y95516D01*
X10863Y95578D01*
X11284Y95682D01*
X11694Y95825D01*
X11800Y95878D01*
X11896Y95947D01*
X11981Y96030D01*
X12051Y96125D01*
X12106Y96231D01*
X12143Y96343D01*
X12163Y96460D01*
X12164Y96579D01*
X12146Y96696D01*
X12110Y96809D01*
X12057Y96915D01*
X11988Y97012D01*
X11905Y97096D01*
X11809Y97167D01*
X11704Y97221D01*
X11592Y97259D01*
X11475Y97278D01*
X11356Y97279D01*
X11239Y97261D01*
X11126Y97223D01*
X10855Y97124D01*
X10575Y97056D01*
X10289Y97014D01*
X10002Y97000D01*
Y103000D01*
X10289Y102986D01*
X10575Y102944D01*
X10855Y102876D01*
X11128Y102780D01*
X11239Y102742D01*
X11356Y102725D01*
X11474Y102725D01*
X11591Y102745D01*
X11703Y102782D01*
X11807Y102836D01*
X11902Y102906D01*
X11985Y102991D01*
X12054Y103087D01*
X12107Y103192D01*
X12143Y103305D01*
X12160Y103421D01*
X12159Y103539D01*
X12140Y103656D01*
X12103Y103768D01*
X12048Y103873D01*
X11978Y103968D01*
X11894Y104051D01*
X11798Y104119D01*
X11692Y104170D01*
X11284Y104318D01*
X10863Y104422D01*
X10433Y104484D01*
X10002Y104505D01*
Y105495D01*
X10433Y105516D01*
X10863Y105578D01*
X11284Y105682D01*
X11694Y105825D01*
X11800Y105878D01*
X11896Y105947D01*
X11981Y106030D01*
X12051Y106125D01*
X12106Y106231D01*
X12143Y106343D01*
X12163Y106460D01*
X12164Y106579D01*
X12146Y106696D01*
X12110Y106809D01*
X12057Y106915D01*
X11988Y107012D01*
X11905Y107096D01*
X11809Y107167D01*
X11704Y107221D01*
X11592Y107259D01*
X11475Y107278D01*
X11356Y107279D01*
X11239Y107261D01*
X11126Y107223D01*
X10855Y107124D01*
X10575Y107056D01*
X10289Y107014D01*
X10002Y107000D01*
Y113000D01*
X10289Y112986D01*
X10575Y112944D01*
X10855Y112876D01*
X11128Y112780D01*
X11239Y112742D01*
X11356Y112725D01*
X11474Y112725D01*
X11591Y112745D01*
X11703Y112782D01*
X11807Y112836D01*
X11902Y112906D01*
X11985Y112991D01*
X12054Y113087D01*
X12107Y113192D01*
X12143Y113305D01*
X12160Y113421D01*
X12159Y113539D01*
X12140Y113656D01*
X12103Y113768D01*
X12048Y113873D01*
X11978Y113968D01*
X11894Y114051D01*
X11798Y114119D01*
X11692Y114170D01*
X11284Y114318D01*
X10863Y114422D01*
X10433Y114484D01*
X10002Y114505D01*
Y115000D01*
G37*
G36*
X6387D02*X10002D01*
Y114505D01*
X10000Y114505D01*
X9567Y114484D01*
X9137Y114422D01*
X8716Y114318D01*
X8306Y114175D01*
X8200Y114122D01*
X8104Y114053D01*
X8019Y113970D01*
X7949Y113875D01*
X7894Y113769D01*
X7857Y113657D01*
X7837Y113540D01*
X7836Y113421D01*
X7854Y113304D01*
X7890Y113191D01*
X7943Y113085D01*
X8012Y112988D01*
X8095Y112904D01*
X8191Y112833D01*
X8296Y112779D01*
X8408Y112741D01*
X8525Y112722D01*
X8644Y112721D01*
X8761Y112739D01*
X8874Y112777D01*
X9145Y112876D01*
X9425Y112944D01*
X9711Y112986D01*
X10000Y113000D01*
X10002Y113000D01*
Y107000D01*
X10000Y107000D01*
X9711Y107014D01*
X9425Y107056D01*
X9145Y107124D01*
X8872Y107220D01*
X8761Y107258D01*
X8644Y107275D01*
X8526Y107275D01*
X8409Y107255D01*
X8297Y107218D01*
X8193Y107164D01*
X8098Y107094D01*
X8015Y107009D01*
X7946Y106913D01*
X7893Y106808D01*
X7857Y106695D01*
X7840Y106579D01*
X7841Y106461D01*
X7860Y106344D01*
X7897Y106232D01*
X7952Y106127D01*
X8022Y106032D01*
X8106Y105949D01*
X8202Y105881D01*
X8308Y105830D01*
X8716Y105682D01*
X9137Y105578D01*
X9567Y105516D01*
X10000Y105495D01*
X10002Y105495D01*
Y104505D01*
X10000Y104505D01*
X9567Y104484D01*
X9137Y104422D01*
X8716Y104318D01*
X8306Y104175D01*
X8200Y104122D01*
X8104Y104053D01*
X8019Y103970D01*
X7949Y103875D01*
X7894Y103769D01*
X7857Y103657D01*
X7837Y103540D01*
X7836Y103421D01*
X7854Y103304D01*
X7890Y103191D01*
X7943Y103085D01*
X8012Y102988D01*
X8095Y102904D01*
X8191Y102833D01*
X8296Y102779D01*
X8408Y102741D01*
X8525Y102722D01*
X8644Y102721D01*
X8761Y102739D01*
X8874Y102777D01*
X9145Y102876D01*
X9425Y102944D01*
X9711Y102986D01*
X10000Y103000D01*
X10002Y103000D01*
Y97000D01*
X10000Y97000D01*
X9711Y97014D01*
X9425Y97056D01*
X9145Y97124D01*
X8872Y97220D01*
X8761Y97258D01*
X8644Y97275D01*
X8526Y97275D01*
X8409Y97255D01*
X8297Y97218D01*
X8193Y97164D01*
X8098Y97094D01*
X8015Y97009D01*
X7946Y96913D01*
X7893Y96808D01*
X7857Y96695D01*
X7840Y96579D01*
X7841Y96461D01*
X7860Y96344D01*
X7897Y96232D01*
X7952Y96127D01*
X8022Y96032D01*
X8106Y95949D01*
X8202Y95881D01*
X8308Y95830D01*
X8716Y95682D01*
X9137Y95578D01*
X9567Y95516D01*
X10000Y95495D01*
X10002Y95495D01*
Y95000D01*
X6387D01*
Y97849D01*
X6460Y97837D01*
X6579Y97836D01*
X6696Y97854D01*
X6809Y97890D01*
X6915Y97943D01*
X7012Y98012D01*
X7096Y98095D01*
X7167Y98191D01*
X7221Y98296D01*
X7259Y98408D01*
X7278Y98525D01*
X7279Y98644D01*
X7261Y98761D01*
X7223Y98874D01*
X7124Y99145D01*
X7056Y99425D01*
X7014Y99711D01*
X7000Y100000D01*
X7014Y100289D01*
X7056Y100575D01*
X7124Y100855D01*
X7220Y101128D01*
X7258Y101239D01*
X7275Y101356D01*
X7275Y101474D01*
X7255Y101591D01*
X7218Y101703D01*
X7164Y101807D01*
X7094Y101902D01*
X7009Y101985D01*
X6913Y102054D01*
X6808Y102107D01*
X6695Y102143D01*
X6579Y102160D01*
X6461Y102159D01*
X6387Y102147D01*
Y107849D01*
X6460Y107837D01*
X6579Y107836D01*
X6696Y107854D01*
X6809Y107890D01*
X6915Y107943D01*
X7012Y108012D01*
X7096Y108095D01*
X7167Y108191D01*
X7221Y108296D01*
X7259Y108408D01*
X7278Y108525D01*
X7279Y108644D01*
X7261Y108761D01*
X7223Y108874D01*
X7124Y109145D01*
X7056Y109425D01*
X7014Y109711D01*
X7000Y110000D01*
X7014Y110289D01*
X7056Y110575D01*
X7124Y110855D01*
X7220Y111128D01*
X7258Y111239D01*
X7275Y111356D01*
X7275Y111474D01*
X7255Y111591D01*
X7218Y111703D01*
X7164Y111807D01*
X7094Y111902D01*
X7009Y111985D01*
X6913Y112054D01*
X6808Y112107D01*
X6695Y112143D01*
X6579Y112160D01*
X6461Y112159D01*
X6387Y112147D01*
Y115000D01*
G37*
G36*
X4500D02*X6387D01*
Y112147D01*
X6344Y112140D01*
X6232Y112103D01*
X6127Y112048D01*
X6032Y111978D01*
X5949Y111894D01*
X5881Y111798D01*
X5830Y111692D01*
X5682Y111284D01*
X5578Y110863D01*
X5516Y110433D01*
X5495Y110000D01*
X5516Y109567D01*
X5578Y109137D01*
X5682Y108716D01*
X5825Y108306D01*
X5878Y108200D01*
X5947Y108104D01*
X6030Y108019D01*
X6125Y107949D01*
X6231Y107894D01*
X6343Y107857D01*
X6387Y107849D01*
Y102147D01*
X6344Y102140D01*
X6232Y102103D01*
X6127Y102048D01*
X6032Y101978D01*
X5949Y101894D01*
X5881Y101798D01*
X5830Y101692D01*
X5682Y101284D01*
X5578Y100863D01*
X5516Y100433D01*
X5495Y100000D01*
X5516Y99567D01*
X5578Y99137D01*
X5682Y98716D01*
X5825Y98306D01*
X5878Y98200D01*
X5947Y98104D01*
X6030Y98019D01*
X6125Y97949D01*
X6231Y97894D01*
X6343Y97857D01*
X6387Y97849D01*
Y95000D01*
X4500D01*
Y115000D01*
G37*
G36*
X32000Y94000D02*X47000D01*
Y82000D01*
X32000D01*
Y94000D01*
G37*
G36*
X57500Y197000D02*Y149000D01*
X37500D01*
Y197000D01*
X57500D01*
G37*
G36*
X59500Y164000D02*X76500D01*
Y154621D01*
X71981Y150102D01*
X71936Y150064D01*
X71783Y149884D01*
X71659Y149683D01*
X71569Y149465D01*
X71514Y149235D01*
X71514Y149235D01*
X71495Y149000D01*
X59500D01*
Y164000D01*
G37*
G36*
Y170500D02*X71000D01*
Y161000D01*
X59500D01*
Y170500D01*
G37*
G36*
Y197000D02*X71000D01*
Y172000D01*
X59500D01*
Y197000D01*
G37*
G36*
Y172000D02*Y184000D01*
X74500D01*
Y172000D01*
X59500D01*
G37*
G36*
X89000Y171000D02*X78000D01*
Y185000D01*
X89000D01*
Y171000D01*
G37*
G36*
X152500Y120500D02*Y146500D01*
X167500D01*
Y120500D01*
X152500D01*
G37*
G36*
X60500Y117500D02*X79500D01*
Y100099D01*
X79366Y100181D01*
X78930Y100362D01*
X78471Y100472D01*
X78000Y100509D01*
X77529Y100472D01*
X77070Y100362D01*
X76634Y100181D01*
X76231Y99935D01*
X75872Y99628D01*
X75565Y99269D01*
X75319Y98866D01*
X75138Y98430D01*
X75028Y97971D01*
X74991Y97500D01*
X75028Y97029D01*
X75138Y96570D01*
X75319Y96134D01*
X75565Y95731D01*
X75872Y95372D01*
X76231Y95065D01*
X76500Y94901D01*
Y92059D01*
X76495Y92000D01*
X76514Y91765D01*
X76569Y91535D01*
X76659Y91317D01*
X76783Y91116D01*
X76936Y90936D01*
X76981Y90898D01*
X79500Y88379D01*
Y82000D01*
X54500D01*
Y104587D01*
X59657Y104596D01*
X59810Y104633D01*
X59955Y104693D01*
X60090Y104775D01*
X60209Y104878D01*
X60312Y104997D01*
X60394Y105132D01*
X60454Y105277D01*
X60491Y105430D01*
X60500Y105587D01*
X60493Y114792D01*
X60500Y114914D01*
Y117500D01*
G37*
G36*
X103416Y75000D02*X103879D01*
X108303Y70576D01*
Y23698D01*
X107754Y23471D01*
X107150Y23101D01*
X106611Y22641D01*
X106151Y22102D01*
X105781Y21498D01*
X105510Y20844D01*
X105345Y20155D01*
X105289Y19449D01*
X105345Y18743D01*
X105510Y18054D01*
X105781Y17400D01*
X106151Y16796D01*
X106611Y16257D01*
X107150Y15797D01*
X107754Y15427D01*
X108408Y15156D01*
X109000Y15014D01*
Y13884D01*
X108408Y13742D01*
X107754Y13471D01*
X107150Y13101D01*
X106611Y12641D01*
X106151Y12102D01*
X105781Y11498D01*
X105510Y10844D01*
X105345Y10155D01*
X105289Y9449D01*
X105345Y8743D01*
X105510Y8054D01*
X105781Y7400D01*
X106151Y6796D01*
X106611Y6257D01*
X107150Y5797D01*
X107754Y5427D01*
X108408Y5156D01*
X109000Y5014D01*
Y2500D01*
X103416D01*
Y7302D01*
X103459Y7309D01*
X103571Y7346D01*
X103676Y7401D01*
X103771Y7471D01*
X103854Y7555D01*
X103922Y7651D01*
X103973Y7757D01*
X104121Y8165D01*
X104225Y8586D01*
X104287Y9016D01*
X104308Y9449D01*
X104287Y9882D01*
X104225Y10312D01*
X104121Y10733D01*
X103978Y11143D01*
X103925Y11249D01*
X103856Y11345D01*
X103773Y11430D01*
X103678Y11500D01*
X103572Y11555D01*
X103460Y11592D01*
X103416Y11600D01*
Y16751D01*
X103455Y16796D01*
X103825Y17400D01*
X104096Y18054D01*
X104261Y18743D01*
X104303Y19449D01*
X104261Y20155D01*
X104096Y20844D01*
X103825Y21498D01*
X103455Y22102D01*
X103416Y22147D01*
Y75000D01*
G37*
G36*
Y2500D02*X99805D01*
Y4944D01*
X100236Y4965D01*
X100666Y5027D01*
X101087Y5131D01*
X101497Y5274D01*
X101603Y5327D01*
X101699Y5396D01*
X101784Y5479D01*
X101854Y5574D01*
X101909Y5680D01*
X101946Y5792D01*
X101966Y5909D01*
X101967Y6028D01*
X101949Y6145D01*
X101913Y6258D01*
X101860Y6364D01*
X101791Y6461D01*
X101708Y6545D01*
X101612Y6616D01*
X101507Y6670D01*
X101395Y6708D01*
X101278Y6727D01*
X101159Y6728D01*
X101042Y6710D01*
X100929Y6672D01*
X100658Y6573D01*
X100378Y6505D01*
X100092Y6463D01*
X99805Y6449D01*
Y12449D01*
X100092Y12435D01*
X100378Y12393D01*
X100658Y12325D01*
X100931Y12229D01*
X101042Y12191D01*
X101159Y12174D01*
X101277Y12174D01*
X101394Y12194D01*
X101506Y12231D01*
X101610Y12285D01*
X101705Y12355D01*
X101788Y12440D01*
X101857Y12536D01*
X101910Y12641D01*
X101946Y12754D01*
X101963Y12870D01*
X101962Y12988D01*
X101943Y13105D01*
X101906Y13217D01*
X101851Y13322D01*
X101781Y13417D01*
X101697Y13500D01*
X101601Y13568D01*
X101495Y13619D01*
X101087Y13767D01*
X100666Y13871D01*
X100236Y13933D01*
X99805Y13954D01*
Y14935D01*
X100509Y14991D01*
X101198Y15156D01*
X101852Y15427D01*
X102456Y15797D01*
X102995Y16257D01*
X103416Y16751D01*
Y11600D01*
X103343Y11612D01*
X103224Y11613D01*
X103107Y11595D01*
X102994Y11559D01*
X102888Y11506D01*
X102791Y11437D01*
X102707Y11354D01*
X102636Y11258D01*
X102582Y11153D01*
X102544Y11041D01*
X102525Y10924D01*
X102524Y10805D01*
X102542Y10688D01*
X102580Y10575D01*
X102679Y10304D01*
X102747Y10024D01*
X102789Y9738D01*
X102803Y9449D01*
X102789Y9160D01*
X102747Y8874D01*
X102679Y8594D01*
X102583Y8321D01*
X102545Y8210D01*
X102528Y8093D01*
X102528Y7975D01*
X102548Y7858D01*
X102585Y7746D01*
X102639Y7642D01*
X102709Y7547D01*
X102794Y7464D01*
X102890Y7395D01*
X102995Y7342D01*
X103108Y7306D01*
X103224Y7289D01*
X103342Y7290D01*
X103416Y7302D01*
Y2500D01*
G37*
G36*
X99805Y75000D02*X103416D01*
Y22147D01*
X102995Y22641D01*
X102456Y23101D01*
X101852Y23471D01*
X101198Y23742D01*
X100509Y23907D01*
X99805Y23963D01*
Y75000D01*
G37*
G36*
X96190Y16751D02*X96611Y16257D01*
X97150Y15797D01*
X97754Y15427D01*
X98408Y15156D01*
X99097Y14991D01*
X99803Y14935D01*
X99805Y14935D01*
Y13954D01*
X99803Y13954D01*
X99370Y13933D01*
X98940Y13871D01*
X98519Y13767D01*
X98109Y13624D01*
X98003Y13571D01*
X97907Y13502D01*
X97822Y13419D01*
X97752Y13324D01*
X97697Y13218D01*
X97660Y13106D01*
X97640Y12989D01*
X97639Y12870D01*
X97657Y12753D01*
X97693Y12640D01*
X97746Y12534D01*
X97815Y12437D01*
X97898Y12353D01*
X97994Y12282D01*
X98099Y12228D01*
X98211Y12190D01*
X98328Y12171D01*
X98447Y12170D01*
X98564Y12188D01*
X98677Y12226D01*
X98948Y12325D01*
X99228Y12393D01*
X99514Y12435D01*
X99803Y12449D01*
X99805Y12449D01*
Y6449D01*
X99803Y6449D01*
X99514Y6463D01*
X99228Y6505D01*
X98948Y6573D01*
X98675Y6669D01*
X98564Y6707D01*
X98447Y6724D01*
X98329Y6724D01*
X98212Y6704D01*
X98100Y6667D01*
X97996Y6613D01*
X97901Y6543D01*
X97818Y6458D01*
X97749Y6362D01*
X97696Y6257D01*
X97660Y6144D01*
X97643Y6028D01*
X97644Y5910D01*
X97663Y5793D01*
X97700Y5681D01*
X97755Y5576D01*
X97825Y5481D01*
X97909Y5398D01*
X98005Y5330D01*
X98111Y5279D01*
X98519Y5131D01*
X98940Y5027D01*
X99370Y4965D01*
X99803Y4944D01*
X99805Y4944D01*
Y2500D01*
X96190D01*
Y7298D01*
X96263Y7286D01*
X96382Y7285D01*
X96499Y7303D01*
X96612Y7339D01*
X96718Y7392D01*
X96815Y7461D01*
X96899Y7544D01*
X96970Y7640D01*
X97024Y7745D01*
X97062Y7857D01*
X97081Y7974D01*
X97082Y8093D01*
X97064Y8210D01*
X97026Y8323D01*
X96927Y8594D01*
X96859Y8874D01*
X96817Y9160D01*
X96803Y9449D01*
X96817Y9738D01*
X96859Y10024D01*
X96927Y10304D01*
X97023Y10577D01*
X97061Y10688D01*
X97078Y10805D01*
X97078Y10923D01*
X97058Y11040D01*
X97021Y11152D01*
X96967Y11256D01*
X96897Y11351D01*
X96812Y11434D01*
X96716Y11503D01*
X96611Y11556D01*
X96498Y11592D01*
X96382Y11609D01*
X96264Y11608D01*
X96190Y11596D01*
Y16751D01*
G37*
G36*
Y75000D02*X99805D01*
Y23963D01*
X99803Y23963D01*
X99097Y23907D01*
X98408Y23742D01*
X97754Y23471D01*
X97150Y23101D01*
X96611Y22641D01*
X96190Y22147D01*
Y75000D01*
G37*
G36*
X27000D02*X96190D01*
Y22147D01*
X96151Y22102D01*
X95781Y21498D01*
X95510Y20844D01*
X95345Y20155D01*
X95289Y19449D01*
X95345Y18743D01*
X95510Y18054D01*
X95781Y17400D01*
X96151Y16796D01*
X96190Y16751D01*
Y11596D01*
X96147Y11589D01*
X96035Y11552D01*
X95930Y11497D01*
X95835Y11427D01*
X95752Y11343D01*
X95684Y11247D01*
X95633Y11141D01*
X95485Y10733D01*
X95381Y10312D01*
X95319Y9882D01*
X95298Y9449D01*
X95319Y9016D01*
X95381Y8586D01*
X95485Y8165D01*
X95628Y7755D01*
X95681Y7649D01*
X95750Y7553D01*
X95833Y7468D01*
X95928Y7398D01*
X96034Y7343D01*
X96146Y7306D01*
X96190Y7298D01*
Y2500D01*
X34029D01*
X35012Y3102D01*
X36029Y3971D01*
X36898Y4988D01*
X37597Y6129D01*
X38109Y7365D01*
X38421Y8666D01*
X38500Y10000D01*
X38421Y11334D01*
X38109Y12635D01*
X37597Y13871D01*
X36898Y15012D01*
X36029Y16029D01*
X35012Y16898D01*
X33871Y17597D01*
X32635Y18109D01*
X31334Y18421D01*
X30000Y18526D01*
X28666Y18421D01*
X27365Y18109D01*
X27000Y17958D01*
Y75000D01*
G37*
G54D12*X51000Y86084D02*Y96000D01*
G54D13*X25500Y90000D02*X10000D01*
X35000Y91457D02*X26957D01*
X25500Y90000D01*
X10000Y120000D02*X25500D01*
X27000Y118500D01*
X47000D01*
X57000Y114914D02*Y125500D01*
G54D14*X73000Y149000D02*Y135000D01*
G54D13*X47000Y118500D02*Y129086D01*
X57000Y125500D02*X60000Y128500D01*
X67000D01*
G54D15*X75750Y167500D02*Y162000D01*
G54D14*X78250Y167500D02*Y154250D01*
G54D15*X88250Y162000D02*Y173500D01*
G54D14*X83250Y167500D02*Y150750D01*
X78250Y154250D02*X73000Y149000D01*
X80750Y167500D02*Y151750D01*
X78000Y149000D01*
X85750Y167500D02*Y137250D01*
X88000Y135000D01*
X83250Y150750D02*X83000Y150500D01*
Y135000D01*
G54D15*X73250Y167500D02*Y175500D01*
G54D14*Y188500D02*Y217250D01*
X66000Y224500D01*
X75750Y188500D02*Y218250D01*
X67000Y227000D01*
X78250Y188500D02*Y219250D01*
X68000Y229500D01*
X80750Y188500D02*Y220250D01*
X83250Y188500D02*Y221250D01*
X85750Y188500D02*Y222250D01*
X88250Y188500D02*Y223250D01*
X90750Y188500D02*Y224250D01*
G54D16*X117500Y180000D02*Y247000D01*
G54D14*X80750Y220250D02*X69000Y232000D01*
X83250Y221250D02*X70000Y234500D01*
X85750Y222250D02*X71000Y237000D01*
X88250Y223250D02*X72000Y239500D01*
X70500D01*
X90750Y224250D02*X79000Y236000D01*
X25500Y224500D02*X9000Y241000D01*
Y247000D01*
X33000Y227000D02*X19000Y241000D01*
Y247000D01*
X40500Y229500D02*X29000Y241000D01*
Y247000D01*
X39000Y241000D02*Y247000D01*
X66000Y224500D02*X25500D01*
X68000Y229500D02*X40500D01*
X67000Y227000D02*X33000D01*
X69000Y232000D02*X48000D01*
X70000Y234500D02*X55500D01*
X71000Y237000D02*X63000D01*
X59000Y241000D01*
X48000Y232000D02*X39000Y241000D01*
X55500Y234500D02*X49000Y241000D01*
Y247000D01*
X59000Y241000D02*Y247000D01*
X70500Y239500D02*X69000Y241000D01*
Y247000D01*
X79000Y236000D02*Y247000D01*
X109803Y71197D02*X103000Y78000D01*
X92000D01*
X93000Y80500D02*X104000D01*
X114500Y70000D01*
X105000Y83000D02*X94000D01*
X92000Y78000D02*X78000Y92000D01*
Y97500D01*
X83000Y105000D02*Y90500D01*
X88000Y89000D02*Y105000D01*
X93000Y91500D02*Y105000D01*
X83000Y90500D02*X93000Y80500D01*
X94000Y83000D02*X88000Y89000D01*
X99000Y85500D02*X93000Y91500D01*
X126000Y62000D02*X105000Y83000D01*
X99000Y85500D02*X131000D01*
X150000Y66500D01*
G54D17*X147500Y85500D02*X103500Y129500D01*
G54D14*X109803Y19449D02*Y71197D01*
X114500Y70000D02*Y24752D01*
X119803Y19449D01*
X126000Y17000D02*Y62000D01*
X109803Y9449D02*X114854Y14500D01*
X105449Y4000D02*X126000D01*
X129000Y7000D01*
X114854Y14500D02*X123500D01*
X126000Y17000D01*
X129000Y7000D02*Y29500D01*
X132000Y32500D01*
X141457D01*
G54D17*X178543Y87543D02*X176500Y85500D01*
G54D14*X150000Y66500D02*X171500D01*
G54D17*X176500Y85500D02*X147500D01*
G54D14*X167500Y40000D02*Y32500D01*
X171500Y66500D02*X174500Y63500D01*
Y56500D01*
X174586Y76500D02*X185500D01*
X191000Y82000D01*
Y103000D01*
G54D17*X178543Y87543D02*Y113543D01*
X181500Y116500D01*
G54D14*X191000Y103000D02*X194000Y106000D01*
X200000D01*
X160414Y46500D02*X196500D01*
X200000Y50000D01*
X160457Y32500D02*X148543D01*
X165500Y165000D02*X169500D01*
G54D18*X161600D02*Y171000D01*
G54D16*X174000D01*
X175500Y169500D01*
Y164543D01*
G54D14*X153000Y174000D02*Y165000D01*
X147500Y157600D02*Y171500D01*
X149500Y163000D02*Y172500D01*
G54D16*X104500Y167000D02*X117500Y180000D01*
G54D14*X138000Y184500D02*X146000D01*
X147500Y171500D02*X145500Y173500D01*
X139000D01*
X149500Y172500D02*X146500Y175500D01*
X140000D01*
X134500Y181000D01*
X139000Y173500D02*X132500Y180000D01*
X142848Y241575D02*X164425D01*
X166500Y239500D01*
X142848Y244724D02*X174276D01*
X176500Y242500D01*
G54D15*X138500Y249500D02*X187000D01*
X191500Y245000D02*X187000Y249500D01*
G54D14*X156500Y234086D02*Y202240D01*
X166500Y239500D02*Y219914D01*
X176500Y242500D02*Y234086D01*
X162500Y211500D02*X181500D01*
X186500Y216500D01*
G54D15*X191500Y214000D02*Y245000D01*
G54D14*X142848Y238425D02*X140425D01*
X143000Y216000D02*Y235276D01*
X139500Y237500D02*Y215500D01*
X140425Y238425D02*X139500Y237500D01*
G54D15*X136152Y235276D02*Y247152D01*
X138500Y249500D01*
G54D14*X138000Y202500D02*X146000D01*
X174000D02*X166000D01*
X151000Y176000D02*Y192500D01*
X174000Y184500D02*X166000D01*
X151000Y176000D02*X153000Y174000D01*
G54D15*X189000Y160871D02*Y211500D01*
X191500Y214000D01*
G54D14*X157700Y165000D02*Y184760D01*
X151000Y192500D02*X156000Y197500D01*
Y189500D02*X161000Y194500D01*
Y210000D01*
X162500Y211500D01*
X134500Y181000D02*Y207500D01*
X132500Y208500D02*Y180000D01*
X134500Y207500D02*X143000Y216000D01*
X139500Y215500D02*X132500Y208500D01*
G54D18*X165500Y156800D02*X175500D01*
G54D14*X175000Y146500D02*X170500Y151000D01*
X163000D01*
G54D15*X189000Y160871D02*X180543Y152414D01*
G54D17*X175500Y157457D02*X181500Y151457D01*
G54D14*X157700Y156800D02*X147300D01*
X157700D02*X148300D01*
X161600D02*Y152400D01*
X163000Y151000D01*
X161600Y156800D02*Y153900D01*
Y157400D02*Y159900D01*
X160500Y161000D01*
X151500D01*
X149500Y163000D01*
X147300Y156800D02*X145000Y154500D01*
X148300Y156800D02*X147500Y157600D01*
X145000Y154500D02*Y140586D01*
G54D17*X181500Y116500D02*Y151457D01*
G54D14*X175000Y146500D02*Y126414D01*
G54D11*G36*
X197000Y23000D02*Y17000D01*
X203000D01*
Y23000D01*
X197000D01*
G37*
G54D19*X200000Y30000D03*
Y40000D03*
Y50000D03*
Y60000D03*
Y70000D03*
G54D20*X140000Y10000D03*
G54D19*X119803Y9449D03*
X109803D03*
X99803D03*
G54D11*G36*
X116803Y22449D02*Y16449D01*
X122803D01*
Y22449D01*
X116803D01*
G37*
G54D19*X109803Y19449D03*
X99803D03*
X10000Y130000D03*
Y120000D03*
Y110000D03*
Y100000D03*
Y90000D03*
Y70000D03*
Y60000D03*
Y50000D03*
Y40000D03*
Y30000D03*
Y20000D03*
G54D20*X30000Y10000D03*
G54D19*X200000Y80000D03*
Y90000D03*
Y106000D03*
Y116000D03*
Y126000D03*
Y136000D03*
Y146000D03*
Y156000D03*
Y166000D03*
Y176000D03*
Y186000D03*
Y196000D03*
G54D20*Y210000D03*
G54D11*G36*
X7000Y163000D02*Y157000D01*
X13000D01*
Y163000D01*
X7000D01*
G37*
G54D19*X10000Y150000D03*
Y140000D03*
G54D20*Y215000D03*
G54D21*X59000Y247000D03*
X49000D03*
X39000D03*
X29000D03*
X19000D03*
X9000D03*
G54D11*G36*
X113500Y251000D02*Y243000D01*
X121500D01*
Y251000D01*
X113500D01*
G37*
G36*
X75000D02*Y243000D01*
X83000D01*
Y251000D01*
X75000D01*
G37*
G54D21*X69000Y247000D03*
X97500D03*
G54D22*X156500Y237413D02*Y230760D01*
X186500Y223240D02*Y216587D01*
X176500Y237413D02*Y230760D01*
X166500Y223240D02*Y216587D01*
G54D23*X135217Y244724D02*X137087D01*
X135217Y241575D02*X137087D01*
X135217Y238425D02*X137087D01*
X135217Y235276D02*X137087D01*
X141913D02*X143783D01*
X141913Y238425D02*X143783D01*
X141913Y241575D02*X143783D01*
X141913Y244724D02*X143783D01*
G54D24*X57543Y98393D02*Y97607D01*
G54D25*X56906Y87984D02*Y83890D01*
G54D24*X50457Y98393D02*Y97607D01*
G54D25*X51000Y87984D02*Y76174D01*
G54D26*Y74440D02*Y72550D01*
G54D11*G36*
X52885Y82005D02*X55725Y79165D01*
X54305Y77745D01*
X51465Y80585D01*
X52885Y82005D01*
G37*
G36*
X46275Y79165D02*X49115Y82005D01*
X50535Y80585D01*
X47695Y77745D01*
X46275Y79165D01*
G37*
G54D25*X45094Y87984D02*Y83890D01*
G54D24*X34607Y98543D02*X35393D01*
X34607Y91457D02*X35393D01*
X34607Y111414D02*X35393D01*
X34607Y118500D02*X35393D01*
G54D22*X47000Y128913D02*Y122260D01*
X57000Y114740D02*Y108087D01*
X77000Y114740D02*Y108087D01*
X67000Y128913D02*Y122260D01*
G54D24*X62043Y178893D02*Y178107D01*
X54957Y178893D02*Y178107D01*
G54D27*X63500Y194300D02*Y190700D01*
X53500Y194300D02*Y190700D01*
G54D24*X62043Y167893D02*Y167107D01*
X54957Y167893D02*Y167107D01*
G54D27*X53500Y155300D02*Y151700D01*
G54D28*X78250Y189925D02*Y187075D01*
X75750Y189925D02*Y187075D01*
X73250Y189925D02*Y187075D01*
G54D29*X78250Y189000D02*Y188000D01*
X75750Y189000D02*Y188000D01*
X73250Y189000D02*Y188000D01*
G54D28*X85750Y189925D02*Y187075D01*
X83250Y189925D02*Y187075D01*
X80750Y189925D02*Y187075D01*
G54D29*X85750Y189000D02*Y188000D01*
X83250Y189000D02*Y188000D01*
X80750Y189000D02*Y188000D01*
X73250Y168000D02*Y167000D01*
X75750Y168000D02*Y167000D01*
X78250Y168000D02*Y167000D01*
X80750Y168000D02*Y167000D01*
X83250Y168000D02*Y167000D01*
X85750Y168000D02*Y167000D01*
G54D27*X63500Y155300D02*Y151700D01*
G54D28*X90750Y189925D02*Y187075D01*
G54D29*Y189000D02*Y188000D01*
G54D28*X88250Y189925D02*Y187075D01*
G54D29*Y189000D02*Y188000D01*
G54D28*X73250Y168925D02*Y166075D01*
X75750Y168925D02*Y166075D01*
X78250Y168925D02*Y166075D01*
X80750Y168925D02*Y166075D01*
X83250Y168925D02*Y166075D01*
X85750Y168925D02*Y166075D01*
X88250Y168925D02*Y166075D01*
G54D29*Y168000D02*Y167000D01*
G54D28*X90750Y168925D02*Y166075D01*
G54D29*Y168000D02*Y167000D01*
G54D22*X175000Y129740D02*Y123087D01*
X165000Y143913D02*Y137260D01*
X155000Y129740D02*Y123087D01*
G54D24*X175107Y164543D02*X175893D01*
G54D22*X171260Y56500D02*X177913D01*
X171260Y76500D02*X177913D01*
G54D24*X160457Y32893D02*Y32107D01*
X167543Y32893D02*Y32107D01*
X141457Y32893D02*Y32107D01*
X148543Y32893D02*Y32107D01*
G54D27*X101500Y145800D02*Y142200D01*
X91500Y145800D02*Y142200D01*
G54D24*X100043Y158393D02*Y157607D01*
X92957Y158393D02*Y157607D01*
G54D22*X157087Y46500D02*X163740D01*
X157087Y66500D02*X163740D01*
X145000Y143913D02*Y137260D01*
X146000Y189504D02*Y180016D01*
Y206984D02*Y197496D01*
G54D30*X165500Y165800D02*Y164200D01*
X161600Y165800D02*Y164200D01*
X157700Y165800D02*Y164200D01*
Y157600D02*Y156000D01*
X161600Y157600D02*Y156000D01*
X165500Y157600D02*Y156000D01*
G54D24*X175107Y157457D02*X175893D01*
G54D22*X156000Y189504D02*Y180016D01*
X166000Y189504D02*Y180016D01*
Y206984D02*Y197496D01*
X156000Y206984D02*Y197496D01*
G54D17*X160000Y133500D03*
X169500Y165000D03*
X153000D03*
X167500Y85500D03*
Y40000D03*
X161600Y171000D03*
X138000Y202500D03*
X174000D03*
X138000Y184500D03*
X174000D03*
X42000Y111000D03*
Y105000D03*
Y99000D03*
X18000Y105000D03*
X23500D03*
X29000D03*
X73000Y135000D03*
X78000Y97500D03*
X83000Y105000D03*
X88000D03*
X93000D03*
X88000Y135000D03*
X54000Y63500D03*
X48000D03*
X42500D03*
Y70000D03*
X59500D03*
Y63500D03*
X83000Y135000D03*
X90000Y152000D03*
X95000D03*
X78000Y149000D03*
X55000Y185000D03*
X50000D03*
X55000Y173000D03*
X50000D03*
X55000Y161000D03*
X50000D03*
X45000Y185000D03*
X40000D03*
Y179000D03*
X45000Y173000D03*
X40000D03*
X45000Y161000D03*
X40000D03*
Y167000D03*
X81000Y173500D03*
X86000D03*
X81000Y182500D03*
X86000D03*
X81000Y178000D03*
X86000D03*
G54D18*G54D31*G54D32*G54D31*G54D32*G54D31*G54D32*G54D31*G54D32*G54D33*M02*
