G04 start of page 7 for group -4062 idx -4062 *
G04 Title: (unknown), soldermask *
G04 Creator: pcb 20140316 *
G04 CreationDate: Wed 30 Mar 2016 07:43:05 PM GMT UTC *
G04 For: ndholmes *
G04 Format: Gerber/RS-274X *
G04 PCB-Dimensions (mil): 2100.00 2700.00 *
G04 PCB-Coordinate-Origin: lower left *
%MOIN*%
%FSLAX25Y25*%
%LNBOTTOMMASK*%
%ADD64C,0.0860*%
%ADD63C,0.1560*%
%ADD62C,0.0660*%
%ADD61C,0.0001*%
G54D61*G36*
X196700Y23300D02*Y16700D01*
X203300D01*
Y23300D01*
X196700D01*
G37*
G54D62*X200000Y30000D03*
Y40000D03*
Y50000D03*
Y60000D03*
Y70000D03*
G54D63*X140000Y10000D03*
G54D62*X119803Y9449D03*
X109803D03*
X99803D03*
G54D61*G36*
X116503Y22749D02*Y16149D01*
X123103D01*
Y22749D01*
X116503D01*
G37*
G54D62*X109803Y19449D03*
X99803D03*
X10000Y130000D03*
Y120000D03*
Y110000D03*
Y100000D03*
Y90000D03*
Y70000D03*
Y60000D03*
Y50000D03*
Y40000D03*
Y30000D03*
Y20000D03*
G54D63*X30000Y10000D03*
G54D62*X200000Y80000D03*
Y90000D03*
Y106000D03*
Y116000D03*
Y126000D03*
Y136000D03*
Y146000D03*
Y156000D03*
Y166000D03*
Y176000D03*
Y186000D03*
Y196000D03*
G54D63*Y210000D03*
G54D61*G36*
X6700Y163300D02*Y156700D01*
X13300D01*
Y163300D01*
X6700D01*
G37*
G54D62*X10000Y150000D03*
Y140000D03*
G54D63*Y215000D03*
G54D64*X59000Y247000D03*
X49000D03*
X39000D03*
X29000D03*
X19000D03*
X9000D03*
G54D61*G36*
X113200Y251300D02*Y242700D01*
X121800D01*
Y251300D01*
X113200D01*
G37*
G36*
X74700D02*Y242700D01*
X83300D01*
Y251300D01*
X74700D01*
G37*
G54D64*X69000Y247000D03*
X97500D03*
M02*
