G04 start of page 10 for group -4015 idx -4015 *
G04 Title: (unknown), toppaste *
G04 Creator: pcb 20140316 *
G04 CreationDate: Thu 11 Jun 2015 05:52:48 PM GMT UTC *
G04 For: ndholmes *
G04 Format: Gerber/RS-274X *
G04 PCB-Dimensions (mil): 2100.00 2700.00 *
G04 PCB-Coordinate-Origin: lower left *
%MOIN*%
%FSLAX25Y25*%
%LNTOPPASTE*%
%ADD72R,0.0165X0.0165*%
%ADD71R,0.0490X0.0490*%
%ADD70C,0.0001*%
%ADD69R,0.0945X0.0945*%
%ADD68R,0.0378X0.0378*%
%ADD67R,0.0512X0.0512*%
%ADD66R,0.0240X0.0240*%
%ADD65R,0.0500X0.0500*%
G54D65*X175000Y129740D02*Y123087D01*
X165000Y143913D02*Y137260D01*
X155000Y129740D02*Y123087D01*
X145000Y143913D02*Y137260D01*
G54D66*X165500Y165800D02*Y164200D01*
X161600Y165800D02*Y164200D01*
X157700Y165800D02*Y164200D01*
Y157600D02*Y156000D01*
X161600Y157600D02*Y156000D01*
X165500Y157600D02*Y156000D01*
G54D67*X57543Y98393D02*Y97607D01*
X50457Y98393D02*Y97607D01*
X34607Y98543D02*X35393D01*
X34607Y91457D02*X35393D01*
G54D68*X56906Y87984D02*Y83890D01*
X51000Y87984D02*Y76174D01*
G54D69*Y74440D02*Y72550D01*
G54D70*G36*
X52885Y82005D02*X55725Y79165D01*
X54305Y77745D01*
X51465Y80585D01*
X52885Y82005D01*
G37*
G36*
X46275Y79165D02*X49115Y82005D01*
X50535Y80585D01*
X47695Y77745D01*
X46275Y79165D01*
G37*
G54D68*X45094Y87984D02*Y83890D01*
G54D67*X34607Y111414D02*X35393D01*
X34607Y118500D02*X35393D01*
X138457Y221893D02*Y221107D01*
X131371Y221893D02*Y221107D01*
X138500Y210893D02*Y210107D01*
X131414Y210893D02*Y210107D01*
X175107Y157457D02*X175893D01*
X175107Y164543D02*X175893D01*
G54D65*X47000Y128913D02*Y122260D01*
X57000Y114740D02*Y108087D01*
X67000Y128913D02*Y122260D01*
X77000Y114740D02*Y108087D01*
X181500Y214240D02*Y207587D01*
X171500Y228413D02*Y221760D01*
X161500Y214240D02*Y207587D01*
X151500Y228413D02*Y221760D01*
G54D67*X171457Y103936D02*Y103150D01*
X178543Y103936D02*Y103150D01*
X171457Y93893D02*Y93107D01*
X178543Y93893D02*Y93107D01*
X62043Y178893D02*Y178107D01*
X54957Y178893D02*Y178107D01*
G54D71*X63500Y194300D02*Y190700D01*
X53500Y194300D02*Y190700D01*
G54D72*X90750Y189925D02*Y187075D01*
X88250Y189925D02*Y187075D01*
X85750Y189925D02*Y187075D01*
X83250Y189925D02*Y187075D01*
X80750Y189925D02*Y187075D01*
X78250Y189925D02*Y187075D01*
X75750Y189925D02*Y187075D01*
X73250Y189925D02*Y187075D01*
Y168925D02*Y166075D01*
X75750Y168925D02*Y166075D01*
X78250Y168925D02*Y166075D01*
X80750Y168925D02*Y166075D01*
X83250Y168925D02*Y166075D01*
X85750Y168925D02*Y166075D01*
X88250Y168925D02*Y166075D01*
X90750Y168925D02*Y166075D01*
G54D67*X62043Y167893D02*Y167107D01*
X54957Y167893D02*Y167107D01*
G54D71*X63500Y155300D02*Y151700D01*
X53500Y155300D02*Y151700D01*
X101500Y145800D02*Y142200D01*
X91500Y145800D02*Y142200D01*
G54D67*X100043Y158393D02*Y157607D01*
X92957Y158393D02*Y157607D01*
G54D65*X157087Y46500D02*X163740D01*
X171260Y56500D02*X177913D01*
X157087Y66500D02*X163740D01*
X171260Y76500D02*X177913D01*
G54D67*X138595Y33681D02*Y31319D01*
X150405Y33681D02*Y31319D01*
X160457Y32893D02*Y32107D01*
X167543Y32893D02*Y32107D01*
M02*
