G04 start of page 3 for group 1 idx 1 *
G04 Title: (unknown), solder *
G04 Creator: pcb 20140316 *
G04 CreationDate: Thu 11 Jun 2015 05:52:48 PM GMT UTC *
G04 For: ndholmes *
G04 Format: Gerber/RS-274X *
G04 PCB-Dimensions (mil): 2100.00 2700.00 *
G04 PCB-Coordinate-Origin: lower left *
%MOIN*%
%FSLAX25Y25*%
%LNBOTTOM*%
%ADD41C,0.0480*%
%ADD40C,0.1285*%
%ADD39C,0.0380*%
%ADD38C,0.0200*%
%ADD37C,0.0400*%
%ADD36C,0.0800*%
%ADD35C,0.1500*%
%ADD34C,0.0600*%
%ADD33C,0.0100*%
%ADD32C,0.0001*%
G54D32*G36*
X13613Y115000D02*X22500D01*
Y95000D01*
X13613D01*
Y97853D01*
X13656Y97860D01*
X13768Y97897D01*
X13873Y97952D01*
X13968Y98022D01*
X14051Y98106D01*
X14119Y98202D01*
X14170Y98308D01*
X14318Y98716D01*
X14422Y99137D01*
X14484Y99567D01*
X14505Y100000D01*
X14484Y100433D01*
X14422Y100863D01*
X14318Y101284D01*
X14175Y101694D01*
X14122Y101800D01*
X14053Y101896D01*
X13970Y101981D01*
X13875Y102051D01*
X13769Y102106D01*
X13657Y102143D01*
X13613Y102151D01*
Y107853D01*
X13656Y107860D01*
X13768Y107897D01*
X13873Y107952D01*
X13968Y108022D01*
X14051Y108106D01*
X14119Y108202D01*
X14170Y108308D01*
X14318Y108716D01*
X14422Y109137D01*
X14484Y109567D01*
X14505Y110000D01*
X14484Y110433D01*
X14422Y110863D01*
X14318Y111284D01*
X14175Y111694D01*
X14122Y111800D01*
X14053Y111896D01*
X13970Y111981D01*
X13875Y112051D01*
X13769Y112106D01*
X13657Y112143D01*
X13613Y112151D01*
Y115000D01*
G37*
G36*
X10002D02*X13613D01*
Y112151D01*
X13540Y112163D01*
X13421Y112164D01*
X13304Y112146D01*
X13191Y112110D01*
X13085Y112057D01*
X12988Y111988D01*
X12904Y111905D01*
X12833Y111809D01*
X12779Y111704D01*
X12741Y111592D01*
X12722Y111475D01*
X12721Y111356D01*
X12739Y111239D01*
X12777Y111126D01*
X12876Y110855D01*
X12944Y110575D01*
X12986Y110289D01*
X13000Y110000D01*
X12986Y109711D01*
X12944Y109425D01*
X12876Y109145D01*
X12780Y108872D01*
X12742Y108761D01*
X12725Y108644D01*
X12725Y108526D01*
X12745Y108409D01*
X12782Y108297D01*
X12836Y108193D01*
X12906Y108098D01*
X12991Y108015D01*
X13087Y107946D01*
X13192Y107893D01*
X13305Y107857D01*
X13421Y107840D01*
X13539Y107841D01*
X13613Y107853D01*
Y102151D01*
X13540Y102163D01*
X13421Y102164D01*
X13304Y102146D01*
X13191Y102110D01*
X13085Y102057D01*
X12988Y101988D01*
X12904Y101905D01*
X12833Y101809D01*
X12779Y101704D01*
X12741Y101592D01*
X12722Y101475D01*
X12721Y101356D01*
X12739Y101239D01*
X12777Y101126D01*
X12876Y100855D01*
X12944Y100575D01*
X12986Y100289D01*
X13000Y100000D01*
X12986Y99711D01*
X12944Y99425D01*
X12876Y99145D01*
X12780Y98872D01*
X12742Y98761D01*
X12725Y98644D01*
X12725Y98526D01*
X12745Y98409D01*
X12782Y98297D01*
X12836Y98193D01*
X12906Y98098D01*
X12991Y98015D01*
X13087Y97946D01*
X13192Y97893D01*
X13305Y97857D01*
X13421Y97840D01*
X13539Y97841D01*
X13613Y97853D01*
Y95000D01*
X10002D01*
Y95495D01*
X10433Y95516D01*
X10863Y95578D01*
X11284Y95682D01*
X11694Y95825D01*
X11800Y95878D01*
X11896Y95947D01*
X11981Y96030D01*
X12051Y96125D01*
X12106Y96231D01*
X12143Y96343D01*
X12163Y96460D01*
X12164Y96579D01*
X12146Y96696D01*
X12110Y96809D01*
X12057Y96915D01*
X11988Y97012D01*
X11905Y97096D01*
X11809Y97167D01*
X11704Y97221D01*
X11592Y97259D01*
X11475Y97278D01*
X11356Y97279D01*
X11239Y97261D01*
X11126Y97223D01*
X10855Y97124D01*
X10575Y97056D01*
X10289Y97014D01*
X10002Y97000D01*
Y103000D01*
X10289Y102986D01*
X10575Y102944D01*
X10855Y102876D01*
X11128Y102780D01*
X11239Y102742D01*
X11356Y102725D01*
X11474Y102725D01*
X11591Y102745D01*
X11703Y102782D01*
X11807Y102836D01*
X11902Y102906D01*
X11985Y102991D01*
X12054Y103087D01*
X12107Y103192D01*
X12143Y103305D01*
X12160Y103421D01*
X12159Y103539D01*
X12140Y103656D01*
X12103Y103768D01*
X12048Y103873D01*
X11978Y103968D01*
X11894Y104051D01*
X11798Y104119D01*
X11692Y104170D01*
X11284Y104318D01*
X10863Y104422D01*
X10433Y104484D01*
X10002Y104505D01*
Y105495D01*
X10433Y105516D01*
X10863Y105578D01*
X11284Y105682D01*
X11694Y105825D01*
X11800Y105878D01*
X11896Y105947D01*
X11981Y106030D01*
X12051Y106125D01*
X12106Y106231D01*
X12143Y106343D01*
X12163Y106460D01*
X12164Y106579D01*
X12146Y106696D01*
X12110Y106809D01*
X12057Y106915D01*
X11988Y107012D01*
X11905Y107096D01*
X11809Y107167D01*
X11704Y107221D01*
X11592Y107259D01*
X11475Y107278D01*
X11356Y107279D01*
X11239Y107261D01*
X11126Y107223D01*
X10855Y107124D01*
X10575Y107056D01*
X10289Y107014D01*
X10002Y107000D01*
Y113000D01*
X10289Y112986D01*
X10575Y112944D01*
X10855Y112876D01*
X11128Y112780D01*
X11239Y112742D01*
X11356Y112725D01*
X11474Y112725D01*
X11591Y112745D01*
X11703Y112782D01*
X11807Y112836D01*
X11902Y112906D01*
X11985Y112991D01*
X12054Y113087D01*
X12107Y113192D01*
X12143Y113305D01*
X12160Y113421D01*
X12159Y113539D01*
X12140Y113656D01*
X12103Y113768D01*
X12048Y113873D01*
X11978Y113968D01*
X11894Y114051D01*
X11798Y114119D01*
X11692Y114170D01*
X11284Y114318D01*
X10863Y114422D01*
X10433Y114484D01*
X10002Y114505D01*
Y115000D01*
G37*
G36*
X6387D02*X10002D01*
Y114505D01*
X10000Y114505D01*
X9567Y114484D01*
X9137Y114422D01*
X8716Y114318D01*
X8306Y114175D01*
X8200Y114122D01*
X8104Y114053D01*
X8019Y113970D01*
X7949Y113875D01*
X7894Y113769D01*
X7857Y113657D01*
X7837Y113540D01*
X7836Y113421D01*
X7854Y113304D01*
X7890Y113191D01*
X7943Y113085D01*
X8012Y112988D01*
X8095Y112904D01*
X8191Y112833D01*
X8296Y112779D01*
X8408Y112741D01*
X8525Y112722D01*
X8644Y112721D01*
X8761Y112739D01*
X8874Y112777D01*
X9145Y112876D01*
X9425Y112944D01*
X9711Y112986D01*
X10000Y113000D01*
X10002Y113000D01*
Y107000D01*
X10000Y107000D01*
X9711Y107014D01*
X9425Y107056D01*
X9145Y107124D01*
X8872Y107220D01*
X8761Y107258D01*
X8644Y107275D01*
X8526Y107275D01*
X8409Y107255D01*
X8297Y107218D01*
X8193Y107164D01*
X8098Y107094D01*
X8015Y107009D01*
X7946Y106913D01*
X7893Y106808D01*
X7857Y106695D01*
X7840Y106579D01*
X7841Y106461D01*
X7860Y106344D01*
X7897Y106232D01*
X7952Y106127D01*
X8022Y106032D01*
X8106Y105949D01*
X8202Y105881D01*
X8308Y105830D01*
X8716Y105682D01*
X9137Y105578D01*
X9567Y105516D01*
X10000Y105495D01*
X10002Y105495D01*
Y104505D01*
X10000Y104505D01*
X9567Y104484D01*
X9137Y104422D01*
X8716Y104318D01*
X8306Y104175D01*
X8200Y104122D01*
X8104Y104053D01*
X8019Y103970D01*
X7949Y103875D01*
X7894Y103769D01*
X7857Y103657D01*
X7837Y103540D01*
X7836Y103421D01*
X7854Y103304D01*
X7890Y103191D01*
X7943Y103085D01*
X8012Y102988D01*
X8095Y102904D01*
X8191Y102833D01*
X8296Y102779D01*
X8408Y102741D01*
X8525Y102722D01*
X8644Y102721D01*
X8761Y102739D01*
X8874Y102777D01*
X9145Y102876D01*
X9425Y102944D01*
X9711Y102986D01*
X10000Y103000D01*
X10002Y103000D01*
Y97000D01*
X10000Y97000D01*
X9711Y97014D01*
X9425Y97056D01*
X9145Y97124D01*
X8872Y97220D01*
X8761Y97258D01*
X8644Y97275D01*
X8526Y97275D01*
X8409Y97255D01*
X8297Y97218D01*
X8193Y97164D01*
X8098Y97094D01*
X8015Y97009D01*
X7946Y96913D01*
X7893Y96808D01*
X7857Y96695D01*
X7840Y96579D01*
X7841Y96461D01*
X7860Y96344D01*
X7897Y96232D01*
X7952Y96127D01*
X8022Y96032D01*
X8106Y95949D01*
X8202Y95881D01*
X8308Y95830D01*
X8716Y95682D01*
X9137Y95578D01*
X9567Y95516D01*
X10000Y95495D01*
X10002Y95495D01*
Y95000D01*
X6387D01*
Y97849D01*
X6460Y97837D01*
X6579Y97836D01*
X6696Y97854D01*
X6809Y97890D01*
X6915Y97943D01*
X7012Y98012D01*
X7096Y98095D01*
X7167Y98191D01*
X7221Y98296D01*
X7259Y98408D01*
X7278Y98525D01*
X7279Y98644D01*
X7261Y98761D01*
X7223Y98874D01*
X7124Y99145D01*
X7056Y99425D01*
X7014Y99711D01*
X7000Y100000D01*
X7014Y100289D01*
X7056Y100575D01*
X7124Y100855D01*
X7220Y101128D01*
X7258Y101239D01*
X7275Y101356D01*
X7275Y101474D01*
X7255Y101591D01*
X7218Y101703D01*
X7164Y101807D01*
X7094Y101902D01*
X7009Y101985D01*
X6913Y102054D01*
X6808Y102107D01*
X6695Y102143D01*
X6579Y102160D01*
X6461Y102159D01*
X6387Y102147D01*
Y107849D01*
X6460Y107837D01*
X6579Y107836D01*
X6696Y107854D01*
X6809Y107890D01*
X6915Y107943D01*
X7012Y108012D01*
X7096Y108095D01*
X7167Y108191D01*
X7221Y108296D01*
X7259Y108408D01*
X7278Y108525D01*
X7279Y108644D01*
X7261Y108761D01*
X7223Y108874D01*
X7124Y109145D01*
X7056Y109425D01*
X7014Y109711D01*
X7000Y110000D01*
X7014Y110289D01*
X7056Y110575D01*
X7124Y110855D01*
X7220Y111128D01*
X7258Y111239D01*
X7275Y111356D01*
X7275Y111474D01*
X7255Y111591D01*
X7218Y111703D01*
X7164Y111807D01*
X7094Y111902D01*
X7009Y111985D01*
X6913Y112054D01*
X6808Y112107D01*
X6695Y112143D01*
X6579Y112160D01*
X6461Y112159D01*
X6387Y112147D01*
Y115000D01*
G37*
G36*
X4500D02*X6387D01*
Y112147D01*
X6344Y112140D01*
X6232Y112103D01*
X6127Y112048D01*
X6032Y111978D01*
X5949Y111894D01*
X5881Y111798D01*
X5830Y111692D01*
X5682Y111284D01*
X5578Y110863D01*
X5516Y110433D01*
X5495Y110000D01*
X5516Y109567D01*
X5578Y109137D01*
X5682Y108716D01*
X5825Y108306D01*
X5878Y108200D01*
X5947Y108104D01*
X6030Y108019D01*
X6125Y107949D01*
X6231Y107894D01*
X6343Y107857D01*
X6387Y107849D01*
Y102147D01*
X6344Y102140D01*
X6232Y102103D01*
X6127Y102048D01*
X6032Y101978D01*
X5949Y101894D01*
X5881Y101798D01*
X5830Y101692D01*
X5682Y101284D01*
X5578Y100863D01*
X5516Y100433D01*
X5495Y100000D01*
X5516Y99567D01*
X5578Y99137D01*
X5682Y98716D01*
X5825Y98306D01*
X5878Y98200D01*
X5947Y98104D01*
X6030Y98019D01*
X6125Y97949D01*
X6231Y97894D01*
X6343Y97857D01*
X6387Y97849D01*
Y95000D01*
X4500D01*
Y115000D01*
G37*
G36*
X82995Y101991D02*X83000Y101991D01*
X83471Y102028D01*
X83930Y102138D01*
X84366Y102319D01*
X84769Y102565D01*
X85128Y102872D01*
X85435Y103231D01*
X85500Y103338D01*
X85565Y103231D01*
X85872Y102872D01*
X86231Y102565D01*
X86634Y102319D01*
X87070Y102138D01*
X87529Y102028D01*
X88000Y101991D01*
X88471Y102028D01*
X88930Y102138D01*
X89366Y102319D01*
X89769Y102565D01*
X90128Y102872D01*
X90435Y103231D01*
X90500Y103338D01*
X90565Y103231D01*
X90872Y102872D01*
X91231Y102565D01*
X91500Y102401D01*
Y95121D01*
X90879Y94500D01*
X82995D01*
Y101991D01*
G37*
G36*
X167495Y177500D02*X184379D01*
X188500Y173379D01*
Y34621D01*
X185379Y31500D01*
X167495D01*
Y36991D01*
X167500Y36991D01*
X167971Y37028D01*
X168430Y37138D01*
X168866Y37319D01*
X169269Y37565D01*
X169628Y37872D01*
X169935Y38231D01*
X170181Y38634D01*
X170362Y39070D01*
X170472Y39529D01*
X170500Y40000D01*
X170472Y40471D01*
X170362Y40930D01*
X170181Y41366D01*
X169935Y41769D01*
X169628Y42128D01*
X169269Y42435D01*
X169000Y42599D01*
Y82901D01*
X169269Y83065D01*
X169628Y83372D01*
X169935Y83731D01*
X170181Y84134D01*
X170362Y84570D01*
X170472Y85029D01*
X170500Y85500D01*
X170472Y85971D01*
X170362Y86430D01*
X170181Y86866D01*
X169935Y87269D01*
X169628Y87628D01*
X169269Y87935D01*
X168866Y88181D01*
X168430Y88362D01*
X167971Y88472D01*
X167500Y88509D01*
X167495Y88509D01*
Y162767D01*
X167731Y162565D01*
X168134Y162319D01*
X168570Y162138D01*
X169029Y162028D01*
X169500Y161991D01*
X169971Y162028D01*
X170430Y162138D01*
X170866Y162319D01*
X171269Y162565D01*
X171628Y162872D01*
X171935Y163231D01*
X172181Y163634D01*
X172362Y164070D01*
X172472Y164529D01*
X172500Y165000D01*
X172472Y165471D01*
X172362Y165930D01*
X172181Y166366D01*
X171935Y166769D01*
X171628Y167128D01*
X171269Y167435D01*
X170866Y167681D01*
X170430Y167862D01*
X169971Y167972D01*
X169500Y168009D01*
X169029Y167972D01*
X168570Y167862D01*
X168134Y167681D01*
X167731Y167435D01*
X167495Y167233D01*
Y177500D01*
G37*
G36*
Y201500D02*X186379D01*
X190500Y197379D01*
Y175621D01*
X186102Y180019D01*
X186064Y180064D01*
X185884Y180217D01*
X185683Y180341D01*
X185465Y180431D01*
X185235Y180486D01*
X185235Y180486D01*
X185000Y180505D01*
X184941Y180500D01*
X167495D01*
Y183923D01*
X167848Y183347D01*
X168308Y182808D01*
X168847Y182348D01*
X169451Y181978D01*
X170105Y181707D01*
X170794Y181542D01*
X171500Y181486D01*
X172206Y181542D01*
X172895Y181707D01*
X173549Y181978D01*
X174153Y182348D01*
X174692Y182808D01*
X175152Y183347D01*
X175522Y183951D01*
X175793Y184605D01*
X175958Y185294D01*
X176000Y186000D01*
X175958Y186706D01*
X175793Y187395D01*
X175522Y188049D01*
X175152Y188653D01*
X174692Y189192D01*
X174153Y189652D01*
X173549Y190022D01*
X172895Y190293D01*
X172206Y190458D01*
X171500Y190514D01*
X170794Y190458D01*
X170105Y190293D01*
X169451Y190022D01*
X168847Y189652D01*
X168308Y189192D01*
X167848Y188653D01*
X167495Y188077D01*
Y193923D01*
X167848Y193347D01*
X168308Y192808D01*
X168847Y192348D01*
X169451Y191978D01*
X170105Y191707D01*
X170794Y191542D01*
X171500Y191486D01*
X172206Y191542D01*
X172895Y191707D01*
X173549Y191978D01*
X174153Y192348D01*
X174692Y192808D01*
X175152Y193347D01*
X175522Y193951D01*
X175793Y194605D01*
X175958Y195294D01*
X176000Y196000D01*
X175958Y196706D01*
X175793Y197395D01*
X175522Y198049D01*
X175152Y198653D01*
X174692Y199192D01*
X174153Y199652D01*
X173549Y200022D01*
X172895Y200293D01*
X172206Y200458D01*
X171500Y200514D01*
X170794Y200458D01*
X170105Y200293D01*
X169451Y200022D01*
X168847Y199652D01*
X168308Y199192D01*
X167848Y198653D01*
X167495Y198077D01*
Y201500D01*
G37*
G36*
X200000Y201474D02*X201334Y201579D01*
X202635Y201891D01*
X203871Y202403D01*
X205012Y203102D01*
X206029Y203971D01*
X206898Y204988D01*
X207500Y205971D01*
Y12500D01*
X200000D01*
Y15507D01*
X203235Y15514D01*
X203465Y15569D01*
X203683Y15659D01*
X203884Y15783D01*
X204064Y15936D01*
X204217Y16116D01*
X204341Y16317D01*
X204431Y16535D01*
X204486Y16765D01*
X204500Y17000D01*
X204486Y23235D01*
X204431Y23465D01*
X204341Y23683D01*
X204217Y23884D01*
X204064Y24064D01*
X203884Y24217D01*
X203683Y24341D01*
X203465Y24431D01*
X203235Y24486D01*
X203000Y24500D01*
X200000Y24493D01*
Y25486D01*
X200706Y25542D01*
X201395Y25707D01*
X202049Y25978D01*
X202653Y26348D01*
X203192Y26808D01*
X203652Y27347D01*
X204022Y27951D01*
X204293Y28605D01*
X204458Y29294D01*
X204500Y30000D01*
X204458Y30706D01*
X204293Y31395D01*
X204022Y32049D01*
X203652Y32653D01*
X203192Y33192D01*
X202653Y33652D01*
X202049Y34022D01*
X201395Y34293D01*
X200706Y34458D01*
X200000Y34514D01*
Y35486D01*
X200706Y35542D01*
X201395Y35707D01*
X202049Y35978D01*
X202653Y36348D01*
X203192Y36808D01*
X203652Y37347D01*
X204022Y37951D01*
X204293Y38605D01*
X204458Y39294D01*
X204500Y40000D01*
X204458Y40706D01*
X204293Y41395D01*
X204022Y42049D01*
X203652Y42653D01*
X203192Y43192D01*
X202653Y43652D01*
X202049Y44022D01*
X201395Y44293D01*
X200706Y44458D01*
X200000Y44514D01*
Y45486D01*
X200706Y45542D01*
X201395Y45707D01*
X202049Y45978D01*
X202653Y46348D01*
X203192Y46808D01*
X203652Y47347D01*
X204022Y47951D01*
X204293Y48605D01*
X204458Y49294D01*
X204500Y50000D01*
X204458Y50706D01*
X204293Y51395D01*
X204022Y52049D01*
X203652Y52653D01*
X203192Y53192D01*
X202653Y53652D01*
X202049Y54022D01*
X201395Y54293D01*
X200706Y54458D01*
X200000Y54514D01*
Y55486D01*
X200706Y55542D01*
X201395Y55707D01*
X202049Y55978D01*
X202653Y56348D01*
X203192Y56808D01*
X203652Y57347D01*
X204022Y57951D01*
X204293Y58605D01*
X204458Y59294D01*
X204500Y60000D01*
X204458Y60706D01*
X204293Y61395D01*
X204022Y62049D01*
X203652Y62653D01*
X203192Y63192D01*
X202653Y63652D01*
X202049Y64022D01*
X201395Y64293D01*
X200706Y64458D01*
X200000Y64514D01*
Y65486D01*
X200706Y65542D01*
X201395Y65707D01*
X202049Y65978D01*
X202653Y66348D01*
X203192Y66808D01*
X203652Y67347D01*
X204022Y67951D01*
X204293Y68605D01*
X204458Y69294D01*
X204500Y70000D01*
X204458Y70706D01*
X204293Y71395D01*
X204022Y72049D01*
X203652Y72653D01*
X203192Y73192D01*
X202653Y73652D01*
X202049Y74022D01*
X201395Y74293D01*
X200706Y74458D01*
X200000Y74514D01*
Y75486D01*
X200706Y75542D01*
X201395Y75707D01*
X202049Y75978D01*
X202653Y76348D01*
X203192Y76808D01*
X203652Y77347D01*
X204022Y77951D01*
X204293Y78605D01*
X204458Y79294D01*
X204500Y80000D01*
X204458Y80706D01*
X204293Y81395D01*
X204022Y82049D01*
X203652Y82653D01*
X203192Y83192D01*
X202653Y83652D01*
X202049Y84022D01*
X201395Y84293D01*
X200706Y84458D01*
X200000Y84514D01*
Y85486D01*
X200706Y85542D01*
X201395Y85707D01*
X202049Y85978D01*
X202653Y86348D01*
X203192Y86808D01*
X203652Y87347D01*
X204022Y87951D01*
X204293Y88605D01*
X204458Y89294D01*
X204500Y90000D01*
X204458Y90706D01*
X204293Y91395D01*
X204022Y92049D01*
X203652Y92653D01*
X203192Y93192D01*
X202653Y93652D01*
X202049Y94022D01*
X201395Y94293D01*
X200706Y94458D01*
X200000Y94514D01*
Y101486D01*
X200706Y101542D01*
X201395Y101707D01*
X202049Y101978D01*
X202653Y102348D01*
X203192Y102808D01*
X203652Y103347D01*
X204022Y103951D01*
X204293Y104605D01*
X204458Y105294D01*
X204500Y106000D01*
X204458Y106706D01*
X204293Y107395D01*
X204022Y108049D01*
X203652Y108653D01*
X203192Y109192D01*
X202653Y109652D01*
X202049Y110022D01*
X201395Y110293D01*
X200706Y110458D01*
X200000Y110514D01*
Y111486D01*
X200706Y111542D01*
X201395Y111707D01*
X202049Y111978D01*
X202653Y112348D01*
X203192Y112808D01*
X203652Y113347D01*
X204022Y113951D01*
X204293Y114605D01*
X204458Y115294D01*
X204500Y116000D01*
X204458Y116706D01*
X204293Y117395D01*
X204022Y118049D01*
X203652Y118653D01*
X203192Y119192D01*
X202653Y119652D01*
X202049Y120022D01*
X201395Y120293D01*
X200706Y120458D01*
X200000Y120514D01*
Y121486D01*
X200706Y121542D01*
X201395Y121707D01*
X202049Y121978D01*
X202653Y122348D01*
X203192Y122808D01*
X203652Y123347D01*
X204022Y123951D01*
X204293Y124605D01*
X204458Y125294D01*
X204500Y126000D01*
X204458Y126706D01*
X204293Y127395D01*
X204022Y128049D01*
X203652Y128653D01*
X203192Y129192D01*
X202653Y129652D01*
X202049Y130022D01*
X201395Y130293D01*
X200706Y130458D01*
X200000Y130514D01*
Y131486D01*
X200706Y131542D01*
X201395Y131707D01*
X202049Y131978D01*
X202653Y132348D01*
X203192Y132808D01*
X203652Y133347D01*
X204022Y133951D01*
X204293Y134605D01*
X204458Y135294D01*
X204500Y136000D01*
X204458Y136706D01*
X204293Y137395D01*
X204022Y138049D01*
X203652Y138653D01*
X203192Y139192D01*
X202653Y139652D01*
X202049Y140022D01*
X201395Y140293D01*
X200706Y140458D01*
X200000Y140514D01*
Y141486D01*
X200706Y141542D01*
X201395Y141707D01*
X202049Y141978D01*
X202653Y142348D01*
X203192Y142808D01*
X203652Y143347D01*
X204022Y143951D01*
X204293Y144605D01*
X204458Y145294D01*
X204500Y146000D01*
X204458Y146706D01*
X204293Y147395D01*
X204022Y148049D01*
X203652Y148653D01*
X203192Y149192D01*
X202653Y149652D01*
X202049Y150022D01*
X201395Y150293D01*
X200706Y150458D01*
X200000Y150514D01*
Y151486D01*
X200706Y151542D01*
X201395Y151707D01*
X202049Y151978D01*
X202653Y152348D01*
X203192Y152808D01*
X203652Y153347D01*
X204022Y153951D01*
X204293Y154605D01*
X204458Y155294D01*
X204500Y156000D01*
X204458Y156706D01*
X204293Y157395D01*
X204022Y158049D01*
X203652Y158653D01*
X203192Y159192D01*
X202653Y159652D01*
X202049Y160022D01*
X201395Y160293D01*
X200706Y160458D01*
X200000Y160514D01*
Y161486D01*
X200706Y161542D01*
X201395Y161707D01*
X202049Y161978D01*
X202653Y162348D01*
X203192Y162808D01*
X203652Y163347D01*
X204022Y163951D01*
X204293Y164605D01*
X204458Y165294D01*
X204500Y166000D01*
X204458Y166706D01*
X204293Y167395D01*
X204022Y168049D01*
X203652Y168653D01*
X203192Y169192D01*
X202653Y169652D01*
X202049Y170022D01*
X201395Y170293D01*
X200706Y170458D01*
X200000Y170514D01*
Y171486D01*
X200706Y171542D01*
X201395Y171707D01*
X202049Y171978D01*
X202653Y172348D01*
X203192Y172808D01*
X203652Y173347D01*
X204022Y173951D01*
X204293Y174605D01*
X204458Y175294D01*
X204500Y176000D01*
X204458Y176706D01*
X204293Y177395D01*
X204022Y178049D01*
X203652Y178653D01*
X203192Y179192D01*
X202653Y179652D01*
X202049Y180022D01*
X201395Y180293D01*
X200706Y180458D01*
X200000Y180514D01*
Y181486D01*
X200706Y181542D01*
X201395Y181707D01*
X202049Y181978D01*
X202653Y182348D01*
X203192Y182808D01*
X203652Y183347D01*
X204022Y183951D01*
X204293Y184605D01*
X204458Y185294D01*
X204500Y186000D01*
X204458Y186706D01*
X204293Y187395D01*
X204022Y188049D01*
X203652Y188653D01*
X203192Y189192D01*
X202653Y189652D01*
X202049Y190022D01*
X201395Y190293D01*
X200706Y190458D01*
X200000Y190514D01*
Y191486D01*
X200706Y191542D01*
X201395Y191707D01*
X202049Y191978D01*
X202653Y192348D01*
X203192Y192808D01*
X203652Y193347D01*
X204022Y193951D01*
X204293Y194605D01*
X204458Y195294D01*
X204500Y196000D01*
X204458Y196706D01*
X204293Y197395D01*
X204022Y198049D01*
X203652Y198653D01*
X203192Y199192D01*
X202653Y199652D01*
X202049Y200022D01*
X201395Y200293D01*
X200706Y200458D01*
X200000Y200514D01*
Y201474D01*
G37*
G36*
Y267500D02*X207500D01*
Y214029D01*
X206898Y215012D01*
X206029Y216029D01*
X205012Y216898D01*
X203871Y217597D01*
X202635Y218109D01*
X201334Y218421D01*
X200000Y218526D01*
Y267500D01*
G37*
G36*
X167495D02*X200000D01*
Y218526D01*
X198666Y218421D01*
X197365Y218109D01*
X196129Y217597D01*
X194988Y216898D01*
X193971Y216029D01*
X193102Y215012D01*
X192403Y213871D01*
X191891Y212635D01*
X191579Y211334D01*
X191474Y210000D01*
X191579Y208666D01*
X191891Y207365D01*
X192403Y206129D01*
X193102Y204988D01*
X193971Y203971D01*
X194988Y203102D01*
X196129Y202403D01*
X197365Y201891D01*
X198666Y201579D01*
X200000Y201474D01*
Y200514D01*
X199294Y200458D01*
X198605Y200293D01*
X197951Y200022D01*
X197347Y199652D01*
X196808Y199192D01*
X196348Y198653D01*
X195978Y198049D01*
X195707Y197395D01*
X195542Y196706D01*
X195486Y196000D01*
X195542Y195294D01*
X195707Y194605D01*
X195978Y193951D01*
X196348Y193347D01*
X196808Y192808D01*
X197347Y192348D01*
X197951Y191978D01*
X198605Y191707D01*
X199294Y191542D01*
X200000Y191486D01*
Y190514D01*
X199294Y190458D01*
X198605Y190293D01*
X197951Y190022D01*
X197347Y189652D01*
X196808Y189192D01*
X196348Y188653D01*
X195978Y188049D01*
X195707Y187395D01*
X195542Y186706D01*
X195486Y186000D01*
X195542Y185294D01*
X195707Y184605D01*
X195978Y183951D01*
X196348Y183347D01*
X196808Y182808D01*
X197347Y182348D01*
X197951Y181978D01*
X198605Y181707D01*
X199294Y181542D01*
X200000Y181486D01*
Y180514D01*
X199294Y180458D01*
X198605Y180293D01*
X197951Y180022D01*
X197347Y179652D01*
X196808Y179192D01*
X196348Y178653D01*
X195978Y178049D01*
X195707Y177395D01*
X195542Y176706D01*
X195486Y176000D01*
X195542Y175294D01*
X195707Y174605D01*
X195978Y173951D01*
X196348Y173347D01*
X196808Y172808D01*
X197347Y172348D01*
X197951Y171978D01*
X198605Y171707D01*
X199294Y171542D01*
X200000Y171486D01*
Y170514D01*
X199294Y170458D01*
X198605Y170293D01*
X197951Y170022D01*
X197347Y169652D01*
X196808Y169192D01*
X196348Y168653D01*
X195978Y168049D01*
X195707Y167395D01*
X195542Y166706D01*
X195486Y166000D01*
X195542Y165294D01*
X195707Y164605D01*
X195978Y163951D01*
X196348Y163347D01*
X196808Y162808D01*
X197347Y162348D01*
X197951Y161978D01*
X198605Y161707D01*
X199294Y161542D01*
X200000Y161486D01*
Y160514D01*
X199294Y160458D01*
X198605Y160293D01*
X197951Y160022D01*
X197347Y159652D01*
X196808Y159192D01*
X196348Y158653D01*
X195978Y158049D01*
X195707Y157395D01*
X195542Y156706D01*
X195486Y156000D01*
X195542Y155294D01*
X195707Y154605D01*
X195978Y153951D01*
X196348Y153347D01*
X196808Y152808D01*
X197347Y152348D01*
X197951Y151978D01*
X198605Y151707D01*
X199294Y151542D01*
X200000Y151486D01*
Y150514D01*
X199294Y150458D01*
X198605Y150293D01*
X197951Y150022D01*
X197347Y149652D01*
X196808Y149192D01*
X196348Y148653D01*
X195978Y148049D01*
X195707Y147395D01*
X195542Y146706D01*
X195486Y146000D01*
X195542Y145294D01*
X195707Y144605D01*
X195978Y143951D01*
X196348Y143347D01*
X196808Y142808D01*
X197347Y142348D01*
X197951Y141978D01*
X198605Y141707D01*
X199294Y141542D01*
X200000Y141486D01*
Y140514D01*
X199294Y140458D01*
X198605Y140293D01*
X197951Y140022D01*
X197347Y139652D01*
X196808Y139192D01*
X196348Y138653D01*
X195978Y138049D01*
X195707Y137395D01*
X195542Y136706D01*
X195486Y136000D01*
X195542Y135294D01*
X195707Y134605D01*
X195978Y133951D01*
X196348Y133347D01*
X196808Y132808D01*
X197347Y132348D01*
X197951Y131978D01*
X198605Y131707D01*
X199294Y131542D01*
X200000Y131486D01*
Y130514D01*
X199294Y130458D01*
X198605Y130293D01*
X197951Y130022D01*
X197347Y129652D01*
X196808Y129192D01*
X196348Y128653D01*
X195978Y128049D01*
X195707Y127395D01*
X195542Y126706D01*
X195486Y126000D01*
X195542Y125294D01*
X195707Y124605D01*
X195978Y123951D01*
X196348Y123347D01*
X196808Y122808D01*
X197347Y122348D01*
X197951Y121978D01*
X198605Y121707D01*
X199294Y121542D01*
X200000Y121486D01*
Y120514D01*
X199294Y120458D01*
X198605Y120293D01*
X197951Y120022D01*
X197347Y119652D01*
X196808Y119192D01*
X196348Y118653D01*
X195978Y118049D01*
X195707Y117395D01*
X195542Y116706D01*
X195486Y116000D01*
X195542Y115294D01*
X195707Y114605D01*
X195978Y113951D01*
X196348Y113347D01*
X196808Y112808D01*
X197347Y112348D01*
X197951Y111978D01*
X198605Y111707D01*
X199294Y111542D01*
X200000Y111486D01*
Y110514D01*
X199294Y110458D01*
X198605Y110293D01*
X197951Y110022D01*
X197347Y109652D01*
X196808Y109192D01*
X196348Y108653D01*
X195978Y108049D01*
X195707Y107395D01*
X195542Y106706D01*
X195486Y106000D01*
X195542Y105294D01*
X195707Y104605D01*
X195978Y103951D01*
X196348Y103347D01*
X196808Y102808D01*
X197347Y102348D01*
X197951Y101978D01*
X198605Y101707D01*
X199294Y101542D01*
X200000Y101486D01*
Y94514D01*
X199294Y94458D01*
X198605Y94293D01*
X197951Y94022D01*
X197347Y93652D01*
X196808Y93192D01*
X196348Y92653D01*
X195978Y92049D01*
X195707Y91395D01*
X195542Y90706D01*
X195486Y90000D01*
X195542Y89294D01*
X195707Y88605D01*
X195978Y87951D01*
X196348Y87347D01*
X196808Y86808D01*
X197347Y86348D01*
X197951Y85978D01*
X198605Y85707D01*
X199294Y85542D01*
X200000Y85486D01*
Y84514D01*
X199294Y84458D01*
X198605Y84293D01*
X197951Y84022D01*
X197347Y83652D01*
X196808Y83192D01*
X196348Y82653D01*
X195978Y82049D01*
X195707Y81395D01*
X195542Y80706D01*
X195486Y80000D01*
X195542Y79294D01*
X195707Y78605D01*
X195978Y77951D01*
X196348Y77347D01*
X196808Y76808D01*
X197347Y76348D01*
X197951Y75978D01*
X198605Y75707D01*
X199294Y75542D01*
X200000Y75486D01*
Y74514D01*
X199294Y74458D01*
X198605Y74293D01*
X197951Y74022D01*
X197347Y73652D01*
X196808Y73192D01*
X196348Y72653D01*
X195978Y72049D01*
X195707Y71395D01*
X195542Y70706D01*
X195486Y70000D01*
X195542Y69294D01*
X195707Y68605D01*
X195978Y67951D01*
X196348Y67347D01*
X196808Y66808D01*
X197347Y66348D01*
X197951Y65978D01*
X198605Y65707D01*
X199294Y65542D01*
X200000Y65486D01*
Y64514D01*
X199294Y64458D01*
X198605Y64293D01*
X197951Y64022D01*
X197347Y63652D01*
X196808Y63192D01*
X196348Y62653D01*
X195978Y62049D01*
X195707Y61395D01*
X195542Y60706D01*
X195486Y60000D01*
X195542Y59294D01*
X195707Y58605D01*
X195978Y57951D01*
X196348Y57347D01*
X196808Y56808D01*
X197347Y56348D01*
X197951Y55978D01*
X198605Y55707D01*
X199294Y55542D01*
X200000Y55486D01*
Y54514D01*
X199294Y54458D01*
X198605Y54293D01*
X197951Y54022D01*
X197347Y53652D01*
X196808Y53192D01*
X196348Y52653D01*
X195978Y52049D01*
X195707Y51395D01*
X195542Y50706D01*
X195486Y50000D01*
X195542Y49294D01*
X195707Y48605D01*
X195978Y47951D01*
X196348Y47347D01*
X196808Y46808D01*
X197347Y46348D01*
X197951Y45978D01*
X198605Y45707D01*
X199294Y45542D01*
X200000Y45486D01*
Y44514D01*
X199294Y44458D01*
X198605Y44293D01*
X197951Y44022D01*
X197347Y43652D01*
X196808Y43192D01*
X196348Y42653D01*
X195978Y42049D01*
X195707Y41395D01*
X195542Y40706D01*
X195486Y40000D01*
X195542Y39294D01*
X195707Y38605D01*
X195978Y37951D01*
X196348Y37347D01*
X196808Y36808D01*
X197347Y36348D01*
X197951Y35978D01*
X198605Y35707D01*
X199294Y35542D01*
X200000Y35486D01*
Y34514D01*
X199294Y34458D01*
X198605Y34293D01*
X197951Y34022D01*
X197347Y33652D01*
X196808Y33192D01*
X196348Y32653D01*
X195978Y32049D01*
X195707Y31395D01*
X195542Y30706D01*
X195486Y30000D01*
X195542Y29294D01*
X195707Y28605D01*
X195978Y27951D01*
X196348Y27347D01*
X196808Y26808D01*
X197347Y26348D01*
X197951Y25978D01*
X198605Y25707D01*
X199294Y25542D01*
X200000Y25486D01*
Y24493D01*
X196765Y24486D01*
X196535Y24431D01*
X196317Y24341D01*
X196116Y24217D01*
X195936Y24064D01*
X195783Y23884D01*
X195659Y23683D01*
X195569Y23465D01*
X195514Y23235D01*
X195500Y23000D01*
X195514Y16765D01*
X195569Y16535D01*
X195659Y16317D01*
X195783Y16116D01*
X195936Y15936D01*
X196116Y15783D01*
X196317Y15659D01*
X196535Y15569D01*
X196765Y15514D01*
X197000Y15500D01*
X200000Y15507D01*
Y12500D01*
X167495D01*
Y25500D01*
X186941D01*
X187000Y25495D01*
X187235Y25514D01*
X187235Y25514D01*
X187465Y25569D01*
X187683Y25659D01*
X187884Y25783D01*
X188064Y25936D01*
X188102Y25981D01*
X193019Y30898D01*
X193064Y30936D01*
X193217Y31115D01*
X193217Y31116D01*
X193341Y31317D01*
X193431Y31535D01*
X193486Y31765D01*
X193505Y32000D01*
X193500Y32059D01*
Y197941D01*
X193505Y198000D01*
X193486Y198235D01*
X193431Y198465D01*
X193341Y198683D01*
X193217Y198884D01*
X193064Y199064D01*
X193019Y199102D01*
X188102Y204019D01*
X188064Y204064D01*
X187884Y204217D01*
X187683Y204341D01*
X187465Y204431D01*
X187235Y204486D01*
X187000Y204505D01*
X186941Y204500D01*
X167495D01*
Y267500D01*
G37*
G36*
Y12500D02*X148141D01*
X148109Y12635D01*
X147597Y13871D01*
X146898Y15012D01*
X146029Y16029D01*
X145012Y16898D01*
X143871Y17597D01*
X142635Y18109D01*
X141334Y18421D01*
X140000Y18526D01*
X138666Y18421D01*
X137365Y18109D01*
X136129Y17597D01*
X134988Y16898D01*
X133971Y16029D01*
X133102Y15012D01*
X132403Y13871D01*
X131891Y12635D01*
X131859Y12500D01*
X123115D01*
X122995Y12641D01*
X122456Y13101D01*
X121852Y13471D01*
X121198Y13742D01*
X120509Y13907D01*
X119803Y13963D01*
Y14956D01*
X123038Y14963D01*
X123268Y15018D01*
X123486Y15108D01*
X123687Y15232D01*
X123867Y15385D01*
X124020Y15565D01*
X124144Y15766D01*
X124234Y15984D01*
X124289Y16214D01*
X124303Y16449D01*
X124289Y22684D01*
X124234Y22914D01*
X124144Y23132D01*
X124020Y23333D01*
X123867Y23513D01*
X123687Y23666D01*
X123486Y23790D01*
X123268Y23880D01*
X123038Y23935D01*
X122803Y23949D01*
X119803Y23942D01*
Y25500D01*
X167495D01*
Y12500D01*
G37*
G36*
X119803Y13963D02*X119097Y13907D01*
X118408Y13742D01*
X117754Y13471D01*
X117150Y13101D01*
X116611Y12641D01*
X116491Y12500D01*
X113115D01*
X112995Y12641D01*
X112456Y13101D01*
X111852Y13471D01*
X111198Y13742D01*
X110509Y13907D01*
X109803Y13963D01*
X109796Y13962D01*
Y14936D01*
X109803Y14935D01*
X110509Y14991D01*
X111198Y15156D01*
X111852Y15427D01*
X112456Y15797D01*
X112995Y16257D01*
X113455Y16796D01*
X113825Y17400D01*
X114096Y18054D01*
X114261Y18743D01*
X114303Y19449D01*
X114261Y20155D01*
X114096Y20844D01*
X113825Y21498D01*
X113455Y22102D01*
X112995Y22641D01*
X112456Y23101D01*
X111852Y23471D01*
X111198Y23742D01*
X110509Y23907D01*
X109803Y23963D01*
X109796Y23962D01*
Y25500D01*
X119803D01*
Y23942D01*
X116568Y23935D01*
X116338Y23880D01*
X116120Y23790D01*
X115919Y23666D01*
X115739Y23513D01*
X115586Y23333D01*
X115462Y23132D01*
X115372Y22914D01*
X115317Y22684D01*
X115303Y22449D01*
X115317Y16214D01*
X115372Y15984D01*
X115462Y15766D01*
X115586Y15565D01*
X115739Y15385D01*
X115919Y15232D01*
X116120Y15108D01*
X116338Y15018D01*
X116568Y14963D01*
X116803Y14949D01*
X119803Y14956D01*
Y13963D01*
G37*
G36*
X109796Y13962D02*X109097Y13907D01*
X108408Y13742D01*
X107754Y13471D01*
X107150Y13101D01*
X106611Y12641D01*
X106491Y12500D01*
X101832D01*
X101857Y12536D01*
X101910Y12641D01*
X101946Y12754D01*
X101963Y12870D01*
X101962Y12988D01*
X101943Y13105D01*
X101906Y13217D01*
X101851Y13322D01*
X101781Y13417D01*
X101697Y13500D01*
X101601Y13568D01*
X101495Y13619D01*
X101087Y13767D01*
X100666Y13871D01*
X100236Y13933D01*
X99803Y13954D01*
X99796Y13954D01*
Y14936D01*
X99803Y14935D01*
X100509Y14991D01*
X101198Y15156D01*
X101852Y15427D01*
X102456Y15797D01*
X102995Y16257D01*
X103455Y16796D01*
X103825Y17400D01*
X104096Y18054D01*
X104261Y18743D01*
X104303Y19449D01*
X104261Y20155D01*
X104096Y20844D01*
X103825Y21498D01*
X103455Y22102D01*
X102995Y22641D01*
X102456Y23101D01*
X101852Y23471D01*
X101198Y23742D01*
X100509Y23907D01*
X99803Y23963D01*
X99796Y23962D01*
Y25500D01*
X109796D01*
Y23962D01*
X109097Y23907D01*
X108408Y23742D01*
X107754Y23471D01*
X107150Y23101D01*
X106611Y22641D01*
X106151Y22102D01*
X105781Y21498D01*
X105510Y20844D01*
X105345Y20155D01*
X105289Y19449D01*
X105345Y18743D01*
X105510Y18054D01*
X105781Y17400D01*
X106151Y16796D01*
X106611Y16257D01*
X107150Y15797D01*
X107754Y15427D01*
X108408Y15156D01*
X109097Y14991D01*
X109796Y14936D01*
Y13962D01*
G37*
G36*
X99796Y13954D02*X99370Y13933D01*
X98940Y13871D01*
X98519Y13767D01*
X98109Y13624D01*
X98003Y13571D01*
X97907Y13502D01*
X97822Y13419D01*
X97752Y13324D01*
X97697Y13218D01*
X97660Y13106D01*
X97640Y12989D01*
X97639Y12870D01*
X97657Y12753D01*
X97693Y12640D01*
X97746Y12534D01*
X97770Y12500D01*
X82995D01*
Y25500D01*
X99796D01*
Y23962D01*
X99097Y23907D01*
X98408Y23742D01*
X97754Y23471D01*
X97150Y23101D01*
X96611Y22641D01*
X96151Y22102D01*
X95781Y21498D01*
X95510Y20844D01*
X95345Y20155D01*
X95289Y19449D01*
X95345Y18743D01*
X95510Y18054D01*
X95781Y17400D01*
X96151Y16796D01*
X96611Y16257D01*
X97150Y15797D01*
X97754Y15427D01*
X98408Y15156D01*
X99097Y14991D01*
X99796Y14936D01*
Y13954D01*
G37*
G36*
X161493Y163500D02*X166901D01*
X167065Y163231D01*
X167372Y162872D01*
X167495Y162767D01*
Y88509D01*
X167029Y88472D01*
X166570Y88362D01*
X166134Y88181D01*
X165731Y87935D01*
X165372Y87628D01*
X165065Y87269D01*
X164819Y86866D01*
X164638Y86430D01*
X164528Y85971D01*
X164491Y85500D01*
X164528Y85029D01*
X164638Y84570D01*
X164819Y84134D01*
X165065Y83731D01*
X165372Y83372D01*
X165731Y83065D01*
X166000Y82901D01*
Y42599D01*
X165731Y42435D01*
X165372Y42128D01*
X165065Y41769D01*
X164819Y41366D01*
X164638Y40930D01*
X164528Y40471D01*
X164491Y40000D01*
X164528Y39529D01*
X164638Y39070D01*
X164819Y38634D01*
X165065Y38231D01*
X165372Y37872D01*
X165731Y37565D01*
X166134Y37319D01*
X166570Y37138D01*
X167029Y37028D01*
X167495Y36991D01*
Y31500D01*
X161493D01*
Y163500D01*
G37*
G36*
Y177500D02*X167495D01*
Y167233D01*
X167372Y167128D01*
X167065Y166769D01*
X166901Y166500D01*
X161493D01*
Y177500D01*
G37*
G36*
Y201500D02*X167495D01*
Y198077D01*
X167478Y198049D01*
X167207Y197395D01*
X167042Y196706D01*
X166986Y196000D01*
X167042Y195294D01*
X167207Y194605D01*
X167478Y193951D01*
X167495Y193923D01*
Y188077D01*
X167478Y188049D01*
X167207Y187395D01*
X167042Y186706D01*
X166986Y186000D01*
X167042Y185294D01*
X167207Y184605D01*
X167478Y183951D01*
X167495Y183923D01*
Y180500D01*
X161493D01*
Y181487D01*
X161500Y181486D01*
X162206Y181542D01*
X162895Y181707D01*
X163549Y181978D01*
X164153Y182348D01*
X164692Y182808D01*
X165152Y183347D01*
X165522Y183951D01*
X165793Y184605D01*
X165958Y185294D01*
X166000Y186000D01*
X165958Y186706D01*
X165793Y187395D01*
X165522Y188049D01*
X165152Y188653D01*
X164692Y189192D01*
X164153Y189652D01*
X163549Y190022D01*
X162895Y190293D01*
X162206Y190458D01*
X161500Y190514D01*
X161493Y190513D01*
Y191487D01*
X161500Y191486D01*
X162206Y191542D01*
X162895Y191707D01*
X163549Y191978D01*
X164153Y192348D01*
X164692Y192808D01*
X165152Y193347D01*
X165522Y193951D01*
X165793Y194605D01*
X165958Y195294D01*
X166000Y196000D01*
X165958Y196706D01*
X165793Y197395D01*
X165522Y198049D01*
X165152Y198653D01*
X164692Y199192D01*
X164153Y199652D01*
X163549Y200022D01*
X162895Y200293D01*
X162206Y200458D01*
X161500Y200514D01*
X161493Y200513D01*
Y201500D01*
G37*
G36*
Y267500D02*X167495D01*
Y204500D01*
X161493D01*
Y267500D01*
G37*
G36*
X117500D02*X161493D01*
Y204500D01*
X158559D01*
X158500Y204505D01*
X158265Y204486D01*
X158035Y204431D01*
X157817Y204341D01*
X157616Y204217D01*
X157615Y204217D01*
X157436Y204064D01*
X157398Y204019D01*
X153444Y200065D01*
X152895Y200293D01*
X152206Y200458D01*
X151500Y200514D01*
X150794Y200458D01*
X150105Y200293D01*
X149451Y200022D01*
X148847Y199652D01*
X148308Y199192D01*
X147848Y198653D01*
X147478Y198049D01*
X147207Y197395D01*
X147042Y196706D01*
X146986Y196000D01*
X147042Y195294D01*
X147207Y194605D01*
X147478Y193951D01*
X147848Y193347D01*
X148308Y192808D01*
X148847Y192348D01*
X149451Y191978D01*
X150105Y191707D01*
X150794Y191542D01*
X151500Y191486D01*
X152206Y191542D01*
X152895Y191707D01*
X153549Y191978D01*
X154153Y192348D01*
X154692Y192808D01*
X155152Y193347D01*
X155522Y193951D01*
X155793Y194605D01*
X155958Y195294D01*
X156000Y196000D01*
X155958Y196706D01*
X155793Y197395D01*
X155565Y197944D01*
X159121Y201500D01*
X161493D01*
Y200513D01*
X160794Y200458D01*
X160105Y200293D01*
X159451Y200022D01*
X158847Y199652D01*
X158308Y199192D01*
X157848Y198653D01*
X157478Y198049D01*
X157207Y197395D01*
X157042Y196706D01*
X156986Y196000D01*
X157042Y195294D01*
X157207Y194605D01*
X157478Y193951D01*
X157848Y193347D01*
X158308Y192808D01*
X158847Y192348D01*
X159451Y191978D01*
X160105Y191707D01*
X160794Y191542D01*
X161493Y191487D01*
Y190513D01*
X160794Y190458D01*
X160105Y190293D01*
X159451Y190022D01*
X158847Y189652D01*
X158308Y189192D01*
X157848Y188653D01*
X157478Y188049D01*
X157207Y187395D01*
X157042Y186706D01*
X156986Y186000D01*
X157042Y185294D01*
X157207Y184605D01*
X157478Y183951D01*
X157848Y183347D01*
X158308Y182808D01*
X158847Y182348D01*
X159451Y181978D01*
X160105Y181707D01*
X160794Y181542D01*
X161493Y181487D01*
Y180500D01*
X159121D01*
X155999Y183623D01*
X155986Y189235D01*
X155931Y189465D01*
X155841Y189683D01*
X155717Y189884D01*
X155564Y190064D01*
X155384Y190217D01*
X155183Y190341D01*
X154965Y190431D01*
X154735Y190486D01*
X154500Y190500D01*
X148265Y190486D01*
X148035Y190431D01*
X147817Y190341D01*
X147616Y190217D01*
X147436Y190064D01*
X147283Y189884D01*
X147159Y189683D01*
X147069Y189465D01*
X147014Y189235D01*
X147000Y189000D01*
X147014Y182765D01*
X147069Y182535D01*
X147159Y182317D01*
X147283Y182116D01*
X147436Y181936D01*
X147616Y181783D01*
X147817Y181659D01*
X148035Y181569D01*
X148265Y181514D01*
X148500Y181500D01*
X153867Y181512D01*
X157398Y177981D01*
X157436Y177936D01*
X157616Y177783D01*
X157817Y177659D01*
X158035Y177569D01*
X158265Y177514D01*
X158500Y177495D01*
X158559Y177500D01*
X161493D01*
Y166500D01*
X155599D01*
X155435Y166769D01*
X155128Y167128D01*
X154769Y167435D01*
X154366Y167681D01*
X153930Y167862D01*
X153471Y167972D01*
X153000Y168009D01*
X152529Y167972D01*
X152070Y167862D01*
X151634Y167681D01*
X151231Y167435D01*
X150872Y167128D01*
X150565Y166769D01*
X150319Y166366D01*
X150138Y165930D01*
X150028Y165471D01*
X149991Y165000D01*
X150028Y164529D01*
X150138Y164070D01*
X150319Y163634D01*
X150565Y163231D01*
X150872Y162872D01*
X151231Y162565D01*
X151634Y162319D01*
X152070Y162138D01*
X152529Y162028D01*
X153000Y161991D01*
X153471Y162028D01*
X153930Y162138D01*
X154366Y162319D01*
X154769Y162565D01*
X155128Y162872D01*
X155435Y163231D01*
X155599Y163500D01*
X161493D01*
Y31500D01*
X117500D01*
Y241507D01*
X121735Y241514D01*
X121965Y241569D01*
X122183Y241659D01*
X122384Y241783D01*
X122564Y241936D01*
X122717Y242116D01*
X122841Y242317D01*
X122931Y242535D01*
X122986Y242765D01*
X123000Y243000D01*
X122986Y251235D01*
X122931Y251465D01*
X122841Y251683D01*
X122717Y251884D01*
X122564Y252064D01*
X122384Y252217D01*
X122183Y252341D01*
X121965Y252431D01*
X121735Y252486D01*
X121500Y252500D01*
X117500Y252493D01*
Y267500D01*
G37*
G36*
X101993D02*X117500D01*
Y252493D01*
X113265Y252486D01*
X113035Y252431D01*
X112817Y252341D01*
X112616Y252217D01*
X112436Y252064D01*
X112283Y251884D01*
X112159Y251683D01*
X112069Y251465D01*
X112014Y251235D01*
X112000Y251000D01*
X112014Y242765D01*
X112069Y242535D01*
X112159Y242317D01*
X112283Y242116D01*
X112436Y241936D01*
X112616Y241783D01*
X112817Y241659D01*
X113035Y241569D01*
X113265Y241514D01*
X113500Y241500D01*
X117500Y241507D01*
Y31500D01*
X101993D01*
Y244145D01*
X102078Y244181D01*
X102179Y244243D01*
X102269Y244319D01*
X102345Y244409D01*
X102405Y244511D01*
X102622Y244980D01*
X102789Y245469D01*
X102909Y245972D01*
X102982Y246484D01*
X103006Y247000D01*
X102982Y247516D01*
X102909Y248028D01*
X102789Y248531D01*
X102622Y249020D01*
X102410Y249492D01*
X102349Y249593D01*
X102272Y249684D01*
X102182Y249761D01*
X102080Y249823D01*
X101993Y249860D01*
Y267500D01*
G37*
G36*
X97502D02*X101993D01*
Y249860D01*
X101971Y249869D01*
X101855Y249897D01*
X101737Y249906D01*
X101619Y249897D01*
X101503Y249870D01*
X101393Y249824D01*
X101292Y249762D01*
X101202Y249686D01*
X101124Y249595D01*
X101062Y249494D01*
X101016Y249385D01*
X100989Y249269D01*
X100979Y249151D01*
X100988Y249032D01*
X101016Y248917D01*
X101063Y248808D01*
X101221Y248468D01*
X101342Y248112D01*
X101430Y247747D01*
X101482Y247375D01*
X101500Y247000D01*
X101482Y246625D01*
X101430Y246253D01*
X101342Y245888D01*
X101221Y245532D01*
X101067Y245190D01*
X101020Y245082D01*
X100993Y244967D01*
X100983Y244849D01*
X100993Y244732D01*
X101021Y244617D01*
X101066Y244508D01*
X101128Y244407D01*
X101205Y244318D01*
X101295Y244241D01*
X101395Y244180D01*
X101504Y244135D01*
X101619Y244107D01*
X101737Y244098D01*
X101855Y244108D01*
X101969Y244135D01*
X101993Y244145D01*
Y31500D01*
X97502D01*
Y241494D01*
X98016Y241518D01*
X98528Y241591D01*
X99031Y241711D01*
X99520Y241878D01*
X99992Y242090D01*
X100093Y242151D01*
X100184Y242228D01*
X100261Y242318D01*
X100323Y242420D01*
X100369Y242529D01*
X100397Y242645D01*
X100406Y242763D01*
X100397Y242881D01*
X100370Y242997D01*
X100324Y243107D01*
X100262Y243208D01*
X100186Y243298D01*
X100095Y243376D01*
X99994Y243438D01*
X99885Y243484D01*
X99769Y243511D01*
X99651Y243521D01*
X99532Y243512D01*
X99417Y243484D01*
X99308Y243437D01*
X98968Y243279D01*
X98612Y243158D01*
X98247Y243070D01*
X97875Y243018D01*
X97502Y243000D01*
Y251000D01*
X97875Y250982D01*
X98247Y250930D01*
X98612Y250842D01*
X98968Y250721D01*
X99310Y250567D01*
X99418Y250520D01*
X99533Y250493D01*
X99651Y250483D01*
X99768Y250493D01*
X99883Y250521D01*
X99992Y250566D01*
X100093Y250628D01*
X100182Y250705D01*
X100259Y250795D01*
X100320Y250895D01*
X100365Y251004D01*
X100393Y251119D01*
X100402Y251237D01*
X100392Y251355D01*
X100365Y251469D01*
X100319Y251578D01*
X100257Y251679D01*
X100181Y251769D01*
X100091Y251845D01*
X99989Y251905D01*
X99520Y252122D01*
X99031Y252289D01*
X98528Y252409D01*
X98016Y252482D01*
X97502Y252506D01*
Y267500D01*
G37*
G36*
X93007D02*X97502D01*
Y252506D01*
X97500Y252506D01*
X96984Y252482D01*
X96472Y252409D01*
X95969Y252289D01*
X95480Y252122D01*
X95008Y251910D01*
X94907Y251849D01*
X94816Y251772D01*
X94739Y251682D01*
X94677Y251580D01*
X94631Y251471D01*
X94603Y251355D01*
X94594Y251237D01*
X94603Y251119D01*
X94630Y251003D01*
X94676Y250893D01*
X94738Y250792D01*
X94814Y250702D01*
X94905Y250624D01*
X95006Y250562D01*
X95115Y250516D01*
X95231Y250489D01*
X95349Y250479D01*
X95468Y250488D01*
X95583Y250516D01*
X95692Y250563D01*
X96032Y250721D01*
X96388Y250842D01*
X96753Y250930D01*
X97125Y250982D01*
X97500Y251000D01*
X97502Y251000D01*
Y243000D01*
X97500Y243000D01*
X97125Y243018D01*
X96753Y243070D01*
X96388Y243158D01*
X96032Y243279D01*
X95690Y243433D01*
X95582Y243480D01*
X95467Y243507D01*
X95349Y243517D01*
X95232Y243507D01*
X95117Y243479D01*
X95008Y243434D01*
X94907Y243372D01*
X94818Y243295D01*
X94741Y243205D01*
X94680Y243105D01*
X94635Y242996D01*
X94607Y242881D01*
X94598Y242763D01*
X94608Y242645D01*
X94635Y242531D01*
X94681Y242422D01*
X94743Y242321D01*
X94819Y242231D01*
X94909Y242155D01*
X95011Y242095D01*
X95480Y241878D01*
X95969Y241711D01*
X96472Y241591D01*
X96984Y241518D01*
X97500Y241494D01*
X97502Y241494D01*
Y31500D01*
X93007D01*
Y92386D01*
X94019Y93398D01*
X94064Y93436D01*
X94217Y93615D01*
X94217Y93616D01*
X94341Y93817D01*
X94431Y94035D01*
X94486Y94265D01*
X94505Y94500D01*
X94500Y94559D01*
Y102401D01*
X94769Y102565D01*
X95128Y102872D01*
X95435Y103231D01*
X95681Y103634D01*
X95862Y104070D01*
X95972Y104529D01*
X96000Y105000D01*
X95972Y105471D01*
X95862Y105930D01*
X95681Y106366D01*
X95435Y106769D01*
X95128Y107128D01*
X94769Y107435D01*
X94366Y107681D01*
X93930Y107862D01*
X93471Y107972D01*
X93007Y108009D01*
Y244140D01*
X93029Y244131D01*
X93145Y244103D01*
X93263Y244094D01*
X93381Y244103D01*
X93497Y244130D01*
X93607Y244176D01*
X93708Y244238D01*
X93798Y244314D01*
X93876Y244405D01*
X93938Y244506D01*
X93984Y244615D01*
X94011Y244731D01*
X94021Y244849D01*
X94012Y244968D01*
X93984Y245083D01*
X93937Y245192D01*
X93779Y245532D01*
X93658Y245888D01*
X93570Y246253D01*
X93518Y246625D01*
X93500Y247000D01*
X93518Y247375D01*
X93570Y247747D01*
X93658Y248112D01*
X93779Y248468D01*
X93933Y248810D01*
X93980Y248918D01*
X94007Y249033D01*
X94017Y249151D01*
X94007Y249268D01*
X93979Y249383D01*
X93934Y249492D01*
X93872Y249593D01*
X93795Y249682D01*
X93705Y249759D01*
X93605Y249820D01*
X93496Y249865D01*
X93381Y249893D01*
X93263Y249902D01*
X93145Y249892D01*
X93031Y249865D01*
X93007Y249855D01*
Y267500D01*
G37*
G36*
Y31500D02*X82995D01*
Y91500D01*
X91441D01*
X91500Y91495D01*
X91735Y91514D01*
X91735Y91514D01*
X91965Y91569D01*
X92183Y91659D01*
X92384Y91783D01*
X92564Y91936D01*
X92602Y91981D01*
X93007Y92386D01*
Y31500D01*
G37*
G36*
X82995Y267500D02*X93007D01*
Y249855D01*
X92922Y249819D01*
X92821Y249757D01*
X92731Y249681D01*
X92655Y249591D01*
X92595Y249489D01*
X92378Y249020D01*
X92211Y248531D01*
X92091Y248028D01*
X92018Y247516D01*
X91994Y247000D01*
X92018Y246484D01*
X92091Y245972D01*
X92211Y245469D01*
X92378Y244980D01*
X92590Y244508D01*
X92651Y244407D01*
X92728Y244316D01*
X92818Y244239D01*
X92920Y244177D01*
X93007Y244140D01*
Y108009D01*
X93000Y108009D01*
X92529Y107972D01*
X92070Y107862D01*
X91634Y107681D01*
X91231Y107435D01*
X90872Y107128D01*
X90565Y106769D01*
X90500Y106662D01*
X90435Y106769D01*
X90128Y107128D01*
X89769Y107435D01*
X89500Y107599D01*
Y132401D01*
X89769Y132565D01*
X90128Y132872D01*
X90435Y133231D01*
X90681Y133634D01*
X90862Y134070D01*
X90972Y134529D01*
X91000Y135000D01*
X90972Y135471D01*
X90862Y135930D01*
X90681Y136366D01*
X90435Y136769D01*
X90128Y137128D01*
X89769Y137435D01*
X89366Y137681D01*
X88930Y137862D01*
X88471Y137972D01*
X88000Y138009D01*
X87529Y137972D01*
X87070Y137862D01*
X86634Y137681D01*
X86231Y137435D01*
X85872Y137128D01*
X85565Y136769D01*
X85500Y136662D01*
X85435Y136769D01*
X85128Y137128D01*
X84769Y137435D01*
X84366Y137681D01*
X83930Y137862D01*
X83471Y137972D01*
X83000Y138009D01*
X82995Y138009D01*
Y241513D01*
X83235Y241514D01*
X83465Y241569D01*
X83683Y241659D01*
X83884Y241783D01*
X84064Y241936D01*
X84217Y242116D01*
X84341Y242317D01*
X84431Y242535D01*
X84486Y242765D01*
X84500Y243000D01*
X84486Y251235D01*
X84431Y251465D01*
X84341Y251683D01*
X84217Y251884D01*
X84064Y252064D01*
X83884Y252217D01*
X83683Y252341D01*
X83465Y252431D01*
X83235Y252486D01*
X83000Y252500D01*
X82995Y252500D01*
Y267500D01*
G37*
G36*
X9993Y15487D02*X10000Y15486D01*
X10706Y15542D01*
X11395Y15707D01*
X12049Y15978D01*
X12653Y16348D01*
X13192Y16808D01*
X13652Y17347D01*
X14022Y17951D01*
X14249Y18500D01*
X16941D01*
X17000Y18495D01*
X17235Y18514D01*
X17235Y18514D01*
X17465Y18569D01*
X17683Y18659D01*
X17884Y18783D01*
X18064Y18936D01*
X18102Y18981D01*
X24621Y25500D01*
X82995D01*
Y12500D01*
X38141D01*
X38109Y12635D01*
X37597Y13871D01*
X36898Y15012D01*
X36029Y16029D01*
X35012Y16898D01*
X33871Y17597D01*
X32635Y18109D01*
X31334Y18421D01*
X30000Y18526D01*
X28666Y18421D01*
X27365Y18109D01*
X26129Y17597D01*
X24988Y16898D01*
X23971Y16029D01*
X23102Y15012D01*
X22403Y13871D01*
X21891Y12635D01*
X21859Y12500D01*
X9993D01*
Y15487D01*
G37*
G36*
Y25487D02*X10000Y25486D01*
X10706Y25542D01*
X11395Y25707D01*
X12049Y25978D01*
X12653Y26348D01*
X13192Y26808D01*
X13652Y27347D01*
X14022Y27951D01*
X14249Y28500D01*
X23941D01*
X23765Y28486D01*
X23535Y28431D01*
X23317Y28341D01*
X23116Y28217D01*
X23115Y28217D01*
X22936Y28064D01*
X22898Y28019D01*
X16379Y21500D01*
X14249D01*
X14022Y22049D01*
X13652Y22653D01*
X13192Y23192D01*
X12653Y23652D01*
X12049Y24022D01*
X11395Y24293D01*
X10706Y24458D01*
X10000Y24514D01*
X9993Y24513D01*
Y25487D01*
G37*
G36*
Y267500D02*X82995D01*
Y252500D01*
X74765Y252486D01*
X74535Y252431D01*
X74317Y252341D01*
X74116Y252217D01*
X73936Y252064D01*
X73783Y251884D01*
X73659Y251683D01*
X73569Y251465D01*
X73514Y251235D01*
X73500Y251000D01*
X73501Y250181D01*
X73463Y250243D01*
X72901Y250901D01*
X72243Y251463D01*
X71505Y251916D01*
X70705Y252247D01*
X69863Y252449D01*
X69000Y252517D01*
X68137Y252449D01*
X67295Y252247D01*
X66495Y251916D01*
X65757Y251463D01*
X65099Y250901D01*
X64537Y250243D01*
X64084Y249505D01*
X64000Y249301D01*
X63916Y249505D01*
X63463Y250243D01*
X62901Y250901D01*
X62243Y251463D01*
X61505Y251916D01*
X60705Y252247D01*
X59863Y252449D01*
X59000Y252517D01*
X58137Y252449D01*
X57295Y252247D01*
X56495Y251916D01*
X55757Y251463D01*
X55099Y250901D01*
X54537Y250243D01*
X54084Y249505D01*
X54000Y249301D01*
X53916Y249505D01*
X53463Y250243D01*
X52901Y250901D01*
X52243Y251463D01*
X51505Y251916D01*
X50705Y252247D01*
X49863Y252449D01*
X49000Y252517D01*
X48137Y252449D01*
X47295Y252247D01*
X46495Y251916D01*
X45757Y251463D01*
X45099Y250901D01*
X44537Y250243D01*
X44084Y249505D01*
X44000Y249301D01*
X43916Y249505D01*
X43463Y250243D01*
X42901Y250901D01*
X42243Y251463D01*
X41505Y251916D01*
X40705Y252247D01*
X39863Y252449D01*
X39000Y252517D01*
X38137Y252449D01*
X37295Y252247D01*
X36495Y251916D01*
X35757Y251463D01*
X35099Y250901D01*
X34537Y250243D01*
X34084Y249505D01*
X34000Y249301D01*
X33916Y249505D01*
X33463Y250243D01*
X32901Y250901D01*
X32243Y251463D01*
X31505Y251916D01*
X30705Y252247D01*
X29863Y252449D01*
X29000Y252517D01*
X28137Y252449D01*
X27295Y252247D01*
X26495Y251916D01*
X25757Y251463D01*
X25099Y250901D01*
X24537Y250243D01*
X24084Y249505D01*
X24000Y249301D01*
X23916Y249505D01*
X23463Y250243D01*
X22901Y250901D01*
X22243Y251463D01*
X21505Y251916D01*
X20705Y252247D01*
X19863Y252449D01*
X19000Y252517D01*
X18137Y252449D01*
X17295Y252247D01*
X16495Y251916D01*
X15757Y251463D01*
X15099Y250901D01*
X14537Y250243D01*
X14084Y249505D01*
X14000Y249301D01*
X13916Y249505D01*
X13463Y250243D01*
X12901Y250901D01*
X12243Y251463D01*
X11505Y251916D01*
X10705Y252247D01*
X9993Y252418D01*
Y267500D01*
G37*
G36*
X13613Y207296D02*X13871Y207403D01*
X15012Y208102D01*
X16029Y208971D01*
X16898Y209988D01*
X17597Y211129D01*
X18109Y212365D01*
X18421Y213666D01*
X18500Y215000D01*
X18421Y216334D01*
X18109Y217635D01*
X17597Y218871D01*
X16898Y220012D01*
X16029Y221029D01*
X15012Y221898D01*
X13871Y222597D01*
X13613Y222704D01*
Y244002D01*
X13916Y244495D01*
X14000Y244699D01*
X14084Y244495D01*
X14537Y243757D01*
X15099Y243099D01*
X15757Y242537D01*
X16495Y242084D01*
X17295Y241753D01*
X18137Y241551D01*
X19000Y241483D01*
X19863Y241551D01*
X20705Y241753D01*
X21505Y242084D01*
X22243Y242537D01*
X22901Y243099D01*
X23463Y243757D01*
X23916Y244495D01*
X24000Y244699D01*
X24084Y244495D01*
X24537Y243757D01*
X25099Y243099D01*
X25757Y242537D01*
X26495Y242084D01*
X27295Y241753D01*
X28137Y241551D01*
X29000Y241483D01*
X29863Y241551D01*
X30705Y241753D01*
X31505Y242084D01*
X32243Y242537D01*
X32901Y243099D01*
X33463Y243757D01*
X33916Y244495D01*
X34000Y244699D01*
X34084Y244495D01*
X34537Y243757D01*
X35099Y243099D01*
X35757Y242537D01*
X36495Y242084D01*
X37295Y241753D01*
X38137Y241551D01*
X39000Y241483D01*
X39863Y241551D01*
X40705Y241753D01*
X41505Y242084D01*
X42243Y242537D01*
X42901Y243099D01*
X43463Y243757D01*
X43916Y244495D01*
X44000Y244699D01*
X44084Y244495D01*
X44537Y243757D01*
X45099Y243099D01*
X45757Y242537D01*
X46495Y242084D01*
X47295Y241753D01*
X48137Y241551D01*
X49000Y241483D01*
X49863Y241551D01*
X50705Y241753D01*
X51505Y242084D01*
X52243Y242537D01*
X52901Y243099D01*
X53463Y243757D01*
X53916Y244495D01*
X54000Y244699D01*
X54084Y244495D01*
X54537Y243757D01*
X55099Y243099D01*
X55757Y242537D01*
X56495Y242084D01*
X57295Y241753D01*
X58137Y241551D01*
X59000Y241483D01*
X59863Y241551D01*
X60705Y241753D01*
X61505Y242084D01*
X62243Y242537D01*
X62901Y243099D01*
X63463Y243757D01*
X63916Y244495D01*
X64000Y244699D01*
X64084Y244495D01*
X64537Y243757D01*
X65099Y243099D01*
X65757Y242537D01*
X66495Y242084D01*
X67295Y241753D01*
X68137Y241551D01*
X69000Y241483D01*
X69863Y241551D01*
X70705Y241753D01*
X71505Y242084D01*
X72243Y242537D01*
X72901Y243099D01*
X73463Y243757D01*
X73512Y243837D01*
X73514Y242765D01*
X73569Y242535D01*
X73659Y242317D01*
X73783Y242116D01*
X73936Y241936D01*
X74116Y241783D01*
X74317Y241659D01*
X74535Y241569D01*
X74765Y241514D01*
X75000Y241500D01*
X82995Y241513D01*
Y138009D01*
X82529Y137972D01*
X82070Y137862D01*
X81634Y137681D01*
X81231Y137435D01*
X80872Y137128D01*
X80565Y136769D01*
X80319Y136366D01*
X80138Y135930D01*
X80028Y135471D01*
X79991Y135000D01*
X80028Y134529D01*
X80138Y134070D01*
X80319Y133634D01*
X80565Y133231D01*
X80872Y132872D01*
X81231Y132565D01*
X81500Y132401D01*
Y107599D01*
X81231Y107435D01*
X80872Y107128D01*
X80565Y106769D01*
X80319Y106366D01*
X80138Y105930D01*
X80028Y105471D01*
X79991Y105000D01*
X80028Y104529D01*
X80138Y104070D01*
X80319Y103634D01*
X80565Y103231D01*
X80872Y102872D01*
X81231Y102565D01*
X81634Y102319D01*
X82070Y102138D01*
X82529Y102028D01*
X82995Y101991D01*
Y94500D01*
X78118D01*
X78471Y94528D01*
X78930Y94638D01*
X79366Y94819D01*
X79769Y95065D01*
X80128Y95372D01*
X80435Y95731D01*
X80681Y96134D01*
X80862Y96570D01*
X80972Y97029D01*
X81000Y97500D01*
X80972Y97971D01*
X80862Y98430D01*
X80681Y98866D01*
X80435Y99269D01*
X80128Y99628D01*
X79769Y99935D01*
X79500Y100099D01*
Y135000D01*
X79500Y135000D01*
Y146401D01*
X79769Y146565D01*
X80128Y146872D01*
X80435Y147231D01*
X80681Y147634D01*
X80862Y148070D01*
X80972Y148529D01*
X81000Y149000D01*
X80972Y149471D01*
X80862Y149930D01*
X80681Y150366D01*
X80435Y150769D01*
X80128Y151128D01*
X79769Y151435D01*
X79366Y151681D01*
X78930Y151862D01*
X78471Y151972D01*
X78000Y152009D01*
X77529Y151972D01*
X77070Y151862D01*
X76634Y151681D01*
X76231Y151435D01*
X75872Y151128D01*
X75565Y150769D01*
X75319Y150366D01*
X75138Y149930D01*
X75028Y149471D01*
X74991Y149000D01*
X75028Y148529D01*
X75138Y148070D01*
X75319Y147634D01*
X75565Y147231D01*
X75872Y146872D01*
X76231Y146565D01*
X76500Y146401D01*
Y135000D01*
X76500Y135000D01*
Y100099D01*
X76231Y99935D01*
X75872Y99628D01*
X75565Y99269D01*
X75319Y98866D01*
X75138Y98430D01*
X75028Y97971D01*
X74991Y97500D01*
X75028Y97029D01*
X75138Y96570D01*
X75199Y96422D01*
X74500Y97121D01*
Y132401D01*
X74769Y132565D01*
X75128Y132872D01*
X75435Y133231D01*
X75681Y133634D01*
X75862Y134070D01*
X75972Y134529D01*
X76000Y135000D01*
X75972Y135471D01*
X75862Y135930D01*
X75681Y136366D01*
X75435Y136769D01*
X75128Y137128D01*
X74769Y137435D01*
X74366Y137681D01*
X73930Y137862D01*
X73471Y137972D01*
X73000Y138009D01*
X72529Y137972D01*
X72070Y137862D01*
X71634Y137681D01*
X71231Y137435D01*
X70872Y137128D01*
X70565Y136769D01*
X70319Y136366D01*
X70138Y135930D01*
X70028Y135471D01*
X69991Y135000D01*
X70028Y134529D01*
X70138Y134070D01*
X70319Y133634D01*
X70565Y133231D01*
X70872Y132872D01*
X71231Y132565D01*
X71500Y132401D01*
Y96559D01*
X71495Y96500D01*
X71514Y96265D01*
X71569Y96035D01*
X71659Y95817D01*
X71783Y95616D01*
X71936Y95436D01*
X71981Y95398D01*
X75398Y91981D01*
X75436Y91936D01*
X75615Y91783D01*
X75616Y91783D01*
X75817Y91659D01*
X76035Y91569D01*
X76265Y91514D01*
X76500Y91495D01*
X76559Y91500D01*
X82995D01*
Y31500D01*
X14249D01*
X14022Y32049D01*
X13652Y32653D01*
X13613Y32698D01*
Y37302D01*
X13652Y37347D01*
X14022Y37951D01*
X14293Y38605D01*
X14458Y39294D01*
X14500Y40000D01*
X14458Y40706D01*
X14293Y41395D01*
X14022Y42049D01*
X13652Y42653D01*
X13613Y42698D01*
Y47302D01*
X13652Y47347D01*
X14022Y47951D01*
X14293Y48605D01*
X14458Y49294D01*
X14500Y50000D01*
X14458Y50706D01*
X14293Y51395D01*
X14022Y52049D01*
X13652Y52653D01*
X13613Y52698D01*
Y57302D01*
X13652Y57347D01*
X14022Y57951D01*
X14293Y58605D01*
X14458Y59294D01*
X14500Y60000D01*
X14458Y60706D01*
X14293Y61395D01*
X14022Y62049D01*
X13652Y62653D01*
X13613Y62698D01*
Y67302D01*
X13652Y67347D01*
X14022Y67951D01*
X14293Y68605D01*
X14458Y69294D01*
X14500Y70000D01*
X14458Y70706D01*
X14293Y71395D01*
X14022Y72049D01*
X13652Y72653D01*
X13613Y72698D01*
Y87302D01*
X13652Y87347D01*
X14022Y87951D01*
X14293Y88605D01*
X14458Y89294D01*
X14500Y90000D01*
X14458Y90706D01*
X14293Y91395D01*
X14022Y92049D01*
X13652Y92653D01*
X13613Y92698D01*
Y97853D01*
X13656Y97860D01*
X13768Y97897D01*
X13873Y97952D01*
X13968Y98022D01*
X14051Y98106D01*
X14119Y98202D01*
X14170Y98308D01*
X14318Y98716D01*
X14422Y99137D01*
X14484Y99567D01*
X14505Y100000D01*
X14484Y100433D01*
X14422Y100863D01*
X14318Y101284D01*
X14175Y101694D01*
X14122Y101800D01*
X14053Y101896D01*
X13970Y101981D01*
X13875Y102051D01*
X13769Y102106D01*
X13657Y102143D01*
X13613Y102151D01*
Y107853D01*
X13656Y107860D01*
X13768Y107897D01*
X13873Y107952D01*
X13968Y108022D01*
X14051Y108106D01*
X14119Y108202D01*
X14170Y108308D01*
X14318Y108716D01*
X14422Y109137D01*
X14484Y109567D01*
X14505Y110000D01*
X14484Y110433D01*
X14422Y110863D01*
X14318Y111284D01*
X14175Y111694D01*
X14122Y111800D01*
X14053Y111896D01*
X13970Y111981D01*
X13875Y112051D01*
X13769Y112106D01*
X13657Y112143D01*
X13613Y112151D01*
Y117302D01*
X13652Y117347D01*
X14022Y117951D01*
X14293Y118605D01*
X14458Y119294D01*
X14500Y120000D01*
X14458Y120706D01*
X14293Y121395D01*
X14022Y122049D01*
X13652Y122653D01*
X13613Y122698D01*
Y127302D01*
X13652Y127347D01*
X14022Y127951D01*
X14293Y128605D01*
X14458Y129294D01*
X14500Y130000D01*
X14458Y130706D01*
X14293Y131395D01*
X14022Y132049D01*
X13652Y132653D01*
X13613Y132698D01*
Y137302D01*
X13652Y137347D01*
X14022Y137951D01*
X14293Y138605D01*
X14458Y139294D01*
X14500Y140000D01*
X14458Y140706D01*
X14293Y141395D01*
X14022Y142049D01*
X13652Y142653D01*
X13613Y142698D01*
Y147302D01*
X13652Y147347D01*
X14022Y147951D01*
X14293Y148605D01*
X14458Y149294D01*
X14500Y150000D01*
X14458Y150706D01*
X14293Y151395D01*
X14022Y152049D01*
X13652Y152653D01*
X13613Y152698D01*
Y155630D01*
X13683Y155659D01*
X13884Y155783D01*
X14064Y155936D01*
X14217Y156116D01*
X14341Y156317D01*
X14431Y156535D01*
X14486Y156765D01*
X14500Y157000D01*
X14486Y163235D01*
X14431Y163465D01*
X14341Y163683D01*
X14217Y163884D01*
X14064Y164064D01*
X13884Y164217D01*
X13683Y164341D01*
X13613Y164370D01*
Y207296D01*
G37*
G36*
Y152698D02*X13192Y153192D01*
X12653Y153652D01*
X12049Y154022D01*
X11395Y154293D01*
X10706Y154458D01*
X10000Y154514D01*
X9993Y154513D01*
Y155507D01*
X13235Y155514D01*
X13465Y155569D01*
X13613Y155630D01*
Y152698D01*
G37*
G36*
Y142698D02*X13192Y143192D01*
X12653Y143652D01*
X12049Y144022D01*
X11395Y144293D01*
X10706Y144458D01*
X10000Y144514D01*
X9993Y144513D01*
Y145487D01*
X10000Y145486D01*
X10706Y145542D01*
X11395Y145707D01*
X12049Y145978D01*
X12653Y146348D01*
X13192Y146808D01*
X13613Y147302D01*
Y142698D01*
G37*
G36*
Y132698D02*X13192Y133192D01*
X12653Y133652D01*
X12049Y134022D01*
X11395Y134293D01*
X10706Y134458D01*
X10000Y134514D01*
X9993Y134513D01*
Y135487D01*
X10000Y135486D01*
X10706Y135542D01*
X11395Y135707D01*
X12049Y135978D01*
X12653Y136348D01*
X13192Y136808D01*
X13613Y137302D01*
Y132698D01*
G37*
G36*
Y122698D02*X13192Y123192D01*
X12653Y123652D01*
X12049Y124022D01*
X11395Y124293D01*
X10706Y124458D01*
X10000Y124514D01*
X9993Y124513D01*
Y125487D01*
X10000Y125486D01*
X10706Y125542D01*
X11395Y125707D01*
X12049Y125978D01*
X12653Y126348D01*
X13192Y126808D01*
X13613Y127302D01*
Y122698D01*
G37*
G36*
Y92698D02*X13192Y93192D01*
X12653Y93652D01*
X12049Y94022D01*
X11395Y94293D01*
X10706Y94458D01*
X10000Y94514D01*
X9993Y94513D01*
Y95495D01*
X10000Y95495D01*
X10433Y95516D01*
X10863Y95578D01*
X11284Y95682D01*
X11694Y95825D01*
X11800Y95878D01*
X11896Y95947D01*
X11981Y96030D01*
X12051Y96125D01*
X12106Y96231D01*
X12143Y96343D01*
X12163Y96460D01*
X12164Y96579D01*
X12146Y96696D01*
X12110Y96809D01*
X12057Y96915D01*
X11988Y97012D01*
X11905Y97096D01*
X11809Y97167D01*
X11704Y97221D01*
X11592Y97259D01*
X11475Y97278D01*
X11356Y97279D01*
X11239Y97261D01*
X11126Y97223D01*
X10855Y97124D01*
X10575Y97056D01*
X10289Y97014D01*
X10000Y97000D01*
X9993Y97000D01*
Y103000D01*
X10000Y103000D01*
X10289Y102986D01*
X10575Y102944D01*
X10855Y102876D01*
X11128Y102780D01*
X11239Y102742D01*
X11356Y102725D01*
X11474Y102725D01*
X11591Y102745D01*
X11703Y102782D01*
X11807Y102836D01*
X11902Y102906D01*
X11985Y102991D01*
X12054Y103087D01*
X12107Y103192D01*
X12143Y103305D01*
X12160Y103421D01*
X12159Y103539D01*
X12140Y103656D01*
X12103Y103768D01*
X12048Y103873D01*
X11978Y103968D01*
X11894Y104051D01*
X11798Y104119D01*
X11692Y104170D01*
X11284Y104318D01*
X10863Y104422D01*
X10433Y104484D01*
X10000Y104505D01*
X9993Y104505D01*
Y105495D01*
X10000Y105495D01*
X10433Y105516D01*
X10863Y105578D01*
X11284Y105682D01*
X11694Y105825D01*
X11800Y105878D01*
X11896Y105947D01*
X11981Y106030D01*
X12051Y106125D01*
X12106Y106231D01*
X12143Y106343D01*
X12163Y106460D01*
X12164Y106579D01*
X12146Y106696D01*
X12110Y106809D01*
X12057Y106915D01*
X11988Y107012D01*
X11905Y107096D01*
X11809Y107167D01*
X11704Y107221D01*
X11592Y107259D01*
X11475Y107278D01*
X11356Y107279D01*
X11239Y107261D01*
X11126Y107223D01*
X10855Y107124D01*
X10575Y107056D01*
X10289Y107014D01*
X10000Y107000D01*
X9993Y107000D01*
Y113000D01*
X10000Y113000D01*
X10289Y112986D01*
X10575Y112944D01*
X10855Y112876D01*
X11128Y112780D01*
X11239Y112742D01*
X11356Y112725D01*
X11474Y112725D01*
X11591Y112745D01*
X11703Y112782D01*
X11807Y112836D01*
X11902Y112906D01*
X11985Y112991D01*
X12054Y113087D01*
X12107Y113192D01*
X12143Y113305D01*
X12160Y113421D01*
X12159Y113539D01*
X12140Y113656D01*
X12103Y113768D01*
X12048Y113873D01*
X11978Y113968D01*
X11894Y114051D01*
X11798Y114119D01*
X11692Y114170D01*
X11284Y114318D01*
X10863Y114422D01*
X10433Y114484D01*
X10000Y114505D01*
X9993Y114505D01*
Y115487D01*
X10000Y115486D01*
X10706Y115542D01*
X11395Y115707D01*
X12049Y115978D01*
X12653Y116348D01*
X13192Y116808D01*
X13613Y117302D01*
Y112151D01*
X13540Y112163D01*
X13421Y112164D01*
X13304Y112146D01*
X13191Y112110D01*
X13085Y112057D01*
X12988Y111988D01*
X12904Y111905D01*
X12833Y111809D01*
X12779Y111704D01*
X12741Y111592D01*
X12722Y111475D01*
X12721Y111356D01*
X12739Y111239D01*
X12777Y111126D01*
X12876Y110855D01*
X12944Y110575D01*
X12986Y110289D01*
X13000Y110000D01*
X12986Y109711D01*
X12944Y109425D01*
X12876Y109145D01*
X12780Y108872D01*
X12742Y108761D01*
X12725Y108644D01*
X12725Y108526D01*
X12745Y108409D01*
X12782Y108297D01*
X12836Y108193D01*
X12906Y108098D01*
X12991Y108015D01*
X13087Y107946D01*
X13192Y107893D01*
X13305Y107857D01*
X13421Y107840D01*
X13539Y107841D01*
X13613Y107853D01*
Y102151D01*
X13540Y102163D01*
X13421Y102164D01*
X13304Y102146D01*
X13191Y102110D01*
X13085Y102057D01*
X12988Y101988D01*
X12904Y101905D01*
X12833Y101809D01*
X12779Y101704D01*
X12741Y101592D01*
X12722Y101475D01*
X12721Y101356D01*
X12739Y101239D01*
X12777Y101126D01*
X12876Y100855D01*
X12944Y100575D01*
X12986Y100289D01*
X13000Y100000D01*
X12986Y99711D01*
X12944Y99425D01*
X12876Y99145D01*
X12780Y98872D01*
X12742Y98761D01*
X12725Y98644D01*
X12725Y98526D01*
X12745Y98409D01*
X12782Y98297D01*
X12836Y98193D01*
X12906Y98098D01*
X12991Y98015D01*
X13087Y97946D01*
X13192Y97893D01*
X13305Y97857D01*
X13421Y97840D01*
X13539Y97841D01*
X13613Y97853D01*
Y92698D01*
G37*
G36*
Y72698D02*X13192Y73192D01*
X12653Y73652D01*
X12049Y74022D01*
X11395Y74293D01*
X10706Y74458D01*
X10000Y74514D01*
X9993Y74513D01*
Y85487D01*
X10000Y85486D01*
X10706Y85542D01*
X11395Y85707D01*
X12049Y85978D01*
X12653Y86348D01*
X13192Y86808D01*
X13613Y87302D01*
Y72698D01*
G37*
G36*
Y62698D02*X13192Y63192D01*
X12653Y63652D01*
X12049Y64022D01*
X11395Y64293D01*
X10706Y64458D01*
X10000Y64514D01*
X9993Y64513D01*
Y65487D01*
X10000Y65486D01*
X10706Y65542D01*
X11395Y65707D01*
X12049Y65978D01*
X12653Y66348D01*
X13192Y66808D01*
X13613Y67302D01*
Y62698D01*
G37*
G36*
Y52698D02*X13192Y53192D01*
X12653Y53652D01*
X12049Y54022D01*
X11395Y54293D01*
X10706Y54458D01*
X10000Y54514D01*
X9993Y54513D01*
Y55487D01*
X10000Y55486D01*
X10706Y55542D01*
X11395Y55707D01*
X12049Y55978D01*
X12653Y56348D01*
X13192Y56808D01*
X13613Y57302D01*
Y52698D01*
G37*
G36*
Y42698D02*X13192Y43192D01*
X12653Y43652D01*
X12049Y44022D01*
X11395Y44293D01*
X10706Y44458D01*
X10000Y44514D01*
X9993Y44513D01*
Y45487D01*
X10000Y45486D01*
X10706Y45542D01*
X11395Y45707D01*
X12049Y45978D01*
X12653Y46348D01*
X13192Y46808D01*
X13613Y47302D01*
Y42698D01*
G37*
G36*
Y32698D02*X13192Y33192D01*
X12653Y33652D01*
X12049Y34022D01*
X11395Y34293D01*
X10706Y34458D01*
X10000Y34514D01*
X9993Y34513D01*
Y35487D01*
X10000Y35486D01*
X10706Y35542D01*
X11395Y35707D01*
X12049Y35978D01*
X12653Y36348D01*
X13192Y36808D01*
X13613Y37302D01*
Y32698D01*
G37*
G36*
Y222704D02*X12635Y223109D01*
X11334Y223421D01*
X10000Y223526D01*
X9993Y223526D01*
Y241582D01*
X10705Y241753D01*
X11505Y242084D01*
X12243Y242537D01*
X12901Y243099D01*
X13463Y243757D01*
X13613Y244002D01*
Y222704D01*
G37*
G36*
X9993Y206474D02*X10000Y206474D01*
X11334Y206579D01*
X12635Y206891D01*
X13613Y207296D01*
Y164370D01*
X13465Y164431D01*
X13235Y164486D01*
X13000Y164500D01*
X9993Y164493D01*
Y206474D01*
G37*
G36*
Y223526D02*X8666Y223421D01*
X7365Y223109D01*
X6129Y222597D01*
X4988Y221898D01*
X3971Y221029D01*
X3102Y220012D01*
X2500Y219029D01*
Y267500D01*
X9993D01*
Y252418D01*
X9863Y252449D01*
X9000Y252517D01*
X8137Y252449D01*
X7295Y252247D01*
X6495Y251916D01*
X5757Y251463D01*
X5099Y250901D01*
X4537Y250243D01*
X4084Y249505D01*
X3753Y248705D01*
X3551Y247863D01*
X3483Y247000D01*
X3551Y246137D01*
X3753Y245295D01*
X4084Y244495D01*
X4537Y243757D01*
X5099Y243099D01*
X5757Y242537D01*
X6495Y242084D01*
X7295Y241753D01*
X8137Y241551D01*
X9000Y241483D01*
X9863Y241551D01*
X9993Y241582D01*
Y223526D01*
G37*
G36*
X6387Y17302D02*X6808Y16808D01*
X7347Y16348D01*
X7951Y15978D01*
X8605Y15707D01*
X9294Y15542D01*
X9993Y15487D01*
Y12500D01*
X6387D01*
Y17302D01*
G37*
G36*
Y27302D02*X6808Y26808D01*
X7347Y26348D01*
X7951Y25978D01*
X8605Y25707D01*
X9294Y25542D01*
X9993Y25487D01*
Y24513D01*
X9294Y24458D01*
X8605Y24293D01*
X7951Y24022D01*
X7347Y23652D01*
X6808Y23192D01*
X6387Y22698D01*
Y27302D01*
G37*
G36*
Y37302D02*X6808Y36808D01*
X7347Y36348D01*
X7951Y35978D01*
X8605Y35707D01*
X9294Y35542D01*
X9993Y35487D01*
Y34513D01*
X9294Y34458D01*
X8605Y34293D01*
X7951Y34022D01*
X7347Y33652D01*
X6808Y33192D01*
X6387Y32698D01*
Y37302D01*
G37*
G36*
Y47302D02*X6808Y46808D01*
X7347Y46348D01*
X7951Y45978D01*
X8605Y45707D01*
X9294Y45542D01*
X9993Y45487D01*
Y44513D01*
X9294Y44458D01*
X8605Y44293D01*
X7951Y44022D01*
X7347Y43652D01*
X6808Y43192D01*
X6387Y42698D01*
Y47302D01*
G37*
G36*
Y57302D02*X6808Y56808D01*
X7347Y56348D01*
X7951Y55978D01*
X8605Y55707D01*
X9294Y55542D01*
X9993Y55487D01*
Y54513D01*
X9294Y54458D01*
X8605Y54293D01*
X7951Y54022D01*
X7347Y53652D01*
X6808Y53192D01*
X6387Y52698D01*
Y57302D01*
G37*
G36*
Y67302D02*X6808Y66808D01*
X7347Y66348D01*
X7951Y65978D01*
X8605Y65707D01*
X9294Y65542D01*
X9993Y65487D01*
Y64513D01*
X9294Y64458D01*
X8605Y64293D01*
X7951Y64022D01*
X7347Y63652D01*
X6808Y63192D01*
X6387Y62698D01*
Y67302D01*
G37*
G36*
Y87302D02*X6808Y86808D01*
X7347Y86348D01*
X7951Y85978D01*
X8605Y85707D01*
X9294Y85542D01*
X9993Y85487D01*
Y74513D01*
X9294Y74458D01*
X8605Y74293D01*
X7951Y74022D01*
X7347Y73652D01*
X6808Y73192D01*
X6387Y72698D01*
Y87302D01*
G37*
G36*
Y117302D02*X6808Y116808D01*
X7347Y116348D01*
X7951Y115978D01*
X8605Y115707D01*
X9294Y115542D01*
X9993Y115487D01*
Y114505D01*
X9567Y114484D01*
X9137Y114422D01*
X8716Y114318D01*
X8306Y114175D01*
X8200Y114122D01*
X8104Y114053D01*
X8019Y113970D01*
X7949Y113875D01*
X7894Y113769D01*
X7857Y113657D01*
X7837Y113540D01*
X7836Y113421D01*
X7854Y113304D01*
X7890Y113191D01*
X7943Y113085D01*
X8012Y112988D01*
X8095Y112904D01*
X8191Y112833D01*
X8296Y112779D01*
X8408Y112741D01*
X8525Y112722D01*
X8644Y112721D01*
X8761Y112739D01*
X8874Y112777D01*
X9145Y112876D01*
X9425Y112944D01*
X9711Y112986D01*
X9993Y113000D01*
Y107000D01*
X9711Y107014D01*
X9425Y107056D01*
X9145Y107124D01*
X8872Y107220D01*
X8761Y107258D01*
X8644Y107275D01*
X8526Y107275D01*
X8409Y107255D01*
X8297Y107218D01*
X8193Y107164D01*
X8098Y107094D01*
X8015Y107009D01*
X7946Y106913D01*
X7893Y106808D01*
X7857Y106695D01*
X7840Y106579D01*
X7841Y106461D01*
X7860Y106344D01*
X7897Y106232D01*
X7952Y106127D01*
X8022Y106032D01*
X8106Y105949D01*
X8202Y105881D01*
X8308Y105830D01*
X8716Y105682D01*
X9137Y105578D01*
X9567Y105516D01*
X9993Y105495D01*
Y104505D01*
X9567Y104484D01*
X9137Y104422D01*
X8716Y104318D01*
X8306Y104175D01*
X8200Y104122D01*
X8104Y104053D01*
X8019Y103970D01*
X7949Y103875D01*
X7894Y103769D01*
X7857Y103657D01*
X7837Y103540D01*
X7836Y103421D01*
X7854Y103304D01*
X7890Y103191D01*
X7943Y103085D01*
X8012Y102988D01*
X8095Y102904D01*
X8191Y102833D01*
X8296Y102779D01*
X8408Y102741D01*
X8525Y102722D01*
X8644Y102721D01*
X8761Y102739D01*
X8874Y102777D01*
X9145Y102876D01*
X9425Y102944D01*
X9711Y102986D01*
X9993Y103000D01*
Y97000D01*
X9711Y97014D01*
X9425Y97056D01*
X9145Y97124D01*
X8872Y97220D01*
X8761Y97258D01*
X8644Y97275D01*
X8526Y97275D01*
X8409Y97255D01*
X8297Y97218D01*
X8193Y97164D01*
X8098Y97094D01*
X8015Y97009D01*
X7946Y96913D01*
X7893Y96808D01*
X7857Y96695D01*
X7840Y96579D01*
X7841Y96461D01*
X7860Y96344D01*
X7897Y96232D01*
X7952Y96127D01*
X8022Y96032D01*
X8106Y95949D01*
X8202Y95881D01*
X8308Y95830D01*
X8716Y95682D01*
X9137Y95578D01*
X9567Y95516D01*
X9993Y95495D01*
Y94513D01*
X9294Y94458D01*
X8605Y94293D01*
X7951Y94022D01*
X7347Y93652D01*
X6808Y93192D01*
X6387Y92698D01*
Y97849D01*
X6460Y97837D01*
X6579Y97836D01*
X6696Y97854D01*
X6809Y97890D01*
X6915Y97943D01*
X7012Y98012D01*
X7096Y98095D01*
X7167Y98191D01*
X7221Y98296D01*
X7259Y98408D01*
X7278Y98525D01*
X7279Y98644D01*
X7261Y98761D01*
X7223Y98874D01*
X7124Y99145D01*
X7056Y99425D01*
X7014Y99711D01*
X7000Y100000D01*
X7014Y100289D01*
X7056Y100575D01*
X7124Y100855D01*
X7220Y101128D01*
X7258Y101239D01*
X7275Y101356D01*
X7275Y101474D01*
X7255Y101591D01*
X7218Y101703D01*
X7164Y101807D01*
X7094Y101902D01*
X7009Y101985D01*
X6913Y102054D01*
X6808Y102107D01*
X6695Y102143D01*
X6579Y102160D01*
X6461Y102159D01*
X6387Y102147D01*
Y107849D01*
X6460Y107837D01*
X6579Y107836D01*
X6696Y107854D01*
X6809Y107890D01*
X6915Y107943D01*
X7012Y108012D01*
X7096Y108095D01*
X7167Y108191D01*
X7221Y108296D01*
X7259Y108408D01*
X7278Y108525D01*
X7279Y108644D01*
X7261Y108761D01*
X7223Y108874D01*
X7124Y109145D01*
X7056Y109425D01*
X7014Y109711D01*
X7000Y110000D01*
X7014Y110289D01*
X7056Y110575D01*
X7124Y110855D01*
X7220Y111128D01*
X7258Y111239D01*
X7275Y111356D01*
X7275Y111474D01*
X7255Y111591D01*
X7218Y111703D01*
X7164Y111807D01*
X7094Y111902D01*
X7009Y111985D01*
X6913Y112054D01*
X6808Y112107D01*
X6695Y112143D01*
X6579Y112160D01*
X6461Y112159D01*
X6387Y112147D01*
Y117302D01*
G37*
G36*
Y127302D02*X6808Y126808D01*
X7347Y126348D01*
X7951Y125978D01*
X8605Y125707D01*
X9294Y125542D01*
X9993Y125487D01*
Y124513D01*
X9294Y124458D01*
X8605Y124293D01*
X7951Y124022D01*
X7347Y123652D01*
X6808Y123192D01*
X6387Y122698D01*
Y127302D01*
G37*
G36*
Y137302D02*X6808Y136808D01*
X7347Y136348D01*
X7951Y135978D01*
X8605Y135707D01*
X9294Y135542D01*
X9993Y135487D01*
Y134513D01*
X9294Y134458D01*
X8605Y134293D01*
X7951Y134022D01*
X7347Y133652D01*
X6808Y133192D01*
X6387Y132698D01*
Y137302D01*
G37*
G36*
Y147302D02*X6808Y146808D01*
X7347Y146348D01*
X7951Y145978D01*
X8605Y145707D01*
X9294Y145542D01*
X9993Y145487D01*
Y144513D01*
X9294Y144458D01*
X8605Y144293D01*
X7951Y144022D01*
X7347Y143652D01*
X6808Y143192D01*
X6387Y142698D01*
Y147302D01*
G37*
G36*
Y155630D02*X6535Y155569D01*
X6765Y155514D01*
X7000Y155500D01*
X9993Y155507D01*
Y154513D01*
X9294Y154458D01*
X8605Y154293D01*
X7951Y154022D01*
X7347Y153652D01*
X6808Y153192D01*
X6387Y152698D01*
Y155630D01*
G37*
G36*
Y207296D02*X7365Y206891D01*
X8666Y206579D01*
X9993Y206474D01*
Y164493D01*
X6765Y164486D01*
X6535Y164431D01*
X6387Y164370D01*
Y207296D01*
G37*
G36*
X2500Y12500D02*Y210971D01*
X3102Y209988D01*
X3971Y208971D01*
X4988Y208102D01*
X6129Y207403D01*
X6387Y207296D01*
Y164370D01*
X6317Y164341D01*
X6116Y164217D01*
X5936Y164064D01*
X5783Y163884D01*
X5659Y163683D01*
X5569Y163465D01*
X5514Y163235D01*
X5500Y163000D01*
X5514Y156765D01*
X5569Y156535D01*
X5659Y156317D01*
X5783Y156116D01*
X5936Y155936D01*
X6116Y155783D01*
X6317Y155659D01*
X6387Y155630D01*
Y152698D01*
X6348Y152653D01*
X5978Y152049D01*
X5707Y151395D01*
X5542Y150706D01*
X5486Y150000D01*
X5542Y149294D01*
X5707Y148605D01*
X5978Y147951D01*
X6348Y147347D01*
X6387Y147302D01*
Y142698D01*
X6348Y142653D01*
X5978Y142049D01*
X5707Y141395D01*
X5542Y140706D01*
X5486Y140000D01*
X5542Y139294D01*
X5707Y138605D01*
X5978Y137951D01*
X6348Y137347D01*
X6387Y137302D01*
Y132698D01*
X6348Y132653D01*
X5978Y132049D01*
X5707Y131395D01*
X5542Y130706D01*
X5486Y130000D01*
X5542Y129294D01*
X5707Y128605D01*
X5978Y127951D01*
X6348Y127347D01*
X6387Y127302D01*
Y122698D01*
X6348Y122653D01*
X5978Y122049D01*
X5707Y121395D01*
X5542Y120706D01*
X5486Y120000D01*
X5542Y119294D01*
X5707Y118605D01*
X5978Y117951D01*
X6348Y117347D01*
X6387Y117302D01*
Y112147D01*
X6344Y112140D01*
X6232Y112103D01*
X6127Y112048D01*
X6032Y111978D01*
X5949Y111894D01*
X5881Y111798D01*
X5830Y111692D01*
X5682Y111284D01*
X5578Y110863D01*
X5516Y110433D01*
X5495Y110000D01*
X5516Y109567D01*
X5578Y109137D01*
X5682Y108716D01*
X5825Y108306D01*
X5878Y108200D01*
X5947Y108104D01*
X6030Y108019D01*
X6125Y107949D01*
X6231Y107894D01*
X6343Y107857D01*
X6387Y107849D01*
Y102147D01*
X6344Y102140D01*
X6232Y102103D01*
X6127Y102048D01*
X6032Y101978D01*
X5949Y101894D01*
X5881Y101798D01*
X5830Y101692D01*
X5682Y101284D01*
X5578Y100863D01*
X5516Y100433D01*
X5495Y100000D01*
X5516Y99567D01*
X5578Y99137D01*
X5682Y98716D01*
X5825Y98306D01*
X5878Y98200D01*
X5947Y98104D01*
X6030Y98019D01*
X6125Y97949D01*
X6231Y97894D01*
X6343Y97857D01*
X6387Y97849D01*
Y92698D01*
X6348Y92653D01*
X5978Y92049D01*
X5707Y91395D01*
X5542Y90706D01*
X5486Y90000D01*
X5542Y89294D01*
X5707Y88605D01*
X5978Y87951D01*
X6348Y87347D01*
X6387Y87302D01*
Y72698D01*
X6348Y72653D01*
X5978Y72049D01*
X5707Y71395D01*
X5542Y70706D01*
X5486Y70000D01*
X5542Y69294D01*
X5707Y68605D01*
X5978Y67951D01*
X6348Y67347D01*
X6387Y67302D01*
Y62698D01*
X6348Y62653D01*
X5978Y62049D01*
X5707Y61395D01*
X5542Y60706D01*
X5486Y60000D01*
X5542Y59294D01*
X5707Y58605D01*
X5978Y57951D01*
X6348Y57347D01*
X6387Y57302D01*
Y52698D01*
X6348Y52653D01*
X5978Y52049D01*
X5707Y51395D01*
X5542Y50706D01*
X5486Y50000D01*
X5542Y49294D01*
X5707Y48605D01*
X5978Y47951D01*
X6348Y47347D01*
X6387Y47302D01*
Y42698D01*
X6348Y42653D01*
X5978Y42049D01*
X5707Y41395D01*
X5542Y40706D01*
X5486Y40000D01*
X5542Y39294D01*
X5707Y38605D01*
X5978Y37951D01*
X6348Y37347D01*
X6387Y37302D01*
Y32698D01*
X6348Y32653D01*
X5978Y32049D01*
X5707Y31395D01*
X5542Y30706D01*
X5486Y30000D01*
X5542Y29294D01*
X5707Y28605D01*
X5978Y27951D01*
X6348Y27347D01*
X6387Y27302D01*
Y22698D01*
X6348Y22653D01*
X5978Y22049D01*
X5707Y21395D01*
X5542Y20706D01*
X5486Y20000D01*
X5542Y19294D01*
X5707Y18605D01*
X5978Y17951D01*
X6348Y17347D01*
X6387Y17302D01*
Y12500D01*
X2500D01*
G37*
G36*
X119796Y14956D02*X123038Y14963D01*
X123268Y15018D01*
X123486Y15108D01*
X123687Y15232D01*
X123867Y15385D01*
X124020Y15565D01*
X124144Y15766D01*
X124234Y15984D01*
X124289Y16214D01*
X124303Y16449D01*
X124291Y22000D01*
X140000D01*
Y18526D01*
X138666Y18421D01*
X137365Y18109D01*
X136129Y17597D01*
X134988Y16898D01*
X133971Y16029D01*
X133102Y15012D01*
X132403Y13871D01*
X131891Y12635D01*
X131579Y11334D01*
X131474Y10000D01*
X131579Y8666D01*
X131891Y7365D01*
X132403Y6129D01*
X133102Y4988D01*
X133971Y3971D01*
X134988Y3102D01*
X135971Y2500D01*
X119796D01*
Y4936D01*
X119803Y4935D01*
X120509Y4991D01*
X121198Y5156D01*
X121852Y5427D01*
X122456Y5797D01*
X122995Y6257D01*
X123455Y6796D01*
X123825Y7400D01*
X124096Y8054D01*
X124261Y8743D01*
X124303Y9449D01*
X124261Y10155D01*
X124096Y10844D01*
X123825Y11498D01*
X123455Y12102D01*
X122995Y12641D01*
X122456Y13101D01*
X121852Y13471D01*
X121198Y13742D01*
X120509Y13907D01*
X119803Y13963D01*
X119796Y13962D01*
Y14956D01*
G37*
G36*
X109796Y14936D02*X109803Y14935D01*
X110509Y14991D01*
X111198Y15156D01*
X111852Y15427D01*
X112456Y15797D01*
X112995Y16257D01*
X113455Y16796D01*
X113825Y17400D01*
X114096Y18054D01*
X114261Y18743D01*
X114303Y19449D01*
X114261Y20155D01*
X114096Y20844D01*
X113825Y21498D01*
X113517Y22000D01*
X115304D01*
X115317Y16214D01*
X115372Y15984D01*
X115462Y15766D01*
X115586Y15565D01*
X115739Y15385D01*
X115919Y15232D01*
X116120Y15108D01*
X116338Y15018D01*
X116568Y14963D01*
X116803Y14949D01*
X119796Y14956D01*
Y13962D01*
X119097Y13907D01*
X118408Y13742D01*
X117754Y13471D01*
X117150Y13101D01*
X116611Y12641D01*
X116151Y12102D01*
X115781Y11498D01*
X115510Y10844D01*
X115345Y10155D01*
X115289Y9449D01*
X115345Y8743D01*
X115510Y8054D01*
X115781Y7400D01*
X116151Y6796D01*
X116611Y6257D01*
X117150Y5797D01*
X117754Y5427D01*
X118408Y5156D01*
X119097Y4991D01*
X119796Y4936D01*
Y2500D01*
X109796D01*
Y4936D01*
X109803Y4935D01*
X110509Y4991D01*
X111198Y5156D01*
X111852Y5427D01*
X112456Y5797D01*
X112995Y6257D01*
X113455Y6796D01*
X113825Y7400D01*
X114096Y8054D01*
X114261Y8743D01*
X114303Y9449D01*
X114261Y10155D01*
X114096Y10844D01*
X113825Y11498D01*
X113455Y12102D01*
X112995Y12641D01*
X112456Y13101D01*
X111852Y13471D01*
X111198Y13742D01*
X110509Y13907D01*
X109803Y13963D01*
X109796Y13962D01*
Y14936D01*
G37*
G36*
X103416Y16751D02*X103455Y16796D01*
X103825Y17400D01*
X104096Y18054D01*
X104261Y18743D01*
X104303Y19449D01*
X104261Y20155D01*
X104096Y20844D01*
X103825Y21498D01*
X103517Y22000D01*
X106089D01*
X105781Y21498D01*
X105510Y20844D01*
X105345Y20155D01*
X105289Y19449D01*
X105345Y18743D01*
X105510Y18054D01*
X105781Y17400D01*
X106151Y16796D01*
X106611Y16257D01*
X107150Y15797D01*
X107754Y15427D01*
X108408Y15156D01*
X109097Y14991D01*
X109796Y14936D01*
Y13962D01*
X109097Y13907D01*
X108408Y13742D01*
X107754Y13471D01*
X107150Y13101D01*
X106611Y12641D01*
X106151Y12102D01*
X105781Y11498D01*
X105510Y10844D01*
X105345Y10155D01*
X105289Y9449D01*
X105345Y8743D01*
X105510Y8054D01*
X105781Y7400D01*
X106151Y6796D01*
X106611Y6257D01*
X107150Y5797D01*
X107754Y5427D01*
X108408Y5156D01*
X109097Y4991D01*
X109796Y4936D01*
Y2500D01*
X103416D01*
Y7302D01*
X103459Y7309D01*
X103571Y7346D01*
X103676Y7401D01*
X103771Y7471D01*
X103854Y7555D01*
X103922Y7651D01*
X103973Y7757D01*
X104121Y8165D01*
X104225Y8586D01*
X104287Y9016D01*
X104308Y9449D01*
X104287Y9882D01*
X104225Y10312D01*
X104121Y10733D01*
X103978Y11143D01*
X103925Y11249D01*
X103856Y11345D01*
X103773Y11430D01*
X103678Y11500D01*
X103572Y11555D01*
X103460Y11592D01*
X103416Y11600D01*
Y16751D01*
G37*
G36*
X99805Y14935D02*X100509Y14991D01*
X101198Y15156D01*
X101852Y15427D01*
X102456Y15797D01*
X102995Y16257D01*
X103416Y16751D01*
Y11600D01*
X103343Y11612D01*
X103224Y11613D01*
X103107Y11595D01*
X102994Y11559D01*
X102888Y11506D01*
X102791Y11437D01*
X102707Y11354D01*
X102636Y11258D01*
X102582Y11153D01*
X102544Y11041D01*
X102525Y10924D01*
X102524Y10805D01*
X102542Y10688D01*
X102580Y10575D01*
X102679Y10304D01*
X102747Y10024D01*
X102789Y9738D01*
X102803Y9449D01*
X102789Y9160D01*
X102747Y8874D01*
X102679Y8594D01*
X102583Y8321D01*
X102545Y8210D01*
X102528Y8093D01*
X102528Y7975D01*
X102548Y7858D01*
X102585Y7746D01*
X102639Y7642D01*
X102709Y7547D01*
X102794Y7464D01*
X102890Y7395D01*
X102995Y7342D01*
X103108Y7306D01*
X103224Y7289D01*
X103342Y7290D01*
X103416Y7302D01*
Y2500D01*
X99805D01*
Y4944D01*
X100236Y4965D01*
X100666Y5027D01*
X101087Y5131D01*
X101497Y5274D01*
X101603Y5327D01*
X101699Y5396D01*
X101784Y5479D01*
X101854Y5574D01*
X101909Y5680D01*
X101946Y5792D01*
X101966Y5909D01*
X101967Y6028D01*
X101949Y6145D01*
X101913Y6258D01*
X101860Y6364D01*
X101791Y6461D01*
X101708Y6545D01*
X101612Y6616D01*
X101507Y6670D01*
X101395Y6708D01*
X101278Y6727D01*
X101159Y6728D01*
X101042Y6710D01*
X100929Y6672D01*
X100658Y6573D01*
X100378Y6505D01*
X100092Y6463D01*
X99805Y6449D01*
Y12449D01*
X100092Y12435D01*
X100378Y12393D01*
X100658Y12325D01*
X100931Y12229D01*
X101042Y12191D01*
X101159Y12174D01*
X101277Y12174D01*
X101394Y12194D01*
X101506Y12231D01*
X101610Y12285D01*
X101705Y12355D01*
X101788Y12440D01*
X101857Y12536D01*
X101910Y12641D01*
X101946Y12754D01*
X101963Y12870D01*
X101962Y12988D01*
X101943Y13105D01*
X101906Y13217D01*
X101851Y13322D01*
X101781Y13417D01*
X101697Y13500D01*
X101601Y13568D01*
X101495Y13619D01*
X101087Y13767D01*
X100666Y13871D01*
X100236Y13933D01*
X99805Y13954D01*
Y14935D01*
G37*
G36*
X96190Y16751D02*X96611Y16257D01*
X97150Y15797D01*
X97754Y15427D01*
X98408Y15156D01*
X99097Y14991D01*
X99803Y14935D01*
X99805Y14935D01*
Y13954D01*
X99803Y13954D01*
X99370Y13933D01*
X98940Y13871D01*
X98519Y13767D01*
X98109Y13624D01*
X98003Y13571D01*
X97907Y13502D01*
X97822Y13419D01*
X97752Y13324D01*
X97697Y13218D01*
X97660Y13106D01*
X97640Y12989D01*
X97639Y12870D01*
X97657Y12753D01*
X97693Y12640D01*
X97746Y12534D01*
X97815Y12437D01*
X97898Y12353D01*
X97994Y12282D01*
X98099Y12228D01*
X98211Y12190D01*
X98328Y12171D01*
X98447Y12170D01*
X98564Y12188D01*
X98677Y12226D01*
X98948Y12325D01*
X99228Y12393D01*
X99514Y12435D01*
X99803Y12449D01*
X99805Y12449D01*
Y6449D01*
X99803Y6449D01*
X99514Y6463D01*
X99228Y6505D01*
X98948Y6573D01*
X98675Y6669D01*
X98564Y6707D01*
X98447Y6724D01*
X98329Y6724D01*
X98212Y6704D01*
X98100Y6667D01*
X97996Y6613D01*
X97901Y6543D01*
X97818Y6458D01*
X97749Y6362D01*
X97696Y6257D01*
X97660Y6144D01*
X97643Y6028D01*
X97644Y5910D01*
X97663Y5793D01*
X97700Y5681D01*
X97755Y5576D01*
X97825Y5481D01*
X97909Y5398D01*
X98005Y5330D01*
X98111Y5279D01*
X98519Y5131D01*
X98940Y5027D01*
X99370Y4965D01*
X99803Y4944D01*
X99805Y4944D01*
Y2500D01*
X96190D01*
Y7298D01*
X96263Y7286D01*
X96382Y7285D01*
X96499Y7303D01*
X96612Y7339D01*
X96718Y7392D01*
X96815Y7461D01*
X96899Y7544D01*
X96970Y7640D01*
X97024Y7745D01*
X97062Y7857D01*
X97081Y7974D01*
X97082Y8093D01*
X97064Y8210D01*
X97026Y8323D01*
X96927Y8594D01*
X96859Y8874D01*
X96817Y9160D01*
X96803Y9449D01*
X96817Y9738D01*
X96859Y10024D01*
X96927Y10304D01*
X97023Y10577D01*
X97061Y10688D01*
X97078Y10805D01*
X97078Y10923D01*
X97058Y11040D01*
X97021Y11152D01*
X96967Y11256D01*
X96897Y11351D01*
X96812Y11434D01*
X96716Y11503D01*
X96611Y11556D01*
X96498Y11592D01*
X96382Y11609D01*
X96264Y11608D01*
X96190Y11596D01*
Y16751D01*
G37*
G36*
X30000Y22000D02*X96089D01*
X95781Y21498D01*
X95510Y20844D01*
X95345Y20155D01*
X95289Y19449D01*
X95345Y18743D01*
X95510Y18054D01*
X95781Y17400D01*
X96151Y16796D01*
X96190Y16751D01*
Y11596D01*
X96147Y11589D01*
X96035Y11552D01*
X95930Y11497D01*
X95835Y11427D01*
X95752Y11343D01*
X95684Y11247D01*
X95633Y11141D01*
X95485Y10733D01*
X95381Y10312D01*
X95319Y9882D01*
X95298Y9449D01*
X95319Y9016D01*
X95381Y8586D01*
X95485Y8165D01*
X95628Y7755D01*
X95681Y7649D01*
X95750Y7553D01*
X95833Y7468D01*
X95928Y7398D01*
X96034Y7343D01*
X96146Y7306D01*
X96190Y7298D01*
Y2500D01*
X34029D01*
X35012Y3102D01*
X36029Y3971D01*
X36898Y4988D01*
X37597Y6129D01*
X38109Y7365D01*
X38421Y8666D01*
X38500Y10000D01*
X38421Y11334D01*
X38109Y12635D01*
X37597Y13871D01*
X36898Y15012D01*
X36029Y16029D01*
X35012Y16898D01*
X33871Y17597D01*
X32635Y18109D01*
X31334Y18421D01*
X30000Y18526D01*
Y22000D01*
G37*
G54D33*X192000Y32000D02*Y198000D01*
X190000Y34000D02*Y174000D01*
X153000Y165000D02*X169500D01*
X186000Y30000D02*X190000Y34000D01*
X167500Y40000D02*Y85500D01*
X187000Y27000D02*X192000Y32000D01*
Y198000D02*X187000Y203000D01*
X158500D01*
X151500Y196000D01*
X190000Y174000D02*X185000Y179000D01*
X158500D01*
X151500Y186000D01*
X10000Y20000D02*X17000D01*
X24000Y27000D01*
X187000D01*
X10000Y30000D02*X186000D01*
X78000Y135000D02*Y97500D01*
X83000Y135000D02*Y105000D01*
X88000Y135000D02*Y105000D01*
X73000Y135000D02*Y96500D01*
X76500Y93000D01*
X91500D01*
X93000Y94500D01*
Y105000D01*
X78000Y134000D02*Y149000D01*
G54D32*G36*
X197000Y23000D02*Y17000D01*
X203000D01*
Y23000D01*
X197000D01*
G37*
G54D34*X200000Y30000D03*
Y40000D03*
Y50000D03*
Y60000D03*
Y70000D03*
G54D35*X140000Y10000D03*
G54D34*X119803Y9449D03*
X109803D03*
X99803D03*
G54D32*G36*
X116803Y22449D02*Y16449D01*
X122803D01*
Y22449D01*
X116803D01*
G37*
G54D34*X109803Y19449D03*
X99803D03*
X10000Y130000D03*
Y120000D03*
Y110000D03*
Y100000D03*
Y90000D03*
Y70000D03*
Y60000D03*
Y50000D03*
Y40000D03*
Y30000D03*
Y20000D03*
G54D35*X30000Y10000D03*
G54D34*X200000Y80000D03*
Y90000D03*
Y106000D03*
Y116000D03*
Y126000D03*
Y136000D03*
Y146000D03*
Y156000D03*
Y166000D03*
Y176000D03*
Y186000D03*
Y196000D03*
G54D35*Y210000D03*
G54D32*G36*
X148500Y189000D02*Y183000D01*
X154500D01*
Y189000D01*
X148500D01*
G37*
G54D34*X161500Y186000D03*
X171500D03*
X151500Y196000D03*
X161500D03*
X171500D03*
G54D32*G36*
X7000Y163000D02*Y157000D01*
X13000D01*
Y163000D01*
X7000D01*
G37*
G54D34*X10000Y150000D03*
Y140000D03*
G54D35*Y215000D03*
G54D36*X29000Y247000D03*
X19000D03*
X9000D03*
X69000D03*
X59000D03*
X49000D03*
X39000D03*
G54D32*G36*
X75000Y251000D02*Y243000D01*
X83000D01*
Y251000D01*
X75000D01*
G37*
G36*
X113500D02*Y243000D01*
X121500D01*
Y251000D01*
X113500D01*
G37*
G54D36*X97500Y247000D03*
G54D37*X160000Y133500D03*
X169500Y165000D03*
X153000D03*
X167500Y85500D03*
Y40000D03*
X161600Y171000D03*
X42000Y111000D03*
Y105000D03*
Y99000D03*
X18000Y105000D03*
X23500D03*
X29000D03*
X73000Y135000D03*
X78000Y97500D03*
X83000Y105000D03*
X88000D03*
X93000D03*
X88000Y135000D03*
X54000Y63500D03*
X48000D03*
X42500D03*
Y70000D03*
X59500D03*
Y63500D03*
X83000Y135000D03*
X90000Y152000D03*
X95000D03*
X78000Y149000D03*
X55000Y185000D03*
X50000D03*
X55000Y173000D03*
X50000D03*
X55000Y161000D03*
X50000D03*
X45000Y185000D03*
X40000D03*
Y179000D03*
X45000Y173000D03*
X40000D03*
X45000Y161000D03*
X40000D03*
Y167000D03*
X81000Y173500D03*
X86000D03*
X81000Y182500D03*
X86000D03*
X81000Y178000D03*
X86000D03*
G54D38*G54D39*G54D40*G54D39*G54D40*G54D39*G54D40*G54D39*G54D40*G54D41*M02*
