G04 start of page 8 for group -4079 idx -4079 *
G04 Title: (unknown), topsilk *
G04 Creator: pcb 20140316 *
G04 CreationDate: Thu 11 Jun 2015 05:52:48 PM GMT UTC *
G04 For: ndholmes *
G04 Format: Gerber/RS-274X *
G04 PCB-Dimensions (mil): 2100.00 2700.00 *
G04 PCB-Coordinate-Origin: lower left *
%MOIN*%
%FSLAX25Y25*%
%LNTOPSILK*%
%ADD64C,0.0200*%
%ADD63C,0.0080*%
%ADD62C,0.0100*%
G54D62*X500Y269500D02*X209500D01*
X151000Y232500D02*Y238500D01*
X161000D01*
Y232500D01*
X171000D02*Y238500D01*
X181000D01*
Y232500D01*
X165000Y113000D02*Y119000D01*
X175000D02*Y113000D01*
X165000D02*X175000D01*
X163000Y111500D02*X159500D01*
X209500Y269500D02*Y10500D01*
X159500D01*
X163000Y111500D02*Y108500D01*
X159500Y108000D02*X163000Y111500D01*
X158000Y100500D02*X159500Y102000D01*
Y108000D01*
X145000Y113000D02*Y119000D01*
Y113000D02*X155000D01*
X156500Y100500D02*X158000D01*
X159500Y10500D02*X149500Y500D01*
X154500Y27000D02*X156500D01*
X155500Y28000D02*Y26000D01*
X155000Y119000D02*Y113000D01*
X151000Y66500D02*X145500D01*
X150500Y46500D02*X145000D01*
Y56500D01*
X155000D01*
X145500Y66500D02*Y76500D01*
X155500D01*
X500Y10500D02*Y269500D01*
X68000Y133500D02*Y139500D01*
X78000D02*Y133500D01*
X68000Y139500D02*X78000D01*
X62000Y146000D02*Y123500D01*
X48500Y133500D02*Y139500D01*
X58500D02*Y133500D01*
X48500Y139500D02*X58500D01*
X149500Y500D02*X20500D01*
X500Y10500D02*X10500D01*
X20500Y500D02*X10500Y10500D01*
X80500Y205100D02*X95500D01*
X82000Y216100D02*X89000D01*
X82000Y211100D02*X89000D01*
X95500Y205100D02*Y195100D01*
X90500Y205100D02*Y195100D01*
X85500Y205100D02*Y195100D01*
X80500Y205100D02*Y195100D01*
X87000Y202600D02*X94000D01*
X87000Y197600D02*X94000D01*
X165500Y169000D02*Y174500D01*
Y169000D02*X164000Y170500D01*
X165500Y169000D02*X167000Y170500D01*
X80500Y208600D02*X95500D01*
Y218600D02*Y208600D01*
X90500Y218600D02*Y208600D01*
X85500Y218600D02*Y208600D01*
X80500Y218600D02*Y208600D01*
X95500Y213600D02*X80500D01*
Y218600D02*X95500D01*
X80500Y195100D02*X95500D01*
Y200100D02*X80500D01*
G54D63*X18000Y22500D02*Y19000D01*
Y22500D02*X18500Y23000D01*
X20000D01*
X20500Y22500D01*
Y19000D01*
X18000Y21000D02*X20500D01*
X21700Y23000D02*X23700D01*
X21700D02*Y21000D01*
X22200Y21500D01*
X23200D01*
X23700Y21000D01*
Y19500D01*
X23200Y19000D02*X23700Y19500D01*
X22200Y19000D02*X23200D01*
X21700Y19500D02*X22200Y19000D01*
X24900Y19500D02*X27900Y22500D01*
X31100Y23000D02*X31600Y22500D01*
X29600Y23000D02*X31100D01*
X29100Y22500D02*X29600Y23000D01*
X29100Y22500D02*Y21500D01*
X29600Y21000D01*
X31100D01*
X31600Y20500D01*
Y19500D01*
X31100Y19000D02*X31600Y19500D01*
X29600Y19000D02*X31100D01*
X29100Y19500D02*X29600Y19000D01*
X33300D02*X34800D01*
X32800Y19500D02*X33300Y19000D01*
X32800Y22500D02*Y19500D01*
Y22500D02*X33300Y23000D01*
X34800D01*
X36000D02*Y19000D01*
X38000D01*
X18000Y31500D02*Y28000D01*
Y31500D02*X18500Y32000D01*
X20000D01*
X20500Y31500D01*
Y28000D01*
X18000Y30000D02*X20500D01*
X21700D02*X23700Y32000D01*
X21700Y30000D02*X24200D01*
X23700Y32000D02*Y28000D01*
X25400Y28500D02*X28400Y31500D01*
X31600Y32000D02*X32100Y31500D01*
X30100Y32000D02*X31600D01*
X29600Y31500D02*X30100Y32000D01*
X29600Y31500D02*Y30500D01*
X30100Y30000D01*
X31600D01*
X32100Y29500D01*
Y28500D01*
X31600Y28000D02*X32100Y28500D01*
X30100Y28000D02*X31600D01*
X29600Y28500D02*X30100Y28000D01*
X33800Y32000D02*Y28000D01*
X35300Y32000D02*X35800Y31500D01*
Y28500D01*
X35300Y28000D02*X35800Y28500D01*
X33300Y28000D02*X35300D01*
X33300Y32000D02*X35300D01*
X37000Y31500D02*Y28000D01*
Y31500D02*X37500Y32000D01*
X39000D01*
X39500Y31500D01*
Y28000D01*
X37000Y30000D02*X39500D01*
X18000Y41500D02*Y38000D01*
Y41500D02*X18500Y42000D01*
X20000D01*
X20500Y41500D01*
Y38000D01*
X18000Y40000D02*X20500D01*
X21700Y41500D02*X22200Y42000D01*
X23200D01*
X23700Y41500D01*
Y38500D01*
X23200Y38000D02*X23700Y38500D01*
X22200Y38000D02*X23200D01*
X21700Y38500D02*X22200Y38000D01*
Y40000D02*X23700D01*
X18000Y51500D02*Y48000D01*
Y51500D02*X18500Y52000D01*
X20000D01*
X20500Y51500D01*
Y48000D01*
X18000Y50000D02*X20500D01*
X21700Y51500D02*X22200Y52000D01*
X23700D01*
X24200Y51500D01*
Y50500D01*
X21700Y48000D02*X24200Y50500D01*
X21700Y48000D02*X24200D01*
X18000Y61500D02*Y58000D01*
Y61500D02*X18500Y62000D01*
X20000D01*
X20500Y61500D01*
Y58000D01*
X18000Y60000D02*X20500D01*
X22200Y58000D02*X23200D01*
X22700Y62000D02*Y58000D01*
X21700Y61000D02*X22700Y62000D01*
X18000Y71500D02*Y68000D01*
Y71500D02*X18500Y72000D01*
X20000D01*
X20500Y71500D01*
Y68000D01*
X18000Y70000D02*X20500D01*
X21700Y68500D02*X22200Y68000D01*
X21700Y71500D02*Y68500D01*
Y71500D02*X22200Y72000D01*
X23200D01*
X23700Y71500D01*
Y68500D01*
X23200Y68000D02*X23700Y68500D01*
X22200Y68000D02*X23200D01*
X21700Y69000D02*X23700Y71000D01*
X18000Y92000D02*Y89000D01*
X19000Y88000D01*
X20000Y89000D01*
Y92000D02*Y89000D01*
X21200Y92000D02*X22200D01*
X21700D02*Y88000D01*
X21200D02*X22200D01*
X23400Y92000D02*Y88000D01*
Y92000D02*Y91500D01*
X25900Y89000D01*
Y92000D02*Y88000D01*
X20000Y102000D02*X20500Y101500D01*
X18500Y102000D02*X20000D01*
X18000Y101500D02*X18500Y102000D01*
X18000Y101500D02*Y98500D01*
X18500Y98000D01*
X20000D01*
X20500Y98500D01*
Y99500D02*Y98500D01*
X20000Y100000D02*X20500Y99500D01*
X19000Y100000D02*X20000D01*
X21700Y102000D02*Y98000D01*
Y102000D02*Y101500D01*
X24200Y99000D01*
Y102000D02*Y98000D01*
X25900Y102000D02*Y98000D01*
X27400Y102000D02*X27900Y101500D01*
Y98500D01*
X27400Y98000D02*X27900Y98500D01*
X25400Y98000D02*X27400D01*
X25400Y102000D02*X27400D01*
X20000Y112000D02*X20500Y111500D01*
X18500Y112000D02*X20000D01*
X18000Y111500D02*X18500Y112000D01*
X18000Y111500D02*Y108500D01*
X18500Y108000D01*
X20000D01*
X20500Y108500D01*
Y109500D02*Y108500D01*
X20000Y110000D02*X20500Y109500D01*
X19000Y110000D02*X20000D01*
X21700Y112000D02*Y108000D01*
Y112000D02*Y111500D01*
X24200Y109000D01*
Y112000D02*Y108000D01*
X25900Y112000D02*Y108000D01*
X27400Y112000D02*X27900Y111500D01*
Y108500D01*
X27400Y108000D02*X27900Y108500D01*
X25400Y108000D02*X27400D01*
X25400Y112000D02*X27400D01*
X46500Y59000D02*Y55500D01*
Y59000D02*X47000Y59500D01*
X48500D01*
X49000Y59000D01*
Y55500D01*
X46500Y57500D02*X49000D01*
X50200Y59500D02*X52200D01*
X52700Y59000D01*
Y58000D01*
X52200Y57500D02*X52700Y58000D01*
X50700Y57500D02*X52200D01*
X50700Y59500D02*Y55500D01*
Y57500D02*X52700Y55500D01*
X54400Y59500D02*Y55500D01*
X55900Y59500D02*X56400Y59000D01*
Y56000D01*
X55900Y55500D02*X56400Y56000D01*
X53900Y55500D02*X55900D01*
X53900Y59500D02*X55900D01*
X57600Y57500D02*X59600D01*
X60800Y59500D02*Y55500D01*
X62800D01*
X64000Y59500D02*X66000D01*
X65000D02*Y55500D01*
X67700D02*X69200D01*
X67200Y56000D02*X67700Y55500D01*
X67200Y59000D02*Y56000D01*
Y59000D02*X67700Y59500D01*
X69200D01*
X70900Y55500D02*X71900D01*
X71400Y59500D02*Y55500D01*
X70400Y58500D02*X71400Y59500D01*
X73100Y56000D02*X73600Y55500D01*
X73100Y57000D02*Y56000D01*
Y57000D02*X73600Y57500D01*
X74600D01*
X75100Y57000D01*
Y56000D01*
X74600Y55500D02*X75100Y56000D01*
X73600Y55500D02*X74600D01*
X73100Y58000D02*X73600Y57500D01*
X73100Y59000D02*Y58000D01*
Y59000D02*X73600Y59500D01*
X74600D01*
X75100Y59000D01*
Y58000D01*
X74600Y57500D02*X75100Y58000D01*
X77800Y59500D02*X78300Y59000D01*
X76800Y59500D02*X77800D01*
X76300Y59000D02*X76800Y59500D01*
X76300Y59000D02*Y56000D01*
X76800Y55500D01*
X77800Y57500D02*X78300Y57000D01*
X76300Y57500D02*X77800D01*
X76800Y55500D02*X77800D01*
X78300Y56000D01*
Y57000D02*Y56000D01*
X79500Y59000D02*X80000Y59500D01*
X81000D01*
X81500Y59000D01*
Y56000D01*
X81000Y55500D02*X81500Y56000D01*
X80000Y55500D02*X81000D01*
X79500Y56000D02*X80000Y55500D01*
Y57500D02*X81500D01*
X84500D02*Y56500D01*
X85500Y55500D01*
X86500Y56500D01*
Y57500D02*Y56500D01*
X88200Y55500D02*X89200D01*
X88700Y59500D02*Y55500D01*
X87700Y58500D02*X88700Y59500D01*
X90400Y55500D02*X90900D01*
X92600D02*X93600D01*
X93100Y59500D02*Y55500D01*
X92100Y58500D02*X93100Y59500D01*
X46500Y52000D02*X47500D01*
X47000D02*Y48000D01*
X46500D02*X47500D01*
X48700Y49500D02*Y48500D01*
Y49500D02*X49200Y50000D01*
X50200D01*
X50700Y49500D01*
Y48500D01*
X50200Y48000D02*X50700Y48500D01*
X49200Y48000D02*X50200D01*
X48700Y48500D02*X49200Y48000D01*
X51900Y50000D02*Y48500D01*
X52400Y48000D01*
X52900D01*
X53400Y48500D01*
Y50000D02*Y48500D01*
X53900Y48000D01*
X54400D01*
X54900Y48500D01*
Y50000D02*Y48500D01*
X57600Y50000D02*X58100Y49500D01*
X56600Y50000D02*X57600D01*
X56100Y49500D02*X56600Y50000D01*
X56100Y49500D02*Y48500D01*
X56600Y48000D01*
X58100Y50000D02*Y48500D01*
X58600Y48000D01*
X56600D02*X57600D01*
X58100Y48500D01*
X63600Y52000D02*X64100Y51500D01*
X62100Y52000D02*X63600D01*
X61600Y51500D02*X62100Y52000D01*
X61600Y51500D02*Y50500D01*
X62100Y50000D01*
X63600D01*
X64100Y49500D01*
Y48500D01*
X63600Y48000D02*X64100Y48500D01*
X62100Y48000D02*X63600D01*
X61600Y48500D02*X62100Y48000D01*
X65800Y50000D02*X67300D01*
X65300Y49500D02*X65800Y50000D01*
X65300Y49500D02*Y48500D01*
X65800Y48000D01*
X67300D01*
X70000Y50000D02*X70500Y49500D01*
X69000Y50000D02*X70000D01*
X68500Y49500D02*X69000Y50000D01*
X68500Y49500D02*Y48500D01*
X69000Y48000D01*
X70500Y50000D02*Y48500D01*
X71000Y48000D01*
X69000D02*X70000D01*
X70500Y48500D01*
X72200Y52000D02*Y48500D01*
X72700Y48000D01*
X74200D02*X75700D01*
X73700Y48500D02*X74200Y48000D01*
X73700Y49500D02*Y48500D01*
Y49500D02*X74200Y50000D01*
X75200D01*
X75700Y49500D01*
X73700Y49000D02*X75700D01*
Y49500D02*Y49000D01*
X78900Y52000D02*Y48000D01*
X78400D02*X78900Y48500D01*
X77400Y48000D02*X78400D01*
X76900Y48500D02*X77400Y48000D01*
X76900Y49500D02*Y48500D01*
Y49500D02*X77400Y50000D01*
X78400D01*
X78900Y49500D01*
X81900Y50000D02*X83400D01*
X81900Y48000D02*X83900D01*
X81900Y52000D02*Y48000D01*
Y52000D02*X83900D01*
X85600Y49500D02*Y48000D01*
Y49500D02*X86100Y50000D01*
X86600D01*
X87100Y49500D01*
Y48000D01*
X85100Y50000D02*X85600Y49500D01*
X89800Y50000D02*X90300Y49500D01*
X88800Y50000D02*X89800D01*
X88300Y49500D02*X88800Y50000D01*
X88300Y49500D02*Y48500D01*
X88800Y48000D01*
X89800D01*
X90300Y48500D01*
X88300Y47000D02*X88800Y46500D01*
X89800D01*
X90300Y47000D01*
Y50000D02*Y47000D01*
X91500Y51000D02*Y50500D01*
Y49500D02*Y48000D01*
X93000Y49500D02*Y48000D01*
Y49500D02*X93500Y50000D01*
X94000D01*
X94500Y49500D01*
Y48000D01*
X92500Y50000D02*X93000Y49500D01*
X96200Y48000D02*X97700D01*
X95700Y48500D02*X96200Y48000D01*
X95700Y49500D02*Y48500D01*
Y49500D02*X96200Y50000D01*
X97200D01*
X97700Y49500D01*
X95700Y49000D02*X97700D01*
Y49500D02*Y49000D01*
X99400Y48000D02*X100900D01*
X98900Y48500D02*X99400Y48000D01*
X98900Y49500D02*Y48500D01*
Y49500D02*X99400Y50000D01*
X100400D01*
X100900Y49500D01*
X98900Y49000D02*X100900D01*
Y49500D02*Y49000D01*
X102600Y49500D02*Y48000D01*
Y49500D02*X103100Y50000D01*
X104100D01*
X102100D02*X102600Y49500D01*
X105300Y51000D02*Y50500D01*
Y49500D02*Y48000D01*
X106800Y49500D02*Y48000D01*
Y49500D02*X107300Y50000D01*
X107800D01*
X108300Y49500D01*
Y48000D01*
X106300Y50000D02*X106800Y49500D01*
X111000Y50000D02*X111500Y49500D01*
X110000Y50000D02*X111000D01*
X109500Y49500D02*X110000Y50000D01*
X109500Y49500D02*Y48500D01*
X110000Y48000D01*
X111000D01*
X111500Y48500D01*
X109500Y47000D02*X110000Y46500D01*
X111000D01*
X111500Y47000D01*
Y50000D02*Y47000D01*
X46500Y44500D02*Y40500D01*
Y42000D02*X47000Y42500D01*
X48000D01*
X48500Y42000D01*
Y40500D01*
X50200Y44500D02*Y41000D01*
X50700Y40500D01*
X49700Y43000D02*X50700D01*
X52200Y44500D02*Y41000D01*
X52700Y40500D01*
X51700Y43000D02*X52700D01*
X54200Y42000D02*Y39000D01*
X53700Y42500D02*X54200Y42000D01*
X54700Y42500D01*
X55700D01*
X56200Y42000D01*
Y41000D01*
X55700Y40500D02*X56200Y41000D01*
X54700Y40500D02*X55700D01*
X54200Y41000D02*X54700Y40500D01*
X57400Y43000D02*X57900D01*
X57400Y42000D02*X57900D01*
X59100Y41000D02*X62100Y44000D01*
X63300Y41000D02*X66300Y44000D01*
X67500Y42500D02*Y41000D01*
X68000Y40500D01*
X68500D01*
X69000Y41000D01*
Y42500D02*Y41000D01*
X69500Y40500D01*
X70000D01*
X70500Y41000D01*
Y42500D02*Y41000D01*
X71700Y42500D02*Y41000D01*
X72200Y40500D01*
X72700D01*
X73200Y41000D01*
Y42500D02*Y41000D01*
X73700Y40500D01*
X74200D01*
X74700Y41000D01*
Y42500D02*Y41000D01*
X75900Y42500D02*Y41000D01*
X76400Y40500D01*
X76900D01*
X77400Y41000D01*
Y42500D02*Y41000D01*
X77900Y40500D01*
X78400D01*
X78900Y41000D01*
Y42500D02*Y41000D01*
X80100Y40500D02*X80600D01*
X81800Y43500D02*Y43000D01*
Y42000D02*Y40500D01*
X84300Y42500D02*X84800Y42000D01*
X83300Y42500D02*X84300D01*
X82800Y42000D02*X83300Y42500D01*
X82800Y42000D02*Y41000D01*
X83300Y40500D01*
X84800Y42500D02*Y41000D01*
X85300Y40500D01*
X83300D02*X84300D01*
X84800Y41000D01*
X87000Y40500D02*X88500D01*
X89000Y41000D01*
X88500Y41500D02*X89000Y41000D01*
X87000Y41500D02*X88500D01*
X86500Y42000D02*X87000Y41500D01*
X86500Y42000D02*X87000Y42500D01*
X88500D01*
X89000Y42000D01*
X86500Y41000D02*X87000Y40500D01*
X90700Y42500D02*X92200D01*
X90200Y42000D02*X90700Y42500D01*
X90200Y42000D02*Y41000D01*
X90700Y40500D01*
X92200D01*
X94900Y42500D02*X95400Y42000D01*
X93900Y42500D02*X94900D01*
X93400Y42000D02*X93900Y42500D01*
X93400Y42000D02*Y41000D01*
X93900Y40500D01*
X95400Y42500D02*Y41000D01*
X95900Y40500D01*
X93900D02*X94900D01*
X95400Y41000D01*
X97100Y44500D02*Y41000D01*
X97600Y40500D01*
X99100D02*X100600D01*
X98600Y41000D02*X99100Y40500D01*
X98600Y42000D02*Y41000D01*
Y42000D02*X99100Y42500D01*
X100100D01*
X100600Y42000D01*
X98600Y41500D02*X100600D01*
Y42000D02*Y41500D01*
X103800Y44500D02*Y40500D01*
X103300D02*X103800Y41000D01*
X102300Y40500D02*X103300D01*
X101800Y41000D02*X102300Y40500D01*
X101800Y42000D02*Y41000D01*
Y42000D02*X102300Y42500D01*
X103300D01*
X103800Y42000D01*
X105000Y40500D02*X105500D01*
X107200Y42500D02*X108700D01*
X106700Y42000D02*X107200Y42500D01*
X106700Y42000D02*Y41000D01*
X107200Y40500D01*
X108700D01*
X109900Y42000D02*Y41000D01*
Y42000D02*X110400Y42500D01*
X111400D01*
X111900Y42000D01*
Y41000D01*
X111400Y40500D02*X111900Y41000D01*
X110400Y40500D02*X111400D01*
X109900Y41000D02*X110400Y40500D01*
X113600Y42000D02*Y40500D01*
Y42000D02*X114100Y42500D01*
X114600D01*
X115100Y42000D01*
Y40500D01*
Y42000D02*X115600Y42500D01*
X116100D01*
X116600Y42000D01*
Y40500D01*
X113100Y42500D02*X113600Y42000D01*
X47000Y33000D02*X48500D01*
X46500Y33500D02*X47000Y33000D01*
X46500Y36500D02*Y33500D01*
Y36500D02*X47000Y37000D01*
X48500D01*
X50200Y33000D02*X51700D01*
X49700Y33500D02*X50200Y33000D01*
X49700Y36500D02*Y33500D01*
Y36500D02*X50200Y37000D01*
X51700D01*
X54700Y33000D02*X56700D01*
X57200Y33500D01*
Y34500D02*Y33500D01*
X56700Y35000D02*X57200Y34500D01*
X55200Y35000D02*X56700D01*
X55200Y37000D02*Y33000D01*
X54700Y37000D02*X56700D01*
X57200Y36500D01*
Y35500D01*
X56700Y35000D02*X57200Y35500D01*
X58400Y37000D02*Y36500D01*
X59400Y35500D01*
X60400Y36500D01*
Y37000D02*Y36500D01*
X59400Y35500D02*Y33000D01*
X61600Y35000D02*X63600D01*
X66800Y37000D02*X67300Y36500D01*
X65300Y37000D02*X66800D01*
X64800Y36500D02*X65300Y37000D01*
X64800Y36500D02*Y35500D01*
X65300Y35000D01*
X66800D01*
X67300Y34500D01*
Y33500D01*
X66800Y33000D02*X67300Y33500D01*
X65300Y33000D02*X66800D01*
X64800Y33500D02*X65300Y33000D01*
X68500Y36500D02*Y33000D01*
Y36500D02*X69000Y37000D01*
X70500D01*
X71000Y36500D01*
Y33000D01*
X68500Y35000D02*X71000D01*
X74000Y33500D02*X74500Y33000D01*
X74000Y36500D02*X74500Y37000D01*
X74000Y36500D02*Y33500D01*
X76200Y33000D02*X77700D01*
X75700Y33500D02*X76200Y33000D01*
X75700Y36500D02*Y33500D01*
Y36500D02*X76200Y37000D01*
X77700D01*
X78900D02*X79400Y36500D01*
Y33500D01*
X78900Y33000D02*X79400Y33500D01*
X80600Y36500D02*X81100Y37000D01*
X82600D01*
X83100Y36500D01*
Y35500D01*
X80600Y33000D02*X83100Y35500D01*
X80600Y33000D02*X83100D01*
X84300Y33500D02*X84800Y33000D01*
X84300Y36500D02*Y33500D01*
Y36500D02*X84800Y37000D01*
X85800D01*
X86300Y36500D01*
Y33500D01*
X85800Y33000D02*X86300Y33500D01*
X84800Y33000D02*X85800D01*
X84300Y34000D02*X86300Y36000D01*
X88000Y33000D02*X89000D01*
X88500Y37000D02*Y33000D01*
X87500Y36000D02*X88500Y37000D01*
X90200D02*X92200D01*
X90200D02*Y35000D01*
X90700Y35500D01*
X91700D01*
X92200Y35000D01*
Y33500D01*
X91700Y33000D02*X92200Y33500D01*
X90700Y33000D02*X91700D01*
X90200Y33500D02*X90700Y33000D01*
X185500Y108000D02*Y104000D01*
X187000Y108000D02*X187500Y107500D01*
Y104500D01*
X187000Y104000D02*X187500Y104500D01*
X185000Y104000D02*X187000D01*
X185000Y108000D02*X187000D01*
X188700Y104500D02*X189200Y104000D01*
X188700Y105500D02*Y104500D01*
Y105500D02*X189200Y106000D01*
X190200D01*
X190700Y105500D01*
Y104500D01*
X190200Y104000D02*X190700Y104500D01*
X189200Y104000D02*X190200D01*
X188700Y106500D02*X189200Y106000D01*
X188700Y107500D02*Y106500D01*
Y107500D02*X189200Y108000D01*
X190200D01*
X190700Y107500D01*
Y106500D01*
X190200Y106000D02*X190700Y106500D01*
X183500Y158000D02*Y154000D01*
X185000Y158000D02*X185500Y157500D01*
Y154500D01*
X185000Y154000D02*X185500Y154500D01*
X183000Y154000D02*X185000D01*
X183000Y158000D02*X185000D01*
X187200Y154000D02*X188200D01*
X187700Y158000D02*Y154000D01*
X186700Y157000D02*X187700Y158000D01*
X189400Y157500D02*X189900Y158000D01*
X190900D01*
X191400Y157500D01*
Y154500D01*
X190900Y154000D02*X191400Y154500D01*
X189900Y154000D02*X190900D01*
X189400Y154500D02*X189900Y154000D01*
Y156000D02*X191400D01*
X183500Y148000D02*Y144000D01*
X185000Y148000D02*X185500Y147500D01*
Y144500D01*
X185000Y144000D02*X185500Y144500D01*
X183000Y144000D02*X185000D01*
X183000Y148000D02*X185000D01*
X187200Y144000D02*X188200D01*
X187700Y148000D02*Y144000D01*
X186700Y147000D02*X187700Y148000D01*
X189400Y147500D02*X189900Y148000D01*
X191400D01*
X191900Y147500D01*
Y146500D01*
X189400Y144000D02*X191900Y146500D01*
X189400Y144000D02*X191900D01*
X183500Y138000D02*Y134000D01*
X185000Y138000D02*X185500Y137500D01*
Y134500D01*
X185000Y134000D02*X185500Y134500D01*
X183000Y134000D02*X185000D01*
X183000Y138000D02*X185000D01*
X187200Y134000D02*X188200D01*
X187700Y138000D02*Y134000D01*
X186700Y137000D02*X187700Y138000D01*
X189900Y134000D02*X190900D01*
X190400Y138000D02*Y134000D01*
X189400Y137000D02*X190400Y138000D01*
X183500Y128000D02*Y124000D01*
X185000Y128000D02*X185500Y127500D01*
Y124500D01*
X185000Y124000D02*X185500Y124500D01*
X183000Y124000D02*X185000D01*
X183000Y128000D02*X185000D01*
X187200Y124000D02*X188200D01*
X187700Y128000D02*Y124000D01*
X186700Y127000D02*X187700Y128000D01*
X189400Y124500D02*X189900Y124000D01*
X189400Y127500D02*Y124500D01*
Y127500D02*X189900Y128000D01*
X190900D01*
X191400Y127500D01*
Y124500D01*
X190900Y124000D02*X191400Y124500D01*
X189900Y124000D02*X190900D01*
X189400Y125000D02*X191400Y127000D01*
X185500Y118000D02*Y114000D01*
X187000Y118000D02*X187500Y117500D01*
Y114500D01*
X187000Y114000D02*X187500Y114500D01*
X185000Y114000D02*X187000D01*
X185000Y118000D02*X187000D01*
X188700Y114000D02*X190700Y116000D01*
Y117500D02*Y116000D01*
X190200Y118000D02*X190700Y117500D01*
X189200Y118000D02*X190200D01*
X188700Y117500D02*X189200Y118000D01*
X188700Y117500D02*Y116500D01*
X189200Y116000D01*
X190700D01*
X185500Y52000D02*Y48000D01*
X187000Y52000D02*X187500Y51500D01*
Y48500D01*
X187000Y48000D02*X187500Y48500D01*
X185000Y48000D02*X187000D01*
X185000Y52000D02*X187000D01*
X188700Y51500D02*X189200Y52000D01*
X190200D01*
X190700Y51500D01*
Y48500D01*
X190200Y48000D02*X190700Y48500D01*
X189200Y48000D02*X190200D01*
X188700Y48500D02*X189200Y48000D01*
Y50000D02*X190700D01*
X185500Y62000D02*Y58000D01*
X187000Y62000D02*X187500Y61500D01*
Y58500D01*
X187000Y58000D02*X187500Y58500D01*
X185000Y58000D02*X187000D01*
X185000Y62000D02*X187000D01*
X188700Y60000D02*X190700Y62000D01*
X188700Y60000D02*X191200D01*
X190700Y62000D02*Y58000D01*
X121500Y49500D02*X124500Y52500D01*
X126200Y49000D02*X127700D01*
X125700Y49500D02*X126200Y49000D01*
X125700Y52500D02*Y49500D01*
Y52500D02*X126200Y53000D01*
X127700D01*
X130900D02*X131400Y52500D01*
X129400Y53000D02*X130900D01*
X128900Y52500D02*X129400Y53000D01*
X128900Y52500D02*Y51500D01*
X129400Y51000D01*
X130900D01*
X131400Y50500D01*
Y49500D01*
X130900Y49000D02*X131400Y49500D01*
X129400Y49000D02*X130900D01*
X128900Y49500D02*X129400Y49000D01*
X132600Y51500D02*X134600D01*
X132600Y50500D02*X134600D01*
X136300Y53000D02*Y49000D01*
X137800Y53000D02*X138300Y52500D01*
Y49500D01*
X137800Y49000D02*X138300Y49500D01*
X135800Y49000D02*X137800D01*
X135800Y53000D02*X137800D01*
X139500Y52500D02*X140000Y53000D01*
X141000D01*
X141500Y52500D01*
Y49500D01*
X141000Y49000D02*X141500Y49500D01*
X140000Y49000D02*X141000D01*
X139500Y49500D02*X140000Y49000D01*
Y51000D02*X141500D01*
X185500Y42000D02*Y38000D01*
X187000Y42000D02*X187500Y41500D01*
Y38500D01*
X187000Y38000D02*X187500Y38500D01*
X185000Y38000D02*X187000D01*
X185000Y42000D02*X187000D01*
X188700Y41500D02*X189200Y42000D01*
X190700D01*
X191200Y41500D01*
Y40500D01*
X188700Y38000D02*X191200Y40500D01*
X188700Y38000D02*X191200D01*
X174000Y22000D02*X176000D01*
X176500Y21500D01*
Y20500D01*
X176000Y20000D02*X176500Y20500D01*
X174500Y20000D02*X176000D01*
X174500Y22000D02*Y18000D01*
Y20000D02*X176500Y18000D01*
X177700Y22000D02*Y21500D01*
X180200Y19000D01*
Y18000D01*
X177700Y19000D02*Y18000D01*
Y19000D02*X180200Y21500D01*
Y22000D02*Y21500D01*
X181400Y18500D02*X184400Y21500D01*
X186100Y22000D02*Y18000D01*
X187600Y22000D02*X188100Y21500D01*
Y18500D01*
X187600Y18000D02*X188100Y18500D01*
X185600Y18000D02*X187600D01*
X185600Y22000D02*X187600D01*
X189300Y18500D02*X189800Y18000D01*
X189300Y21500D02*Y18500D01*
Y21500D02*X189800Y22000D01*
X190800D01*
X191300Y21500D01*
Y18500D01*
X190800Y18000D02*X191300Y18500D01*
X189800Y18000D02*X190800D01*
X189300Y19000D02*X191300Y21000D01*
X175000Y32000D02*X177000D01*
X176000D02*Y28000D01*
X178200Y32000D02*Y31500D01*
X180700Y29000D01*
Y28000D01*
X178200Y29000D02*Y28000D01*
Y29000D02*X180700Y31500D01*
Y32000D02*Y31500D01*
X181900Y28500D02*X184900Y31500D01*
X186600Y32000D02*Y28000D01*
X188100Y32000D02*X188600Y31500D01*
Y28500D01*
X188100Y28000D02*X188600Y28500D01*
X186100Y28000D02*X188100D01*
X186100Y32000D02*X188100D01*
X190300Y28000D02*X191300D01*
X190800Y32000D02*Y28000D01*
X189800Y31000D02*X190800Y32000D01*
X132000Y26000D02*Y22000D01*
X131500Y26000D02*X133500D01*
X134000Y25500D01*
Y24500D01*
X133500Y24000D02*X134000Y24500D01*
X132000Y24000D02*X133500D01*
X135200Y26000D02*Y22000D01*
X136700Y23500D01*
X138200Y22000D01*
Y26000D02*Y22000D01*
X139400Y26000D02*X141400D01*
X141900Y25500D01*
Y24500D01*
X141400Y24000D02*X141900Y24500D01*
X139900Y24000D02*X141400D01*
X139900Y26000D02*Y22000D01*
Y24000D02*X141900Y22000D01*
X185500Y92000D02*Y88000D01*
X187000Y92000D02*X187500Y91500D01*
Y88500D01*
X187000Y88000D02*X187500Y88500D01*
X185000Y88000D02*X187000D01*
X185000Y92000D02*X187000D01*
X188700Y88000D02*X191200Y90500D01*
Y92000D02*Y90500D01*
X188700Y92000D02*X191200D01*
X139000Y110500D02*Y107000D01*
Y110500D02*X139500Y111000D01*
X141000D01*
X141500Y110500D01*
Y107000D01*
X139000Y109000D02*X141500D01*
X143200Y107000D02*X144200D01*
X143700Y111000D02*Y107000D01*
X142700Y110000D02*X143700Y111000D01*
X145400Y109500D02*X147400D01*
X145400Y108500D02*X147400D01*
X148600Y107500D02*X149100Y107000D01*
X148600Y110500D02*Y107500D01*
Y110500D02*X149100Y111000D01*
X150100D01*
X150600Y110500D01*
Y107500D01*
X150100Y107000D02*X150600Y107500D01*
X149100Y107000D02*X150100D01*
X148600Y108000D02*X150600Y110000D01*
X143000Y102000D02*Y98500D01*
Y102000D02*X143500Y102500D01*
X145000D01*
X145500Y102000D01*
Y98500D01*
X143000Y100500D02*X145500D01*
X146700Y99000D02*X147200Y98500D01*
X146700Y102000D02*Y99000D01*
Y102000D02*X147200Y102500D01*
X148200D01*
X148700Y102000D01*
Y99000D01*
X148200Y98500D02*X148700Y99000D01*
X147200Y98500D02*X148200D01*
X146700Y99500D02*X148700Y101500D01*
X149900Y101000D02*X151900D01*
X149900Y100000D02*X151900D01*
X153100Y99000D02*X153600Y98500D01*
X153100Y102000D02*Y99000D01*
Y102000D02*X153600Y102500D01*
X154600D01*
X155100Y102000D01*
Y99000D01*
X154600Y98500D02*X155100Y99000D01*
X153600Y98500D02*X154600D01*
X153100Y99500D02*X155100Y101500D01*
X185500Y82000D02*Y78000D01*
X187000Y82000D02*X187500Y81500D01*
Y78500D01*
X187000Y78000D02*X187500Y78500D01*
X185000Y78000D02*X187000D01*
X185000Y82000D02*X187000D01*
X190200D02*X190700Y81500D01*
X189200Y82000D02*X190200D01*
X188700Y81500D02*X189200Y82000D01*
X188700Y81500D02*Y78500D01*
X189200Y78000D01*
X190200Y80000D02*X190700Y79500D01*
X188700Y80000D02*X190200D01*
X189200Y78000D02*X190200D01*
X190700Y78500D01*
Y79500D02*Y78500D01*
X185500Y72000D02*Y68000D01*
X187000Y72000D02*X187500Y71500D01*
Y68500D01*
X187000Y68000D02*X187500Y68500D01*
X185000Y68000D02*X187000D01*
X185000Y72000D02*X187000D01*
X188700D02*X190700D01*
X188700D02*Y70000D01*
X189200Y70500D01*
X190200D01*
X190700Y70000D01*
Y68500D01*
X190200Y68000D02*X190700Y68500D01*
X189200Y68000D02*X190200D01*
X188700Y68500D02*X189200Y68000D01*
X121500Y70000D02*X124500Y73000D01*
X126200Y69500D02*X127700D01*
X125700Y70000D02*X126200Y69500D01*
X125700Y73000D02*Y70000D01*
Y73000D02*X126200Y73500D01*
X127700D01*
X130900D02*X131400Y73000D01*
X129400Y73500D02*X130900D01*
X128900Y73000D02*X129400Y73500D01*
X128900Y73000D02*Y72000D01*
X129400Y71500D01*
X130900D01*
X131400Y71000D01*
Y70000D01*
X130900Y69500D02*X131400Y70000D01*
X129400Y69500D02*X130900D01*
X128900Y70000D02*X129400Y69500D01*
X132600Y72000D02*X134600D01*
X132600Y71000D02*X134600D01*
X136300Y73500D02*Y69500D01*
X137800Y73500D02*X138300Y73000D01*
Y70000D01*
X137800Y69500D02*X138300Y70000D01*
X135800Y69500D02*X137800D01*
X135800Y73500D02*X137800D01*
X139500Y70000D02*X140000Y69500D01*
X139500Y71000D02*Y70000D01*
Y71000D02*X140000Y71500D01*
X141000D01*
X141500Y71000D01*
Y70000D01*
X141000Y69500D02*X141500Y70000D01*
X140000Y69500D02*X141000D01*
X139500Y72000D02*X140000Y71500D01*
X139500Y73000D02*Y72000D01*
Y73000D02*X140000Y73500D01*
X141000D01*
X141500Y73000D01*
Y72000D01*
X141000Y71500D02*X141500Y72000D01*
X149500Y145000D02*X151000D01*
Y141500D01*
X150500Y141000D02*X151000Y141500D01*
X150000Y141000D02*X150500D01*
X149500Y141500D02*X150000Y141000D01*
X152700Y145000D02*Y141000D01*
X152200Y145000D02*X154200D01*
X154700Y144500D01*
Y143500D01*
X154200Y143000D02*X154700Y143500D01*
X152700Y143000D02*X154200D01*
X155900Y145000D02*X157900D01*
X155900D02*Y143000D01*
X156400Y143500D01*
X157400D01*
X157900Y143000D01*
Y141500D01*
X157400Y141000D02*X157900Y141500D01*
X156400Y141000D02*X157400D01*
X155900Y141500D02*X156400Y141000D01*
X137500Y246500D02*X138000Y247000D01*
X139500D01*
X140000Y246500D01*
Y245500D01*
X137500Y243000D02*X140000Y245500D01*
X137500Y243000D02*X140000D01*
X143000Y247000D02*X144500D01*
Y243500D01*
X144000Y243000D02*X144500Y243500D01*
X143500Y243000D02*X144000D01*
X143000Y243500D02*X143500Y243000D01*
X145700Y245000D02*Y243500D01*
X146200Y243000D01*
X147200D01*
X147700Y243500D01*
Y245000D02*Y243500D01*
X149400Y244500D02*Y243000D01*
Y244500D02*X149900Y245000D01*
X150400D01*
X150900Y244500D01*
Y243000D01*
Y244500D02*X151400Y245000D01*
X151900D01*
X152400Y244500D01*
Y243000D01*
X148900Y245000D02*X149400Y244500D01*
X154100D02*Y241500D01*
X153600Y245000D02*X154100Y244500D01*
X154600Y245000D01*
X155600D01*
X156100Y244500D01*
Y243500D01*
X155600Y243000D02*X156100Y243500D01*
X154600Y243000D02*X155600D01*
X154100Y243500D02*X154600Y243000D01*
X157800D02*X159300D01*
X157300Y243500D02*X157800Y243000D01*
X157300Y244500D02*Y243500D01*
Y244500D02*X157800Y245000D01*
X158800D01*
X159300Y244500D01*
X157300Y244000D02*X159300D01*
Y244500D02*Y244000D01*
X161000Y244500D02*Y243000D01*
Y244500D02*X161500Y245000D01*
X162500D01*
X160500D02*X161000Y244500D01*
X164200Y243000D02*X165700D01*
X166200Y243500D01*
X165700Y244000D02*X166200Y243500D01*
X164200Y244000D02*X165700D01*
X163700Y244500D02*X164200Y244000D01*
X163700Y244500D02*X164200Y245000D01*
X165700D01*
X166200Y244500D01*
X163700Y243500D02*X164200Y243000D01*
X169200Y246500D02*Y243000D01*
Y246500D02*X169700Y247000D01*
X171200D01*
X171700Y246500D01*
Y243000D01*
X169200Y245000D02*X171700D01*
X173400Y243000D02*X174900D01*
X175400Y243500D01*
X174900Y244000D02*X175400Y243500D01*
X173400Y244000D02*X174900D01*
X172900Y244500D02*X173400Y244000D01*
X172900Y244500D02*X173400Y245000D01*
X174900D01*
X175400Y244500D01*
X172900Y243500D02*X173400Y243000D01*
X180400Y247000D02*X180900Y246500D01*
X178900Y247000D02*X180400D01*
X178400Y246500D02*X178900Y247000D01*
X178400Y246500D02*Y245500D01*
X178900Y245000D01*
X180400D01*
X180900Y244500D01*
Y243500D01*
X180400Y243000D02*X180900Y243500D01*
X178900Y243000D02*X180400D01*
X178400Y243500D02*X178900Y243000D01*
X182100Y247000D02*Y243000D01*
Y244500D02*X182600Y245000D01*
X183600D01*
X184100Y244500D01*
Y243000D01*
X185300Y244500D02*Y243500D01*
Y244500D02*X185800Y245000D01*
X186800D01*
X187300Y244500D01*
Y243500D01*
X186800Y243000D02*X187300Y243500D01*
X185800Y243000D02*X186800D01*
X185300Y243500D02*X185800Y243000D01*
X188500Y245000D02*Y243500D01*
X189000Y243000D01*
X189500D01*
X190000Y243500D01*
Y245000D02*Y243500D01*
X190500Y243000D01*
X191000D01*
X191500Y243500D01*
Y245000D02*Y243500D01*
X193200Y244500D02*Y243000D01*
Y244500D02*X193700Y245000D01*
X194200D01*
X194700Y244500D01*
Y243000D01*
X192700Y245000D02*X193200Y244500D01*
X141000Y255000D02*X142000D01*
X141500D02*Y251000D01*
X141000D02*X142000D01*
X143200Y254500D02*X143700Y255000D01*
X145200D01*
X145700Y254500D01*
Y253500D01*
X143200Y251000D02*X145700Y253500D01*
X143200Y251000D02*X145700D01*
X147400D02*X148900D01*
X146900Y251500D02*X147400Y251000D01*
X146900Y254500D02*Y251500D01*
Y254500D02*X147400Y255000D01*
X148900D01*
X152400D02*Y251000D01*
X151900Y255000D02*X153900D01*
X154400Y254500D01*
Y253500D01*
X153900Y253000D02*X154400Y253500D01*
X152400Y253000D02*X153900D01*
X155600D02*Y251500D01*
X156100Y251000D01*
X157100D01*
X157600Y251500D01*
Y253000D02*Y251500D01*
X158800Y255000D02*Y251500D01*
X159300Y251000D01*
X160300Y255000D02*Y251500D01*
X160800Y251000D01*
X161800Y253000D02*X163800D01*
X165000Y255000D02*Y251500D01*
X165500Y251000D01*
X166500D01*
X167000Y251500D01*
Y255000D02*Y251500D01*
X168700Y252500D02*Y249500D01*
X168200Y253000D02*X168700Y252500D01*
X169200Y253000D01*
X170200D01*
X170700Y252500D01*
Y251500D01*
X170200Y251000D02*X170700Y251500D01*
X169200Y251000D02*X170200D01*
X168700Y251500D02*X169200Y251000D01*
X173700Y253000D02*X175200D01*
X173700Y251000D02*X175700D01*
X173700Y255000D02*Y251000D01*
Y255000D02*X175700D01*
X177400Y252500D02*Y251000D01*
Y252500D02*X177900Y253000D01*
X178400D01*
X178900Y252500D01*
Y251000D01*
X176900Y253000D02*X177400Y252500D01*
X181600Y253000D02*X182100Y252500D01*
X180600Y253000D02*X181600D01*
X180100Y252500D02*X180600Y253000D01*
X180100Y252500D02*Y251500D01*
X180600Y251000D01*
X182100Y253000D02*Y251500D01*
X182600Y251000D01*
X180600D02*X181600D01*
X182100Y251500D01*
X183800Y255000D02*Y251000D01*
Y251500D02*X184300Y251000D01*
X185300D01*
X185800Y251500D01*
Y252500D02*Y251500D01*
X185300Y253000D02*X185800Y252500D01*
X184300Y253000D02*X185300D01*
X183800Y252500D02*X184300Y253000D01*
X187000Y255000D02*Y251500D01*
X187500Y251000D01*
X189000D02*X190500D01*
X188500Y251500D02*X189000Y251000D01*
X188500Y252500D02*Y251500D01*
Y252500D02*X189000Y253000D01*
X190000D01*
X190500Y252500D01*
X188500Y252000D02*X190500D01*
Y252500D02*Y252000D01*
X180000Y177500D02*Y174000D01*
Y177500D02*X180500Y178000D01*
X182000D01*
X182500Y177500D01*
Y174000D01*
X180000Y176000D02*X182500D01*
X183700Y178000D02*X185700D01*
X186200Y177500D01*
Y176500D01*
X185700Y176000D02*X186200Y176500D01*
X184200Y176000D02*X185700D01*
X184200Y178000D02*Y174000D01*
Y176000D02*X186200Y174000D01*
X187400Y176000D02*X188900D01*
X187400Y174000D02*X189400D01*
X187400Y178000D02*Y174000D01*
Y178000D02*X189400D01*
X190600D02*Y174000D01*
Y178000D02*X192600D01*
X190600Y176000D02*X192100D01*
X184000Y188000D02*X184500Y187500D01*
X182500Y188000D02*X184000D01*
X182000Y187500D02*X182500Y188000D01*
X182000Y187500D02*Y186500D01*
X182500Y186000D01*
X184000D01*
X184500Y185500D01*
Y184500D01*
X184000Y184000D02*X184500Y184500D01*
X182500Y184000D02*X184000D01*
X182000Y184500D02*X182500Y184000D01*
X186200Y188000D02*Y184000D01*
X187700Y188000D02*X188200Y187500D01*
Y184500D01*
X187700Y184000D02*X188200Y184500D01*
X185700Y184000D02*X187700D01*
X185700Y188000D02*X187700D01*
X189400Y187500D02*Y184000D01*
Y187500D02*X189900Y188000D01*
X191400D01*
X191900Y187500D01*
Y184000D01*
X189400Y186000D02*X191900D01*
X185000Y198000D02*X185500Y197500D01*
X183500Y198000D02*X185000D01*
X183000Y197500D02*X183500Y198000D01*
X183000Y197500D02*Y196500D01*
X183500Y196000D01*
X185000D01*
X185500Y195500D01*
Y194500D01*
X185000Y194000D02*X185500Y194500D01*
X183500Y194000D02*X185000D01*
X183000Y194500D02*X183500Y194000D01*
X187200D02*X188700D01*
X186700Y194500D02*X187200Y194000D01*
X186700Y197500D02*Y194500D01*
Y197500D02*X187200Y198000D01*
X188700D01*
X189900D02*Y194000D01*
X191900D01*
X143500Y150000D02*X145000D01*
X143500Y148000D02*X145500D01*
X143500Y152000D02*Y148000D01*
Y152000D02*X145500D01*
X146700Y150000D02*X148200D01*
X146700Y148000D02*X148700D01*
X146700Y152000D02*Y148000D01*
Y152000D02*X148700D01*
X150400D02*Y148000D01*
X149900Y152000D02*X151900D01*
X152400Y151500D01*
Y150500D01*
X151900Y150000D02*X152400Y150500D01*
X150400Y150000D02*X151900D01*
X153600Y152000D02*X155600D01*
X156100Y151500D01*
Y150500D01*
X155600Y150000D02*X156100Y150500D01*
X154100Y150000D02*X155600D01*
X154100Y152000D02*Y148000D01*
Y150000D02*X156100Y148000D01*
X157300Y151500D02*Y148500D01*
Y151500D02*X157800Y152000D01*
X158800D01*
X159300Y151500D01*
Y148500D01*
X158800Y148000D02*X159300Y148500D01*
X157800Y148000D02*X158800D01*
X157300Y148500D02*X157800Y148000D01*
X160500Y152000D02*Y148000D01*
Y152000D02*X162000Y150500D01*
X163500Y152000D01*
Y148000D01*
X166500Y151500D02*Y148000D01*
Y151500D02*X167000Y152000D01*
X168500D01*
X169000Y151500D01*
Y148000D01*
X166500Y150000D02*X169000D01*
X170700Y152000D02*Y148000D01*
X172200Y152000D02*X172700Y151500D01*
Y148500D01*
X172200Y148000D02*X172700Y148500D01*
X170200Y148000D02*X172200D01*
X170200Y152000D02*X172200D01*
X174400D02*Y148000D01*
X175900Y152000D02*X176400Y151500D01*
Y148500D01*
X175900Y148000D02*X176400Y148500D01*
X173900Y148000D02*X175900D01*
X173900Y152000D02*X175900D01*
X177600D02*X179600D01*
X180100Y151500D01*
Y150500D01*
X179600Y150000D02*X180100Y150500D01*
X178100Y150000D02*X179600D01*
X178100Y152000D02*Y148000D01*
Y150000D02*X180100Y148000D01*
X170000Y145000D02*X171500D01*
Y141500D01*
X171000Y141000D02*X171500Y141500D01*
X170500Y141000D02*X171000D01*
X170000Y141500D02*X170500Y141000D01*
X173200Y145000D02*Y141000D01*
X172700Y145000D02*X174700D01*
X175200Y144500D01*
Y143500D01*
X174700Y143000D02*X175200Y143500D01*
X173200Y143000D02*X174700D01*
X176400D02*X178400Y145000D01*
X176400Y143000D02*X178900D01*
X178400Y145000D02*Y141000D01*
X184000Y168000D02*X184500Y167500D01*
X182500Y168000D02*X184000D01*
X182000Y167500D02*X182500Y168000D01*
X182000Y167500D02*Y164500D01*
X182500Y164000D01*
X184000D01*
X184500Y164500D01*
Y165500D02*Y164500D01*
X184000Y166000D02*X184500Y165500D01*
X183000Y166000D02*X184000D01*
X185700Y168000D02*Y164000D01*
Y168000D02*Y167500D01*
X188200Y165000D01*
Y168000D02*Y164000D01*
X189900Y168000D02*Y164000D01*
X191400Y168000D02*X191900Y167500D01*
Y164500D01*
X191400Y164000D02*X191900Y164500D01*
X189400Y164000D02*X191400D01*
X189400Y168000D02*X191400D01*
X18000Y122000D02*X20000D01*
X18000D02*Y120000D01*
X18500Y120500D01*
X19500D01*
X20000Y120000D01*
Y118500D01*
X19500Y118000D02*X20000Y118500D01*
X18500Y118000D02*X19500D01*
X18000Y118500D02*X18500Y118000D01*
X21200Y122000D02*Y119000D01*
X22200Y118000D01*
X23200Y119000D01*
Y122000D02*Y119000D01*
X86000Y117500D02*X88000D01*
X86000D02*Y115500D01*
X86500Y116000D01*
X87500D01*
X88000Y115500D01*
Y114000D01*
X87500Y113500D02*X88000Y114000D01*
X86500Y113500D02*X87500D01*
X86000Y114000D02*X86500Y113500D01*
X89200Y117500D02*Y114500D01*
X90200Y113500D01*
X91200Y114500D01*
Y117500D02*Y114500D01*
X96200Y117500D02*X96700Y117000D01*
X94700Y117500D02*X96200D01*
X94200Y117000D02*X94700Y117500D01*
X94200Y117000D02*Y116000D01*
X94700Y115500D01*
X96200D01*
X96700Y115000D01*
Y114000D01*
X96200Y113500D02*X96700Y114000D01*
X94700Y113500D02*X96200D01*
X94200Y114000D02*X94700Y113500D01*
X97900Y115500D02*X99400D01*
X97900Y113500D02*X99900D01*
X97900Y117500D02*Y113500D01*
Y117500D02*X99900D01*
X101100D02*Y113500D01*
X103100D01*
X104300Y115500D02*X105800D01*
X104300Y113500D02*X106300D01*
X104300Y117500D02*Y113500D01*
Y117500D02*X106300D01*
X108000Y113500D02*X109500D01*
X107500Y114000D02*X108000Y113500D01*
X107500Y117000D02*Y114000D01*
Y117000D02*X108000Y117500D01*
X109500D01*
X110700D02*X112700D01*
X111700D02*Y113500D01*
X18000Y131500D02*X18500Y132000D01*
X19500D01*
X20000Y131500D01*
Y128500D01*
X19500Y128000D02*X20000Y128500D01*
X18500Y128000D02*X19500D01*
X18000Y128500D02*X18500Y128000D01*
Y130000D02*X20000D01*
X21200Y128000D02*X21700D01*
X22900Y131500D02*X23400Y132000D01*
X24400D01*
X24900Y131500D01*
Y128500D01*
X24400Y128000D02*X24900Y128500D01*
X23400Y128000D02*X24400D01*
X22900Y128500D02*X23400Y128000D01*
Y130000D02*X24900D01*
X26100Y132000D02*Y129000D01*
X27100Y128000D01*
X28100Y129000D01*
Y132000D02*Y129000D01*
X18000Y152000D02*X19000D01*
X18500D02*Y148000D01*
X18000D02*X19000D01*
X20200Y151500D02*Y148500D01*
Y151500D02*X20700Y152000D01*
X21700D01*
X22200Y151500D01*
Y148500D01*
X21700Y148000D02*X22200Y148500D01*
X20700Y148000D02*X21700D01*
X20200Y148500D02*X20700Y148000D01*
X23400Y152000D02*X25400D01*
X25900Y151500D01*
Y150500D01*
X25400Y150000D02*X25900Y150500D01*
X23900Y150000D02*X25400D01*
X23900Y152000D02*Y148000D01*
Y150000D02*X25900Y148000D01*
X27100Y150000D02*X28600D01*
X27100Y148000D02*X29100D01*
X27100Y152000D02*Y148000D01*
Y152000D02*X29100D01*
X30300D02*Y148000D01*
Y152000D02*X32300D01*
X30300Y150000D02*X31800D01*
X18000Y142000D02*X20000D01*
X20500Y141500D01*
Y140500D01*
X20000Y140000D02*X20500Y140500D01*
X18500Y140000D02*X20000D01*
X18500Y142000D02*Y138000D01*
Y140000D02*X20500Y138000D01*
X21700Y140000D02*X23200D01*
X21700Y138000D02*X23700D01*
X21700Y142000D02*Y138000D01*
Y142000D02*X23700D01*
X26900D02*X27400Y141500D01*
X25400Y142000D02*X26900D01*
X24900Y141500D02*X25400Y142000D01*
X24900Y141500D02*Y140500D01*
X25400Y140000D01*
X26900D01*
X27400Y139500D01*
Y138500D01*
X26900Y138000D02*X27400Y138500D01*
X25400Y138000D02*X26900D01*
X24900Y138500D02*X25400Y138000D01*
X28600Y140000D02*X30100D01*
X28600Y138000D02*X30600D01*
X28600Y142000D02*Y138000D01*
Y142000D02*X30600D01*
X31800D02*X33800D01*
X32800D02*Y138000D01*
X18000Y162000D02*Y158000D01*
Y162000D02*Y161500D01*
X20500Y159000D01*
Y162000D02*Y158000D01*
X21700Y158500D02*X24700Y161500D01*
X26400Y158000D02*X27900D01*
X25900Y158500D02*X26400Y158000D01*
X25900Y161500D02*Y158500D01*
Y161500D02*X26400Y162000D01*
X27900D01*
X68000Y145500D02*X70000D01*
X70500Y145000D01*
Y144000D01*
X70000Y143500D02*X70500Y144000D01*
X68500Y143500D02*X70000D01*
X68500Y145500D02*Y141500D01*
Y143500D02*X70500Y141500D01*
X71700Y143500D02*X73200D01*
X71700Y141500D02*X73700D01*
X71700Y145500D02*Y141500D01*
Y145500D02*X73700D01*
X76900D02*X77400Y145000D01*
X75400Y145500D02*X76900D01*
X74900Y145000D02*X75400Y145500D01*
X74900Y145000D02*Y142000D01*
X75400Y141500D01*
X76900D01*
X77400Y142000D01*
Y143000D02*Y142000D01*
X76900Y143500D02*X77400Y143000D01*
X75900Y143500D02*X76900D01*
X37000Y145000D02*Y141500D01*
Y145000D02*X37500Y145500D01*
X39000D01*
X39500Y145000D01*
Y141500D01*
X37000Y143500D02*X39500D01*
X40700Y145500D02*X42700D01*
X43200Y145000D01*
Y144000D01*
X42700Y143500D02*X43200Y144000D01*
X41200Y143500D02*X42700D01*
X41200Y145500D02*Y141500D01*
Y143500D02*X43200Y141500D01*
X44900Y145500D02*Y141500D01*
X46400Y145500D02*X46900Y145000D01*
Y142000D01*
X46400Y141500D02*X46900Y142000D01*
X44400Y141500D02*X46400D01*
X44400Y145500D02*X46400D01*
X48100D02*Y142000D01*
X48600Y141500D01*
X49600D01*
X50100Y142000D01*
Y145500D02*Y142000D01*
X51300Y145500D02*X52300D01*
X51800D02*Y141500D01*
X51300D02*X52300D01*
X53500Y145500D02*Y141500D01*
Y145500D02*Y145000D01*
X56000Y142500D01*
Y145500D02*Y141500D01*
X57200Y145000D02*Y142000D01*
Y145000D02*X57700Y145500D01*
X58700D01*
X59200Y145000D01*
Y142000D01*
X58700Y141500D02*X59200Y142000D01*
X57700Y141500D02*X58700D01*
X57200Y142000D02*X57700Y141500D01*
X10000Y266500D02*X7500Y264000D01*
Y262500D01*
X10000D01*
X18500D02*X18000Y263000D01*
X18500Y262500D02*X19500D01*
X20000Y263000D02*X19500Y262500D01*
X20000Y266000D02*Y263000D01*
Y266000D02*X19500Y266500D01*
X18500Y264500D02*X18000Y265000D01*
X18500Y264500D02*X20000D01*
X18500Y266500D02*X19500D01*
X18500D02*X18000Y266000D01*
Y265000D01*
X28000Y262500D02*X30000D01*
Y264500D02*Y262500D01*
Y264500D02*X29500Y264000D01*
X28500D02*X29500D01*
X28500D02*X28000Y264500D01*
Y266000D02*Y264500D01*
X28500Y266500D02*X28000Y266000D01*
X28500Y266500D02*X29500D01*
X30000Y266000D02*X29500Y266500D01*
X40500Y264500D02*X38500Y262500D01*
X38000Y264500D02*X40500D01*
X38500Y266500D02*Y262500D01*
X50000Y263000D02*X49500Y262500D01*
X48500D02*X49500D01*
X48500D02*X48000Y263000D01*
Y266000D02*Y263000D01*
X48500Y266500D02*X48000Y266000D01*
X48500Y266500D02*X49500D01*
X50000Y266000D02*X49500Y266500D01*
X48000Y264500D02*X49500D01*
X60500Y263000D02*X60000Y262500D01*
X58500D02*X60000D01*
X58500D02*X58000Y263000D01*
Y264000D02*Y263000D01*
X60500Y266500D02*X58000Y264000D01*
Y266500D02*X60500D01*
X68500D02*X69500D01*
X69000D02*Y262500D01*
X70000Y263500D02*X69000Y262500D01*
X80000Y266000D02*X79500Y266500D01*
X80000Y266000D02*Y263000D01*
X79500Y262500D01*
X78500D02*X79500D01*
X78500D02*X78000Y263000D01*
Y266000D02*Y263000D01*
X78500Y266500D02*X78000Y266000D01*
X78500Y266500D02*X79500D01*
X80000Y265500D02*X78000Y263500D01*
X100500Y262500D02*X100000Y263000D01*
X100500Y262500D02*X102000D01*
X102500Y263000D02*X102000Y262500D01*
X102500Y266000D02*Y263000D01*
Y266000D02*X102000Y266500D01*
X100500D02*X102000D01*
X100500D02*X100000Y266000D01*
Y265000D01*
X100500Y264500D02*X100000Y265000D01*
X100500Y264500D02*X101500D01*
X98800Y266500D02*Y262500D01*
Y263000D02*Y262500D01*
Y263000D02*X96300Y265500D01*
Y266500D02*Y262500D01*
X94600Y266500D02*Y262500D01*
X93100D02*X92600Y263000D01*
Y266000D02*Y263000D01*
X93100Y266500D02*X92600Y266000D01*
X93100Y266500D02*X95100D01*
X93100Y262500D02*X95100D01*
X120500Y264500D02*X122500D01*
X121500Y265500D02*Y263500D01*
X117300Y262500D02*X119300D01*
Y264500D02*Y262500D01*
Y264500D02*X118800Y264000D01*
X117800D02*X118800D01*
X117800D02*X117300Y264500D01*
Y266000D02*Y264500D01*
X117800Y266500D02*X117300Y266000D01*
X117800Y266500D02*X118800D01*
X119300Y266000D02*X118800Y266500D01*
X116100Y265500D02*Y262500D01*
Y265500D02*X115100Y266500D01*
X114100Y265500D01*
Y262500D01*
X97500Y219100D02*X98500D01*
X98000D02*Y215100D01*
X97500D02*X98500D01*
X99700Y218600D02*X100200Y219100D01*
X101700D01*
X102200Y218600D01*
Y217600D01*
X99700Y215100D02*X102200Y217600D01*
X99700Y215100D02*X102200D01*
X103900D02*X105400D01*
X103400Y215600D02*X103900Y215100D01*
X103400Y218600D02*Y215600D01*
Y218600D02*X103900Y219100D01*
X105400D01*
X108400Y216600D02*Y215600D01*
Y216600D02*X108900Y217100D01*
X109900D01*
X110400Y216600D01*
Y215600D01*
X109900Y215100D02*X110400Y215600D01*
X108900Y215100D02*X109900D01*
X108400Y215600D02*X108900Y215100D01*
X112100Y216600D02*Y215100D01*
Y216600D02*X112600Y217100D01*
X113100D01*
X113600Y216600D01*
Y215100D01*
X111600Y217100D02*X112100Y216600D01*
X97500Y212600D02*Y209100D01*
Y212600D02*X98000Y213100D01*
X99500D01*
X100000Y212600D01*
Y209100D01*
X97500Y211100D02*X100000D01*
X101200D02*X103200Y213100D01*
X101200Y211100D02*X103700D01*
X103200Y213100D02*Y209100D01*
X104900Y209600D02*X107900Y212600D01*
X109100D02*Y209100D01*
Y212600D02*X109600Y213100D01*
X111100D01*
X111600Y212600D01*
Y209100D01*
X109100Y211100D02*X111600D01*
X112800Y213100D02*X114800D01*
X112800D02*Y211100D01*
X113300Y211600D01*
X114300D01*
X114800Y211100D01*
Y209600D01*
X114300Y209100D02*X114800Y209600D01*
X113300Y209100D02*X114300D01*
X112800Y209600D02*X113300Y209100D01*
X97500Y205100D02*X98500D01*
X98000D02*Y201100D01*
X97500D02*X98500D01*
X99700Y204600D02*X100200Y205100D01*
X101700D01*
X102200Y204600D01*
Y203600D01*
X99700Y201100D02*X102200Y203600D01*
X99700Y201100D02*X102200D01*
X103900D02*X105400D01*
X103400Y201600D02*X103900Y201100D01*
X103400Y204600D02*Y201600D01*
Y204600D02*X103900Y205100D01*
X105400D01*
X108400Y202600D02*Y201600D01*
Y202600D02*X108900Y203100D01*
X109900D01*
X110400Y202600D01*
Y201600D01*
X109900Y201100D02*X110400Y201600D01*
X108900Y201100D02*X109900D01*
X108400Y201600D02*X108900Y201100D01*
X112100Y202600D02*Y201100D01*
Y202600D02*X112600Y203100D01*
X113100D01*
X113600Y202600D01*
Y201100D01*
X111600Y203100D02*X112100Y202600D01*
X99500Y199100D02*X100000Y198600D01*
X98000Y199100D02*X99500D01*
X97500Y198600D02*X98000Y199100D01*
X97500Y198600D02*Y197600D01*
X98000Y197100D01*
X99500D01*
X100000Y196600D01*
Y195600D01*
X99500Y195100D02*X100000Y195600D01*
X98000Y195100D02*X99500D01*
X97500Y195600D02*X98000Y195100D01*
X101700Y199100D02*Y195100D01*
X103200Y199100D02*X103700Y198600D01*
Y195600D01*
X103200Y195100D02*X103700Y195600D01*
X101200Y195100D02*X103200D01*
X101200Y199100D02*X103200D01*
X104900Y198600D02*Y195100D01*
Y198600D02*X105400Y199100D01*
X106900D01*
X107400Y198600D01*
Y195100D01*
X104900Y197100D02*X107400D01*
X108600Y195600D02*X111600Y198600D01*
X114800Y199100D02*X115300Y198600D01*
X113300Y199100D02*X114800D01*
X112800Y198600D02*X113300Y199100D01*
X112800Y198600D02*Y197600D01*
X113300Y197100D01*
X114800D01*
X115300Y196600D01*
Y195600D01*
X114800Y195100D02*X115300Y195600D01*
X113300Y195100D02*X114800D01*
X112800Y195600D02*X113300Y195100D01*
X117000D02*X118500D01*
X116500Y195600D02*X117000Y195100D01*
X116500Y198600D02*Y195600D01*
Y198600D02*X117000Y199100D01*
X118500D01*
X119700D02*Y195100D01*
X121700D01*
X82500Y226100D02*X84000D01*
Y222600D01*
X83500Y222100D02*X84000Y222600D01*
X83000Y222100D02*X83500D01*
X82500Y222600D02*X83000Y222100D01*
X85700Y226100D02*Y222100D01*
X85200Y226100D02*X87200D01*
X87700Y225600D01*
Y224600D01*
X87200Y224100D02*X87700Y224600D01*
X85700Y224100D02*X87200D01*
X88900Y225600D02*X89400Y226100D01*
X90900D01*
X91400Y225600D01*
Y224600D01*
X88900Y222100D02*X91400Y224600D01*
X88900Y222100D02*X91400D01*
X94400Y226100D02*Y222600D01*
X94900Y222100D01*
X95900D01*
X96400Y222600D01*
Y226100D02*Y222600D01*
X98100Y222100D02*X99600D01*
X100100Y222600D01*
X99600Y223100D02*X100100Y222600D01*
X98100Y223100D02*X99600D01*
X97600Y223600D02*X98100Y223100D01*
X97600Y223600D02*X98100Y224100D01*
X99600D01*
X100100Y223600D01*
X97600Y222600D02*X98100Y222100D01*
X102800Y224100D02*X103300Y223600D01*
X101800Y224100D02*X102800D01*
X101300Y223600D02*X101800Y224100D01*
X101300Y223600D02*Y222600D01*
X101800Y222100D01*
X103300Y224100D02*Y222600D01*
X103800Y222100D01*
X101800D02*X102800D01*
X103300Y222600D01*
X106500Y224100D02*X107000Y223600D01*
X105500Y224100D02*X106500D01*
X105000Y223600D02*X105500Y224100D01*
X105000Y223600D02*Y222600D01*
X105500Y222100D01*
X106500D01*
X107000Y222600D01*
X105000Y221100D02*X105500Y220600D01*
X106500D01*
X107000Y221100D01*
Y224100D02*Y221100D01*
X108700Y222100D02*X110200D01*
X108200Y222600D02*X108700Y222100D01*
X108200Y223600D02*Y222600D01*
Y223600D02*X108700Y224100D01*
X109700D01*
X110200Y223600D01*
X108200Y223100D02*X110200D01*
Y223600D02*Y223100D01*
X111400Y224600D02*X111900D01*
X111400Y223600D02*X111900D01*
G54D62*X180000Y138500D02*Y128500D01*
X140000Y138500D02*Y128500D01*
X179000D02*X180000D01*
X159000D02*X171000D01*
X140000D02*X151000D01*
X140000Y138500D02*X141000D01*
X149000D02*X161000D01*
X169000D02*X180000D01*
X205000Y95000D02*Y15000D01*
X195000Y95000D02*X205000D01*
X195000D02*Y15000D01*
X205000D01*
X195000Y25000D02*X205000D01*
X195000D02*Y15000D01*
X205000Y201000D02*Y101000D01*
X195000Y201000D02*X205000D01*
X195000D02*Y101000D01*
X205000D01*
X195000Y111000D02*X205000D01*
X195000D02*Y101000D01*
X172745Y161393D02*Y160607D01*
X178255Y161393D02*Y160607D01*
X174607Y106298D02*X175393D01*
X174607Y100788D02*X175393D01*
X134521Y218745D02*X135307D01*
X134521Y224255D02*X135307D01*
X134564Y207745D02*X135350D01*
X134564Y213255D02*X135350D01*
X167500Y167900D02*Y154000D01*
X155700Y167900D02*X167500D01*
X155700D02*Y154000D01*
X167500D01*
X146500Y181000D02*X176500D01*
Y201000D02*Y181000D01*
X146500Y201000D02*X176500D01*
X146500D02*Y181000D01*
X156500Y191000D02*Y181000D01*
X146500Y191000D02*X156500D01*
X186500Y223000D02*Y213000D01*
X146500Y223000D02*Y213000D01*
X185500D02*X186500D01*
X165500D02*X177500D01*
X146500D02*X157500D01*
X146500Y223000D02*X147500D01*
X155500D02*X167500D01*
X175500D02*X186500D01*
X188000Y225000D02*G75*G03X188000Y225000I0J-500D01*G01*
X142138Y36240D02*X146862D01*
X142138Y28760D02*X146862D01*
X174607Y96255D02*X175393D01*
X174607Y90745D02*X175393D01*
X162500Y41500D02*X172500D01*
X162500Y81500D02*X172500D01*
X162500Y42500D02*Y41500D01*
Y62500D02*Y50500D01*
Y81500D02*Y70500D01*
X172500Y81500D02*Y80500D01*
Y72500D02*Y60500D01*
Y52500D02*Y41500D01*
X174500Y40000D02*G75*G03X174500Y40000I-500J0D01*G01*
X163607Y35255D02*X164393D01*
X163607Y29745D02*X164393D01*
X5000Y165000D02*Y85000D01*
X15000D01*
Y165000D01*
X5000D01*
Y155000D02*X15000D01*
Y165000D01*
X5000Y75000D02*Y15000D01*
X15000D01*
Y75000D01*
X5000D01*
Y65000D02*X15000D01*
Y75000D01*
X53607Y95245D02*X54393D01*
X53607Y100755D02*X54393D01*
X37755Y95393D02*Y94607D01*
X32245Y95393D02*Y94607D01*
Y115350D02*Y114564D01*
X37755Y115350D02*Y114564D01*
X60250Y84480D02*Y73850D01*
X41750Y84480D02*Y73850D01*
X57000D02*X60250D01*
X41750D02*X45000D01*
X60071Y84480D02*X60250D01*
X41750D02*X41929D01*
X94803Y24449D02*X124803D01*
X94803D02*Y4449D01*
X124803D01*
Y24449D02*Y4449D01*
X114803Y24449D02*Y14449D01*
X124803D01*
X42000Y123500D02*Y113500D01*
X82000Y123500D02*Y113500D01*
X42000Y123500D02*X43000D01*
X51000D02*X63000D01*
X71000D02*X82000D01*
X81000Y113500D02*X82000D01*
X61000D02*X73000D01*
X42000D02*X53000D01*
X40500Y111500D02*G75*G03X40500Y111500I0J500D01*G01*
X58107Y175745D02*X58893D01*
X58107Y181255D02*X58893D01*
X58107Y164745D02*X58893D01*
X58107Y170255D02*X58893D01*
G54D64*X68100Y157800D02*Y149200D01*
G54D62*Y157800D02*X65700Y159000D01*
X49900D02*X65700D01*
X49900D02*Y148000D01*
X65700D01*
X68100Y149200D01*
G54D64*Y196800D02*Y188200D01*
G54D62*Y196800D02*X65700Y198000D01*
X49900D02*X65700D01*
X49900D02*Y187000D01*
X65700D01*
X68100Y188200D01*
X85000Y259500D02*Y234000D01*
X3000Y259500D02*Y234000D01*
X85000D01*
X3000Y236000D02*X85000D01*
X3000Y259500D02*X85000D01*
X87500Y259800D02*X127500D01*
X87500Y229800D02*X127500D01*
X87500Y234200D02*X127500D01*
Y259800D02*Y229800D01*
X87500Y259800D02*Y229800D01*
X72000Y185000D02*X92000D01*
Y180500D01*
Y175500D02*Y171000D01*
X72000D02*X92000D01*
X72000Y185000D02*Y171000D01*
X92000Y180500D02*G75*G03X92000Y175500I0J-2500D01*G01*
G54D64*X106100Y148300D02*Y139700D01*
G54D62*Y148300D02*X103700Y149500D01*
X87900D02*X103700D01*
X87900D02*Y138500D01*
X103700D01*
X106100Y139700D01*
X96107Y155245D02*X96893D01*
X96107Y160755D02*X96893D01*
G54D63*X8000Y172000D02*X9500D01*
Y168500D01*
X9000Y168000D02*X9500Y168500D01*
X8500Y168000D02*X9000D01*
X8000Y168500D02*X8500Y168000D01*
X11200D02*X12200D01*
X11700Y172000D02*Y168000D01*
X10700Y171000D02*X11700Y172000D01*
X148000Y159800D02*Y156300D01*
X148500Y155800D01*
X149500D01*
X150000Y156300D01*
Y159800D02*Y156300D01*
X151200Y159300D02*X151700Y159800D01*
X153200D01*
X153700Y159300D01*
Y158300D01*
X151200Y155800D02*X153700Y158300D01*
X151200Y155800D02*X153700D01*
X171000Y169000D02*X172500D01*
X170500Y169500D02*X171000Y169000D01*
X170500Y172500D02*Y169500D01*
Y172500D02*X171000Y173000D01*
X172500D01*
X174200Y169000D02*X175200D01*
X174700Y173000D02*Y169000D01*
X173700Y172000D02*X174700Y173000D01*
X176400Y169500D02*X176900Y169000D01*
X176400Y172500D02*Y169500D01*
Y172500D02*X176900Y173000D01*
X177900D01*
X178400Y172500D01*
Y169500D01*
X177900Y169000D02*X178400Y169500D01*
X176900Y169000D02*X177900D01*
X176400Y170000D02*X178400Y172000D01*
X109500Y142100D02*X111000D01*
X109000Y142600D02*X109500Y142100D01*
X109000Y145600D02*Y142600D01*
Y145600D02*X109500Y146100D01*
X111000D01*
X112200Y144100D02*X114200Y146100D01*
X112200Y144100D02*X114700D01*
X114200Y146100D02*Y142100D01*
X104850Y156150D02*X106350D01*
X104350Y156650D02*X104850Y156150D01*
X104350Y159650D02*Y156650D01*
Y159650D02*X104850Y160150D01*
X106350D01*
X107550D02*X109550D01*
X107550D02*Y158150D01*
X108050Y158650D01*
X109050D01*
X109550Y158150D01*
Y156650D01*
X109050Y156150D02*X109550Y156650D01*
X108050Y156150D02*X109050D01*
X107550Y156650D02*X108050Y156150D01*
X185500Y206500D02*X187000D01*
Y203000D01*
X186500Y202500D02*X187000Y203000D01*
X186000Y202500D02*X186500D01*
X185500Y203000D02*X186000Y202500D01*
X188200Y206000D02*X188700Y206500D01*
X190200D01*
X190700Y206000D01*
Y205000D01*
X188200Y202500D02*X190700Y205000D01*
X188200Y202500D02*X190700D01*
X135000Y193000D02*X136500D01*
Y189500D01*
X136000Y189000D02*X136500Y189500D01*
X135500Y189000D02*X136000D01*
X135000Y189500D02*X135500Y189000D01*
X138200Y193000D02*Y189000D01*
X137700Y193000D02*X139700D01*
X140200Y192500D01*
Y191500D01*
X139700Y191000D02*X140200Y191500D01*
X138200Y191000D02*X139700D01*
X141400Y192500D02*X141900Y193000D01*
X143400D01*
X143900Y192500D01*
Y191500D01*
X141400Y189000D02*X143900Y191500D01*
X141400Y189000D02*X143900D01*
X121721Y223650D02*X123721D01*
X124221Y223150D01*
Y222150D01*
X123721Y221650D02*X124221Y222150D01*
X122221Y221650D02*X123721D01*
X122221Y223650D02*Y219650D01*
Y221650D02*X124221Y219650D01*
X125921D02*X126921D01*
X126421Y223650D02*Y219650D01*
X125421Y222650D02*X126421Y223650D01*
X120721Y212650D02*X122721D01*
X123221Y212150D01*
Y211150D01*
X122721Y210650D02*X123221Y211150D01*
X121221Y210650D02*X122721D01*
X121221Y212650D02*Y208650D01*
Y210650D02*X123221Y208650D01*
X124421Y212150D02*X124921Y212650D01*
X126421D01*
X126921Y212150D01*
Y211150D01*
X124421Y208650D02*X126921Y211150D01*
X124421Y208650D02*X126921D01*
X177086Y229086D02*X178586D01*
Y225586D01*
X178086Y225086D02*X178586Y225586D01*
X177586Y225086D02*X178086D01*
X177086Y225586D02*X177586Y225086D01*
X180286Y229086D02*Y225086D01*
X179786Y229086D02*X181786D01*
X182286Y228586D01*
Y227586D01*
X181786Y227086D02*X182286Y227586D01*
X180286Y227086D02*X181786D01*
X183986Y225086D02*X184986D01*
X184486Y229086D02*Y225086D01*
X183486Y228086D02*X184486Y229086D01*
X45936Y176478D02*X47436D01*
X45436Y176978D02*X45936Y176478D01*
X45436Y179978D02*Y176978D01*
Y179978D02*X45936Y180478D01*
X47436D01*
X48636Y176978D02*X49136Y176478D01*
X48636Y177978D02*Y176978D01*
Y177978D02*X49136Y178478D01*
X50136D01*
X50636Y177978D01*
Y176978D01*
X50136Y176478D02*X50636Y176978D01*
X49136Y176478D02*X50136D01*
X48636Y178978D02*X49136Y178478D01*
X48636Y179978D02*Y178978D01*
Y179978D02*X49136Y180478D01*
X50136D01*
X50636Y179978D01*
Y178978D01*
X50136Y178478D02*X50636Y178978D01*
X94500Y180000D02*Y176500D01*
X95000Y176000D01*
X96000D01*
X96500Y176500D01*
Y180000D02*Y176500D01*
X98200Y176000D02*X99200D01*
X98700Y180000D02*Y176000D01*
X97700Y179000D02*X98700Y180000D01*
X42500Y190600D02*X44000D01*
X42000Y191100D02*X42500Y190600D01*
X42000Y194100D02*Y191100D01*
Y194100D02*X42500Y194600D01*
X44000D01*
X45200Y190600D02*X47200Y192600D01*
Y194100D02*Y192600D01*
X46700Y194600D02*X47200Y194100D01*
X45700Y194600D02*X46700D01*
X45200Y194100D02*X45700Y194600D01*
X45200Y194100D02*Y193100D01*
X45700Y192600D01*
X47200D01*
X45936Y165650D02*X47436D01*
X45436Y166150D02*X45936Y165650D01*
X45436Y169150D02*Y166150D01*
Y169150D02*X45936Y169650D01*
X47436D01*
X50136D02*X50636Y169150D01*
X49136Y169650D02*X50136D01*
X48636Y169150D02*X49136Y169650D01*
X48636Y169150D02*Y166150D01*
X49136Y165650D01*
X50136Y167650D02*X50636Y167150D01*
X48636Y167650D02*X50136D01*
X49136Y165650D02*X50136D01*
X50636Y166150D01*
Y167150D02*Y166150D01*
X42500Y151600D02*X44000D01*
X42000Y152100D02*X42500Y151600D01*
X42000Y155100D02*Y152100D01*
Y155100D02*X42500Y155600D01*
X44000D01*
X45200Y151600D02*X47700Y154100D01*
Y155600D02*Y154100D01*
X45200Y155600D02*X47700D01*
X62807Y96150D02*X64307D01*
X62307Y96650D02*X62807Y96150D01*
X62307Y99650D02*Y96650D01*
Y99650D02*X62807Y100150D01*
X64307D01*
X65507Y99650D02*X66007Y100150D01*
X67007D01*
X67507Y99650D01*
Y96650D01*
X67007Y96150D02*X67507Y96650D01*
X66007Y96150D02*X67007D01*
X65507Y96650D02*X66007Y96150D01*
Y98150D02*X67507D01*
X161500Y105500D02*X163500D01*
X164000Y105000D01*
Y104000D01*
X163500Y103500D02*X164000Y104000D01*
X162000Y103500D02*X163500D01*
X162000Y105500D02*Y101500D01*
Y103500D02*X164000Y101500D01*
X165200Y105000D02*X165700Y105500D01*
X166700D01*
X167200Y105000D01*
Y102000D01*
X166700Y101500D02*X167200Y102000D01*
X165700Y101500D02*X166700D01*
X165200Y102000D02*X165700Y101500D01*
Y103500D02*X167200D01*
X161000Y95500D02*X163000D01*
X163500Y95000D01*
Y94000D01*
X163000Y93500D02*X163500Y94000D01*
X161500Y93500D02*X163000D01*
X161500Y95500D02*Y91500D01*
Y93500D02*X163500Y91500D01*
X164700Y93500D02*X166700Y95500D01*
X164700Y93500D02*X167200D01*
X166700Y95500D02*Y91500D01*
X32893Y102650D02*X34393D01*
X32393Y103150D02*X32893Y102650D01*
X32393Y106150D02*Y103150D01*
Y106150D02*X32893Y106650D01*
X34393D01*
X35593Y106150D02*X36093Y106650D01*
X37593D01*
X38093Y106150D01*
Y105150D01*
X35593Y102650D02*X38093Y105150D01*
X35593Y102650D02*X38093D01*
X33307Y122650D02*X34807D01*
X32807Y123150D02*X33307Y122650D01*
X32807Y126150D02*Y123150D01*
Y126150D02*X33307Y126650D01*
X34807D01*
X36507Y122650D02*X37507D01*
X37007Y126650D02*Y122650D01*
X36007Y125650D02*X37007Y126650D01*
X66005Y80995D02*Y77495D01*
X66505Y76995D01*
X67505D01*
X68005Y77495D01*
Y80995D02*Y77495D01*
X69205Y80495D02*X69705Y80995D01*
X70705D01*
X71205Y80495D01*
Y77495D01*
X70705Y76995D02*X71205Y77495D01*
X69705Y76995D02*X70705D01*
X69205Y77495D02*X69705Y76995D01*
Y78995D02*X71205D01*
X129914Y63500D02*X131414D01*
Y60000D01*
X130914Y59500D02*X131414Y60000D01*
X130414Y59500D02*X130914D01*
X129914Y60000D02*X130414Y59500D01*
X133114Y63500D02*Y59500D01*
X132614Y63500D02*X134614D01*
X135114Y63000D01*
Y62000D01*
X134614Y61500D02*X135114Y62000D01*
X133114Y61500D02*X134614D01*
X137814Y63500D02*X138314Y63000D01*
X136814Y63500D02*X137814D01*
X136314Y63000D02*X136814Y63500D01*
X136314Y63000D02*Y60000D01*
X136814Y59500D01*
X137814Y61500D02*X138314Y61000D01*
X136314Y61500D02*X137814D01*
X136814Y59500D02*X137814D01*
X138314Y60000D01*
Y61000D02*Y60000D01*
X87697Y16551D02*X89197D01*
Y13051D01*
X88697Y12551D02*X89197Y13051D01*
X88197Y12551D02*X88697D01*
X87697Y13051D02*X88197Y12551D01*
X90397Y16051D02*X90897Y16551D01*
X91897D01*
X92397Y16051D01*
Y13051D01*
X91897Y12551D02*X92397Y13051D01*
X90897Y12551D02*X91897D01*
X90397Y13051D02*X90897Y12551D01*
Y14551D02*X92397D01*
X147850Y26150D02*Y22150D01*
X149350Y26150D02*X149850Y25650D01*
Y22650D01*
X149350Y22150D02*X149850Y22650D01*
X147350Y22150D02*X149350D01*
X147350Y26150D02*X149350D01*
X151550Y22150D02*X152550D01*
X152050Y26150D02*Y22150D01*
X151050Y25150D02*X152050Y26150D01*
X161212Y27650D02*X163212D01*
X163712Y27150D01*
Y26150D01*
X163212Y25650D02*X163712Y26150D01*
X161712Y25650D02*X163212D01*
X161712Y27650D02*Y23650D01*
Y25650D02*X163712Y23650D01*
X164912Y27650D02*X166912D01*
X164912D02*Y25650D01*
X165412Y26150D01*
X166412D01*
X166912Y25650D01*
Y24150D01*
X166412Y23650D02*X166912Y24150D01*
X165412Y23650D02*X166412D01*
X164912Y24150D02*X165412Y23650D01*
X85500Y124000D02*X87000D01*
Y120500D01*
X86500Y120000D02*X87000Y120500D01*
X86000Y120000D02*X86500D01*
X85500Y120500D02*X86000Y120000D01*
X88700Y124000D02*Y120000D01*
X88200Y124000D02*X90200D01*
X90700Y123500D01*
Y122500D01*
X90200Y122000D02*X90700Y122500D01*
X88700Y122000D02*X90200D01*
X91900Y123500D02*X92400Y124000D01*
X93400D01*
X93900Y123500D01*
Y120500D01*
X93400Y120000D02*X93900Y120500D01*
X92400Y120000D02*X93400D01*
X91900Y120500D02*X92400Y120000D01*
Y122000D02*X93900D01*
M02*
