M48
INCH
T51C0.020
T50C0.048
T49C0.129
T48C0.038
%
T51
X001800Y010500
X002350Y010500
X002900Y010500
X004000Y018500
X004000Y017900
X004000Y017300
X004000Y016700
X004000Y016100
X004200Y011100
X004200Y010500
X004200Y009900
X004250Y007000
X004250Y006350
X004250Y001550
X004250Y001050
X004250Y000550
X004500Y018500
X004500Y017300
X004500Y016100
X004800Y006350
X004800Y001550
X004800Y001050
X004800Y000550
X005000Y018500
X005000Y017300
X005000Y016100
X005400Y006350
X005400Y001550
X005400Y001050
X005400Y000550
X005500Y018500
X005500Y017300
X005500Y016100
X005950Y007000
X005950Y006350
X005950Y001550
X005950Y001050
X005950Y000550
X006500Y014000
X007300Y013500
X007800Y013500
X008100Y018250
X008100Y017800
X008100Y017350
X008300Y013500
X008450Y011000
X008600Y018250
X008600Y017800
X008600Y017350
X008800Y013500
X008950Y011000
X009000Y015200
X009200Y007400
X009450Y011000
X009500Y015200
X009800Y009650
X009950Y011000
X009950Y005650
X010050Y010150
X010300Y009650
X010750Y008650
X010750Y007150
X010980Y005500
X011350Y014000
X011500Y005500
X012800Y007150
X013300Y007000
X013300Y006300
X013800Y020250
X013800Y018450
X014150Y003850
X015300Y016500
X016000Y013350
X016160Y017100
X016950Y016500
X017400Y020250
X017400Y018450
T48
X001000Y016000
X001000Y015000
X001000Y014000
X001000Y013000
X001000Y012000
X001000Y011000
X001000Y010000
X001000Y009000
X001000Y007000
X001000Y006000
X001000Y005000
X001000Y004000
X001000Y003000
X001000Y002000
X009980Y001945
X009980Y000945
X010980Y001945
X010980Y000945
X011980Y001945
X011980Y000945
X020000Y019600
X020000Y018600
X020000Y017600
X020000Y016600
X020000Y015600
X020000Y014600
X020000Y013600
X020000Y012600
X020000Y011600
X020000Y010600
X020000Y009000
X020000Y008000
X020000Y007000
X020000Y006000
X020000Y005000
X020000Y004000
X020000Y003000
X020000Y002000
T50
X000900Y024700
X001900Y024700
X002900Y024700
X003900Y024700
X004900Y024700
X005900Y024700
X006900Y024700
X007900Y024700
X009750Y024700
X011750Y024700
T49
X001000Y021500
X003000Y001000
X014000Y001000
X020000Y021000
M30
