G04 start of page 10 for group -4015 idx -4015 *
G04 Title: (unknown), toppaste *
G04 Creator: pcb 20140316 *
G04 CreationDate: Thu 27 Apr 2017 04:43:42 AM GMT UTC *
G04 For: railfan *
G04 Format: Gerber/RS-274X *
G04 PCB-Dimensions (mil): 2100.00 2700.00 *
G04 PCB-Coordinate-Origin: lower left *
%MOIN*%
%FSLAX25Y25*%
%LNTOPPASTE*%
%ADD83R,0.0200X0.0200*%
%ADD82R,0.0150X0.0150*%
%ADD81R,0.0490X0.0490*%
%ADD80C,0.0001*%
%ADD79R,0.0945X0.0945*%
%ADD78R,0.0378X0.0378*%
%ADD77R,0.0512X0.0512*%
%ADD76R,0.0240X0.0240*%
%ADD75R,0.0167X0.0167*%
%ADD74R,0.0500X0.0500*%
G54D74*X186500Y223240D02*Y216587D01*
X176500Y237413D02*Y230760D01*
X166500Y223240D02*Y216587D01*
X156500Y237413D02*Y230760D01*
G54D75*X135217Y244724D02*X137087D01*
X135217Y241575D02*X137087D01*
X135217Y238425D02*X137087D01*
X135217Y235276D02*X137087D01*
X141913D02*X143783D01*
X141913Y238425D02*X143783D01*
X141913Y241575D02*X143783D01*
X141913Y244724D02*X143783D01*
G54D74*X175000Y129740D02*Y123087D01*
X165000Y143913D02*Y137260D01*
X155000Y129740D02*Y123087D01*
X145000Y143913D02*Y137260D01*
G54D76*X165500Y165800D02*Y164200D01*
X161600Y165800D02*Y164200D01*
X157700Y165800D02*Y164200D01*
Y157600D02*Y156000D01*
X161600Y157600D02*Y156000D01*
X165500Y157600D02*Y156000D01*
G54D77*X57543Y98393D02*Y97607D01*
X50457Y98393D02*Y97607D01*
X34607Y98543D02*X35393D01*
X34607Y91457D02*X35393D01*
G54D78*X56906Y87984D02*Y83890D01*
X51000Y87984D02*Y76174D01*
G54D79*Y74440D02*Y72550D01*
G54D80*G36*
X52885Y82005D02*X55725Y79165D01*
X54305Y77745D01*
X51465Y80585D01*
X52885Y82005D01*
G37*
G36*
X46275Y79165D02*X49115Y82005D01*
X50535Y80585D01*
X47695Y77745D01*
X46275Y79165D01*
G37*
G54D78*X45094Y87984D02*Y83890D01*
G54D77*X34607Y111414D02*X35393D01*
X34607Y118500D02*X35393D01*
X175107Y157457D02*X175893D01*
X175107Y164543D02*X175893D01*
G54D74*X47000Y128913D02*Y122260D01*
X57000Y114740D02*Y108087D01*
X67000Y128913D02*Y122260D01*
X77000Y114740D02*Y108087D01*
G54D77*X62043Y178893D02*Y178107D01*
X54957Y178893D02*Y178107D01*
G54D81*X63500Y194300D02*Y190700D01*
X53500Y194300D02*Y190700D01*
G54D77*X62043Y167893D02*Y167107D01*
X54957Y167893D02*Y167107D01*
G54D81*X63500Y155300D02*Y151700D01*
X53500Y155300D02*Y151700D01*
X101500Y145800D02*Y142200D01*
X91500Y145800D02*Y142200D01*
G54D77*X100043Y158393D02*Y157607D01*
X92957Y158393D02*Y157607D01*
G54D74*X157087Y46500D02*X163740D01*
X171260Y56500D02*X177913D01*
X157087Y66500D02*X163740D01*
X171260Y76500D02*X177913D01*
G54D77*X160457Y32893D02*Y32107D01*
X167543Y32893D02*Y32107D01*
X141457Y32893D02*Y32107D01*
X148543Y32893D02*Y32107D01*
G54D74*X146000Y189504D02*Y180016D01*
X156000Y189504D02*Y180016D01*
X166000Y189504D02*Y180016D01*
Y206984D02*Y197496D01*
X156000Y206984D02*Y197496D01*
X146000Y206984D02*Y197496D01*
G54D82*X90750Y189000D02*Y188000D01*
X88250Y189000D02*Y188000D01*
X85750Y189000D02*Y188000D01*
X83250Y189000D02*Y188000D01*
X80750Y189000D02*Y188000D01*
X78250Y189000D02*Y188000D01*
X75750Y189000D02*Y188000D01*
X73250Y189000D02*Y188000D01*
Y168000D02*Y167000D01*
X75750Y168000D02*Y167000D01*
X78250Y168000D02*Y167000D01*
X80750Y168000D02*Y167000D01*
X83250Y168000D02*Y167000D01*
X85750Y168000D02*Y167000D01*
X88250Y168000D02*Y167000D01*
X90750Y168000D02*Y167000D01*
G54D83*X96500Y91500D02*X103000D01*
X96500Y86500D02*X103000D01*
X96500Y81500D02*X103000D01*
X96500Y76500D02*X103000D01*
X96500Y71500D02*X103000D01*
X96500Y66500D02*X103000D01*
X96500Y61500D02*X103000D01*
X117000D02*X123500D01*
X117000Y66500D02*X123500D01*
X117000Y71500D02*X123500D01*
X117000Y76500D02*X123500D01*
X117000Y81500D02*X123500D01*
X117000Y86500D02*X123500D01*
X117000Y91500D02*X123500D01*
G54D77*X113543Y102893D02*Y102107D01*
X106457Y102893D02*Y102107D01*
M02*
