G04 start of page 7 for group -4062 idx -4062 *
G04 Title: (unknown), soldermask *
G04 Creator: pcb 20140316 *
G04 CreationDate: Sun 31 Mar 2019 02:17:40 PM GMT UTC *
G04 For: railfan *
G04 Format: Gerber/RS-274X *
G04 PCB-Dimensions (mil): 2100.00 2700.00 *
G04 PCB-Coordinate-Origin: lower left *
%MOIN*%
%FSLAX25Y25*%
%LNBOTTOMMASK*%
%ADD72R,0.0300X0.0300*%
%ADD71C,0.0600*%
%ADD70C,0.0860*%
%ADD69C,0.0001*%
%ADD68C,0.0660*%
%ADD67C,0.1560*%
%ADD66C,0.0720*%
G54D66*X200000Y20000D03*
Y30000D03*
Y40000D03*
Y50000D03*
Y60000D03*
Y70000D03*
G54D67*X140000Y10000D03*
G54D68*X119803Y9449D03*
X109803D03*
X99803D03*
G54D69*G36*
X116503Y22749D02*Y16149D01*
X123103D01*
Y22749D01*
X116503D01*
G37*
G54D68*X109803Y19449D03*
X99803D03*
G54D66*X10000Y130000D03*
Y120000D03*
Y110000D03*
Y100000D03*
Y90000D03*
Y70000D03*
Y60000D03*
Y50000D03*
Y40000D03*
Y30000D03*
Y20000D03*
G54D67*X30000Y10000D03*
G54D66*X200000Y80000D03*
Y90000D03*
Y106000D03*
Y116000D03*
Y126000D03*
Y136000D03*
Y146000D03*
Y156000D03*
Y166000D03*
Y176000D03*
Y186000D03*
Y196000D03*
G54D67*Y210000D03*
G54D66*X10000Y160000D03*
Y150000D03*
Y140000D03*
G54D67*Y215000D03*
G54D70*X59000Y247000D03*
X49000D03*
X39000D03*
X29000D03*
X19000D03*
X9000D03*
G54D69*G36*
X113200Y251300D02*Y242700D01*
X121800D01*
Y251300D01*
X113200D01*
G37*
G36*
X74700D02*Y242700D01*
X83300D01*
Y251300D01*
X74700D01*
G37*
G54D70*X69000Y247000D03*
X97500D03*
G54D71*X29900Y150000D03*
G54D72*X28400Y151500D02*Y148500D01*
G54D71*X23100Y150000D03*
G54D72*X24600Y151500D02*Y148500D01*
M02*
