G04 start of page 8 for group -4079 idx -4079 *
G04 Title: (unknown), topsilk *
G04 Creator: pcb 20140316 *
G04 CreationDate: Sun 31 Mar 2019 02:17:40 PM GMT UTC *
G04 For: railfan *
G04 Format: Gerber/RS-274X *
G04 PCB-Dimensions (mil): 2100.00 2700.00 *
G04 PCB-Coordinate-Origin: lower left *
%MOIN*%
%FSLAX25Y25*%
%LNTOPSILK*%
%ADD75C,0.0200*%
%ADD74C,0.0080*%
%ADD73C,0.0100*%
G54D73*X209500Y269500D02*Y10500D01*
X145000Y113000D02*Y119000D01*
X155000D02*Y113000D01*
X145000D02*X155000D01*
X165000D02*Y119000D01*
X175000D02*Y113000D01*
X165000D02*X175000D01*
X153500Y32500D02*X155500D01*
X154500Y33500D02*Y31500D01*
G54D74*X135000Y64500D02*X142000D01*
G54D73*X500Y269500D02*X209500D01*
X48500Y139500D02*X58500D01*
X156500Y247500D02*X166500D01*
Y241500D01*
X176500D02*Y247500D01*
X186500D01*
Y241500D01*
X156500D02*Y247500D01*
X119500Y207100D02*X134500D01*
X121000Y214600D02*X128000D01*
X121000Y209600D02*X128000D01*
X134500Y203600D02*Y193600D01*
X129500Y203600D02*Y193600D01*
X126000Y201100D02*X133000D01*
X126000Y196100D02*X133000D01*
X124500Y203600D02*Y193600D01*
X119500Y203600D02*Y193600D01*
X500Y10500D02*Y269500D01*
X68000Y133500D02*Y139500D01*
X78000D02*Y133500D01*
X68000Y139500D02*X78000D01*
X62000Y146000D02*Y123500D01*
X48500Y133500D02*Y139500D01*
X58500D02*Y133500D01*
X165500Y169000D02*Y174500D01*
Y169000D02*X164000Y170500D01*
X165500Y169000D02*X167000Y170500D01*
X134500Y212100D02*X119500D01*
Y217100D02*X134500D01*
Y207100D01*
X129500Y217100D02*Y207100D01*
X119500Y193600D02*X134500D01*
Y198600D02*X119500D01*
X124500Y217100D02*Y207100D01*
X119500Y217100D02*Y207100D01*
Y203600D02*X134500D01*
X20500Y500D02*X10500Y10500D01*
X149500Y500D02*X20500D01*
X500Y10500D02*X10500D01*
X209500D02*X159500D01*
X149500Y500D01*
X151000Y66500D02*X145500D01*
Y76500D01*
X155500D01*
X150500Y46500D02*X145000D01*
Y56500D01*
X155000D01*
G54D74*X18000Y22500D02*Y19000D01*
Y22500D02*X18500Y23000D01*
X20000D01*
X20500Y22500D01*
Y19000D01*
X18000Y21000D02*X20500D01*
X21700Y23000D02*X23700D01*
X21700D02*Y21000D01*
X22200Y21500D01*
X23200D01*
X23700Y21000D01*
Y19500D01*
X23200Y19000D02*X23700Y19500D01*
X22200Y19000D02*X23200D01*
X21700Y19500D02*X22200Y19000D01*
X24900Y19500D02*X27900Y22500D01*
X31100Y23000D02*X31600Y22500D01*
X29600Y23000D02*X31100D01*
X29100Y22500D02*X29600Y23000D01*
X29100Y22500D02*Y21500D01*
X29600Y21000D01*
X31100D01*
X31600Y20500D01*
Y19500D01*
X31100Y19000D02*X31600Y19500D01*
X29600Y19000D02*X31100D01*
X29100Y19500D02*X29600Y19000D01*
X33300D02*X34800D01*
X32800Y19500D02*X33300Y19000D01*
X32800Y22500D02*Y19500D01*
Y22500D02*X33300Y23000D01*
X34800D01*
X36000D02*Y19000D01*
X38000D01*
X18000Y31500D02*Y28000D01*
Y31500D02*X18500Y32000D01*
X20000D01*
X20500Y31500D01*
Y28000D01*
X18000Y30000D02*X20500D01*
X21700D02*X23700Y32000D01*
X21700Y30000D02*X24200D01*
X23700Y32000D02*Y28000D01*
X25400Y28500D02*X28400Y31500D01*
X31600Y32000D02*X32100Y31500D01*
X30100Y32000D02*X31600D01*
X29600Y31500D02*X30100Y32000D01*
X29600Y31500D02*Y30500D01*
X30100Y30000D01*
X31600D01*
X32100Y29500D01*
Y28500D01*
X31600Y28000D02*X32100Y28500D01*
X30100Y28000D02*X31600D01*
X29600Y28500D02*X30100Y28000D01*
X33800Y32000D02*Y28000D01*
X35300Y32000D02*X35800Y31500D01*
Y28500D01*
X35300Y28000D02*X35800Y28500D01*
X33300Y28000D02*X35300D01*
X33300Y32000D02*X35300D01*
X37000Y31500D02*Y28000D01*
Y31500D02*X37500Y32000D01*
X39000D01*
X39500Y31500D01*
Y28000D01*
X37000Y30000D02*X39500D01*
X18000Y41500D02*Y38000D01*
Y41500D02*X18500Y42000D01*
X20000D01*
X20500Y41500D01*
Y38000D01*
X18000Y40000D02*X20500D01*
X21700Y41500D02*X22200Y42000D01*
X23200D01*
X23700Y41500D01*
Y38500D01*
X23200Y38000D02*X23700Y38500D01*
X22200Y38000D02*X23200D01*
X21700Y38500D02*X22200Y38000D01*
Y40000D02*X23700D01*
X18000Y51500D02*Y48000D01*
Y51500D02*X18500Y52000D01*
X20000D01*
X20500Y51500D01*
Y48000D01*
X18000Y50000D02*X20500D01*
X21700Y51500D02*X22200Y52000D01*
X23700D01*
X24200Y51500D01*
Y50500D01*
X21700Y48000D02*X24200Y50500D01*
X21700Y48000D02*X24200D01*
X18000Y61500D02*Y58000D01*
Y61500D02*X18500Y62000D01*
X20000D01*
X20500Y61500D01*
Y58000D01*
X18000Y60000D02*X20500D01*
X22200Y58000D02*X23200D01*
X22700Y62000D02*Y58000D01*
X21700Y61000D02*X22700Y62000D01*
X18000Y71500D02*Y68000D01*
Y71500D02*X18500Y72000D01*
X20000D01*
X20500Y71500D01*
Y68000D01*
X18000Y70000D02*X20500D01*
X21700Y68500D02*X22200Y68000D01*
X21700Y71500D02*Y68500D01*
Y71500D02*X22200Y72000D01*
X23200D01*
X23700Y71500D01*
Y68500D01*
X23200Y68000D02*X23700Y68500D01*
X22200Y68000D02*X23200D01*
X21700Y69000D02*X23700Y71000D01*
X18000Y92000D02*Y89000D01*
X19000Y88000D01*
X20000Y89000D01*
Y92000D02*Y89000D01*
X21200Y92000D02*X22200D01*
X21700D02*Y88000D01*
X21200D02*X22200D01*
X23400Y92000D02*Y88000D01*
Y92000D02*Y91500D01*
X25900Y89000D01*
Y92000D02*Y88000D01*
X20000Y102000D02*X20500Y101500D01*
X18500Y102000D02*X20000D01*
X18000Y101500D02*X18500Y102000D01*
X18000Y101500D02*Y98500D01*
X18500Y98000D01*
X20000D01*
X20500Y98500D01*
Y99500D02*Y98500D01*
X20000Y100000D02*X20500Y99500D01*
X19000Y100000D02*X20000D01*
X21700Y102000D02*Y98000D01*
Y102000D02*Y101500D01*
X24200Y99000D01*
Y102000D02*Y98000D01*
X25900Y102000D02*Y98000D01*
X27400Y102000D02*X27900Y101500D01*
Y98500D01*
X27400Y98000D02*X27900Y98500D01*
X25400Y98000D02*X27400D01*
X25400Y102000D02*X27400D01*
X20000Y112000D02*X20500Y111500D01*
X18500Y112000D02*X20000D01*
X18000Y111500D02*X18500Y112000D01*
X18000Y111500D02*Y108500D01*
X18500Y108000D01*
X20000D01*
X20500Y108500D01*
Y109500D02*Y108500D01*
X20000Y110000D02*X20500Y109500D01*
X19000Y110000D02*X20000D01*
X21700Y112000D02*Y108000D01*
Y112000D02*Y111500D01*
X24200Y109000D01*
Y112000D02*Y108000D01*
X25900Y112000D02*Y108000D01*
X27400Y112000D02*X27900Y111500D01*
Y108500D01*
X27400Y108000D02*X27900Y108500D01*
X25400Y108000D02*X27400D01*
X25400Y112000D02*X27400D01*
X41500Y45000D02*X43000D01*
X41000Y45500D02*X41500Y45000D01*
X41000Y48500D02*Y45500D01*
Y48500D02*X41500Y49000D01*
X43000D01*
X44700Y45000D02*X46200D01*
X44200Y45500D02*X44700Y45000D01*
X44200Y48500D02*Y45500D01*
Y48500D02*X44700Y49000D01*
X46200D01*
X49200Y45000D02*X51200D01*
X51700Y45500D01*
Y46500D02*Y45500D01*
X51200Y47000D02*X51700Y46500D01*
X49700Y47000D02*X51200D01*
X49700Y49000D02*Y45000D01*
X49200Y49000D02*X51200D01*
X51700Y48500D01*
Y47500D01*
X51200Y47000D02*X51700Y47500D01*
X52900Y49000D02*Y48500D01*
X53900Y47500D01*
X54900Y48500D01*
Y49000D02*Y48500D01*
X53900Y47500D02*Y45000D01*
X56100Y47000D02*X58100D01*
X61300Y49000D02*X61800Y48500D01*
X59800Y49000D02*X61300D01*
X59300Y48500D02*X59800Y49000D01*
X59300Y48500D02*Y47500D01*
X59800Y47000D01*
X61300D01*
X61800Y46500D01*
Y45500D01*
X61300Y45000D02*X61800Y45500D01*
X59800Y45000D02*X61300D01*
X59300Y45500D02*X59800Y45000D01*
X63000Y48500D02*Y45000D01*
Y48500D02*X63500Y49000D01*
X65000D01*
X65500Y48500D01*
Y45000D01*
X63000Y47000D02*X65500D01*
X68500Y45500D02*X69000Y45000D01*
X68500Y48500D02*X69000Y49000D01*
X68500Y48500D02*Y45500D01*
X70700Y45000D02*X72200D01*
X70200Y45500D02*X70700Y45000D01*
X70200Y48500D02*Y45500D01*
Y48500D02*X70700Y49000D01*
X72200D01*
X73400D02*X73900Y48500D01*
Y45500D01*
X73400Y45000D02*X73900Y45500D01*
X75100Y48500D02*X75600Y49000D01*
X77100D01*
X77600Y48500D01*
Y47500D01*
X75100Y45000D02*X77600Y47500D01*
X75100Y45000D02*X77600D01*
X78800Y45500D02*X79300Y45000D01*
X78800Y48500D02*Y45500D01*
Y48500D02*X79300Y49000D01*
X80300D01*
X80800Y48500D01*
Y45500D01*
X80300Y45000D02*X80800Y45500D01*
X79300Y45000D02*X80300D01*
X78800Y46000D02*X80800Y48000D01*
X82500Y45000D02*X83500D01*
X83000Y49000D02*Y45000D01*
X82000Y48000D02*X83000Y49000D01*
X84700Y45000D02*X86700Y47000D01*
Y48500D02*Y47000D01*
X86200Y49000D02*X86700Y48500D01*
X85200Y49000D02*X86200D01*
X84700Y48500D02*X85200Y49000D01*
X84700Y48500D02*Y47500D01*
X85200Y47000D01*
X86700D01*
X185500Y108000D02*Y104000D01*
X187000Y108000D02*X187500Y107500D01*
Y104500D01*
X187000Y104000D02*X187500Y104500D01*
X185000Y104000D02*X187000D01*
X185000Y108000D02*X187000D01*
X188700Y104500D02*X189200Y104000D01*
X188700Y105500D02*Y104500D01*
Y105500D02*X189200Y106000D01*
X190200D01*
X190700Y105500D01*
Y104500D01*
X190200Y104000D02*X190700Y104500D01*
X189200Y104000D02*X190200D01*
X188700Y106500D02*X189200Y106000D01*
X188700Y107500D02*Y106500D01*
Y107500D02*X189200Y108000D01*
X190200D01*
X190700Y107500D01*
Y106500D01*
X190200Y106000D02*X190700Y106500D01*
X183500Y138000D02*Y134000D01*
X185000Y138000D02*X185500Y137500D01*
Y134500D01*
X185000Y134000D02*X185500Y134500D01*
X183000Y134000D02*X185000D01*
X183000Y138000D02*X185000D01*
X187200Y134000D02*X188200D01*
X187700Y138000D02*Y134000D01*
X186700Y137000D02*X187700Y138000D01*
X189900Y134000D02*X190900D01*
X190400Y138000D02*Y134000D01*
X189400Y137000D02*X190400Y138000D01*
X183500Y128000D02*Y124000D01*
X185000Y128000D02*X185500Y127500D01*
Y124500D01*
X185000Y124000D02*X185500Y124500D01*
X183000Y124000D02*X185000D01*
X183000Y128000D02*X185000D01*
X187200Y124000D02*X188200D01*
X187700Y128000D02*Y124000D01*
X186700Y127000D02*X187700Y128000D01*
X189400Y124500D02*X189900Y124000D01*
X189400Y127500D02*Y124500D01*
Y127500D02*X189900Y128000D01*
X190900D01*
X191400Y127500D01*
Y124500D01*
X190900Y124000D02*X191400Y124500D01*
X189900Y124000D02*X190900D01*
X189400Y125000D02*X191400Y127000D01*
X185500Y118000D02*Y114000D01*
X187000Y118000D02*X187500Y117500D01*
Y114500D01*
X187000Y114000D02*X187500Y114500D01*
X185000Y114000D02*X187000D01*
X185000Y118000D02*X187000D01*
X188700Y114000D02*X190700Y116000D01*
Y117500D02*Y116000D01*
X190200Y118000D02*X190700Y117500D01*
X189200Y118000D02*X190200D01*
X188700Y117500D02*X189200Y118000D01*
X188700Y117500D02*Y116500D01*
X189200Y116000D01*
X190700D01*
X185500Y52000D02*Y48000D01*
X187000Y52000D02*X187500Y51500D01*
Y48500D01*
X187000Y48000D02*X187500Y48500D01*
X185000Y48000D02*X187000D01*
X185000Y52000D02*X187000D01*
X188700Y51500D02*X189200Y52000D01*
X190200D01*
X190700Y51500D01*
Y48500D01*
X190200Y48000D02*X190700Y48500D01*
X189200Y48000D02*X190200D01*
X188700Y48500D02*X189200Y48000D01*
Y50000D02*X190700D01*
X185500Y62000D02*Y58000D01*
X187000Y62000D02*X187500Y61500D01*
Y58500D01*
X187000Y58000D02*X187500Y58500D01*
X185000Y58000D02*X187000D01*
X185000Y62000D02*X187000D01*
X188700Y60000D02*X190700Y62000D01*
X188700Y60000D02*X191200D01*
X190700Y62000D02*Y58000D01*
X185500Y42000D02*Y38000D01*
X187000Y42000D02*X187500Y41500D01*
Y38500D01*
X187000Y38000D02*X187500Y38500D01*
X185000Y38000D02*X187000D01*
X185000Y42000D02*X187000D01*
X188700Y41500D02*X189200Y42000D01*
X190700D01*
X191200Y41500D01*
Y40500D01*
X188700Y38000D02*X191200Y40500D01*
X188700Y38000D02*X191200D01*
X174000Y22000D02*X176000D01*
X176500Y21500D01*
Y20500D01*
X176000Y20000D02*X176500Y20500D01*
X174500Y20000D02*X176000D01*
X174500Y22000D02*Y18000D01*
Y20000D02*X176500Y18000D01*
X177700Y22000D02*Y21500D01*
X180200Y19000D01*
Y18000D01*
X177700Y19000D02*Y18000D01*
Y19000D02*X180200Y21500D01*
Y22000D02*Y21500D01*
X181400Y18500D02*X184400Y21500D01*
X186100Y22000D02*Y18000D01*
X187600Y22000D02*X188100Y21500D01*
Y18500D01*
X187600Y18000D02*X188100Y18500D01*
X185600Y18000D02*X187600D01*
X185600Y22000D02*X187600D01*
X189300Y18500D02*X189800Y18000D01*
X189300Y21500D02*Y18500D01*
Y21500D02*X189800Y22000D01*
X190800D01*
X191300Y21500D01*
Y18500D01*
X190800Y18000D02*X191300Y18500D01*
X189800Y18000D02*X190800D01*
X189300Y19000D02*X191300Y21000D01*
X175000Y32000D02*X177000D01*
X176000D02*Y28000D01*
X178200Y32000D02*Y31500D01*
X180700Y29000D01*
Y28000D01*
X178200Y29000D02*Y28000D01*
Y29000D02*X180700Y31500D01*
Y32000D02*Y31500D01*
X181900Y28500D02*X184900Y31500D01*
X186600Y32000D02*Y28000D01*
X188100Y32000D02*X188600Y31500D01*
Y28500D01*
X188100Y28000D02*X188600Y28500D01*
X186100Y28000D02*X188100D01*
X186100Y32000D02*X188100D01*
X190300Y28000D02*X191300D01*
X190800Y32000D02*Y28000D01*
X189800Y31000D02*X190800Y32000D01*
X140000Y27500D02*Y23500D01*
X139500Y27500D02*X141500D01*
X142000Y27000D01*
Y26000D01*
X141500Y25500D02*X142000Y26000D01*
X140000Y25500D02*X141500D01*
X143200Y27500D02*Y23500D01*
X144700Y25000D01*
X146200Y23500D01*
Y27500D02*Y23500D01*
X147400Y27500D02*X149400D01*
X149900Y27000D01*
Y26000D01*
X149400Y25500D02*X149900Y26000D01*
X147900Y25500D02*X149400D01*
X147900Y27500D02*Y23500D01*
Y25500D02*X149900Y23500D01*
X136500Y53500D02*Y49500D01*
X138000Y53500D02*X138500Y53000D01*
Y50000D01*
X138000Y49500D02*X138500Y50000D01*
X136000Y49500D02*X138000D01*
X136000Y53500D02*X138000D01*
X139700Y53000D02*X140200Y53500D01*
X141200D01*
X141700Y53000D01*
Y50000D01*
X141200Y49500D02*X141700Y50000D01*
X140200Y49500D02*X141200D01*
X139700Y50000D02*X140200Y49500D01*
Y51500D02*X141700D01*
X185500Y92000D02*Y88000D01*
X187000Y92000D02*X187500Y91500D01*
Y88500D01*
X187000Y88000D02*X187500Y88500D01*
X185000Y88000D02*X187000D01*
X185000Y92000D02*X187000D01*
X188700Y88000D02*X191200Y90500D01*
Y92000D02*Y90500D01*
X188700Y92000D02*X191200D01*
X144000Y110500D02*Y107000D01*
Y110500D02*X144500Y111000D01*
X146000D01*
X146500Y110500D01*
Y107000D01*
X144000Y109000D02*X146500D01*
X148200Y107000D02*X149200D01*
X148700Y111000D02*Y107000D01*
X147700Y110000D02*X148700Y111000D01*
X150400Y109500D02*X152400D01*
X150400Y108500D02*X152400D01*
X153600Y107500D02*X154100Y107000D01*
X153600Y110500D02*Y107500D01*
Y110500D02*X154100Y111000D01*
X155100D01*
X155600Y110500D01*
Y107500D01*
X155100Y107000D02*X155600Y107500D01*
X154100Y107000D02*X155100D01*
X153600Y108000D02*X155600Y110000D01*
X164000Y110500D02*Y107000D01*
Y110500D02*X164500Y111000D01*
X166000D01*
X166500Y110500D01*
Y107000D01*
X164000Y109000D02*X166500D01*
X167700Y107500D02*X168200Y107000D01*
X167700Y110500D02*Y107500D01*
Y110500D02*X168200Y111000D01*
X169200D01*
X169700Y110500D01*
Y107500D01*
X169200Y107000D02*X169700Y107500D01*
X168200Y107000D02*X169200D01*
X167700Y108000D02*X169700Y110000D01*
X170900Y109500D02*X172900D01*
X170900Y108500D02*X172900D01*
X174100Y107500D02*X174600Y107000D01*
X174100Y110500D02*Y107500D01*
Y110500D02*X174600Y111000D01*
X175600D01*
X176100Y110500D01*
Y107500D01*
X175600Y107000D02*X176100Y107500D01*
X174600Y107000D02*X175600D01*
X174100Y108000D02*X176100Y110000D01*
X143500Y150000D02*X145000D01*
X143500Y148000D02*X145500D01*
X143500Y152000D02*Y148000D01*
Y152000D02*X145500D01*
X146700Y150000D02*X148200D01*
X146700Y148000D02*X148700D01*
X146700Y152000D02*Y148000D01*
Y152000D02*X148700D01*
X150400D02*Y148000D01*
X149900Y152000D02*X151900D01*
X152400Y151500D01*
Y150500D01*
X151900Y150000D02*X152400Y150500D01*
X150400Y150000D02*X151900D01*
X153600Y152000D02*X155600D01*
X156100Y151500D01*
Y150500D01*
X155600Y150000D02*X156100Y150500D01*
X154100Y150000D02*X155600D01*
X154100Y152000D02*Y148000D01*
Y150000D02*X156100Y148000D01*
X157300Y151500D02*Y148500D01*
Y151500D02*X157800Y152000D01*
X158800D01*
X159300Y151500D01*
Y148500D01*
X158800Y148000D02*X159300Y148500D01*
X157800Y148000D02*X158800D01*
X157300Y148500D02*X157800Y148000D01*
X160500Y152000D02*Y148000D01*
Y152000D02*X162000Y150500D01*
X163500Y152000D01*
Y148000D01*
X166500Y151500D02*Y148000D01*
Y151500D02*X167000Y152000D01*
X168500D01*
X169000Y151500D01*
Y148000D01*
X166500Y150000D02*X169000D01*
X170700Y152000D02*Y148000D01*
X172200Y152000D02*X172700Y151500D01*
Y148500D01*
X172200Y148000D02*X172700Y148500D01*
X170200Y148000D02*X172200D01*
X170200Y152000D02*X172200D01*
X174400D02*Y148000D01*
X175900Y152000D02*X176400Y151500D01*
Y148500D01*
X175900Y148000D02*X176400Y148500D01*
X173900Y148000D02*X175900D01*
X173900Y152000D02*X175900D01*
X177600D02*X179600D01*
X180100Y151500D01*
Y150500D01*
X179600Y150000D02*X180100Y150500D01*
X178100Y150000D02*X179600D01*
X178100Y152000D02*Y148000D01*
Y150000D02*X180100Y148000D01*
X170000Y145000D02*X171500D01*
Y141500D01*
X171000Y141000D02*X171500Y141500D01*
X170500Y141000D02*X171000D01*
X170000Y141500D02*X170500Y141000D01*
X173200Y145000D02*Y141000D01*
X172700Y145000D02*X174700D01*
X175200Y144500D01*
Y143500D01*
X174700Y143000D02*X175200Y143500D01*
X173200Y143000D02*X174700D01*
X176400D02*X178400Y145000D01*
X176400Y143000D02*X178900D01*
X178400Y145000D02*Y141000D01*
X149500Y145000D02*X151000D01*
Y141500D01*
X150500Y141000D02*X151000Y141500D01*
X150000Y141000D02*X150500D01*
X149500Y141500D02*X150000Y141000D01*
X152700Y145000D02*Y141000D01*
X152200Y145000D02*X154200D01*
X154700Y144500D01*
Y143500D01*
X154200Y143000D02*X154700Y143500D01*
X152700Y143000D02*X154200D01*
X155900Y145000D02*X157900D01*
X155900D02*Y143000D01*
X156400Y143500D01*
X157400D01*
X157900Y143000D01*
Y141500D01*
X157400Y141000D02*X157900Y141500D01*
X156400Y141000D02*X157400D01*
X155900Y141500D02*X156400Y141000D01*
X185500Y82000D02*Y78000D01*
X187000Y82000D02*X187500Y81500D01*
Y78500D01*
X187000Y78000D02*X187500Y78500D01*
X185000Y78000D02*X187000D01*
X185000Y82000D02*X187000D01*
X190200D02*X190700Y81500D01*
X189200Y82000D02*X190200D01*
X188700Y81500D02*X189200Y82000D01*
X188700Y81500D02*Y78500D01*
X189200Y78000D01*
X190200Y80000D02*X190700Y79500D01*
X188700Y80000D02*X190200D01*
X189200Y78000D02*X190200D01*
X190700Y78500D01*
Y79500D02*Y78500D01*
X185500Y72000D02*Y68000D01*
X187000Y72000D02*X187500Y71500D01*
Y68500D01*
X187000Y68000D02*X187500Y68500D01*
X185000Y68000D02*X187000D01*
X185000Y72000D02*X187000D01*
X188700D02*X190700D01*
X188700D02*Y70000D01*
X189200Y70500D01*
X190200D01*
X190700Y70000D01*
Y68500D01*
X190200Y68000D02*X190700Y68500D01*
X189200Y68000D02*X190200D01*
X188700Y68500D02*X189200Y68000D01*
X136500Y73500D02*Y69500D01*
X138000Y73500D02*X138500Y73000D01*
Y70000D01*
X138000Y69500D02*X138500Y70000D01*
X136000Y69500D02*X138000D01*
X136000Y73500D02*X138000D01*
X139700Y70000D02*X140200Y69500D01*
X139700Y71000D02*Y70000D01*
Y71000D02*X140200Y71500D01*
X141200D01*
X141700Y71000D01*
Y70000D01*
X141200Y69500D02*X141700Y70000D01*
X140200Y69500D02*X141200D01*
X139700Y72000D02*X140200Y71500D01*
X139700Y73000D02*Y72000D01*
Y73000D02*X140200Y73500D01*
X141200D01*
X141700Y73000D01*
Y72000D01*
X141200Y71500D02*X141700Y72000D01*
X136000Y59000D02*X137500D01*
X135500Y59500D02*X136000Y59000D01*
X135500Y62500D02*Y59500D01*
Y62500D02*X136000Y63000D01*
X137500D01*
X140700D02*X141200Y62500D01*
X139200Y63000D02*X140700D01*
X138700Y62500D02*X139200Y63000D01*
X138700Y62500D02*Y61500D01*
X139200Y61000D01*
X140700D01*
X141200Y60500D01*
Y59500D01*
X140700Y59000D02*X141200Y59500D01*
X139200Y59000D02*X140700D01*
X138700Y59500D02*X139200Y59000D01*
X18000Y122000D02*X20000D01*
X18000D02*Y120000D01*
X18500Y120500D01*
X19500D01*
X20000Y120000D01*
Y118500D01*
X19500Y118000D02*X20000Y118500D01*
X18500Y118000D02*X19500D01*
X18000Y118500D02*X18500Y118000D01*
X21200Y122000D02*Y119000D01*
X22200Y118000D01*
X23200Y119000D01*
Y122000D02*Y119000D01*
X86000Y117500D02*X88000D01*
X86000D02*Y115500D01*
X86500Y116000D01*
X87500D01*
X88000Y115500D01*
Y114000D01*
X87500Y113500D02*X88000Y114000D01*
X86500Y113500D02*X87500D01*
X86000Y114000D02*X86500Y113500D01*
X89200Y117500D02*Y114500D01*
X90200Y113500D01*
X91200Y114500D01*
Y117500D02*Y114500D01*
X96200Y117500D02*X96700Y117000D01*
X94700Y117500D02*X96200D01*
X94200Y117000D02*X94700Y117500D01*
X94200Y117000D02*Y116000D01*
X94700Y115500D01*
X96200D01*
X96700Y115000D01*
Y114000D01*
X96200Y113500D02*X96700Y114000D01*
X94700Y113500D02*X96200D01*
X94200Y114000D02*X94700Y113500D01*
X97900Y115500D02*X99400D01*
X97900Y113500D02*X99900D01*
X97900Y117500D02*Y113500D01*
Y117500D02*X99900D01*
X101100D02*Y113500D01*
X103100D01*
X104300Y115500D02*X105800D01*
X104300Y113500D02*X106300D01*
X104300Y117500D02*Y113500D01*
Y117500D02*X106300D01*
X108000Y113500D02*X109500D01*
X107500Y114000D02*X108000Y113500D01*
X107500Y117000D02*Y114000D01*
Y117000D02*X108000Y117500D01*
X109500D01*
X110700D02*X112700D01*
X111700D02*Y113500D01*
X18000Y131500D02*X18500Y132000D01*
X19500D01*
X20000Y131500D01*
Y128500D01*
X19500Y128000D02*X20000Y128500D01*
X18500Y128000D02*X19500D01*
X18000Y128500D02*X18500Y128000D01*
Y130000D02*X20000D01*
X21200Y128000D02*X21700D01*
X22900Y131500D02*X23400Y132000D01*
X24400D01*
X24900Y131500D01*
Y128500D01*
X24400Y128000D02*X24900Y128500D01*
X23400Y128000D02*X24400D01*
X22900Y128500D02*X23400Y128000D01*
Y130000D02*X24900D01*
X26100Y132000D02*Y129000D01*
X27100Y128000D01*
X28100Y129000D01*
Y132000D02*Y129000D01*
X18000Y152000D02*X19000D01*
X18500D02*Y148000D01*
X18000D02*X19000D01*
X20200Y151500D02*Y148500D01*
Y151500D02*X20700Y152000D01*
X21700D01*
X22200Y151500D01*
Y148500D01*
X21700Y148000D02*X22200Y148500D01*
X20700Y148000D02*X21700D01*
X20200Y148500D02*X20700Y148000D01*
X23400Y152000D02*X25400D01*
X25900Y151500D01*
Y150500D01*
X25400Y150000D02*X25900Y150500D01*
X23900Y150000D02*X25400D01*
X23900Y152000D02*Y148000D01*
Y150000D02*X25900Y148000D01*
X27100Y150000D02*X28600D01*
X27100Y148000D02*X29100D01*
X27100Y152000D02*Y148000D01*
Y152000D02*X29100D01*
X30300D02*Y148000D01*
Y152000D02*X32300D01*
X30300Y150000D02*X31800D01*
X18000Y142000D02*X20000D01*
X20500Y141500D01*
Y140500D01*
X20000Y140000D02*X20500Y140500D01*
X18500Y140000D02*X20000D01*
X18500Y142000D02*Y138000D01*
Y140000D02*X20500Y138000D01*
X21700Y140000D02*X23200D01*
X21700Y138000D02*X23700D01*
X21700Y142000D02*Y138000D01*
Y142000D02*X23700D01*
X26900D02*X27400Y141500D01*
X25400Y142000D02*X26900D01*
X24900Y141500D02*X25400Y142000D01*
X24900Y141500D02*Y140500D01*
X25400Y140000D01*
X26900D01*
X27400Y139500D01*
Y138500D01*
X26900Y138000D02*X27400Y138500D01*
X25400Y138000D02*X26900D01*
X24900Y138500D02*X25400Y138000D01*
X28600Y140000D02*X30100D01*
X28600Y138000D02*X30600D01*
X28600Y142000D02*Y138000D01*
Y142000D02*X30600D01*
X31800D02*X33800D01*
X32800D02*Y138000D01*
X18000Y162000D02*Y158000D01*
Y162000D02*Y161500D01*
X20500Y159000D01*
Y162000D02*Y158000D01*
X21700Y158500D02*X24700Y161500D01*
X26400Y158000D02*X27900D01*
X25900Y158500D02*X26400Y158000D01*
X25900Y161500D02*Y158500D01*
Y161500D02*X26400Y162000D01*
X27900D01*
X68000Y145500D02*X70000D01*
X70500Y145000D01*
Y144000D01*
X70000Y143500D02*X70500Y144000D01*
X68500Y143500D02*X70000D01*
X68500Y145500D02*Y141500D01*
Y143500D02*X70500Y141500D01*
X71700Y143500D02*X73200D01*
X71700Y141500D02*X73700D01*
X71700Y145500D02*Y141500D01*
Y145500D02*X73700D01*
X76900D02*X77400Y145000D01*
X75400Y145500D02*X76900D01*
X74900Y145000D02*X75400Y145500D01*
X74900Y145000D02*Y142000D01*
X75400Y141500D01*
X76900D01*
X77400Y142000D01*
Y143000D02*Y142000D01*
X76900Y143500D02*X77400Y143000D01*
X75900Y143500D02*X76900D01*
X37000Y145000D02*Y141500D01*
Y145000D02*X37500Y145500D01*
X39000D01*
X39500Y145000D01*
Y141500D01*
X37000Y143500D02*X39500D01*
X40700Y145500D02*X42700D01*
X43200Y145000D01*
Y144000D01*
X42700Y143500D02*X43200Y144000D01*
X41200Y143500D02*X42700D01*
X41200Y145500D02*Y141500D01*
Y143500D02*X43200Y141500D01*
X44900Y145500D02*Y141500D01*
X46400Y145500D02*X46900Y145000D01*
Y142000D01*
X46400Y141500D02*X46900Y142000D01*
X44400Y141500D02*X46400D01*
X44400Y145500D02*X46400D01*
X48100D02*Y142000D01*
X48600Y141500D01*
X49600D01*
X50100Y142000D01*
Y145500D02*Y142000D01*
X51300Y145500D02*X52300D01*
X51800D02*Y141500D01*
X51300D02*X52300D01*
X53500Y145500D02*Y141500D01*
Y145500D02*Y145000D01*
X56000Y142500D01*
Y145500D02*Y141500D01*
X57200Y145000D02*Y142000D01*
Y145000D02*X57700Y145500D01*
X58700D01*
X59200Y145000D01*
Y142000D01*
X58700Y141500D02*X59200Y142000D01*
X57700Y141500D02*X58700D01*
X57200Y142000D02*X57700Y141500D01*
X184000Y188000D02*X184500Y187500D01*
X182500Y188000D02*X184000D01*
X182000Y187500D02*X182500Y188000D01*
X182000Y187500D02*Y186500D01*
X182500Y186000D01*
X184000D01*
X184500Y185500D01*
Y184500D01*
X184000Y184000D02*X184500Y184500D01*
X182500Y184000D02*X184000D01*
X182000Y184500D02*X182500Y184000D01*
X186200Y188000D02*Y184000D01*
X187700Y188000D02*X188200Y187500D01*
Y184500D01*
X187700Y184000D02*X188200Y184500D01*
X185700Y184000D02*X187700D01*
X185700Y188000D02*X187700D01*
X189400Y187500D02*Y184000D01*
Y187500D02*X189900Y188000D01*
X191400D01*
X191900Y187500D01*
Y184000D01*
X189400Y186000D02*X191900D01*
X185000Y198000D02*X185500Y197500D01*
X183500Y198000D02*X185000D01*
X183000Y197500D02*X183500Y198000D01*
X183000Y197500D02*Y196500D01*
X183500Y196000D01*
X185000D01*
X185500Y195500D01*
Y194500D01*
X185000Y194000D02*X185500Y194500D01*
X183500Y194000D02*X185000D01*
X183000Y194500D02*X183500Y194000D01*
X187200D02*X188700D01*
X186700Y194500D02*X187200Y194000D01*
X186700Y197500D02*Y194500D01*
Y197500D02*X187200Y198000D01*
X188700D01*
X189900D02*Y194000D01*
X191900D01*
X148000Y255000D02*X148500Y255500D01*
X150000D01*
X150500Y255000D01*
Y254000D01*
X148000Y251500D02*X150500Y254000D01*
X148000Y251500D02*X150500D01*
X153500Y255500D02*X155000D01*
Y252000D01*
X154500Y251500D02*X155000Y252000D01*
X154000Y251500D02*X154500D01*
X153500Y252000D02*X154000Y251500D01*
X156200Y253500D02*Y252000D01*
X156700Y251500D01*
X157700D01*
X158200Y252000D01*
Y253500D02*Y252000D01*
X159900Y253000D02*Y251500D01*
Y253000D02*X160400Y253500D01*
X160900D01*
X161400Y253000D01*
Y251500D01*
Y253000D02*X161900Y253500D01*
X162400D01*
X162900Y253000D01*
Y251500D01*
X159400Y253500D02*X159900Y253000D01*
X164600D02*Y250000D01*
X164100Y253500D02*X164600Y253000D01*
X165100Y253500D01*
X166100D01*
X166600Y253000D01*
Y252000D01*
X166100Y251500D02*X166600Y252000D01*
X165100Y251500D02*X166100D01*
X164600Y252000D02*X165100Y251500D01*
X168300D02*X169800D01*
X167800Y252000D02*X168300Y251500D01*
X167800Y253000D02*Y252000D01*
Y253000D02*X168300Y253500D01*
X169300D01*
X169800Y253000D01*
X167800Y252500D02*X169800D01*
Y253000D02*Y252500D01*
X171500Y253000D02*Y251500D01*
Y253000D02*X172000Y253500D01*
X173000D01*
X171000D02*X171500Y253000D01*
X174700Y251500D02*X176200D01*
X176700Y252000D01*
X176200Y252500D02*X176700Y252000D01*
X174700Y252500D02*X176200D01*
X174200Y253000D02*X174700Y252500D01*
X174200Y253000D02*X174700Y253500D01*
X176200D01*
X176700Y253000D01*
X174200Y252000D02*X174700Y251500D01*
X179700Y255000D02*Y251500D01*
Y255000D02*X180200Y255500D01*
X181700D01*
X182200Y255000D01*
Y251500D01*
X179700Y253500D02*X182200D01*
X183900Y251500D02*X185400D01*
X185900Y252000D01*
X185400Y252500D02*X185900Y252000D01*
X183900Y252500D02*X185400D01*
X183400Y253000D02*X183900Y252500D01*
X183400Y253000D02*X183900Y253500D01*
X185400D01*
X185900Y253000D01*
X183400Y252000D02*X183900Y251500D01*
X190900Y255500D02*X191400Y255000D01*
X189400Y255500D02*X190900D01*
X188900Y255000D02*X189400Y255500D01*
X188900Y255000D02*Y254000D01*
X189400Y253500D01*
X190900D01*
X191400Y253000D01*
Y252000D01*
X190900Y251500D02*X191400Y252000D01*
X189400Y251500D02*X190900D01*
X188900Y252000D02*X189400Y251500D01*
X192600Y255500D02*Y251500D01*
Y253000D02*X193100Y253500D01*
X194100D01*
X194600Y253000D01*
Y251500D01*
X195800Y253000D02*Y252000D01*
Y253000D02*X196300Y253500D01*
X197300D01*
X197800Y253000D01*
Y252000D01*
X197300Y251500D02*X197800Y252000D01*
X196300Y251500D02*X197300D01*
X195800Y252000D02*X196300Y251500D01*
X199000Y253500D02*Y252000D01*
X199500Y251500D01*
X200000D01*
X200500Y252000D01*
Y253500D02*Y252000D01*
X201000Y251500D01*
X201500D01*
X202000Y252000D01*
Y253500D02*Y252000D01*
X203700Y253000D02*Y251500D01*
Y253000D02*X204200Y253500D01*
X204700D01*
X205200Y253000D01*
Y251500D01*
X203200Y253500D02*X203700Y253000D01*
X155500Y262500D02*X156500D01*
X156000D02*Y258500D01*
X155500D02*X156500D01*
X157700Y262000D02*X158200Y262500D01*
X159700D01*
X160200Y262000D01*
Y261000D01*
X157700Y258500D02*X160200Y261000D01*
X157700Y258500D02*X160200D01*
X161900D02*X163400D01*
X161400Y259000D02*X161900Y258500D01*
X161400Y262000D02*Y259000D01*
Y262000D02*X161900Y262500D01*
X163400D01*
X166900D02*Y258500D01*
X166400Y262500D02*X168400D01*
X168900Y262000D01*
Y261000D01*
X168400Y260500D02*X168900Y261000D01*
X166900Y260500D02*X168400D01*
X170100D02*Y259000D01*
X170600Y258500D01*
X171600D01*
X172100Y259000D01*
Y260500D02*Y259000D01*
X173300Y262500D02*Y259000D01*
X173800Y258500D01*
X174800Y262500D02*Y259000D01*
X175300Y258500D01*
X176300Y260500D02*X178300D01*
X179500Y262500D02*Y259000D01*
X180000Y258500D01*
X181000D01*
X181500Y259000D01*
Y262500D02*Y259000D01*
X183200Y260000D02*Y257000D01*
X182700Y260500D02*X183200Y260000D01*
X183700Y260500D01*
X184700D01*
X185200Y260000D01*
Y259000D01*
X184700Y258500D02*X185200Y259000D01*
X183700Y258500D02*X184700D01*
X183200Y259000D02*X183700Y258500D01*
X188200Y260500D02*X189700D01*
X188200Y258500D02*X190200D01*
X188200Y262500D02*Y258500D01*
Y262500D02*X190200D01*
X191900Y260000D02*Y258500D01*
Y260000D02*X192400Y260500D01*
X192900D01*
X193400Y260000D01*
Y258500D01*
X191400Y260500D02*X191900Y260000D01*
X196100Y260500D02*X196600Y260000D01*
X195100Y260500D02*X196100D01*
X194600Y260000D02*X195100Y260500D01*
X194600Y260000D02*Y259000D01*
X195100Y258500D01*
X196600Y260500D02*Y259000D01*
X197100Y258500D01*
X195100D02*X196100D01*
X196600Y259000D01*
X198300Y262500D02*Y258500D01*
Y259000D02*X198800Y258500D01*
X199800D01*
X200300Y259000D01*
Y260000D02*Y259000D01*
X199800Y260500D02*X200300Y260000D01*
X198800Y260500D02*X199800D01*
X198300Y260000D02*X198800Y260500D01*
X201500Y262500D02*Y259000D01*
X202000Y258500D01*
X203500D02*X205000D01*
X203000Y259000D02*X203500Y258500D01*
X203000Y260000D02*Y259000D01*
Y260000D02*X203500Y260500D01*
X204500D01*
X205000Y260000D01*
X203000Y259500D02*X205000D01*
Y260000D02*Y259500D01*
X183500Y158000D02*Y154000D01*
X185000Y158000D02*X185500Y157500D01*
Y154500D01*
X185000Y154000D02*X185500Y154500D01*
X183000Y154000D02*X185000D01*
X183000Y158000D02*X185000D01*
X187200Y154000D02*X188200D01*
X187700Y158000D02*Y154000D01*
X186700Y157000D02*X187700Y158000D01*
X189400Y157500D02*X189900Y158000D01*
X190900D01*
X191400Y157500D01*
Y154500D01*
X190900Y154000D02*X191400Y154500D01*
X189900Y154000D02*X190900D01*
X189400Y154500D02*X189900Y154000D01*
Y156000D02*X191400D01*
X183500Y148000D02*Y144000D01*
X185000Y148000D02*X185500Y147500D01*
Y144500D01*
X185000Y144000D02*X185500Y144500D01*
X183000Y144000D02*X185000D01*
X183000Y148000D02*X185000D01*
X187200Y144000D02*X188200D01*
X187700Y148000D02*Y144000D01*
X186700Y147000D02*X187700Y148000D01*
X189400Y147500D02*X189900Y148000D01*
X191400D01*
X191900Y147500D01*
Y146500D01*
X189400Y144000D02*X191900Y146500D01*
X189400Y144000D02*X191900D01*
X184000Y168000D02*X184500Y167500D01*
X182500Y168000D02*X184000D01*
X182000Y167500D02*X182500Y168000D01*
X182000Y167500D02*Y164500D01*
X182500Y164000D01*
X184000D01*
X184500Y164500D01*
Y165500D02*Y164500D01*
X184000Y166000D02*X184500Y165500D01*
X183000Y166000D02*X184000D01*
X185700Y168000D02*Y164000D01*
Y168000D02*Y167500D01*
X188200Y165000D01*
Y168000D02*Y164000D01*
X189900Y168000D02*Y164000D01*
X191400Y168000D02*X191900Y167500D01*
Y164500D01*
X191400Y164000D02*X191900Y164500D01*
X189400Y164000D02*X191400D01*
X189400Y168000D02*X191400D01*
X180000Y177500D02*Y174000D01*
Y177500D02*X180500Y178000D01*
X182000D01*
X182500Y177500D01*
Y174000D01*
X180000Y176000D02*X182500D01*
X183700Y178000D02*X185700D01*
X186200Y177500D01*
Y176500D01*
X185700Y176000D02*X186200Y176500D01*
X184200Y176000D02*X185700D01*
X184200Y178000D02*Y174000D01*
Y176000D02*X186200Y174000D01*
X187400Y176000D02*X188900D01*
X187400Y174000D02*X189400D01*
X187400Y178000D02*Y174000D01*
Y178000D02*X189400D01*
X190600D02*Y174000D01*
Y178000D02*X192600D01*
X190600Y176000D02*X192100D01*
X10000Y266500D02*X7500Y264000D01*
Y262500D01*
X10000D01*
X18500D02*X18000Y263000D01*
X18500Y262500D02*X19500D01*
X20000Y263000D02*X19500Y262500D01*
X20000Y266000D02*Y263000D01*
Y266000D02*X19500Y266500D01*
X18500Y264500D02*X18000Y265000D01*
X18500Y264500D02*X20000D01*
X18500Y266500D02*X19500D01*
X18500D02*X18000Y266000D01*
Y265000D01*
X28000Y262500D02*X30000D01*
Y264500D02*Y262500D01*
Y264500D02*X29500Y264000D01*
X28500D02*X29500D01*
X28500D02*X28000Y264500D01*
Y266000D02*Y264500D01*
X28500Y266500D02*X28000Y266000D01*
X28500Y266500D02*X29500D01*
X30000Y266000D02*X29500Y266500D01*
X40500Y264500D02*X38500Y262500D01*
X38000Y264500D02*X40500D01*
X38500Y266500D02*Y262500D01*
X50000Y263000D02*X49500Y262500D01*
X48500D02*X49500D01*
X48500D02*X48000Y263000D01*
Y266000D02*Y263000D01*
X48500Y266500D02*X48000Y266000D01*
X48500Y266500D02*X49500D01*
X50000Y266000D02*X49500Y266500D01*
X48000Y264500D02*X49500D01*
X60500Y263000D02*X60000Y262500D01*
X58500D02*X60000D01*
X58500D02*X58000Y263000D01*
Y264000D02*Y263000D01*
X60500Y266500D02*X58000Y264000D01*
Y266500D02*X60500D01*
X68500D02*X69500D01*
X69000D02*Y262500D01*
X70000Y263500D02*X69000Y262500D01*
X80000Y266000D02*X79500Y266500D01*
X80000Y266000D02*Y263000D01*
X79500Y262500D01*
X78500D02*X79500D01*
X78500D02*X78000Y263000D01*
Y266000D02*Y263000D01*
X78500Y266500D02*X78000Y266000D01*
X78500Y266500D02*X79500D01*
X80000Y265500D02*X78000Y263500D01*
X100500Y262500D02*X100000Y263000D01*
X100500Y262500D02*X102000D01*
X102500Y263000D02*X102000Y262500D01*
X102500Y266000D02*Y263000D01*
Y266000D02*X102000Y266500D01*
X100500D02*X102000D01*
X100500D02*X100000Y266000D01*
Y265000D01*
X100500Y264500D02*X100000Y265000D01*
X100500Y264500D02*X101500D01*
X98800Y266500D02*Y262500D01*
Y263000D02*Y262500D01*
Y263000D02*X96300Y265500D01*
Y266500D02*Y262500D01*
X94600Y266500D02*Y262500D01*
X93100D02*X92600Y263000D01*
Y266000D02*Y263000D01*
X93100Y266500D02*X92600Y266000D01*
X93100Y266500D02*X95100D01*
X93100Y262500D02*X95100D01*
X120500Y264500D02*X122500D01*
X121500Y265500D02*Y263500D01*
X117300Y262500D02*X119300D01*
Y264500D02*Y262500D01*
Y264500D02*X118800Y264000D01*
X117800D02*X118800D01*
X117800D02*X117300Y264500D01*
Y266000D02*Y264500D01*
X117800Y266500D02*X117300Y266000D01*
X117800Y266500D02*X118800D01*
X119300Y266000D02*X118800Y266500D01*
X116100Y265500D02*Y262500D01*
Y265500D02*X115100Y266500D01*
X114100Y265500D01*
Y262500D01*
X102000Y225600D02*X103500D01*
Y222100D01*
X103000Y221600D02*X103500Y222100D01*
X102500Y221600D02*X103000D01*
X102000Y222100D02*X102500Y221600D01*
X105200Y225600D02*Y221600D01*
X104700Y225600D02*X106700D01*
X107200Y225100D01*
Y224100D01*
X106700Y223600D02*X107200Y224100D01*
X105200Y223600D02*X106700D01*
X108400Y225100D02*X108900Y225600D01*
X110400D01*
X110900Y225100D01*
Y224100D01*
X108400Y221600D02*X110900Y224100D01*
X108400Y221600D02*X110900D01*
X113900Y225600D02*Y222100D01*
X114400Y221600D01*
X115400D01*
X115900Y222100D01*
Y225600D02*Y222100D01*
X117600Y221600D02*X119100D01*
X119600Y222100D01*
X119100Y222600D02*X119600Y222100D01*
X117600Y222600D02*X119100D01*
X117100Y223100D02*X117600Y222600D01*
X117100Y223100D02*X117600Y223600D01*
X119100D01*
X119600Y223100D01*
X117100Y222100D02*X117600Y221600D01*
X122300Y223600D02*X122800Y223100D01*
X121300Y223600D02*X122300D01*
X120800Y223100D02*X121300Y223600D01*
X120800Y223100D02*Y222100D01*
X121300Y221600D01*
X122800Y223600D02*Y222100D01*
X123300Y221600D01*
X121300D02*X122300D01*
X122800Y222100D01*
X126000Y223600D02*X126500Y223100D01*
X125000Y223600D02*X126000D01*
X124500Y223100D02*X125000Y223600D01*
X124500Y223100D02*Y222100D01*
X125000Y221600D01*
X126000D01*
X126500Y222100D01*
X124500Y220600D02*X125000Y220100D01*
X126000D01*
X126500Y220600D01*
Y223600D02*Y220600D01*
X128200Y221600D02*X129700D01*
X127700Y222100D02*X128200Y221600D01*
X127700Y223100D02*Y222100D01*
Y223100D02*X128200Y223600D01*
X129200D01*
X129700Y223100D01*
X127700Y222600D02*X129700D01*
Y223100D02*Y222600D01*
X130900Y224100D02*X131400D01*
X130900Y223100D02*X131400D01*
X99500Y217100D02*X100500D01*
X100000D02*Y213100D01*
X99500D02*X100500D01*
X101700Y216600D02*X102200Y217100D01*
X103700D01*
X104200Y216600D01*
Y215600D01*
X101700Y213100D02*X104200Y215600D01*
X101700Y213100D02*X104200D01*
X105900D02*X107400D01*
X105400Y213600D02*X105900Y213100D01*
X105400Y216600D02*Y213600D01*
Y216600D02*X105900Y217100D01*
X107400D01*
X110400Y214600D02*Y213600D01*
Y214600D02*X110900Y215100D01*
X111900D01*
X112400Y214600D01*
Y213600D01*
X111900Y213100D02*X112400Y213600D01*
X110900Y213100D02*X111900D01*
X110400Y213600D02*X110900Y213100D01*
X114100Y214600D02*Y213100D01*
Y214600D02*X114600Y215100D01*
X115100D01*
X115600Y214600D01*
Y213100D01*
X113600Y215100D02*X114100Y214600D01*
X98500Y210600D02*Y207100D01*
Y210600D02*X99000Y211100D01*
X100500D01*
X101000Y210600D01*
Y207100D01*
X98500Y209100D02*X101000D01*
X102200D02*X104200Y211100D01*
X102200Y209100D02*X104700D01*
X104200Y211100D02*Y207100D01*
X105900Y207600D02*X108900Y210600D01*
X110100D02*Y207100D01*
Y210600D02*X110600Y211100D01*
X112100D01*
X112600Y210600D01*
Y207100D01*
X110100Y209100D02*X112600D01*
X113800Y211100D02*X115800D01*
X113800D02*Y209100D01*
X114300Y209600D01*
X115300D01*
X115800Y209100D01*
Y207600D01*
X115300Y207100D02*X115800Y207600D01*
X114300Y207100D02*X115300D01*
X113800Y207600D02*X114300Y207100D01*
X100000Y203600D02*X101000D01*
X100500D02*Y199600D01*
X100000D02*X101000D01*
X102200Y203100D02*X102700Y203600D01*
X104200D01*
X104700Y203100D01*
Y202100D01*
X102200Y199600D02*X104700Y202100D01*
X102200Y199600D02*X104700D01*
X106400D02*X107900D01*
X105900Y200100D02*X106400Y199600D01*
X105900Y203100D02*Y200100D01*
Y203100D02*X106400Y203600D01*
X107900D01*
X110900Y201100D02*Y200100D01*
Y201100D02*X111400Y201600D01*
X112400D01*
X112900Y201100D01*
Y200100D01*
X112400Y199600D02*X112900Y200100D01*
X111400Y199600D02*X112400D01*
X110900Y200100D02*X111400Y199600D01*
X114600Y201100D02*Y199600D01*
Y201100D02*X115100Y201600D01*
X115600D01*
X116100Y201100D01*
Y199600D01*
X114100Y201600D02*X114600Y201100D01*
X94000Y197600D02*X94500Y197100D01*
X92500Y197600D02*X94000D01*
X92000Y197100D02*X92500Y197600D01*
X92000Y197100D02*Y196100D01*
X92500Y195600D01*
X94000D01*
X94500Y195100D01*
Y194100D01*
X94000Y193600D02*X94500Y194100D01*
X92500Y193600D02*X94000D01*
X92000Y194100D02*X92500Y193600D01*
X96200Y197600D02*Y193600D01*
X97700Y197600D02*X98200Y197100D01*
Y194100D01*
X97700Y193600D02*X98200Y194100D01*
X95700Y193600D02*X97700D01*
X95700Y197600D02*X97700D01*
X99400Y197100D02*Y193600D01*
Y197100D02*X99900Y197600D01*
X101400D01*
X101900Y197100D01*
Y193600D01*
X99400Y195600D02*X101900D01*
X103100Y194100D02*X106100Y197100D01*
X109300Y197600D02*X109800Y197100D01*
X107800Y197600D02*X109300D01*
X107300Y197100D02*X107800Y197600D01*
X107300Y197100D02*Y196100D01*
X107800Y195600D01*
X109300D01*
X109800Y195100D01*
Y194100D01*
X109300Y193600D02*X109800Y194100D01*
X107800Y193600D02*X109300D01*
X107300Y194100D02*X107800Y193600D01*
X111500D02*X113000D01*
X111000Y194100D02*X111500Y193600D01*
X111000Y197100D02*Y194100D01*
Y197100D02*X111500Y197600D01*
X113000D01*
X114200D02*Y193600D01*
X116200D01*
X22000Y208500D02*Y204500D01*
Y206000D02*X22500Y206500D01*
X23500D01*
X24000Y206000D01*
Y204500D01*
X25700Y208500D02*Y205000D01*
X26200Y204500D01*
X25200Y207000D02*X26200D01*
X27700Y208500D02*Y205000D01*
X28200Y204500D01*
X27200Y207000D02*X28200D01*
X29700Y206000D02*Y203000D01*
X29200Y206500D02*X29700Y206000D01*
X30200Y206500D01*
X31200D01*
X31700Y206000D01*
Y205000D01*
X31200Y204500D02*X31700Y205000D01*
X30200Y204500D02*X31200D01*
X29700Y205000D02*X30200Y204500D01*
X32900Y207000D02*X33400D01*
X32900Y206000D02*X33400D01*
X34600Y205000D02*X37600Y208000D01*
X38800Y205000D02*X41800Y208000D01*
X43000Y206500D02*Y205000D01*
X43500Y204500D01*
X44000D01*
X44500Y205000D01*
Y206500D02*Y205000D01*
X45000Y204500D01*
X45500D01*
X46000Y205000D01*
Y206500D02*Y205000D01*
X47200Y206500D02*Y205000D01*
X47700Y204500D01*
X48200D01*
X48700Y205000D01*
Y206500D02*Y205000D01*
X49200Y204500D01*
X49700D01*
X50200Y205000D01*
Y206500D02*Y205000D01*
X51400Y206500D02*Y205000D01*
X51900Y204500D01*
X52400D01*
X52900Y205000D01*
Y206500D02*Y205000D01*
X53400Y204500D01*
X53900D01*
X54400Y205000D01*
Y206500D02*Y205000D01*
X55600Y204500D02*X56100D01*
X57300Y207500D02*Y207000D01*
Y206000D02*Y204500D01*
X59800Y206500D02*X60300Y206000D01*
X58800Y206500D02*X59800D01*
X58300Y206000D02*X58800Y206500D01*
X58300Y206000D02*Y205000D01*
X58800Y204500D01*
X60300Y206500D02*Y205000D01*
X60800Y204500D01*
X58800D02*X59800D01*
X60300Y205000D01*
X62500Y204500D02*X64000D01*
X64500Y205000D01*
X64000Y205500D02*X64500Y205000D01*
X62500Y205500D02*X64000D01*
X62000Y206000D02*X62500Y205500D01*
X62000Y206000D02*X62500Y206500D01*
X64000D01*
X64500Y206000D01*
X62000Y205000D02*X62500Y204500D01*
X66200Y206500D02*X67700D01*
X65700Y206000D02*X66200Y206500D01*
X65700Y206000D02*Y205000D01*
X66200Y204500D01*
X67700D01*
X70400Y206500D02*X70900Y206000D01*
X69400Y206500D02*X70400D01*
X68900Y206000D02*X69400Y206500D01*
X68900Y206000D02*Y205000D01*
X69400Y204500D01*
X70900Y206500D02*Y205000D01*
X71400Y204500D01*
X69400D02*X70400D01*
X70900Y205000D01*
X72600Y208500D02*Y205000D01*
X73100Y204500D01*
X74600D02*X76100D01*
X74100Y205000D02*X74600Y204500D01*
X74100Y206000D02*Y205000D01*
Y206000D02*X74600Y206500D01*
X75600D01*
X76100Y206000D01*
X74100Y205500D02*X76100D01*
Y206000D02*Y205500D01*
X79300Y208500D02*Y204500D01*
X78800D02*X79300Y205000D01*
X77800Y204500D02*X78800D01*
X77300Y205000D02*X77800Y204500D01*
X77300Y206000D02*Y205000D01*
Y206000D02*X77800Y206500D01*
X78800D01*
X79300Y206000D01*
X80500Y204500D02*X81000D01*
X82700Y206500D02*X84200D01*
X82200Y206000D02*X82700Y206500D01*
X82200Y206000D02*Y205000D01*
X82700Y204500D01*
X84200D01*
X85400Y206000D02*Y205000D01*
Y206000D02*X85900Y206500D01*
X86900D01*
X87400Y206000D01*
Y205000D01*
X86900Y204500D02*X87400Y205000D01*
X85900Y204500D02*X86900D01*
X85400Y205000D02*X85900Y204500D01*
X89100Y206000D02*Y204500D01*
Y206000D02*X89600Y206500D01*
X90100D01*
X90600Y206000D01*
Y204500D01*
Y206000D02*X91100Y206500D01*
X91600D01*
X92100Y206000D01*
Y204500D01*
X88600Y206500D02*X89100Y206000D01*
X22000Y216000D02*X23000D01*
X22500D02*Y212000D01*
X22000D02*X23000D01*
X24200Y213500D02*Y212500D01*
Y213500D02*X24700Y214000D01*
X25700D01*
X26200Y213500D01*
Y212500D01*
X25700Y212000D02*X26200Y212500D01*
X24700Y212000D02*X25700D01*
X24200Y212500D02*X24700Y212000D01*
X27400Y214000D02*Y212500D01*
X27900Y212000D01*
X28400D01*
X28900Y212500D01*
Y214000D02*Y212500D01*
X29400Y212000D01*
X29900D01*
X30400Y212500D01*
Y214000D02*Y212500D01*
X33100Y214000D02*X33600Y213500D01*
X32100Y214000D02*X33100D01*
X31600Y213500D02*X32100Y214000D01*
X31600Y213500D02*Y212500D01*
X32100Y212000D01*
X33600Y214000D02*Y212500D01*
X34100Y212000D01*
X32100D02*X33100D01*
X33600Y212500D01*
X39100Y216000D02*X39600Y215500D01*
X37600Y216000D02*X39100D01*
X37100Y215500D02*X37600Y216000D01*
X37100Y215500D02*Y214500D01*
X37600Y214000D01*
X39100D01*
X39600Y213500D01*
Y212500D01*
X39100Y212000D02*X39600Y212500D01*
X37600Y212000D02*X39100D01*
X37100Y212500D02*X37600Y212000D01*
X41300Y214000D02*X42800D01*
X40800Y213500D02*X41300Y214000D01*
X40800Y213500D02*Y212500D01*
X41300Y212000D01*
X42800D01*
X45500Y214000D02*X46000Y213500D01*
X44500Y214000D02*X45500D01*
X44000Y213500D02*X44500Y214000D01*
X44000Y213500D02*Y212500D01*
X44500Y212000D01*
X46000Y214000D02*Y212500D01*
X46500Y212000D01*
X44500D02*X45500D01*
X46000Y212500D01*
X47700Y216000D02*Y212500D01*
X48200Y212000D01*
X49700D02*X51200D01*
X49200Y212500D02*X49700Y212000D01*
X49200Y213500D02*Y212500D01*
Y213500D02*X49700Y214000D01*
X50700D01*
X51200Y213500D01*
X49200Y213000D02*X51200D01*
Y213500D02*Y213000D01*
X54400Y216000D02*Y212000D01*
X53900D02*X54400Y212500D01*
X52900Y212000D02*X53900D01*
X52400Y212500D02*X52900Y212000D01*
X52400Y213500D02*Y212500D01*
Y213500D02*X52900Y214000D01*
X53900D01*
X54400Y213500D01*
X57400Y214000D02*X58900D01*
X57400Y212000D02*X59400D01*
X57400Y216000D02*Y212000D01*
Y216000D02*X59400D01*
X61100Y213500D02*Y212000D01*
Y213500D02*X61600Y214000D01*
X62100D01*
X62600Y213500D01*
Y212000D01*
X60600Y214000D02*X61100Y213500D01*
X65300Y214000D02*X65800Y213500D01*
X64300Y214000D02*X65300D01*
X63800Y213500D02*X64300Y214000D01*
X63800Y213500D02*Y212500D01*
X64300Y212000D01*
X65300D01*
X65800Y212500D01*
X63800Y211000D02*X64300Y210500D01*
X65300D01*
X65800Y211000D01*
Y214000D02*Y211000D01*
X67000Y215000D02*Y214500D01*
Y213500D02*Y212000D01*
X68500Y213500D02*Y212000D01*
Y213500D02*X69000Y214000D01*
X69500D01*
X70000Y213500D01*
Y212000D01*
X68000Y214000D02*X68500Y213500D01*
X71700Y212000D02*X73200D01*
X71200Y212500D02*X71700Y212000D01*
X71200Y213500D02*Y212500D01*
Y213500D02*X71700Y214000D01*
X72700D01*
X73200Y213500D01*
X71200Y213000D02*X73200D01*
Y213500D02*Y213000D01*
X74900Y212000D02*X76400D01*
X74400Y212500D02*X74900Y212000D01*
X74400Y213500D02*Y212500D01*
Y213500D02*X74900Y214000D01*
X75900D01*
X76400Y213500D01*
X74400Y213000D02*X76400D01*
Y213500D02*Y213000D01*
X78100Y213500D02*Y212000D01*
Y213500D02*X78600Y214000D01*
X79600D01*
X77600D02*X78100Y213500D01*
X80800Y215000D02*Y214500D01*
Y213500D02*Y212000D01*
X82300Y213500D02*Y212000D01*
Y213500D02*X82800Y214000D01*
X83300D01*
X83800Y213500D01*
Y212000D01*
X81800Y214000D02*X82300Y213500D01*
X86500Y214000D02*X87000Y213500D01*
X85500Y214000D02*X86500D01*
X85000Y213500D02*X85500Y214000D01*
X85000Y213500D02*Y212500D01*
X85500Y212000D01*
X86500D01*
X87000Y212500D01*
X85000Y211000D02*X85500Y210500D01*
X86500D01*
X87000Y211000D01*
Y214000D02*Y211000D01*
X22000Y223000D02*Y219500D01*
Y223000D02*X22500Y223500D01*
X24000D01*
X24500Y223000D01*
Y219500D01*
X22000Y221500D02*X24500D01*
X25700Y223500D02*X27700D01*
X28200Y223000D01*
Y222000D01*
X27700Y221500D02*X28200Y222000D01*
X26200Y221500D02*X27700D01*
X26200Y223500D02*Y219500D01*
Y221500D02*X28200Y219500D01*
X29900Y223500D02*Y219500D01*
X31400Y223500D02*X31900Y223000D01*
Y220000D01*
X31400Y219500D02*X31900Y220000D01*
X29400Y219500D02*X31400D01*
X29400Y223500D02*X31400D01*
X33100Y221500D02*X35100D01*
X36300Y223500D02*Y219500D01*
X38300D01*
X39500Y223500D02*X41500D01*
X40500D02*Y219500D01*
X43200D02*X44700D01*
X42700Y220000D02*X43200Y219500D01*
X42700Y223000D02*Y220000D01*
Y223000D02*X43200Y223500D01*
X44700D01*
X46400Y219500D02*X47400D01*
X46900Y223500D02*Y219500D01*
X45900Y222500D02*X46900Y223500D01*
X48600Y220000D02*X49100Y219500D01*
X48600Y221000D02*Y220000D01*
Y221000D02*X49100Y221500D01*
X50100D01*
X50600Y221000D01*
Y220000D01*
X50100Y219500D02*X50600Y220000D01*
X49100Y219500D02*X50100D01*
X48600Y222000D02*X49100Y221500D01*
X48600Y223000D02*Y222000D01*
Y223000D02*X49100Y223500D01*
X50100D01*
X50600Y223000D01*
Y222000D01*
X50100Y221500D02*X50600Y222000D01*
X53300Y223500D02*X53800Y223000D01*
X52300Y223500D02*X53300D01*
X51800Y223000D02*X52300Y223500D01*
X51800Y223000D02*Y220000D01*
X52300Y219500D01*
X53300Y221500D02*X53800Y221000D01*
X51800Y221500D02*X53300D01*
X52300Y219500D02*X53300D01*
X53800Y220000D01*
Y221000D02*Y220000D01*
X55000Y223000D02*X55500Y223500D01*
X56500D01*
X57000Y223000D01*
Y220000D01*
X56500Y219500D02*X57000Y220000D01*
X55500Y219500D02*X56500D01*
X55000Y220000D02*X55500Y219500D01*
Y221500D02*X57000D01*
X58200Y220000D02*X61200Y223000D01*
X62900Y219500D02*X63900D01*
X63400Y223500D02*Y219500D01*
X62400Y222500D02*X63400Y223500D01*
X65100Y220000D02*X65600Y219500D01*
X65100Y221000D02*Y220000D01*
Y221000D02*X65600Y221500D01*
X66600D01*
X67100Y221000D01*
Y220000D01*
X66600Y219500D02*X67100Y220000D01*
X65600Y219500D02*X66600D01*
X65100Y222000D02*X65600Y221500D01*
X65100Y223000D02*Y222000D01*
Y223000D02*X65600Y223500D01*
X66600D01*
X67100Y223000D01*
Y222000D01*
X66600Y221500D02*X67100Y222000D01*
X69800Y223500D02*X70300Y223000D01*
X68800Y223500D02*X69800D01*
X68300Y223000D02*X68800Y223500D01*
X68300Y223000D02*Y220000D01*
X68800Y219500D01*
X69800Y221500D02*X70300Y221000D01*
X68300Y221500D02*X69800D01*
X68800Y219500D02*X69800D01*
X70300Y220000D01*
Y221000D02*Y220000D01*
X71500Y219500D02*X74000Y222000D01*
Y223500D02*Y222000D01*
X71500Y223500D02*X74000D01*
X77000Y221500D02*Y220500D01*
X78000Y219500D01*
X79000Y220500D01*
Y221500D02*Y220500D01*
X80700Y219500D02*X81700D01*
X81200Y223500D02*Y219500D01*
X80200Y222500D02*X81200Y223500D01*
X82900Y219500D02*X83400D01*
X84600Y221500D02*X86600Y223500D01*
X84600Y221500D02*X87100D01*
X86600Y223500D02*Y219500D01*
G54D73*X85000Y259500D02*Y234000D01*
X3000Y259500D02*Y234000D01*
X85000D01*
X3000Y236000D02*X85000D01*
X3000Y259500D02*X85000D01*
X87500Y259800D02*X127500D01*
X87500Y229800D02*X127500D01*
X87500Y234200D02*X127500D01*
Y259800D02*Y229800D01*
X87500Y259800D02*Y229800D01*
X5000Y165000D02*Y85000D01*
X15000D01*
Y165000D01*
X5000D01*
Y155000D02*X15000D01*
Y165000D01*
X5000Y75000D02*Y15000D01*
X15000D01*
Y75000D01*
X5000D01*
Y65000D02*X15000D01*
Y75000D01*
X94803Y24449D02*X124803D01*
X94803D02*Y4449D01*
X124803D01*
Y24449D02*Y4449D01*
X114803Y24449D02*Y14449D01*
X124803D01*
X102700Y78200D02*X116600D01*
Y90000D02*Y78200D01*
X102700Y90000D02*X116600D01*
X102700D02*Y78200D01*
X109607Y98245D02*X110393D01*
X109607Y103755D02*X110393D01*
X53607Y95245D02*X54393D01*
X53607Y100755D02*X54393D01*
X37755Y95393D02*Y94607D01*
X32245Y95393D02*Y94607D01*
X60250Y84480D02*Y73850D01*
X41750Y84480D02*Y73850D01*
X57000D02*X60250D01*
X41750D02*X45000D01*
X60071Y84480D02*X60250D01*
X41750D02*X41929D01*
X32245Y115350D02*Y114564D01*
X37755Y115350D02*Y114564D01*
X42000Y123500D02*Y113500D01*
X82000Y123500D02*Y113500D01*
X42000Y123500D02*X43000D01*
X51000D02*X63000D01*
X71000D02*X82000D01*
X81000Y113500D02*X82000D01*
X61000D02*X73000D01*
X42000D02*X53000D01*
X40500Y111500D02*G75*G03X40500Y111500I0J500D01*G01*
X58107Y175745D02*X58893D01*
X58107Y181255D02*X58893D01*
X58107Y164745D02*X58893D01*
X58107Y170255D02*X58893D01*
G54D75*X68100Y157800D02*Y149200D01*
G54D73*Y157800D02*X65700Y159000D01*
X49900D02*X65700D01*
X49900D02*Y148000D01*
X65700D01*
X68100Y149200D01*
G54D75*X106100Y148300D02*Y139700D01*
G54D73*Y148300D02*X103700Y149500D01*
X87900D02*X103700D01*
X87900D02*Y138500D01*
X103700D01*
X106100Y139700D01*
X96107Y155245D02*X96893D01*
X96107Y160755D02*X96893D01*
X72000Y185000D02*X92000D01*
Y180500D01*
Y175500D02*Y171000D01*
X72000D02*X92000D01*
X72000Y185000D02*Y171000D01*
X92000Y180500D02*G75*G03X92000Y175500I0J-2500D01*G01*
G54D75*X68100Y196800D02*Y188200D01*
G54D73*Y196800D02*X65700Y198000D01*
X49900D02*X65700D01*
X49900D02*Y187000D01*
X65700D01*
X68100Y188200D01*
X180000Y138500D02*Y128500D01*
X140000Y138500D02*Y128500D01*
X179000D02*X180000D01*
X159000D02*X171000D01*
X140000D02*X151000D01*
X140000Y138500D02*X141000D01*
X149000D02*X161000D01*
X169000D02*X180000D01*
X205000Y95000D02*Y15000D01*
X195000Y95000D02*X205000D01*
X195000D02*Y15000D01*
X205000D01*
X195000Y25000D02*X205000D01*
X195000D02*Y15000D01*
X205000Y201000D02*Y101000D01*
X195000Y201000D02*X205000D01*
X195000D02*Y101000D01*
X205000D01*
X195000Y111000D02*X205000D01*
X195000D02*Y101000D01*
X167500Y167900D02*Y154000D01*
X155700Y167900D02*X167500D01*
X155700D02*Y154000D01*
X167500D01*
X172745Y161393D02*Y160607D01*
X178255Y161393D02*Y160607D01*
X162500Y41500D02*X172500D01*
X162500Y81500D02*X172500D01*
X162500Y42500D02*Y41500D01*
Y62500D02*Y50500D01*
Y81500D02*Y70500D01*
X172500Y81500D02*Y80500D01*
Y72500D02*Y60500D01*
Y52500D02*Y41500D01*
X174500Y40000D02*G75*G03X174500Y40000I-500J0D01*G01*
X163607Y35255D02*X164393D01*
X163607Y29745D02*X164393D01*
X191500Y232000D02*Y222000D01*
X151500Y232000D02*Y222000D01*
X190500D02*X191500D01*
X170500D02*X182500D01*
X151500D02*X162500D01*
X151500Y232000D02*X152500D01*
X160500D02*X172500D01*
X180500D02*X191500D01*
X193000Y234000D02*G75*G03X193000Y234000I0J-500D01*G01*
X133201Y246890D02*X145799D01*
Y233110D01*
X133201D01*
Y246890D01*
X144607Y35255D02*X145393D01*
X144607Y29745D02*X145393D01*
X141000Y203500D02*Y183500D01*
X171000Y203500D02*Y183500D01*
X141000Y203500D02*X142000D01*
X170000D02*X171000D01*
X170000Y183500D02*X171000D01*
X141000D02*X142000D01*
X139500Y181500D02*G75*G03X139500Y181500I0J500D01*G01*
G54D74*X42500Y190600D02*X44000D01*
X42000Y191100D02*X42500Y190600D01*
X42000Y194100D02*Y191100D01*
Y194100D02*X42500Y194600D01*
X44000D01*
X45200Y190600D02*X47200Y192600D01*
Y194100D02*Y192600D01*
X46700Y194600D02*X47200Y194100D01*
X45700Y194600D02*X46700D01*
X45200Y194100D02*X45700Y194600D01*
X45200Y194100D02*Y193100D01*
X45700Y192600D01*
X47200D01*
X8000Y172000D02*X9500D01*
Y168500D01*
X9000Y168000D02*X9500Y168500D01*
X8500Y168000D02*X9000D01*
X8000Y168500D02*X8500Y168000D01*
X11200D02*X12200D01*
X11700Y172000D02*Y168000D01*
X10700Y171000D02*X11700Y172000D01*
X33307Y122650D02*X34807D01*
X32807Y123150D02*X33307Y122650D01*
X32807Y126150D02*Y123150D01*
Y126150D02*X33307Y126650D01*
X34807D01*
X36507Y122650D02*X37507D01*
X37007Y126650D02*Y122650D01*
X36007Y125650D02*X37007Y126650D01*
X45936Y176478D02*X47436D01*
X45436Y176978D02*X45936Y176478D01*
X45436Y179978D02*Y176978D01*
Y179978D02*X45936Y180478D01*
X47436D01*
X48636Y176978D02*X49136Y176478D01*
X48636Y177978D02*Y176978D01*
Y177978D02*X49136Y178478D01*
X50136D01*
X50636Y177978D01*
Y176978D01*
X50136Y176478D02*X50636Y176978D01*
X49136Y176478D02*X50136D01*
X48636Y178978D02*X49136Y178478D01*
X48636Y179978D02*Y178978D01*
Y179978D02*X49136Y180478D01*
X50136D01*
X50636Y179978D01*
Y178978D01*
X50136Y178478D02*X50636Y178978D01*
X45936Y165650D02*X47436D01*
X45436Y166150D02*X45936Y165650D01*
X45436Y169150D02*Y166150D01*
Y169150D02*X45936Y169650D01*
X47436D01*
X50136D02*X50636Y169150D01*
X49136Y169650D02*X50136D01*
X48636Y169150D02*X49136Y169650D01*
X48636Y169150D02*Y166150D01*
X49136Y165650D01*
X50136Y167650D02*X50636Y167150D01*
X48636Y167650D02*X50136D01*
X49136Y165650D02*X50136D01*
X50636Y166150D01*
Y167150D02*Y166150D01*
X42500Y151600D02*X44000D01*
X42000Y152100D02*X42500Y151600D01*
X42000Y155100D02*Y152100D01*
Y155100D02*X42500Y155600D01*
X44000D01*
X45200Y151600D02*X47700Y154100D01*
Y155600D02*Y154100D01*
X45200Y155600D02*X47700D01*
X66005Y80995D02*Y77495D01*
X66505Y76995D01*
X67505D01*
X68005Y77495D01*
Y80995D02*Y77495D01*
X69205Y80495D02*X69705Y80995D01*
X70705D01*
X71205Y80495D01*
Y77495D01*
X70705Y76995D02*X71205Y77495D01*
X69705Y76995D02*X70705D01*
X69205Y77495D02*X69705Y76995D01*
Y78995D02*X71205D01*
X87697Y16551D02*X89197D01*
Y13051D01*
X88697Y12551D02*X89197Y13051D01*
X88197Y12551D02*X88697D01*
X87697Y13051D02*X88197Y12551D01*
X90397Y16051D02*X90897Y16551D01*
X91897D01*
X92397Y16051D01*
Y13051D01*
X91897Y12551D02*X92397Y13051D01*
X90897Y12551D02*X91897D01*
X90397Y13051D02*X90897Y12551D01*
Y14551D02*X92397D01*
X85500Y124000D02*X87000D01*
Y120500D01*
X86500Y120000D02*X87000Y120500D01*
X86000Y120000D02*X86500D01*
X85500Y120500D02*X86000Y120000D01*
X88700Y124000D02*Y120000D01*
X88200Y124000D02*X90200D01*
X90700Y123500D01*
Y122500D01*
X90200Y122000D02*X90700Y122500D01*
X88700Y122000D02*X90200D01*
X91900Y123500D02*X92400Y124000D01*
X93400D01*
X93900Y123500D01*
Y120500D01*
X93400Y120000D02*X93900Y120500D01*
X92400Y120000D02*X93400D01*
X91900Y120500D02*X92400Y120000D01*
Y122000D02*X93900D01*
X94300Y86400D02*Y82900D01*
X94800Y82400D01*
X95800D01*
X96300Y82900D01*
Y86400D02*Y82900D01*
X97500Y84400D02*X99500Y86400D01*
X97500Y84400D02*X100000D01*
X99500Y86400D02*Y82400D01*
X62807Y96150D02*X64307D01*
X62307Y96650D02*X62807Y96150D01*
X62307Y99650D02*Y96650D01*
Y99650D02*X62807Y100150D01*
X64307D01*
X65507Y99650D02*X66007Y100150D01*
X67007D01*
X67507Y99650D01*
Y96650D01*
X67007Y96150D02*X67507Y96650D01*
X66007Y96150D02*X67007D01*
X65507Y96650D02*X66007Y96150D01*
Y98150D02*X67507D01*
X32893Y102650D02*X34393D01*
X32393Y103150D02*X32893Y102650D01*
X32393Y106150D02*Y103150D01*
Y106150D02*X32893Y106650D01*
X34393D01*
X35593Y106150D02*X36093Y106650D01*
X37593D01*
X38093Y106150D01*
Y105150D01*
X35593Y102650D02*X38093Y105150D01*
X35593Y102650D02*X38093D01*
X109500Y142100D02*X111000D01*
X109000Y142600D02*X109500Y142100D01*
X109000Y145600D02*Y142600D01*
Y145600D02*X109500Y146100D01*
X111000D01*
X112200Y144100D02*X114200Y146100D01*
X112200Y144100D02*X114700D01*
X114200Y146100D02*Y142100D01*
X118500Y99000D02*X120000D01*
X118000Y99500D02*X118500Y99000D01*
X118000Y102500D02*Y99500D01*
Y102500D02*X118500Y103000D01*
X120000D01*
X121700Y99000D02*X122700D01*
X122200Y103000D02*Y99000D01*
X121200Y102000D02*X122200Y103000D01*
X124400Y99000D02*X125400D01*
X124900Y103000D02*Y99000D01*
X123900Y102000D02*X124900Y103000D01*
X104850Y156150D02*X106350D01*
X104350Y156650D02*X104850Y156150D01*
X104350Y159650D02*Y156650D01*
Y159650D02*X104850Y160150D01*
X106350D01*
X107550D02*X109550D01*
X107550D02*Y158150D01*
X108050Y158650D01*
X109050D01*
X109550Y158150D01*
Y156650D01*
X109050Y156150D02*X109550Y156650D01*
X108050Y156150D02*X109050D01*
X107550Y156650D02*X108050Y156150D01*
X94500Y180000D02*Y176500D01*
X95000Y176000D01*
X96000D01*
X96500Y176500D01*
Y180000D02*Y176500D01*
X98200Y176000D02*X99200D01*
X98700Y180000D02*Y176000D01*
X97700Y179000D02*X98700Y180000D01*
X148000Y159800D02*Y156300D01*
X148500Y155800D01*
X149500D01*
X150000Y156300D01*
Y159800D02*Y156300D01*
X151200Y159300D02*X151700Y159800D01*
X153200D01*
X153700Y159300D01*
Y158300D01*
X151200Y155800D02*X153700Y158300D01*
X151200Y155800D02*X153700D01*
X150414Y83500D02*X151914D01*
Y80000D01*
X151414Y79500D02*X151914Y80000D01*
X150914Y79500D02*X151414D01*
X150414Y80000D02*X150914Y79500D01*
X153614Y83500D02*Y79500D01*
X153114Y83500D02*X155114D01*
X155614Y83000D01*
Y82000D01*
X155114Y81500D02*X155614Y82000D01*
X153614Y81500D02*X155114D01*
X158314Y83500D02*X158814Y83000D01*
X157314Y83500D02*X158314D01*
X156814Y83000D02*X157314Y83500D01*
X156814Y83000D02*Y80000D01*
X157314Y79500D01*
X158314Y81500D02*X158814Y81000D01*
X156814Y81500D02*X158314D01*
X157314Y79500D02*X158314D01*
X158814Y80000D01*
Y81000D02*Y80000D01*
X182000Y238500D02*X183500D01*
Y235000D01*
X183000Y234500D02*X183500Y235000D01*
X182500Y234500D02*X183000D01*
X182000Y235000D02*X182500Y234500D01*
X185200Y238500D02*Y234500D01*
X184700Y238500D02*X186700D01*
X187200Y238000D01*
Y237000D01*
X186700Y236500D02*X187200Y237000D01*
X185200Y236500D02*X186700D01*
X188900Y234500D02*X189900D01*
X189400Y238500D02*Y234500D01*
X188400Y237500D02*X189400Y238500D01*
X137152Y231075D02*X139152D01*
X139652Y230575D01*
Y229575D01*
X139152Y229075D02*X139652Y229575D01*
X137652Y229075D02*X139152D01*
X137652Y231075D02*Y227075D01*
Y229075D02*X139652Y227075D01*
X141352D02*X142352D01*
X141852Y231075D02*Y227075D01*
X140852Y230075D02*X141852Y231075D01*
X185500Y206500D02*X187000D01*
Y203000D01*
X186500Y202500D02*X187000Y203000D01*
X186000Y202500D02*X186500D01*
X185500Y203000D02*X186000Y202500D01*
X188200Y206000D02*X188700Y206500D01*
X190200D01*
X190700Y206000D01*
Y205000D01*
X188200Y202500D02*X190700Y205000D01*
X188200Y202500D02*X190700D01*
X147000Y215500D02*X148500D01*
Y212000D01*
X148000Y211500D02*X148500Y212000D01*
X147500Y211500D02*X148000D01*
X147000Y212000D02*X147500Y211500D01*
X150200Y215500D02*Y211500D01*
X149700Y215500D02*X151700D01*
X152200Y215000D01*
Y214000D01*
X151700Y213500D02*X152200Y214000D01*
X150200Y213500D02*X151700D01*
X153400Y215000D02*X153900Y215500D01*
X155400D01*
X155900Y215000D01*
Y214000D01*
X153400Y211500D02*X155900Y214000D01*
X153400Y211500D02*X155900D01*
X171000Y169000D02*X172500D01*
X170500Y169500D02*X171000Y169000D01*
X170500Y172500D02*Y169500D01*
Y172500D02*X171000Y173000D01*
X172500D01*
X174200Y169000D02*X175200D01*
X174700Y173000D02*Y169000D01*
X173700Y172000D02*X174700Y173000D01*
X176400Y169500D02*X176900Y169000D01*
X176400Y172500D02*Y169500D01*
Y172500D02*X176900Y173000D01*
X177900D01*
X178400Y172500D01*
Y169500D01*
X177900Y169000D02*X178400Y169500D01*
X176900Y169000D02*X177900D01*
X176400Y170000D02*X178400Y172000D01*
X161212Y27150D02*X163212D01*
X163712Y26650D01*
Y25650D01*
X163212Y25150D02*X163712Y25650D01*
X161712Y25150D02*X163212D01*
X161712Y27150D02*Y23150D01*
Y25150D02*X163712Y23150D01*
X164912Y27150D02*X166912D01*
X164912D02*Y25150D01*
X165412Y25650D01*
X166412D01*
X166912Y25150D01*
Y23650D01*
X166412Y23150D02*X166912Y23650D01*
X165412Y23150D02*X166412D01*
X164912Y23650D02*X165412Y23150D01*
X131850Y34150D02*Y30150D01*
X133350Y34150D02*X133850Y33650D01*
Y30650D01*
X133350Y30150D02*X133850Y30650D01*
X131350Y30150D02*X133350D01*
X131350Y34150D02*X133350D01*
X135550Y30150D02*X136550D01*
X136050Y34150D02*Y30150D01*
X135050Y33150D02*X136050Y34150D01*
M02*
