G04 start of page 3 for group 1 idx 1 *
G04 Title: (unknown), solder *
G04 Creator: pcb 20140316 *
G04 CreationDate: Sun 31 Mar 2019 02:17:39 PM GMT UTC *
G04 For: railfan *
G04 Format: Gerber/RS-274X *
G04 PCB-Dimensions (mil): 2100.00 2700.00 *
G04 PCB-Coordinate-Origin: lower left *
%MOIN*%
%FSLAX25Y25*%
%LNBOTTOM*%
%ADD47C,0.0480*%
%ADD46C,0.1285*%
%ADD45C,0.0380*%
%ADD44C,0.0200*%
%ADD43R,0.0300X0.0300*%
%ADD42C,0.0800*%
%ADD41C,0.0600*%
%ADD40C,0.1500*%
%ADD39C,0.0660*%
%ADD38C,0.0400*%
%ADD37C,0.0500*%
%ADD36C,0.0100*%
%ADD35C,0.0001*%
G54D35*G36*
X13876Y115000D02*X22500D01*
Y95000D01*
X13876D01*
Y97635D01*
X13978Y97666D01*
X14085Y97717D01*
X14182Y97784D01*
X14267Y97866D01*
X14339Y97960D01*
X14392Y98065D01*
X14557Y98476D01*
X14678Y98902D01*
X14759Y99337D01*
X14800Y99778D01*
Y100222D01*
X14759Y100663D01*
X14678Y101098D01*
X14557Y101524D01*
X14397Y101937D01*
X14342Y102042D01*
X14270Y102137D01*
X14184Y102219D01*
X14087Y102286D01*
X13980Y102338D01*
X13876Y102369D01*
Y107635D01*
X13978Y107666D01*
X14085Y107717D01*
X14182Y107784D01*
X14267Y107866D01*
X14339Y107960D01*
X14392Y108065D01*
X14557Y108476D01*
X14678Y108902D01*
X14759Y109337D01*
X14800Y109778D01*
Y110222D01*
X14759Y110663D01*
X14678Y111098D01*
X14557Y111524D01*
X14397Y111937D01*
X14342Y112042D01*
X14270Y112137D01*
X14184Y112219D01*
X14087Y112286D01*
X13980Y112338D01*
X13876Y112369D01*
Y115000D01*
G37*
G36*
X10002D02*X13876D01*
Y112369D01*
X13866Y112372D01*
X13749Y112388D01*
X13630Y112385D01*
X13513Y112364D01*
X13401Y112325D01*
X13297Y112268D01*
X13203Y112197D01*
X13121Y112111D01*
X13053Y112013D01*
X13002Y111907D01*
X12967Y111793D01*
X12952Y111675D01*
X12954Y111557D01*
X12975Y111440D01*
X13017Y111329D01*
X13130Y111047D01*
X13213Y110754D01*
X13268Y110455D01*
X13296Y110152D01*
Y109848D01*
X13268Y109545D01*
X13213Y109246D01*
X13130Y108953D01*
X13020Y108669D01*
X12979Y108559D01*
X12958Y108443D01*
X12955Y108325D01*
X12971Y108208D01*
X13005Y108095D01*
X13056Y107988D01*
X13123Y107891D01*
X13205Y107806D01*
X13299Y107734D01*
X13403Y107679D01*
X13514Y107640D01*
X13630Y107618D01*
X13748Y107616D01*
X13865Y107632D01*
X13876Y107635D01*
Y102369D01*
X13866Y102372D01*
X13749Y102388D01*
X13630Y102385D01*
X13513Y102364D01*
X13401Y102325D01*
X13297Y102268D01*
X13203Y102197D01*
X13121Y102111D01*
X13053Y102013D01*
X13002Y101907D01*
X12967Y101793D01*
X12952Y101675D01*
X12954Y101557D01*
X12975Y101440D01*
X13017Y101329D01*
X13130Y101047D01*
X13213Y100754D01*
X13268Y100455D01*
X13296Y100152D01*
Y99848D01*
X13268Y99545D01*
X13213Y99246D01*
X13130Y98953D01*
X13020Y98669D01*
X12979Y98559D01*
X12958Y98443D01*
X12955Y98325D01*
X12971Y98208D01*
X13005Y98095D01*
X13056Y97988D01*
X13123Y97891D01*
X13205Y97806D01*
X13299Y97734D01*
X13403Y97679D01*
X13514Y97640D01*
X13630Y97618D01*
X13748Y97616D01*
X13865Y97632D01*
X13876Y97635D01*
Y95000D01*
X10002D01*
Y95200D01*
X10222D01*
X10663Y95241D01*
X11098Y95322D01*
X11524Y95443D01*
X11937Y95603D01*
X12042Y95658D01*
X12137Y95730D01*
X12219Y95816D01*
X12286Y95913D01*
X12338Y96020D01*
X12372Y96134D01*
X12388Y96251D01*
X12385Y96370D01*
X12364Y96487D01*
X12325Y96599D01*
X12268Y96703D01*
X12197Y96797D01*
X12111Y96879D01*
X12013Y96947D01*
X11907Y96998D01*
X11793Y97033D01*
X11675Y97048D01*
X11557Y97046D01*
X11440Y97025D01*
X11329Y96983D01*
X11047Y96870D01*
X10754Y96787D01*
X10455Y96732D01*
X10152Y96704D01*
X10002D01*
Y103296D01*
X10152D01*
X10455Y103268D01*
X10754Y103213D01*
X11047Y103130D01*
X11331Y103020D01*
X11441Y102979D01*
X11557Y102958D01*
X11675Y102955D01*
X11792Y102971D01*
X11905Y103005D01*
X12012Y103056D01*
X12109Y103123D01*
X12194Y103205D01*
X12266Y103299D01*
X12321Y103403D01*
X12360Y103514D01*
X12382Y103630D01*
X12384Y103748D01*
X12368Y103865D01*
X12334Y103978D01*
X12283Y104085D01*
X12216Y104182D01*
X12134Y104267D01*
X12040Y104339D01*
X11935Y104392D01*
X11524Y104557D01*
X11098Y104678D01*
X10663Y104759D01*
X10222Y104800D01*
X10002D01*
Y105200D01*
X10222D01*
X10663Y105241D01*
X11098Y105322D01*
X11524Y105443D01*
X11937Y105603D01*
X12042Y105658D01*
X12137Y105730D01*
X12219Y105816D01*
X12286Y105913D01*
X12338Y106020D01*
X12372Y106134D01*
X12388Y106251D01*
X12385Y106370D01*
X12364Y106487D01*
X12325Y106599D01*
X12268Y106703D01*
X12197Y106797D01*
X12111Y106879D01*
X12013Y106947D01*
X11907Y106998D01*
X11793Y107033D01*
X11675Y107048D01*
X11557Y107046D01*
X11440Y107025D01*
X11329Y106983D01*
X11047Y106870D01*
X10754Y106787D01*
X10455Y106732D01*
X10152Y106704D01*
X10002D01*
Y113296D01*
X10152D01*
X10455Y113268D01*
X10754Y113213D01*
X11047Y113130D01*
X11331Y113020D01*
X11441Y112979D01*
X11557Y112958D01*
X11675Y112955D01*
X11792Y112971D01*
X11905Y113005D01*
X12012Y113056D01*
X12109Y113123D01*
X12194Y113205D01*
X12266Y113299D01*
X12321Y113403D01*
X12360Y113514D01*
X12382Y113630D01*
X12384Y113748D01*
X12368Y113865D01*
X12334Y113978D01*
X12283Y114085D01*
X12216Y114182D01*
X12134Y114267D01*
X12040Y114339D01*
X11935Y114392D01*
X11524Y114557D01*
X11098Y114678D01*
X10663Y114759D01*
X10222Y114800D01*
X10002D01*
Y115000D01*
G37*
G36*
X6124D02*X10002D01*
Y114800D01*
X9778D01*
X9337Y114759D01*
X8902Y114678D01*
X8476Y114557D01*
X8063Y114397D01*
X7958Y114342D01*
X7863Y114270D01*
X7781Y114184D01*
X7714Y114087D01*
X7662Y113980D01*
X7628Y113866D01*
X7612Y113749D01*
X7615Y113630D01*
X7636Y113513D01*
X7675Y113401D01*
X7732Y113297D01*
X7803Y113203D01*
X7889Y113121D01*
X7987Y113053D01*
X8093Y113002D01*
X8207Y112967D01*
X8325Y112952D01*
X8443Y112954D01*
X8560Y112975D01*
X8671Y113017D01*
X8953Y113130D01*
X9246Y113213D01*
X9545Y113268D01*
X9848Y113296D01*
X10002D01*
Y106704D01*
X9848D01*
X9545Y106732D01*
X9246Y106787D01*
X8953Y106870D01*
X8669Y106980D01*
X8559Y107021D01*
X8443Y107042D01*
X8325Y107045D01*
X8208Y107029D01*
X8095Y106995D01*
X7988Y106944D01*
X7891Y106877D01*
X7806Y106795D01*
X7734Y106701D01*
X7679Y106597D01*
X7640Y106486D01*
X7618Y106370D01*
X7616Y106252D01*
X7632Y106135D01*
X7666Y106022D01*
X7717Y105915D01*
X7784Y105818D01*
X7866Y105733D01*
X7960Y105661D01*
X8065Y105608D01*
X8476Y105443D01*
X8902Y105322D01*
X9337Y105241D01*
X9778Y105200D01*
X10002D01*
Y104800D01*
X9778D01*
X9337Y104759D01*
X8902Y104678D01*
X8476Y104557D01*
X8063Y104397D01*
X7958Y104342D01*
X7863Y104270D01*
X7781Y104184D01*
X7714Y104087D01*
X7662Y103980D01*
X7628Y103866D01*
X7612Y103749D01*
X7615Y103630D01*
X7636Y103513D01*
X7675Y103401D01*
X7732Y103297D01*
X7803Y103203D01*
X7889Y103121D01*
X7987Y103053D01*
X8093Y103002D01*
X8207Y102967D01*
X8325Y102952D01*
X8443Y102954D01*
X8560Y102975D01*
X8671Y103017D01*
X8953Y103130D01*
X9246Y103213D01*
X9545Y103268D01*
X9848Y103296D01*
X10002D01*
Y96704D01*
X9848D01*
X9545Y96732D01*
X9246Y96787D01*
X8953Y96870D01*
X8669Y96980D01*
X8559Y97021D01*
X8443Y97042D01*
X8325Y97045D01*
X8208Y97029D01*
X8095Y96995D01*
X7988Y96944D01*
X7891Y96877D01*
X7806Y96795D01*
X7734Y96701D01*
X7679Y96597D01*
X7640Y96486D01*
X7618Y96370D01*
X7616Y96252D01*
X7632Y96135D01*
X7666Y96022D01*
X7717Y95915D01*
X7784Y95818D01*
X7866Y95733D01*
X7960Y95661D01*
X8065Y95608D01*
X8476Y95443D01*
X8902Y95322D01*
X9337Y95241D01*
X9778Y95200D01*
X10002D01*
Y95000D01*
X6124D01*
Y97631D01*
X6134Y97628D01*
X6251Y97612D01*
X6370Y97615D01*
X6487Y97636D01*
X6599Y97675D01*
X6703Y97732D01*
X6797Y97803D01*
X6879Y97889D01*
X6947Y97987D01*
X6998Y98093D01*
X7033Y98207D01*
X7048Y98325D01*
X7046Y98443D01*
X7025Y98560D01*
X6983Y98671D01*
X6870Y98953D01*
X6787Y99246D01*
X6732Y99545D01*
X6704Y99848D01*
Y100152D01*
X6732Y100455D01*
X6787Y100754D01*
X6870Y101047D01*
X6980Y101331D01*
X7021Y101441D01*
X7042Y101557D01*
X7045Y101675D01*
X7029Y101792D01*
X6995Y101905D01*
X6944Y102012D01*
X6877Y102109D01*
X6795Y102194D01*
X6701Y102266D01*
X6597Y102321D01*
X6486Y102360D01*
X6370Y102382D01*
X6252Y102384D01*
X6135Y102368D01*
X6124Y102365D01*
Y107631D01*
X6134Y107628D01*
X6251Y107612D01*
X6370Y107615D01*
X6487Y107636D01*
X6599Y107675D01*
X6703Y107732D01*
X6797Y107803D01*
X6879Y107889D01*
X6947Y107987D01*
X6998Y108093D01*
X7033Y108207D01*
X7048Y108325D01*
X7046Y108443D01*
X7025Y108560D01*
X6983Y108671D01*
X6870Y108953D01*
X6787Y109246D01*
X6732Y109545D01*
X6704Y109848D01*
Y110152D01*
X6732Y110455D01*
X6787Y110754D01*
X6870Y111047D01*
X6980Y111331D01*
X7021Y111441D01*
X7042Y111557D01*
X7045Y111675D01*
X7029Y111792D01*
X6995Y111905D01*
X6944Y112012D01*
X6877Y112109D01*
X6795Y112194D01*
X6701Y112266D01*
X6597Y112321D01*
X6486Y112360D01*
X6370Y112382D01*
X6252Y112384D01*
X6135Y112368D01*
X6124Y112365D01*
Y115000D01*
G37*
G36*
X4500D02*X6124D01*
Y112365D01*
X6022Y112334D01*
X5915Y112283D01*
X5818Y112216D01*
X5733Y112134D01*
X5661Y112040D01*
X5608Y111935D01*
X5443Y111524D01*
X5322Y111098D01*
X5241Y110663D01*
X5200Y110222D01*
Y109778D01*
X5241Y109337D01*
X5322Y108902D01*
X5443Y108476D01*
X5603Y108063D01*
X5658Y107958D01*
X5730Y107863D01*
X5816Y107781D01*
X5913Y107714D01*
X6020Y107662D01*
X6124Y107631D01*
Y102365D01*
X6022Y102334D01*
X5915Y102283D01*
X5818Y102216D01*
X5733Y102134D01*
X5661Y102040D01*
X5608Y101935D01*
X5443Y101524D01*
X5322Y101098D01*
X5241Y100663D01*
X5200Y100222D01*
Y99778D01*
X5241Y99337D01*
X5322Y98902D01*
X5443Y98476D01*
X5603Y98063D01*
X5658Y97958D01*
X5730Y97863D01*
X5816Y97781D01*
X5913Y97714D01*
X6020Y97662D01*
X6124Y97631D01*
Y95000D01*
X4500D01*
Y115000D01*
G37*
G36*
X161245Y163500D02*X166901D01*
X167065Y163231D01*
X167372Y162872D01*
X167731Y162565D01*
X168134Y162319D01*
X168570Y162138D01*
X169029Y162028D01*
X169500Y161991D01*
X169971Y162028D01*
X170430Y162138D01*
X170866Y162319D01*
X171269Y162565D01*
X171628Y162872D01*
X171935Y163231D01*
X172181Y163634D01*
X172362Y164070D01*
X172472Y164529D01*
X172500Y165000D01*
X172472Y165471D01*
X172362Y165930D01*
X172181Y166366D01*
X171935Y166769D01*
X171628Y167128D01*
X171269Y167435D01*
X170866Y167681D01*
X170430Y167862D01*
X169971Y167972D01*
X169500Y168009D01*
X169029Y167972D01*
X168570Y167862D01*
X168134Y167681D01*
X167731Y167435D01*
X167372Y167128D01*
X167065Y166769D01*
X166901Y166500D01*
X161245D01*
Y177000D01*
X187379D01*
X188500Y175879D01*
Y34621D01*
X185379Y31500D01*
X161245D01*
Y163500D01*
G37*
G36*
X199993Y201474D02*X200000Y201474D01*
X201334Y201579D01*
X202635Y201891D01*
X203871Y202403D01*
X205012Y203102D01*
X206029Y203971D01*
X206898Y204988D01*
X207500Y205971D01*
Y12500D01*
X199993D01*
Y15186D01*
X200000Y15185D01*
X200753Y15244D01*
X201488Y15421D01*
X202186Y15710D01*
X202830Y16105D01*
X203405Y16595D01*
X203895Y17170D01*
X204290Y17814D01*
X204579Y18512D01*
X204756Y19247D01*
X204800Y20000D01*
X204756Y20753D01*
X204579Y21488D01*
X204290Y22186D01*
X203895Y22830D01*
X203405Y23405D01*
X202830Y23895D01*
X202186Y24290D01*
X201488Y24579D01*
X200753Y24756D01*
X200000Y24815D01*
X199993Y24814D01*
Y25186D01*
X200000Y25185D01*
X200753Y25244D01*
X201488Y25421D01*
X202186Y25710D01*
X202830Y26105D01*
X203405Y26595D01*
X203895Y27170D01*
X204290Y27814D01*
X204579Y28512D01*
X204756Y29247D01*
X204800Y30000D01*
X204756Y30753D01*
X204579Y31488D01*
X204290Y32186D01*
X203895Y32830D01*
X203405Y33405D01*
X202830Y33895D01*
X202186Y34290D01*
X201488Y34579D01*
X200753Y34756D01*
X200000Y34815D01*
X199993Y34814D01*
Y35186D01*
X200000Y35185D01*
X200753Y35244D01*
X201488Y35421D01*
X202186Y35710D01*
X202830Y36105D01*
X203405Y36595D01*
X203895Y37170D01*
X204290Y37814D01*
X204579Y38512D01*
X204756Y39247D01*
X204800Y40000D01*
X204756Y40753D01*
X204579Y41488D01*
X204290Y42186D01*
X203895Y42830D01*
X203405Y43405D01*
X202830Y43895D01*
X202186Y44290D01*
X201488Y44579D01*
X200753Y44756D01*
X200000Y44815D01*
X199993Y44814D01*
Y45186D01*
X200000Y45185D01*
X200753Y45244D01*
X201488Y45421D01*
X202186Y45710D01*
X202830Y46105D01*
X203405Y46595D01*
X203895Y47170D01*
X204290Y47814D01*
X204579Y48512D01*
X204756Y49247D01*
X204800Y50000D01*
X204756Y50753D01*
X204579Y51488D01*
X204290Y52186D01*
X203895Y52830D01*
X203405Y53405D01*
X202830Y53895D01*
X202186Y54290D01*
X201488Y54579D01*
X200753Y54756D01*
X200000Y54815D01*
X199993Y54814D01*
Y55186D01*
X200000Y55185D01*
X200753Y55244D01*
X201488Y55421D01*
X202186Y55710D01*
X202830Y56105D01*
X203405Y56595D01*
X203895Y57170D01*
X204290Y57814D01*
X204579Y58512D01*
X204756Y59247D01*
X204800Y60000D01*
X204756Y60753D01*
X204579Y61488D01*
X204290Y62186D01*
X203895Y62830D01*
X203405Y63405D01*
X202830Y63895D01*
X202186Y64290D01*
X201488Y64579D01*
X200753Y64756D01*
X200000Y64815D01*
X199993Y64814D01*
Y65186D01*
X200000Y65185D01*
X200753Y65244D01*
X201488Y65421D01*
X202186Y65710D01*
X202830Y66105D01*
X203405Y66595D01*
X203895Y67170D01*
X204290Y67814D01*
X204579Y68512D01*
X204756Y69247D01*
X204800Y70000D01*
X204756Y70753D01*
X204579Y71488D01*
X204290Y72186D01*
X203895Y72830D01*
X203405Y73405D01*
X202830Y73895D01*
X202186Y74290D01*
X201488Y74579D01*
X200753Y74756D01*
X200000Y74815D01*
X199993Y74814D01*
Y75186D01*
X200000Y75185D01*
X200753Y75244D01*
X201488Y75421D01*
X202186Y75710D01*
X202830Y76105D01*
X203405Y76595D01*
X203895Y77170D01*
X204290Y77814D01*
X204579Y78512D01*
X204756Y79247D01*
X204800Y80000D01*
X204756Y80753D01*
X204579Y81488D01*
X204290Y82186D01*
X203895Y82830D01*
X203405Y83405D01*
X202830Y83895D01*
X202186Y84290D01*
X201488Y84579D01*
X200753Y84756D01*
X200000Y84815D01*
X199993Y84814D01*
Y85186D01*
X200000Y85185D01*
X200753Y85244D01*
X201488Y85421D01*
X202186Y85710D01*
X202830Y86105D01*
X203405Y86595D01*
X203895Y87170D01*
X204290Y87814D01*
X204579Y88512D01*
X204756Y89247D01*
X204800Y90000D01*
X204756Y90753D01*
X204579Y91488D01*
X204290Y92186D01*
X203895Y92830D01*
X203405Y93405D01*
X202830Y93895D01*
X202186Y94290D01*
X201488Y94579D01*
X200753Y94756D01*
X200000Y94815D01*
X199993Y94814D01*
Y101186D01*
X200000Y101185D01*
X200753Y101244D01*
X201488Y101421D01*
X202186Y101710D01*
X202830Y102105D01*
X203405Y102595D01*
X203895Y103170D01*
X204290Y103814D01*
X204579Y104512D01*
X204756Y105247D01*
X204800Y106000D01*
X204756Y106753D01*
X204579Y107488D01*
X204290Y108186D01*
X203895Y108830D01*
X203405Y109405D01*
X202830Y109895D01*
X202186Y110290D01*
X201488Y110579D01*
X200753Y110756D01*
X200000Y110815D01*
X199993Y110814D01*
Y111186D01*
X200000Y111185D01*
X200753Y111244D01*
X201488Y111421D01*
X202186Y111710D01*
X202830Y112105D01*
X203405Y112595D01*
X203895Y113170D01*
X204290Y113814D01*
X204579Y114512D01*
X204756Y115247D01*
X204800Y116000D01*
X204756Y116753D01*
X204579Y117488D01*
X204290Y118186D01*
X203895Y118830D01*
X203405Y119405D01*
X202830Y119895D01*
X202186Y120290D01*
X201488Y120579D01*
X200753Y120756D01*
X200000Y120815D01*
X199993Y120814D01*
Y121186D01*
X200000Y121185D01*
X200753Y121244D01*
X201488Y121421D01*
X202186Y121710D01*
X202830Y122105D01*
X203405Y122595D01*
X203895Y123170D01*
X204290Y123814D01*
X204579Y124512D01*
X204756Y125247D01*
X204800Y126000D01*
X204756Y126753D01*
X204579Y127488D01*
X204290Y128186D01*
X203895Y128830D01*
X203405Y129405D01*
X202830Y129895D01*
X202186Y130290D01*
X201488Y130579D01*
X200753Y130756D01*
X200000Y130815D01*
X199993Y130814D01*
Y131186D01*
X200000Y131185D01*
X200753Y131244D01*
X201488Y131421D01*
X202186Y131710D01*
X202830Y132105D01*
X203405Y132595D01*
X203895Y133170D01*
X204290Y133814D01*
X204579Y134512D01*
X204756Y135247D01*
X204800Y136000D01*
X204756Y136753D01*
X204579Y137488D01*
X204290Y138186D01*
X203895Y138830D01*
X203405Y139405D01*
X202830Y139895D01*
X202186Y140290D01*
X201488Y140579D01*
X200753Y140756D01*
X200000Y140815D01*
X199993Y140814D01*
Y141186D01*
X200000Y141185D01*
X200753Y141244D01*
X201488Y141421D01*
X202186Y141710D01*
X202830Y142105D01*
X203405Y142595D01*
X203895Y143170D01*
X204290Y143814D01*
X204579Y144512D01*
X204756Y145247D01*
X204800Y146000D01*
X204756Y146753D01*
X204579Y147488D01*
X204290Y148186D01*
X203895Y148830D01*
X203405Y149405D01*
X202830Y149895D01*
X202186Y150290D01*
X201488Y150579D01*
X200753Y150756D01*
X200000Y150815D01*
X199993Y150814D01*
Y151186D01*
X200000Y151185D01*
X200753Y151244D01*
X201488Y151421D01*
X202186Y151710D01*
X202830Y152105D01*
X203405Y152595D01*
X203895Y153170D01*
X204290Y153814D01*
X204579Y154512D01*
X204756Y155247D01*
X204800Y156000D01*
X204756Y156753D01*
X204579Y157488D01*
X204290Y158186D01*
X203895Y158830D01*
X203405Y159405D01*
X202830Y159895D01*
X202186Y160290D01*
X201488Y160579D01*
X200753Y160756D01*
X200000Y160815D01*
X199993Y160814D01*
Y161186D01*
X200000Y161185D01*
X200753Y161244D01*
X201488Y161421D01*
X202186Y161710D01*
X202830Y162105D01*
X203405Y162595D01*
X203895Y163170D01*
X204290Y163814D01*
X204579Y164512D01*
X204756Y165247D01*
X204800Y166000D01*
X204756Y166753D01*
X204579Y167488D01*
X204290Y168186D01*
X203895Y168830D01*
X203405Y169405D01*
X202830Y169895D01*
X202186Y170290D01*
X201488Y170579D01*
X200753Y170756D01*
X200000Y170815D01*
X199993Y170814D01*
Y171186D01*
X200000Y171185D01*
X200753Y171244D01*
X201488Y171421D01*
X202186Y171710D01*
X202830Y172105D01*
X203405Y172595D01*
X203895Y173170D01*
X204290Y173814D01*
X204579Y174512D01*
X204756Y175247D01*
X204800Y176000D01*
X204756Y176753D01*
X204579Y177488D01*
X204290Y178186D01*
X203895Y178830D01*
X203405Y179405D01*
X202830Y179895D01*
X202186Y180290D01*
X201488Y180579D01*
X200753Y180756D01*
X200000Y180815D01*
X199993Y180814D01*
Y181186D01*
X200000Y181185D01*
X200753Y181244D01*
X201488Y181421D01*
X202186Y181710D01*
X202830Y182105D01*
X203405Y182595D01*
X203895Y183170D01*
X204290Y183814D01*
X204579Y184512D01*
X204756Y185247D01*
X204800Y186000D01*
X204756Y186753D01*
X204579Y187488D01*
X204290Y188186D01*
X203895Y188830D01*
X203405Y189405D01*
X202830Y189895D01*
X202186Y190290D01*
X201488Y190579D01*
X200753Y190756D01*
X200000Y190815D01*
X199993Y190814D01*
Y191186D01*
X200000Y191185D01*
X200753Y191244D01*
X201488Y191421D01*
X202186Y191710D01*
X202830Y192105D01*
X203405Y192595D01*
X203895Y193170D01*
X204290Y193814D01*
X204579Y194512D01*
X204756Y195247D01*
X204800Y196000D01*
X204756Y196753D01*
X204579Y197488D01*
X204290Y198186D01*
X203895Y198830D01*
X203405Y199405D01*
X202830Y199895D01*
X202186Y200290D01*
X201488Y200579D01*
X200753Y200756D01*
X200000Y200815D01*
X199993Y200814D01*
Y201474D01*
G37*
G36*
Y267500D02*X207500D01*
Y214029D01*
X206898Y215012D01*
X206029Y216029D01*
X205012Y216898D01*
X203871Y217597D01*
X202635Y218109D01*
X201334Y218421D01*
X200000Y218526D01*
X199993Y218526D01*
Y267500D01*
G37*
G36*
Y190814D02*X199247Y190756D01*
X198512Y190579D01*
X197814Y190290D01*
X197170Y189895D01*
X196595Y189405D01*
X196105Y188830D01*
X195710Y188186D01*
X195426Y187500D01*
X193059D01*
X193000Y187505D01*
X192765Y187486D01*
X192535Y187431D01*
X192317Y187341D01*
X192116Y187217D01*
X192115Y187217D01*
X191936Y187064D01*
X191898Y187019D01*
X190879Y186000D01*
X187895D01*
Y198983D01*
X191898Y194981D01*
X191936Y194936D01*
X192116Y194783D01*
X192317Y194659D01*
X192535Y194569D01*
X192765Y194514D01*
X193000Y194495D01*
X193059Y194500D01*
X195426D01*
X195710Y193814D01*
X196105Y193170D01*
X196595Y192595D01*
X197170Y192105D01*
X197814Y191710D01*
X198512Y191421D01*
X199247Y191244D01*
X199993Y191186D01*
Y190814D01*
G37*
G36*
Y12500D02*X187895D01*
Y25792D01*
X188064Y25936D01*
X188102Y25981D01*
X193019Y30898D01*
X193064Y30936D01*
X193217Y31115D01*
X193217Y31116D01*
X193341Y31317D01*
X193431Y31535D01*
X193486Y31765D01*
X193505Y32000D01*
X193500Y32059D01*
Y177441D01*
X193505Y177500D01*
X193486Y177735D01*
X193431Y177965D01*
X193341Y178183D01*
X193217Y178384D01*
X193064Y178564D01*
X193019Y178602D01*
X190102Y181519D01*
X190064Y181564D01*
X189884Y181717D01*
X189683Y181841D01*
X189465Y181931D01*
X189235Y181986D01*
X189000Y182005D01*
X188941Y182000D01*
X187895D01*
Y183000D01*
X191441D01*
X191500Y182995D01*
X191735Y183014D01*
X191735Y183014D01*
X191965Y183069D01*
X192183Y183159D01*
X192384Y183283D01*
X192564Y183436D01*
X192602Y183481D01*
X193621Y184500D01*
X195426D01*
X195710Y183814D01*
X196105Y183170D01*
X196595Y182595D01*
X197170Y182105D01*
X197814Y181710D01*
X198512Y181421D01*
X199247Y181244D01*
X199993Y181186D01*
Y180814D01*
X199247Y180756D01*
X198512Y180579D01*
X197814Y180290D01*
X197170Y179895D01*
X196595Y179405D01*
X196105Y178830D01*
X195710Y178186D01*
X195421Y177488D01*
X195244Y176753D01*
X195185Y176000D01*
X195244Y175247D01*
X195421Y174512D01*
X195710Y173814D01*
X196105Y173170D01*
X196595Y172595D01*
X197170Y172105D01*
X197814Y171710D01*
X198512Y171421D01*
X199247Y171244D01*
X199993Y171186D01*
Y170814D01*
X199247Y170756D01*
X198512Y170579D01*
X197814Y170290D01*
X197170Y169895D01*
X196595Y169405D01*
X196105Y168830D01*
X195710Y168186D01*
X195421Y167488D01*
X195244Y166753D01*
X195185Y166000D01*
X195244Y165247D01*
X195421Y164512D01*
X195710Y163814D01*
X196105Y163170D01*
X196595Y162595D01*
X197170Y162105D01*
X197814Y161710D01*
X198512Y161421D01*
X199247Y161244D01*
X199993Y161186D01*
Y160814D01*
X199247Y160756D01*
X198512Y160579D01*
X197814Y160290D01*
X197170Y159895D01*
X196595Y159405D01*
X196105Y158830D01*
X195710Y158186D01*
X195421Y157488D01*
X195244Y156753D01*
X195185Y156000D01*
X195244Y155247D01*
X195421Y154512D01*
X195710Y153814D01*
X196105Y153170D01*
X196595Y152595D01*
X197170Y152105D01*
X197814Y151710D01*
X198512Y151421D01*
X199247Y151244D01*
X199993Y151186D01*
Y150814D01*
X199247Y150756D01*
X198512Y150579D01*
X197814Y150290D01*
X197170Y149895D01*
X196595Y149405D01*
X196105Y148830D01*
X195710Y148186D01*
X195421Y147488D01*
X195244Y146753D01*
X195185Y146000D01*
X195244Y145247D01*
X195421Y144512D01*
X195710Y143814D01*
X196105Y143170D01*
X196595Y142595D01*
X197170Y142105D01*
X197814Y141710D01*
X198512Y141421D01*
X199247Y141244D01*
X199993Y141186D01*
Y140814D01*
X199247Y140756D01*
X198512Y140579D01*
X197814Y140290D01*
X197170Y139895D01*
X196595Y139405D01*
X196105Y138830D01*
X195710Y138186D01*
X195421Y137488D01*
X195244Y136753D01*
X195185Y136000D01*
X195244Y135247D01*
X195421Y134512D01*
X195710Y133814D01*
X196105Y133170D01*
X196595Y132595D01*
X197170Y132105D01*
X197814Y131710D01*
X198512Y131421D01*
X199247Y131244D01*
X199993Y131186D01*
Y130814D01*
X199247Y130756D01*
X198512Y130579D01*
X197814Y130290D01*
X197170Y129895D01*
X196595Y129405D01*
X196105Y128830D01*
X195710Y128186D01*
X195421Y127488D01*
X195244Y126753D01*
X195185Y126000D01*
X195244Y125247D01*
X195421Y124512D01*
X195710Y123814D01*
X196105Y123170D01*
X196595Y122595D01*
X197170Y122105D01*
X197814Y121710D01*
X198512Y121421D01*
X199247Y121244D01*
X199993Y121186D01*
Y120814D01*
X199247Y120756D01*
X198512Y120579D01*
X197814Y120290D01*
X197170Y119895D01*
X196595Y119405D01*
X196105Y118830D01*
X195710Y118186D01*
X195421Y117488D01*
X195244Y116753D01*
X195185Y116000D01*
X195244Y115247D01*
X195421Y114512D01*
X195710Y113814D01*
X196105Y113170D01*
X196595Y112595D01*
X197170Y112105D01*
X197814Y111710D01*
X198512Y111421D01*
X199247Y111244D01*
X199993Y111186D01*
Y110814D01*
X199247Y110756D01*
X198512Y110579D01*
X197814Y110290D01*
X197170Y109895D01*
X196595Y109405D01*
X196105Y108830D01*
X195710Y108186D01*
X195421Y107488D01*
X195244Y106753D01*
X195185Y106000D01*
X195244Y105247D01*
X195421Y104512D01*
X195710Y103814D01*
X196105Y103170D01*
X196595Y102595D01*
X197170Y102105D01*
X197814Y101710D01*
X198512Y101421D01*
X199247Y101244D01*
X199993Y101186D01*
Y94814D01*
X199247Y94756D01*
X198512Y94579D01*
X197814Y94290D01*
X197170Y93895D01*
X196595Y93405D01*
X196105Y92830D01*
X195710Y92186D01*
X195421Y91488D01*
X195244Y90753D01*
X195185Y90000D01*
X195244Y89247D01*
X195421Y88512D01*
X195710Y87814D01*
X196105Y87170D01*
X196595Y86595D01*
X197170Y86105D01*
X197814Y85710D01*
X198512Y85421D01*
X199247Y85244D01*
X199993Y85186D01*
Y84814D01*
X199247Y84756D01*
X198512Y84579D01*
X197814Y84290D01*
X197170Y83895D01*
X196595Y83405D01*
X196105Y82830D01*
X195710Y82186D01*
X195421Y81488D01*
X195244Y80753D01*
X195185Y80000D01*
X195244Y79247D01*
X195421Y78512D01*
X195710Y77814D01*
X196105Y77170D01*
X196595Y76595D01*
X197170Y76105D01*
X197814Y75710D01*
X198512Y75421D01*
X199247Y75244D01*
X199993Y75186D01*
Y74814D01*
X199247Y74756D01*
X198512Y74579D01*
X197814Y74290D01*
X197170Y73895D01*
X196595Y73405D01*
X196105Y72830D01*
X195710Y72186D01*
X195421Y71488D01*
X195244Y70753D01*
X195185Y70000D01*
X195244Y69247D01*
X195421Y68512D01*
X195710Y67814D01*
X196105Y67170D01*
X196595Y66595D01*
X197170Y66105D01*
X197814Y65710D01*
X198512Y65421D01*
X199247Y65244D01*
X199993Y65186D01*
Y64814D01*
X199247Y64756D01*
X198512Y64579D01*
X197814Y64290D01*
X197170Y63895D01*
X196595Y63405D01*
X196105Y62830D01*
X195710Y62186D01*
X195421Y61488D01*
X195244Y60753D01*
X195185Y60000D01*
X195244Y59247D01*
X195421Y58512D01*
X195710Y57814D01*
X196105Y57170D01*
X196595Y56595D01*
X197170Y56105D01*
X197814Y55710D01*
X198512Y55421D01*
X199247Y55244D01*
X199993Y55186D01*
Y54814D01*
X199247Y54756D01*
X198512Y54579D01*
X197814Y54290D01*
X197170Y53895D01*
X196595Y53405D01*
X196105Y52830D01*
X195710Y52186D01*
X195421Y51488D01*
X195244Y50753D01*
X195185Y50000D01*
X195244Y49247D01*
X195421Y48512D01*
X195710Y47814D01*
X196105Y47170D01*
X196595Y46595D01*
X197170Y46105D01*
X197814Y45710D01*
X198512Y45421D01*
X199247Y45244D01*
X199993Y45186D01*
Y44814D01*
X199247Y44756D01*
X198512Y44579D01*
X197814Y44290D01*
X197170Y43895D01*
X196595Y43405D01*
X196105Y42830D01*
X195710Y42186D01*
X195421Y41488D01*
X195244Y40753D01*
X195185Y40000D01*
X195244Y39247D01*
X195421Y38512D01*
X195710Y37814D01*
X196105Y37170D01*
X196595Y36595D01*
X197170Y36105D01*
X197814Y35710D01*
X198512Y35421D01*
X199247Y35244D01*
X199993Y35186D01*
Y34814D01*
X199247Y34756D01*
X198512Y34579D01*
X197814Y34290D01*
X197170Y33895D01*
X196595Y33405D01*
X196105Y32830D01*
X195710Y32186D01*
X195421Y31488D01*
X195244Y30753D01*
X195185Y30000D01*
X195244Y29247D01*
X195421Y28512D01*
X195710Y27814D01*
X196105Y27170D01*
X196595Y26595D01*
X197170Y26105D01*
X197814Y25710D01*
X198512Y25421D01*
X199247Y25244D01*
X199993Y25186D01*
Y24814D01*
X199247Y24756D01*
X198512Y24579D01*
X197814Y24290D01*
X197170Y23895D01*
X196595Y23405D01*
X196105Y22830D01*
X195710Y22186D01*
X195421Y21488D01*
X195244Y20753D01*
X195185Y20000D01*
X195244Y19247D01*
X195421Y18512D01*
X195710Y17814D01*
X196105Y17170D01*
X196595Y16595D01*
X197170Y16105D01*
X197814Y15710D01*
X198512Y15421D01*
X199247Y15244D01*
X199993Y15186D01*
Y12500D01*
G37*
G36*
X187895Y267500D02*X199993D01*
Y218526D01*
X198666Y218421D01*
X197365Y218109D01*
X196129Y217597D01*
X194988Y216898D01*
X193971Y216029D01*
X193102Y215012D01*
X192403Y213871D01*
X191891Y212635D01*
X191579Y211334D01*
X191474Y210000D01*
X191579Y208666D01*
X191891Y207365D01*
X192403Y206129D01*
X193102Y204988D01*
X193971Y203971D01*
X194988Y203102D01*
X196129Y202403D01*
X197365Y201891D01*
X198666Y201579D01*
X199993Y201474D01*
Y200814D01*
X199247Y200756D01*
X198512Y200579D01*
X197814Y200290D01*
X197170Y199895D01*
X196595Y199405D01*
X196105Y198830D01*
X195710Y198186D01*
X195426Y197500D01*
X193621D01*
X187895Y203226D01*
Y267500D01*
G37*
G36*
Y182000D02*X175662D01*
X175769Y182065D01*
X176128Y182372D01*
X176435Y182731D01*
X176599Y183000D01*
X187895D01*
Y182000D01*
G37*
G36*
Y12500D02*X161245D01*
Y25500D01*
X186941D01*
X187000Y25495D01*
X187235Y25514D01*
X187235Y25514D01*
X187465Y25569D01*
X187683Y25659D01*
X187884Y25783D01*
X187895Y25792D01*
Y12500D01*
G37*
G36*
X161245Y267500D02*X187895D01*
Y203226D01*
X187602Y203519D01*
X187564Y203564D01*
X187384Y203717D01*
X187183Y203841D01*
X186965Y203931D01*
X186735Y203986D01*
X186735Y203986D01*
X186500Y204005D01*
X186441Y204000D01*
X176599D01*
X176435Y204269D01*
X176128Y204628D01*
X175769Y204935D01*
X175366Y205181D01*
X174930Y205362D01*
X174471Y205472D01*
X174000Y205509D01*
X173529Y205472D01*
X173070Y205362D01*
X172634Y205181D01*
X172231Y204935D01*
X171872Y204628D01*
X171565Y204269D01*
X171319Y203866D01*
X171138Y203430D01*
X171028Y202971D01*
X170991Y202500D01*
X171028Y202029D01*
X171138Y201570D01*
X171319Y201134D01*
X171565Y200731D01*
X171872Y200372D01*
X172231Y200065D01*
X172634Y199819D01*
X173070Y199638D01*
X173529Y199528D01*
X174000Y199491D01*
X174471Y199528D01*
X174930Y199638D01*
X175366Y199819D01*
X175769Y200065D01*
X176128Y200372D01*
X176435Y200731D01*
X176599Y201000D01*
X185879D01*
X187895Y198983D01*
Y186000D01*
X176599D01*
X176435Y186269D01*
X176128Y186628D01*
X175769Y186935D01*
X175366Y187181D01*
X174930Y187362D01*
X174471Y187472D01*
X174000Y187509D01*
X173529Y187472D01*
X173070Y187362D01*
X172634Y187181D01*
X172231Y186935D01*
X171872Y186628D01*
X171565Y186269D01*
X171319Y185866D01*
X171138Y185430D01*
X171028Y184971D01*
X170991Y184500D01*
X171028Y184029D01*
X171138Y183570D01*
X171319Y183134D01*
X171565Y182731D01*
X171872Y182372D01*
X172231Y182065D01*
X172338Y182000D01*
X161245D01*
Y267500D01*
G37*
G36*
X119803Y25500D02*X161245D01*
Y12500D01*
X148141D01*
X148109Y12635D01*
X147597Y13871D01*
X146898Y15012D01*
X146029Y16029D01*
X145012Y16898D01*
X143871Y17597D01*
X142635Y18109D01*
X141334Y18421D01*
X140000Y18526D01*
X138666Y18421D01*
X137365Y18109D01*
X136129Y17597D01*
X134988Y16898D01*
X133971Y16029D01*
X133102Y15012D01*
X132403Y13871D01*
X131891Y12635D01*
X131859Y12500D01*
X123115D01*
X122995Y12641D01*
X122456Y13101D01*
X121852Y13471D01*
X121198Y13742D01*
X120509Y13907D01*
X119803Y13963D01*
Y14956D01*
X123039Y14963D01*
X123268Y15018D01*
X123486Y15108D01*
X123688Y15232D01*
X123867Y15385D01*
X124020Y15564D01*
X124144Y15766D01*
X124234Y15984D01*
X124289Y16213D01*
X124303Y16449D01*
X124289Y22684D01*
X124234Y22914D01*
X124144Y23132D01*
X124020Y23333D01*
X123867Y23513D01*
X123688Y23666D01*
X123486Y23789D01*
X123268Y23880D01*
X123039Y23935D01*
X122803Y23949D01*
X119803Y23942D01*
Y25500D01*
G37*
G36*
X109796D02*X119803D01*
Y23942D01*
X116568Y23935D01*
X116338Y23880D01*
X116120Y23789D01*
X115919Y23666D01*
X115739Y23513D01*
X115586Y23333D01*
X115463Y23132D01*
X115372Y22914D01*
X115317Y22684D01*
X115303Y22449D01*
X115317Y16213D01*
X115372Y15984D01*
X115463Y15766D01*
X115586Y15564D01*
X115739Y15385D01*
X115919Y15232D01*
X116120Y15108D01*
X116338Y15018D01*
X116568Y14963D01*
X116803Y14949D01*
X119803Y14956D01*
Y13963D01*
X119097Y13907D01*
X118408Y13742D01*
X117754Y13471D01*
X117150Y13101D01*
X116611Y12641D01*
X116491Y12500D01*
X113115D01*
X112995Y12641D01*
X112456Y13101D01*
X111852Y13471D01*
X111198Y13742D01*
X110509Y13907D01*
X109803Y13963D01*
X109796Y13962D01*
Y14935D01*
X109803Y14935D01*
X110509Y14991D01*
X111198Y15156D01*
X111852Y15427D01*
X112456Y15797D01*
X112995Y16257D01*
X113455Y16796D01*
X113825Y17400D01*
X114096Y18054D01*
X114261Y18743D01*
X114303Y19449D01*
X114261Y20155D01*
X114096Y20844D01*
X113825Y21498D01*
X113455Y22102D01*
X112995Y22641D01*
X112456Y23101D01*
X111852Y23471D01*
X111198Y23742D01*
X110509Y23907D01*
X109803Y23963D01*
X109796Y23962D01*
Y25500D01*
G37*
G36*
X99796D02*X109796D01*
Y23962D01*
X109097Y23907D01*
X108408Y23742D01*
X107754Y23471D01*
X107150Y23101D01*
X106611Y22641D01*
X106151Y22102D01*
X105781Y21498D01*
X105510Y20844D01*
X105345Y20155D01*
X105289Y19449D01*
X105345Y18743D01*
X105510Y18054D01*
X105781Y17400D01*
X106151Y16796D01*
X106611Y16257D01*
X107150Y15797D01*
X107754Y15427D01*
X108408Y15156D01*
X109097Y14991D01*
X109796Y14935D01*
Y13962D01*
X109097Y13907D01*
X108408Y13742D01*
X107754Y13471D01*
X107150Y13101D01*
X106611Y12641D01*
X106491Y12500D01*
X101832D01*
X101857Y12535D01*
X101910Y12641D01*
X101946Y12753D01*
X101963Y12870D01*
X101962Y12988D01*
X101943Y13105D01*
X101906Y13217D01*
X101851Y13322D01*
X101781Y13417D01*
X101697Y13499D01*
X101601Y13568D01*
X101495Y13619D01*
X101087Y13767D01*
X100666Y13871D01*
X100237Y13933D01*
X99803Y13954D01*
X99796Y13954D01*
Y14935D01*
X99803Y14935D01*
X100509Y14991D01*
X101198Y15156D01*
X101852Y15427D01*
X102456Y15797D01*
X102995Y16257D01*
X103455Y16796D01*
X103825Y17400D01*
X104096Y18054D01*
X104261Y18743D01*
X104303Y19449D01*
X104261Y20155D01*
X104096Y20844D01*
X103825Y21498D01*
X103455Y22102D01*
X102995Y22641D01*
X102456Y23101D01*
X101852Y23471D01*
X101198Y23742D01*
X100509Y23907D01*
X99803Y23963D01*
X99796Y23962D01*
Y25500D01*
G37*
G36*
X89250D02*X99796D01*
Y23962D01*
X99097Y23907D01*
X98408Y23742D01*
X97754Y23471D01*
X97150Y23101D01*
X96611Y22641D01*
X96151Y22102D01*
X95781Y21498D01*
X95510Y20844D01*
X95345Y20155D01*
X95289Y19449D01*
X95345Y18743D01*
X95510Y18054D01*
X95781Y17400D01*
X96151Y16796D01*
X96611Y16257D01*
X97150Y15797D01*
X97754Y15427D01*
X98408Y15156D01*
X99097Y14991D01*
X99796Y14935D01*
Y13954D01*
X99370Y13933D01*
X98940Y13871D01*
X98519Y13767D01*
X98110Y13624D01*
X98003Y13571D01*
X97907Y13502D01*
X97822Y13419D01*
X97752Y13323D01*
X97697Y13218D01*
X97660Y13106D01*
X97640Y12989D01*
X97640Y12870D01*
X97657Y12753D01*
X97693Y12640D01*
X97746Y12534D01*
X97770Y12500D01*
X89250D01*
Y25500D01*
G37*
G36*
X117500Y267500D02*X161245D01*
Y182000D01*
X160621D01*
X140899Y201723D01*
X140972Y202029D01*
X141000Y202500D01*
X140972Y202971D01*
X140862Y203430D01*
X140681Y203866D01*
X140435Y204269D01*
X140128Y204628D01*
X139769Y204935D01*
X139366Y205181D01*
X138930Y205362D01*
X138471Y205472D01*
X138000Y205509D01*
X137529Y205472D01*
X137070Y205362D01*
X136634Y205181D01*
X136231Y204935D01*
X135872Y204628D01*
X135565Y204269D01*
X135319Y203866D01*
X135138Y203430D01*
X135028Y202971D01*
X134991Y202500D01*
X135028Y202029D01*
X135138Y201570D01*
X135319Y201134D01*
X135565Y200731D01*
X135872Y200372D01*
X136231Y200065D01*
X136634Y199819D01*
X137070Y199638D01*
X137529Y199528D01*
X138000Y199491D01*
X138471Y199528D01*
X138777Y199601D01*
X158379Y180000D01*
X144621D01*
X140899Y183723D01*
X140972Y184029D01*
X141000Y184500D01*
X140972Y184971D01*
X140862Y185430D01*
X140681Y185866D01*
X140435Y186269D01*
X140128Y186628D01*
X139769Y186935D01*
X139366Y187181D01*
X138930Y187362D01*
X138471Y187472D01*
X138000Y187509D01*
X137529Y187472D01*
X137070Y187362D01*
X136634Y187181D01*
X136231Y186935D01*
X135872Y186628D01*
X135565Y186269D01*
X135319Y185866D01*
X135138Y185430D01*
X135028Y184971D01*
X134991Y184500D01*
X135028Y184029D01*
X135138Y183570D01*
X135319Y183134D01*
X135565Y182731D01*
X135872Y182372D01*
X136231Y182065D01*
X136634Y181819D01*
X137070Y181638D01*
X137529Y181528D01*
X138000Y181491D01*
X138471Y181528D01*
X138777Y181601D01*
X142898Y177481D01*
X142936Y177436D01*
X143116Y177283D01*
X143317Y177159D01*
X143535Y177069D01*
X143765Y177014D01*
X144000Y176995D01*
X144059Y177000D01*
X161245D01*
Y166500D01*
X155599D01*
X155435Y166769D01*
X155128Y167128D01*
X154769Y167435D01*
X154366Y167681D01*
X153930Y167862D01*
X153471Y167972D01*
X153000Y168009D01*
X152529Y167972D01*
X152070Y167862D01*
X151634Y167681D01*
X151231Y167435D01*
X150872Y167128D01*
X150565Y166769D01*
X150319Y166366D01*
X150138Y165930D01*
X150028Y165471D01*
X149991Y165000D01*
X150028Y164529D01*
X150138Y164070D01*
X150319Y163634D01*
X150565Y163231D01*
X150872Y162872D01*
X151231Y162565D01*
X151634Y162319D01*
X152070Y162138D01*
X152529Y162028D01*
X153000Y161991D01*
X153471Y162028D01*
X153930Y162138D01*
X154366Y162319D01*
X154769Y162565D01*
X155128Y162872D01*
X155435Y163231D01*
X155599Y163500D01*
X161245D01*
Y31500D01*
X117500D01*
Y241507D01*
X121735Y241514D01*
X121965Y241569D01*
X122183Y241659D01*
X122384Y241783D01*
X122564Y241936D01*
X122717Y242116D01*
X122841Y242317D01*
X122931Y242535D01*
X122986Y242765D01*
X123000Y243000D01*
X122986Y251235D01*
X122931Y251465D01*
X122841Y251683D01*
X122717Y251884D01*
X122564Y252064D01*
X122384Y252217D01*
X122183Y252341D01*
X121965Y252431D01*
X121735Y252486D01*
X121500Y252500D01*
X117500Y252493D01*
Y267500D01*
G37*
G36*
X101993D02*X117500D01*
Y252493D01*
X113265Y252486D01*
X113035Y252431D01*
X112817Y252341D01*
X112616Y252217D01*
X112436Y252064D01*
X112283Y251884D01*
X112159Y251683D01*
X112069Y251465D01*
X112014Y251235D01*
X112000Y251000D01*
X112014Y242765D01*
X112069Y242535D01*
X112159Y242317D01*
X112283Y242116D01*
X112436Y241936D01*
X112616Y241783D01*
X112817Y241659D01*
X113035Y241569D01*
X113265Y241514D01*
X113500Y241500D01*
X117500Y241507D01*
Y31500D01*
X101993D01*
Y108326D01*
X102181Y108634D01*
X102362Y109070D01*
X102472Y109529D01*
X102500Y110000D01*
X102472Y110471D01*
X102362Y110930D01*
X102181Y111366D01*
X101993Y111674D01*
Y137000D01*
X113382D01*
X113500Y136991D01*
X113971Y137028D01*
X113971Y137028D01*
X114430Y137138D01*
X114866Y137319D01*
X115269Y137565D01*
X115628Y137872D01*
X115935Y138231D01*
X116181Y138634D01*
X116362Y139070D01*
X116472Y139529D01*
X116509Y140000D01*
X116472Y140471D01*
X116362Y140930D01*
X116181Y141366D01*
X115935Y141769D01*
X115628Y142128D01*
X115269Y142435D01*
X114866Y142681D01*
X114430Y142862D01*
X113971Y142972D01*
X113971Y142972D01*
X113500Y143009D01*
X113382Y143000D01*
X101993D01*
Y244145D01*
X102078Y244181D01*
X102179Y244243D01*
X102269Y244319D01*
X102345Y244409D01*
X102405Y244511D01*
X102622Y244980D01*
X102789Y245469D01*
X102909Y245972D01*
X102982Y246484D01*
X103006Y247000D01*
X102982Y247516D01*
X102909Y248028D01*
X102789Y248531D01*
X102622Y249020D01*
X102410Y249492D01*
X102349Y249593D01*
X102272Y249684D01*
X102182Y249761D01*
X102080Y249823D01*
X101993Y249860D01*
Y267500D01*
G37*
G36*
Y111674D02*X101935Y111769D01*
X101628Y112128D01*
X101269Y112435D01*
X101000Y112599D01*
Y118941D01*
X101005Y119000D01*
X100986Y119235D01*
X100931Y119465D01*
X100841Y119683D01*
X100717Y119884D01*
X100564Y120064D01*
X100519Y120102D01*
X97502Y123119D01*
Y137000D01*
X101993D01*
Y111674D01*
G37*
G36*
Y31500D02*X97502D01*
Y107761D01*
X97731Y107565D01*
X98134Y107319D01*
X98570Y107138D01*
X99029Y107028D01*
X99500Y106991D01*
X99971Y107028D01*
X100430Y107138D01*
X100866Y107319D01*
X101269Y107565D01*
X101628Y107872D01*
X101935Y108231D01*
X101993Y108326D01*
Y31500D01*
G37*
G36*
X97502Y267500D02*X101993D01*
Y249860D01*
X101971Y249869D01*
X101855Y249897D01*
X101737Y249906D01*
X101619Y249897D01*
X101503Y249870D01*
X101393Y249824D01*
X101292Y249762D01*
X101202Y249686D01*
X101124Y249595D01*
X101062Y249494D01*
X101016Y249385D01*
X100989Y249269D01*
X100979Y249151D01*
X100988Y249032D01*
X101016Y248917D01*
X101063Y248808D01*
X101221Y248468D01*
X101342Y248112D01*
X101430Y247747D01*
X101482Y247375D01*
X101500Y247000D01*
X101482Y246625D01*
X101430Y246253D01*
X101342Y245888D01*
X101221Y245532D01*
X101067Y245190D01*
X101020Y245082D01*
X100993Y244967D01*
X100983Y244849D01*
X100993Y244732D01*
X101021Y244617D01*
X101066Y244508D01*
X101128Y244407D01*
X101205Y244318D01*
X101295Y244241D01*
X101395Y244180D01*
X101504Y244135D01*
X101619Y244107D01*
X101737Y244098D01*
X101855Y244108D01*
X101969Y244135D01*
X101993Y244145D01*
Y143000D01*
X97502D01*
Y241494D01*
X98016Y241518D01*
X98528Y241591D01*
X99031Y241711D01*
X99520Y241878D01*
X99992Y242090D01*
X100093Y242151D01*
X100184Y242228D01*
X100261Y242318D01*
X100323Y242420D01*
X100369Y242529D01*
X100397Y242645D01*
X100406Y242763D01*
X100397Y242881D01*
X100370Y242997D01*
X100324Y243107D01*
X100262Y243208D01*
X100186Y243298D01*
X100095Y243376D01*
X99994Y243438D01*
X99885Y243484D01*
X99769Y243511D01*
X99651Y243521D01*
X99532Y243512D01*
X99417Y243484D01*
X99308Y243437D01*
X98968Y243279D01*
X98612Y243158D01*
X98247Y243070D01*
X97875Y243018D01*
X97502Y243000D01*
Y251000D01*
X97875Y250982D01*
X98247Y250930D01*
X98612Y250842D01*
X98968Y250721D01*
X99310Y250567D01*
X99418Y250520D01*
X99533Y250493D01*
X99651Y250483D01*
X99768Y250493D01*
X99883Y250521D01*
X99992Y250566D01*
X100093Y250628D01*
X100182Y250705D01*
X100259Y250795D01*
X100320Y250895D01*
X100365Y251004D01*
X100393Y251119D01*
X100402Y251237D01*
X100392Y251355D01*
X100365Y251469D01*
X100319Y251578D01*
X100257Y251679D01*
X100181Y251769D01*
X100091Y251845D01*
X99989Y251905D01*
X99520Y252122D01*
X99031Y252289D01*
X98528Y252409D01*
X98016Y252482D01*
X97502Y252506D01*
Y267500D01*
G37*
G36*
Y123119D02*X89500Y131121D01*
Y132401D01*
X89769Y132565D01*
X90128Y132872D01*
X90435Y133231D01*
X90681Y133634D01*
X90862Y134070D01*
X90972Y134529D01*
X91000Y135000D01*
X90972Y135471D01*
X90862Y135930D01*
X90681Y136366D01*
X90435Y136769D01*
X90237Y137000D01*
X97502D01*
Y123119D01*
G37*
G36*
Y31500D02*X89250D01*
Y103517D01*
X89265Y103514D01*
X89500Y103495D01*
X89559Y103500D01*
X91901D01*
X92065Y103231D01*
X92372Y102872D01*
X92731Y102565D01*
X93134Y102319D01*
X93570Y102138D01*
X94029Y102028D01*
X94500Y101991D01*
X94971Y102028D01*
X95430Y102138D01*
X95866Y102319D01*
X96269Y102565D01*
X96628Y102872D01*
X96935Y103231D01*
X97181Y103634D01*
X97362Y104070D01*
X97472Y104529D01*
X97500Y105000D01*
X97472Y105471D01*
X97362Y105930D01*
X97181Y106366D01*
X96935Y106769D01*
X96628Y107128D01*
X96269Y107435D01*
X96162Y107500D01*
X96269Y107565D01*
X96628Y107872D01*
X96935Y108231D01*
X97000Y108338D01*
X97065Y108231D01*
X97372Y107872D01*
X97502Y107761D01*
Y31500D01*
G37*
G36*
X93007Y267500D02*X97502D01*
Y252506D01*
X97500Y252506D01*
X96984Y252482D01*
X96472Y252409D01*
X95969Y252289D01*
X95480Y252122D01*
X95008Y251910D01*
X94907Y251849D01*
X94816Y251772D01*
X94739Y251682D01*
X94677Y251580D01*
X94631Y251471D01*
X94603Y251355D01*
X94594Y251237D01*
X94603Y251119D01*
X94630Y251003D01*
X94676Y250893D01*
X94738Y250792D01*
X94814Y250702D01*
X94905Y250624D01*
X95006Y250562D01*
X95115Y250516D01*
X95231Y250489D01*
X95349Y250479D01*
X95468Y250488D01*
X95583Y250516D01*
X95692Y250563D01*
X96032Y250721D01*
X96388Y250842D01*
X96753Y250930D01*
X97125Y250982D01*
X97500Y251000D01*
X97502Y251000D01*
Y243000D01*
X97500Y243000D01*
X97125Y243018D01*
X96753Y243070D01*
X96388Y243158D01*
X96032Y243279D01*
X95690Y243433D01*
X95582Y243480D01*
X95467Y243507D01*
X95349Y243517D01*
X95232Y243507D01*
X95117Y243479D01*
X95008Y243434D01*
X94907Y243372D01*
X94818Y243295D01*
X94741Y243205D01*
X94680Y243105D01*
X94635Y242996D01*
X94607Y242881D01*
X94598Y242763D01*
X94608Y242645D01*
X94635Y242531D01*
X94681Y242422D01*
X94743Y242321D01*
X94819Y242231D01*
X94909Y242155D01*
X95011Y242095D01*
X95480Y241878D01*
X95969Y241711D01*
X96472Y241591D01*
X96984Y241518D01*
X97500Y241494D01*
X97502Y241494D01*
Y143000D01*
X93007D01*
Y244140D01*
X93029Y244131D01*
X93145Y244103D01*
X93263Y244094D01*
X93381Y244103D01*
X93497Y244130D01*
X93607Y244176D01*
X93708Y244238D01*
X93798Y244314D01*
X93876Y244405D01*
X93938Y244506D01*
X93984Y244615D01*
X94011Y244731D01*
X94021Y244849D01*
X94012Y244968D01*
X93984Y245083D01*
X93937Y245192D01*
X93779Y245532D01*
X93658Y245888D01*
X93570Y246253D01*
X93518Y246625D01*
X93500Y247000D01*
X93518Y247375D01*
X93570Y247747D01*
X93658Y248112D01*
X93779Y248468D01*
X93933Y248810D01*
X93980Y248918D01*
X94007Y249033D01*
X94017Y249151D01*
X94007Y249268D01*
X93979Y249383D01*
X93934Y249492D01*
X93872Y249593D01*
X93795Y249682D01*
X93705Y249759D01*
X93605Y249820D01*
X93496Y249865D01*
X93381Y249893D01*
X93263Y249902D01*
X93145Y249892D01*
X93031Y249865D01*
X93007Y249855D01*
Y267500D01*
G37*
G36*
X89250D02*X93007D01*
Y249855D01*
X92922Y249819D01*
X92821Y249757D01*
X92731Y249681D01*
X92655Y249591D01*
X92595Y249489D01*
X92378Y249020D01*
X92211Y248531D01*
X92091Y248028D01*
X92018Y247516D01*
X91994Y247000D01*
X92018Y246484D01*
X92091Y245972D01*
X92211Y245469D01*
X92378Y244980D01*
X92590Y244508D01*
X92651Y244407D01*
X92728Y244316D01*
X92818Y244239D01*
X92920Y244177D01*
X93007Y244140D01*
Y143000D01*
X89250D01*
Y267500D01*
G37*
G36*
X19543Y146500D02*X21156D01*
X21278Y146425D01*
X21860Y146184D01*
X22472Y146037D01*
X23100Y145988D01*
X23263Y146000D01*
X26257Y146009D01*
X26400Y146044D01*
Y124350D01*
X25550Y123500D01*
X19543D01*
Y146500D01*
G37*
G36*
Y20421D02*X24621Y25500D01*
X89250D01*
Y12500D01*
X38141D01*
X38109Y12635D01*
X37597Y13871D01*
X36898Y15012D01*
X36029Y16029D01*
X35012Y16898D01*
X33871Y17597D01*
X32635Y18109D01*
X31334Y18421D01*
X30000Y18526D01*
X28666Y18421D01*
X27365Y18109D01*
X26129Y17597D01*
X24988Y16898D01*
X23971Y16029D01*
X23102Y15012D01*
X22403Y13871D01*
X21891Y12635D01*
X21859Y12500D01*
X19543D01*
Y20421D01*
G37*
G36*
Y28500D02*X23941D01*
X23765Y28486D01*
X23535Y28431D01*
X23317Y28341D01*
X23116Y28217D01*
X23115Y28217D01*
X22936Y28064D01*
X22898Y28019D01*
X19543Y24664D01*
Y28500D01*
G37*
G36*
Y267500D02*X89250D01*
Y143000D01*
X65118D01*
X65000Y143009D01*
X64529Y142972D01*
X64070Y142862D01*
X63634Y142681D01*
X63231Y142435D01*
X62872Y142128D01*
X62565Y141769D01*
X62319Y141366D01*
X62138Y140930D01*
X62028Y140471D01*
X61991Y140000D01*
X62028Y139529D01*
X62138Y139070D01*
X62319Y138634D01*
X62565Y138231D01*
X62872Y137872D01*
X63231Y137565D01*
X63634Y137319D01*
X64070Y137138D01*
X64529Y137028D01*
X65000Y136991D01*
X65118Y137000D01*
X70763D01*
X70565Y136769D01*
X70319Y136366D01*
X70138Y135930D01*
X70028Y135471D01*
X69991Y135000D01*
X70028Y134529D01*
X70138Y134070D01*
X70319Y133634D01*
X70565Y133231D01*
X70872Y132872D01*
X71231Y132565D01*
X71500Y132401D01*
Y130559D01*
X71495Y130500D01*
X71514Y130265D01*
X71569Y130035D01*
X71659Y129817D01*
X71783Y129616D01*
X71783Y129615D01*
X71936Y129436D01*
X71981Y129398D01*
X83000Y118379D01*
Y110059D01*
X82995Y110000D01*
X83014Y109765D01*
X83069Y109535D01*
X83159Y109317D01*
X83283Y109116D01*
X83283Y109115D01*
X83436Y108936D01*
X83481Y108898D01*
X88398Y103981D01*
X88436Y103936D01*
X88616Y103783D01*
X88817Y103659D01*
X89035Y103569D01*
X89250Y103517D01*
Y31500D01*
X19543D01*
Y116500D01*
X26863D01*
X27000Y116489D01*
X27549Y116532D01*
X27549Y116532D01*
X28085Y116661D01*
X28594Y116872D01*
X29064Y117160D01*
X29483Y117517D01*
X29572Y117622D01*
X32278Y120328D01*
X32383Y120417D01*
X32740Y120836D01*
X33028Y121306D01*
X33239Y121815D01*
X33368Y122351D01*
X33411Y122900D01*
X33400Y123037D01*
Y148056D01*
X33475Y148178D01*
X33716Y148760D01*
X33863Y149372D01*
X33900Y150000D01*
X33863Y150628D01*
X33716Y151240D01*
X33475Y151822D01*
X33146Y152358D01*
X32737Y152837D01*
X32258Y153246D01*
X31722Y153575D01*
X31140Y153816D01*
X30528Y153963D01*
X29900Y154012D01*
X29737Y154000D01*
X26743Y153991D01*
X26590Y153954D01*
X26500Y153917D01*
X26410Y153954D01*
X26257Y153991D01*
X26100Y154000D01*
X23359Y153992D01*
X23100Y154012D01*
X22472Y153963D01*
X21860Y153816D01*
X21278Y153575D01*
X21156Y153500D01*
X19543D01*
Y241526D01*
X19863Y241551D01*
X20705Y241753D01*
X21505Y242084D01*
X22243Y242537D01*
X22901Y243099D01*
X23463Y243757D01*
X23916Y244495D01*
X24000Y244699D01*
X24084Y244495D01*
X24537Y243757D01*
X25099Y243099D01*
X25757Y242537D01*
X26495Y242084D01*
X27295Y241753D01*
X28137Y241551D01*
X29000Y241483D01*
X29863Y241551D01*
X30705Y241753D01*
X31505Y242084D01*
X32243Y242537D01*
X32901Y243099D01*
X33463Y243757D01*
X33916Y244495D01*
X34000Y244699D01*
X34084Y244495D01*
X34537Y243757D01*
X35099Y243099D01*
X35757Y242537D01*
X36495Y242084D01*
X37295Y241753D01*
X38137Y241551D01*
X39000Y241483D01*
X39863Y241551D01*
X40705Y241753D01*
X41505Y242084D01*
X42243Y242537D01*
X42901Y243099D01*
X43463Y243757D01*
X43916Y244495D01*
X44000Y244699D01*
X44084Y244495D01*
X44537Y243757D01*
X45099Y243099D01*
X45757Y242537D01*
X46495Y242084D01*
X47295Y241753D01*
X48137Y241551D01*
X49000Y241483D01*
X49863Y241551D01*
X50705Y241753D01*
X51505Y242084D01*
X52243Y242537D01*
X52901Y243099D01*
X53463Y243757D01*
X53916Y244495D01*
X54000Y244699D01*
X54084Y244495D01*
X54537Y243757D01*
X55099Y243099D01*
X55757Y242537D01*
X56495Y242084D01*
X57295Y241753D01*
X58137Y241551D01*
X59000Y241483D01*
X59863Y241551D01*
X60705Y241753D01*
X61505Y242084D01*
X62243Y242537D01*
X62901Y243099D01*
X63463Y243757D01*
X63916Y244495D01*
X64000Y244699D01*
X64084Y244495D01*
X64537Y243757D01*
X65099Y243099D01*
X65757Y242537D01*
X66495Y242084D01*
X67295Y241753D01*
X68137Y241551D01*
X69000Y241483D01*
X69863Y241551D01*
X70705Y241753D01*
X71505Y242084D01*
X72243Y242537D01*
X72901Y243099D01*
X73463Y243757D01*
X73512Y243837D01*
X73514Y242765D01*
X73569Y242535D01*
X73659Y242317D01*
X73783Y242116D01*
X73936Y241936D01*
X74116Y241783D01*
X74317Y241659D01*
X74535Y241569D01*
X74765Y241514D01*
X75000Y241500D01*
X83235Y241514D01*
X83465Y241569D01*
X83683Y241659D01*
X83884Y241783D01*
X84064Y241936D01*
X84217Y242116D01*
X84341Y242317D01*
X84431Y242535D01*
X84486Y242765D01*
X84500Y243000D01*
X84486Y251235D01*
X84431Y251465D01*
X84341Y251683D01*
X84217Y251884D01*
X84064Y252064D01*
X83884Y252217D01*
X83683Y252341D01*
X83465Y252431D01*
X83235Y252486D01*
X83000Y252500D01*
X74765Y252486D01*
X74535Y252431D01*
X74317Y252341D01*
X74116Y252217D01*
X73936Y252064D01*
X73783Y251884D01*
X73659Y251683D01*
X73569Y251465D01*
X73514Y251235D01*
X73500Y251000D01*
X73501Y250181D01*
X73463Y250243D01*
X72901Y250901D01*
X72243Y251463D01*
X71505Y251916D01*
X70705Y252247D01*
X69863Y252449D01*
X69000Y252517D01*
X68137Y252449D01*
X67295Y252247D01*
X66495Y251916D01*
X65757Y251463D01*
X65099Y250901D01*
X64537Y250243D01*
X64084Y249505D01*
X64000Y249301D01*
X63916Y249505D01*
X63463Y250243D01*
X62901Y250901D01*
X62243Y251463D01*
X61505Y251916D01*
X60705Y252247D01*
X59863Y252449D01*
X59000Y252517D01*
X58137Y252449D01*
X57295Y252247D01*
X56495Y251916D01*
X55757Y251463D01*
X55099Y250901D01*
X54537Y250243D01*
X54084Y249505D01*
X54000Y249301D01*
X53916Y249505D01*
X53463Y250243D01*
X52901Y250901D01*
X52243Y251463D01*
X51505Y251916D01*
X50705Y252247D01*
X49863Y252449D01*
X49000Y252517D01*
X48137Y252449D01*
X47295Y252247D01*
X46495Y251916D01*
X45757Y251463D01*
X45099Y250901D01*
X44537Y250243D01*
X44084Y249505D01*
X44000Y249301D01*
X43916Y249505D01*
X43463Y250243D01*
X42901Y250901D01*
X42243Y251463D01*
X41505Y251916D01*
X40705Y252247D01*
X39863Y252449D01*
X39000Y252517D01*
X38137Y252449D01*
X37295Y252247D01*
X36495Y251916D01*
X35757Y251463D01*
X35099Y250901D01*
X34537Y250243D01*
X34084Y249505D01*
X34000Y249301D01*
X33916Y249505D01*
X33463Y250243D01*
X32901Y250901D01*
X32243Y251463D01*
X31505Y251916D01*
X30705Y252247D01*
X29863Y252449D01*
X29000Y252517D01*
X28137Y252449D01*
X27295Y252247D01*
X26495Y251916D01*
X25757Y251463D01*
X25099Y250901D01*
X24537Y250243D01*
X24084Y249505D01*
X24000Y249301D01*
X23916Y249505D01*
X23463Y250243D01*
X22901Y250901D01*
X22243Y251463D01*
X21505Y251916D01*
X20705Y252247D01*
X19863Y252449D01*
X19543Y252474D01*
Y267500D01*
G37*
G36*
X9993Y15186D02*X10000Y15185D01*
X10753Y15244D01*
X11488Y15421D01*
X12186Y15710D01*
X12830Y16105D01*
X13405Y16595D01*
X13895Y17170D01*
X14290Y17814D01*
X14574Y18500D01*
X16941D01*
X17000Y18495D01*
X17235Y18514D01*
X17235Y18514D01*
X17465Y18569D01*
X17683Y18659D01*
X17884Y18783D01*
X18064Y18936D01*
X18102Y18981D01*
X19543Y20421D01*
Y12500D01*
X9993D01*
Y15186D01*
G37*
G36*
Y25186D02*X10000Y25185D01*
X10753Y25244D01*
X11488Y25421D01*
X12186Y25710D01*
X12830Y26105D01*
X13405Y26595D01*
X13895Y27170D01*
X14290Y27814D01*
X14574Y28500D01*
X19543D01*
Y24664D01*
X16379Y21500D01*
X14574D01*
X14290Y22186D01*
X13895Y22830D01*
X13405Y23405D01*
X12830Y23895D01*
X12186Y24290D01*
X11488Y24579D01*
X10753Y24756D01*
X10000Y24815D01*
X9993Y24814D01*
Y25186D01*
G37*
G36*
X13876Y116500D02*X19543D01*
Y31500D01*
X14574D01*
X14290Y32186D01*
X13895Y32830D01*
X13876Y32853D01*
Y37147D01*
X13895Y37170D01*
X14290Y37814D01*
X14579Y38512D01*
X14756Y39247D01*
X14800Y40000D01*
X14756Y40753D01*
X14579Y41488D01*
X14290Y42186D01*
X13895Y42830D01*
X13876Y42853D01*
Y47147D01*
X13895Y47170D01*
X14290Y47814D01*
X14579Y48512D01*
X14756Y49247D01*
X14800Y50000D01*
X14756Y50753D01*
X14579Y51488D01*
X14290Y52186D01*
X13895Y52830D01*
X13876Y52853D01*
Y57147D01*
X13895Y57170D01*
X14290Y57814D01*
X14579Y58512D01*
X14756Y59247D01*
X14800Y60000D01*
X14756Y60753D01*
X14579Y61488D01*
X14290Y62186D01*
X13895Y62830D01*
X13876Y62853D01*
Y67147D01*
X13895Y67170D01*
X14290Y67814D01*
X14579Y68512D01*
X14756Y69247D01*
X14800Y70000D01*
X14756Y70753D01*
X14579Y71488D01*
X14290Y72186D01*
X13895Y72830D01*
X13876Y72853D01*
Y87147D01*
X13895Y87170D01*
X14290Y87814D01*
X14579Y88512D01*
X14756Y89247D01*
X14800Y90000D01*
X14756Y90753D01*
X14579Y91488D01*
X14290Y92186D01*
X13895Y92830D01*
X13876Y92853D01*
Y97635D01*
X13978Y97666D01*
X14085Y97717D01*
X14182Y97784D01*
X14267Y97866D01*
X14339Y97960D01*
X14392Y98065D01*
X14557Y98476D01*
X14678Y98902D01*
X14759Y99337D01*
X14800Y99778D01*
Y100222D01*
X14759Y100663D01*
X14678Y101098D01*
X14557Y101524D01*
X14397Y101937D01*
X14342Y102042D01*
X14270Y102137D01*
X14184Y102219D01*
X14087Y102286D01*
X13980Y102338D01*
X13876Y102369D01*
Y107635D01*
X13978Y107666D01*
X14085Y107717D01*
X14182Y107784D01*
X14267Y107866D01*
X14339Y107960D01*
X14392Y108065D01*
X14557Y108476D01*
X14678Y108902D01*
X14759Y109337D01*
X14800Y109778D01*
Y110222D01*
X14759Y110663D01*
X14678Y111098D01*
X14557Y111524D01*
X14397Y111937D01*
X14342Y112042D01*
X14270Y112137D01*
X14184Y112219D01*
X14087Y112286D01*
X13980Y112338D01*
X13876Y112369D01*
Y116500D01*
G37*
G36*
Y72853D02*X13405Y73405D01*
X12830Y73895D01*
X12186Y74290D01*
X11488Y74579D01*
X10753Y74756D01*
X10000Y74815D01*
X9993Y74814D01*
Y85186D01*
X10000Y85185D01*
X10753Y85244D01*
X11488Y85421D01*
X12186Y85710D01*
X12830Y86105D01*
X13405Y86595D01*
X13876Y87147D01*
Y72853D01*
G37*
G36*
Y62853D02*X13405Y63405D01*
X12830Y63895D01*
X12186Y64290D01*
X11488Y64579D01*
X10753Y64756D01*
X10000Y64815D01*
X9993Y64814D01*
Y65186D01*
X10000Y65185D01*
X10753Y65244D01*
X11488Y65421D01*
X12186Y65710D01*
X12830Y66105D01*
X13405Y66595D01*
X13876Y67147D01*
Y62853D01*
G37*
G36*
Y52853D02*X13405Y53405D01*
X12830Y53895D01*
X12186Y54290D01*
X11488Y54579D01*
X10753Y54756D01*
X10000Y54815D01*
X9993Y54814D01*
Y55186D01*
X10000Y55185D01*
X10753Y55244D01*
X11488Y55421D01*
X12186Y55710D01*
X12830Y56105D01*
X13405Y56595D01*
X13876Y57147D01*
Y52853D01*
G37*
G36*
Y42853D02*X13405Y43405D01*
X12830Y43895D01*
X12186Y44290D01*
X11488Y44579D01*
X10753Y44756D01*
X10000Y44815D01*
X9993Y44814D01*
Y45186D01*
X10000Y45185D01*
X10753Y45244D01*
X11488Y45421D01*
X12186Y45710D01*
X12830Y46105D01*
X13405Y46595D01*
X13876Y47147D01*
Y42853D01*
G37*
G36*
Y32853D02*X13405Y33405D01*
X12830Y33895D01*
X12186Y34290D01*
X11488Y34579D01*
X10753Y34756D01*
X10000Y34815D01*
X9993Y34814D01*
Y35186D01*
X10000Y35185D01*
X10753Y35244D01*
X11488Y35421D01*
X12186Y35710D01*
X12830Y36105D01*
X13405Y36595D01*
X13876Y37147D01*
Y32853D01*
G37*
G36*
X9993Y115186D02*X10000Y115185D01*
X10753Y115244D01*
X11488Y115421D01*
X12186Y115710D01*
X12830Y116105D01*
X13293Y116500D01*
X13876D01*
Y112369D01*
X13866Y112372D01*
X13749Y112388D01*
X13630Y112385D01*
X13513Y112364D01*
X13401Y112325D01*
X13297Y112268D01*
X13203Y112197D01*
X13121Y112111D01*
X13053Y112013D01*
X13002Y111907D01*
X12967Y111793D01*
X12952Y111675D01*
X12954Y111557D01*
X12975Y111440D01*
X13017Y111329D01*
X13130Y111047D01*
X13213Y110754D01*
X13268Y110455D01*
X13296Y110152D01*
Y109848D01*
X13268Y109545D01*
X13213Y109246D01*
X13130Y108953D01*
X13020Y108669D01*
X12979Y108559D01*
X12958Y108443D01*
X12955Y108325D01*
X12971Y108208D01*
X13005Y108095D01*
X13056Y107988D01*
X13123Y107891D01*
X13205Y107806D01*
X13299Y107734D01*
X13403Y107679D01*
X13514Y107640D01*
X13630Y107618D01*
X13748Y107616D01*
X13865Y107632D01*
X13876Y107635D01*
Y102369D01*
X13866Y102372D01*
X13749Y102388D01*
X13630Y102385D01*
X13513Y102364D01*
X13401Y102325D01*
X13297Y102268D01*
X13203Y102197D01*
X13121Y102111D01*
X13053Y102013D01*
X13002Y101907D01*
X12967Y101793D01*
X12952Y101675D01*
X12954Y101557D01*
X12975Y101440D01*
X13017Y101329D01*
X13130Y101047D01*
X13213Y100754D01*
X13268Y100455D01*
X13296Y100152D01*
Y99848D01*
X13268Y99545D01*
X13213Y99246D01*
X13130Y98953D01*
X13020Y98669D01*
X12979Y98559D01*
X12958Y98443D01*
X12955Y98325D01*
X12971Y98208D01*
X13005Y98095D01*
X13056Y97988D01*
X13123Y97891D01*
X13205Y97806D01*
X13299Y97734D01*
X13403Y97679D01*
X13514Y97640D01*
X13630Y97618D01*
X13748Y97616D01*
X13865Y97632D01*
X13876Y97635D01*
Y92853D01*
X13405Y93405D01*
X12830Y93895D01*
X12186Y94290D01*
X11488Y94579D01*
X10753Y94756D01*
X10000Y94815D01*
X9993Y94814D01*
Y95200D01*
X10222D01*
X10663Y95241D01*
X11098Y95322D01*
X11524Y95443D01*
X11937Y95603D01*
X12042Y95658D01*
X12137Y95730D01*
X12219Y95816D01*
X12286Y95913D01*
X12338Y96020D01*
X12372Y96134D01*
X12388Y96251D01*
X12385Y96370D01*
X12364Y96487D01*
X12325Y96599D01*
X12268Y96703D01*
X12197Y96797D01*
X12111Y96879D01*
X12013Y96947D01*
X11907Y96998D01*
X11793Y97033D01*
X11675Y97048D01*
X11557Y97046D01*
X11440Y97025D01*
X11329Y96983D01*
X11047Y96870D01*
X10754Y96787D01*
X10455Y96732D01*
X10152Y96704D01*
X9993D01*
Y103296D01*
X10152D01*
X10455Y103268D01*
X10754Y103213D01*
X11047Y103130D01*
X11331Y103020D01*
X11441Y102979D01*
X11557Y102958D01*
X11675Y102955D01*
X11792Y102971D01*
X11905Y103005D01*
X12012Y103056D01*
X12109Y103123D01*
X12194Y103205D01*
X12266Y103299D01*
X12321Y103403D01*
X12360Y103514D01*
X12382Y103630D01*
X12384Y103748D01*
X12368Y103865D01*
X12334Y103978D01*
X12283Y104085D01*
X12216Y104182D01*
X12134Y104267D01*
X12040Y104339D01*
X11935Y104392D01*
X11524Y104557D01*
X11098Y104678D01*
X10663Y104759D01*
X10222Y104800D01*
X9993D01*
Y105200D01*
X10222D01*
X10663Y105241D01*
X11098Y105322D01*
X11524Y105443D01*
X11937Y105603D01*
X12042Y105658D01*
X12137Y105730D01*
X12219Y105816D01*
X12286Y105913D01*
X12338Y106020D01*
X12372Y106134D01*
X12388Y106251D01*
X12385Y106370D01*
X12364Y106487D01*
X12325Y106599D01*
X12268Y106703D01*
X12197Y106797D01*
X12111Y106879D01*
X12013Y106947D01*
X11907Y106998D01*
X11793Y107033D01*
X11675Y107048D01*
X11557Y107046D01*
X11440Y107025D01*
X11329Y106983D01*
X11047Y106870D01*
X10754Y106787D01*
X10455Y106732D01*
X10152Y106704D01*
X9993D01*
Y113296D01*
X10152D01*
X10455Y113268D01*
X10754Y113213D01*
X11047Y113130D01*
X11331Y113020D01*
X11441Y112979D01*
X11557Y112958D01*
X11675Y112955D01*
X11792Y112971D01*
X11905Y113005D01*
X12012Y113056D01*
X12109Y113123D01*
X12194Y113205D01*
X12266Y113299D01*
X12321Y113403D01*
X12360Y113514D01*
X12382Y113630D01*
X12384Y113748D01*
X12368Y113865D01*
X12334Y113978D01*
X12283Y114085D01*
X12216Y114182D01*
X12134Y114267D01*
X12040Y114339D01*
X11935Y114392D01*
X11524Y114557D01*
X11098Y114678D01*
X10663Y114759D01*
X10222Y114800D01*
X9993D01*
Y115186D01*
G37*
G36*
Y145186D02*X10000Y145185D01*
X10753Y145244D01*
X11488Y145421D01*
X12186Y145710D01*
X12830Y146105D01*
X13293Y146500D01*
X19543D01*
Y123500D01*
X13293D01*
X12830Y123895D01*
X12186Y124290D01*
X11488Y124579D01*
X10753Y124756D01*
X10000Y124815D01*
X9993Y124814D01*
Y125186D01*
X10000Y125185D01*
X10753Y125244D01*
X11488Y125421D01*
X12186Y125710D01*
X12830Y126105D01*
X13405Y126595D01*
X13895Y127170D01*
X14290Y127814D01*
X14579Y128512D01*
X14756Y129247D01*
X14800Y130000D01*
X14756Y130753D01*
X14579Y131488D01*
X14290Y132186D01*
X13895Y132830D01*
X13405Y133405D01*
X12830Y133895D01*
X12186Y134290D01*
X11488Y134579D01*
X10753Y134756D01*
X10000Y134815D01*
X9993Y134814D01*
Y135186D01*
X10000Y135185D01*
X10753Y135244D01*
X11488Y135421D01*
X12186Y135710D01*
X12830Y136105D01*
X13405Y136595D01*
X13895Y137170D01*
X14290Y137814D01*
X14579Y138512D01*
X14756Y139247D01*
X14800Y140000D01*
X14756Y140753D01*
X14579Y141488D01*
X14290Y142186D01*
X13895Y142830D01*
X13405Y143405D01*
X12830Y143895D01*
X12186Y144290D01*
X11488Y144579D01*
X10753Y144756D01*
X10000Y144815D01*
X9993Y144814D01*
Y145186D01*
G37*
G36*
Y267500D02*X19543D01*
Y252474D01*
X19000Y252517D01*
X18137Y252449D01*
X17295Y252247D01*
X16495Y251916D01*
X15757Y251463D01*
X15099Y250901D01*
X14537Y250243D01*
X14084Y249505D01*
X14000Y249301D01*
X13916Y249505D01*
X13463Y250243D01*
X12901Y250901D01*
X12243Y251463D01*
X11505Y251916D01*
X10705Y252247D01*
X9993Y252418D01*
Y267500D01*
G37*
G36*
Y206474D02*X10000Y206474D01*
X11334Y206579D01*
X12635Y206891D01*
X13871Y207403D01*
X15012Y208102D01*
X16029Y208971D01*
X16898Y209988D01*
X17597Y211129D01*
X18109Y212365D01*
X18421Y213666D01*
X18500Y215000D01*
X18421Y216334D01*
X18109Y217635D01*
X17597Y218871D01*
X16898Y220012D01*
X16029Y221029D01*
X15012Y221898D01*
X13871Y222597D01*
X12635Y223109D01*
X11334Y223421D01*
X10000Y223526D01*
X9993Y223526D01*
Y241582D01*
X10705Y241753D01*
X11505Y242084D01*
X12243Y242537D01*
X12901Y243099D01*
X13463Y243757D01*
X13916Y244495D01*
X14000Y244699D01*
X14084Y244495D01*
X14537Y243757D01*
X15099Y243099D01*
X15757Y242537D01*
X16495Y242084D01*
X17295Y241753D01*
X18137Y241551D01*
X19000Y241483D01*
X19543Y241526D01*
Y153500D01*
X13293D01*
X12830Y153895D01*
X12186Y154290D01*
X11488Y154579D01*
X10753Y154756D01*
X10000Y154815D01*
X9993Y154814D01*
Y155186D01*
X10000Y155185D01*
X10753Y155244D01*
X11488Y155421D01*
X12186Y155710D01*
X12830Y156105D01*
X13405Y156595D01*
X13895Y157170D01*
X14290Y157814D01*
X14579Y158512D01*
X14756Y159247D01*
X14800Y160000D01*
X14756Y160753D01*
X14579Y161488D01*
X14290Y162186D01*
X13895Y162830D01*
X13405Y163405D01*
X12830Y163895D01*
X12186Y164290D01*
X11488Y164579D01*
X10753Y164756D01*
X10000Y164815D01*
X9993Y164814D01*
Y206474D01*
G37*
G36*
Y223526D02*X8666Y223421D01*
X7365Y223109D01*
X6129Y222597D01*
X4988Y221898D01*
X3971Y221029D01*
X3102Y220012D01*
X2500Y219029D01*
Y267500D01*
X9993D01*
Y252418D01*
X9863Y252449D01*
X9000Y252517D01*
X8137Y252449D01*
X7295Y252247D01*
X6495Y251916D01*
X5757Y251463D01*
X5099Y250901D01*
X4537Y250243D01*
X4084Y249505D01*
X3753Y248705D01*
X3551Y247863D01*
X3483Y247000D01*
X3551Y246137D01*
X3753Y245295D01*
X4084Y244495D01*
X4537Y243757D01*
X5099Y243099D01*
X5757Y242537D01*
X6495Y242084D01*
X7295Y241753D01*
X8137Y241551D01*
X9000Y241483D01*
X9863Y241551D01*
X9993Y241582D01*
Y223526D01*
G37*
G36*
X6124Y17147D02*X6595Y16595D01*
X7170Y16105D01*
X7814Y15710D01*
X8512Y15421D01*
X9247Y15244D01*
X9993Y15186D01*
Y12500D01*
X6124D01*
Y17147D01*
G37*
G36*
Y27147D02*X6595Y26595D01*
X7170Y26105D01*
X7814Y25710D01*
X8512Y25421D01*
X9247Y25244D01*
X9993Y25186D01*
Y24814D01*
X9247Y24756D01*
X8512Y24579D01*
X7814Y24290D01*
X7170Y23895D01*
X6595Y23405D01*
X6124Y22853D01*
Y27147D01*
G37*
G36*
Y37147D02*X6595Y36595D01*
X7170Y36105D01*
X7814Y35710D01*
X8512Y35421D01*
X9247Y35244D01*
X9993Y35186D01*
Y34814D01*
X9247Y34756D01*
X8512Y34579D01*
X7814Y34290D01*
X7170Y33895D01*
X6595Y33405D01*
X6124Y32853D01*
Y37147D01*
G37*
G36*
Y47147D02*X6595Y46595D01*
X7170Y46105D01*
X7814Y45710D01*
X8512Y45421D01*
X9247Y45244D01*
X9993Y45186D01*
Y44814D01*
X9247Y44756D01*
X8512Y44579D01*
X7814Y44290D01*
X7170Y43895D01*
X6595Y43405D01*
X6124Y42853D01*
Y47147D01*
G37*
G36*
Y57147D02*X6595Y56595D01*
X7170Y56105D01*
X7814Y55710D01*
X8512Y55421D01*
X9247Y55244D01*
X9993Y55186D01*
Y54814D01*
X9247Y54756D01*
X8512Y54579D01*
X7814Y54290D01*
X7170Y53895D01*
X6595Y53405D01*
X6124Y52853D01*
Y57147D01*
G37*
G36*
Y67147D02*X6595Y66595D01*
X7170Y66105D01*
X7814Y65710D01*
X8512Y65421D01*
X9247Y65244D01*
X9993Y65186D01*
Y64814D01*
X9247Y64756D01*
X8512Y64579D01*
X7814Y64290D01*
X7170Y63895D01*
X6595Y63405D01*
X6124Y62853D01*
Y67147D01*
G37*
G36*
Y87147D02*X6595Y86595D01*
X7170Y86105D01*
X7814Y85710D01*
X8512Y85421D01*
X9247Y85244D01*
X9993Y85186D01*
Y74814D01*
X9247Y74756D01*
X8512Y74579D01*
X7814Y74290D01*
X7170Y73895D01*
X6595Y73405D01*
X6124Y72853D01*
Y87147D01*
G37*
G36*
Y117147D02*X6595Y116595D01*
X7170Y116105D01*
X7814Y115710D01*
X8512Y115421D01*
X9247Y115244D01*
X9993Y115186D01*
Y114800D01*
X9778D01*
X9337Y114759D01*
X8902Y114678D01*
X8476Y114557D01*
X8063Y114397D01*
X7958Y114342D01*
X7863Y114270D01*
X7781Y114184D01*
X7714Y114087D01*
X7662Y113980D01*
X7628Y113866D01*
X7612Y113749D01*
X7615Y113630D01*
X7636Y113513D01*
X7675Y113401D01*
X7732Y113297D01*
X7803Y113203D01*
X7889Y113121D01*
X7987Y113053D01*
X8093Y113002D01*
X8207Y112967D01*
X8325Y112952D01*
X8443Y112954D01*
X8560Y112975D01*
X8671Y113017D01*
X8953Y113130D01*
X9246Y113213D01*
X9545Y113268D01*
X9848Y113296D01*
X9993D01*
Y106704D01*
X9848D01*
X9545Y106732D01*
X9246Y106787D01*
X8953Y106870D01*
X8669Y106980D01*
X8559Y107021D01*
X8443Y107042D01*
X8325Y107045D01*
X8208Y107029D01*
X8095Y106995D01*
X7988Y106944D01*
X7891Y106877D01*
X7806Y106795D01*
X7734Y106701D01*
X7679Y106597D01*
X7640Y106486D01*
X7618Y106370D01*
X7616Y106252D01*
X7632Y106135D01*
X7666Y106022D01*
X7717Y105915D01*
X7784Y105818D01*
X7866Y105733D01*
X7960Y105661D01*
X8065Y105608D01*
X8476Y105443D01*
X8902Y105322D01*
X9337Y105241D01*
X9778Y105200D01*
X9993D01*
Y104800D01*
X9778D01*
X9337Y104759D01*
X8902Y104678D01*
X8476Y104557D01*
X8063Y104397D01*
X7958Y104342D01*
X7863Y104270D01*
X7781Y104184D01*
X7714Y104087D01*
X7662Y103980D01*
X7628Y103866D01*
X7612Y103749D01*
X7615Y103630D01*
X7636Y103513D01*
X7675Y103401D01*
X7732Y103297D01*
X7803Y103203D01*
X7889Y103121D01*
X7987Y103053D01*
X8093Y103002D01*
X8207Y102967D01*
X8325Y102952D01*
X8443Y102954D01*
X8560Y102975D01*
X8671Y103017D01*
X8953Y103130D01*
X9246Y103213D01*
X9545Y103268D01*
X9848Y103296D01*
X9993D01*
Y96704D01*
X9848D01*
X9545Y96732D01*
X9246Y96787D01*
X8953Y96870D01*
X8669Y96980D01*
X8559Y97021D01*
X8443Y97042D01*
X8325Y97045D01*
X8208Y97029D01*
X8095Y96995D01*
X7988Y96944D01*
X7891Y96877D01*
X7806Y96795D01*
X7734Y96701D01*
X7679Y96597D01*
X7640Y96486D01*
X7618Y96370D01*
X7616Y96252D01*
X7632Y96135D01*
X7666Y96022D01*
X7717Y95915D01*
X7784Y95818D01*
X7866Y95733D01*
X7960Y95661D01*
X8065Y95608D01*
X8476Y95443D01*
X8902Y95322D01*
X9337Y95241D01*
X9778Y95200D01*
X9993D01*
Y94814D01*
X9247Y94756D01*
X8512Y94579D01*
X7814Y94290D01*
X7170Y93895D01*
X6595Y93405D01*
X6124Y92853D01*
Y97631D01*
X6134Y97628D01*
X6251Y97612D01*
X6370Y97615D01*
X6487Y97636D01*
X6599Y97675D01*
X6703Y97732D01*
X6797Y97803D01*
X6879Y97889D01*
X6947Y97987D01*
X6998Y98093D01*
X7033Y98207D01*
X7048Y98325D01*
X7046Y98443D01*
X7025Y98560D01*
X6983Y98671D01*
X6870Y98953D01*
X6787Y99246D01*
X6732Y99545D01*
X6704Y99848D01*
Y100152D01*
X6732Y100455D01*
X6787Y100754D01*
X6870Y101047D01*
X6980Y101331D01*
X7021Y101441D01*
X7042Y101557D01*
X7045Y101675D01*
X7029Y101792D01*
X6995Y101905D01*
X6944Y102012D01*
X6877Y102109D01*
X6795Y102194D01*
X6701Y102266D01*
X6597Y102321D01*
X6486Y102360D01*
X6370Y102382D01*
X6252Y102384D01*
X6135Y102368D01*
X6124Y102365D01*
Y107631D01*
X6134Y107628D01*
X6251Y107612D01*
X6370Y107615D01*
X6487Y107636D01*
X6599Y107675D01*
X6703Y107732D01*
X6797Y107803D01*
X6879Y107889D01*
X6947Y107987D01*
X6998Y108093D01*
X7033Y108207D01*
X7048Y108325D01*
X7046Y108443D01*
X7025Y108560D01*
X6983Y108671D01*
X6870Y108953D01*
X6787Y109246D01*
X6732Y109545D01*
X6704Y109848D01*
Y110152D01*
X6732Y110455D01*
X6787Y110754D01*
X6870Y111047D01*
X6980Y111331D01*
X7021Y111441D01*
X7042Y111557D01*
X7045Y111675D01*
X7029Y111792D01*
X6995Y111905D01*
X6944Y112012D01*
X6877Y112109D01*
X6795Y112194D01*
X6701Y112266D01*
X6597Y112321D01*
X6486Y112360D01*
X6370Y112382D01*
X6252Y112384D01*
X6135Y112368D01*
X6124Y112365D01*
Y117147D01*
G37*
G36*
Y127147D02*X6595Y126595D01*
X7170Y126105D01*
X7814Y125710D01*
X8512Y125421D01*
X9247Y125244D01*
X9993Y125186D01*
Y124814D01*
X9247Y124756D01*
X8512Y124579D01*
X7814Y124290D01*
X7170Y123895D01*
X6595Y123405D01*
X6124Y122853D01*
Y127147D01*
G37*
G36*
Y137147D02*X6595Y136595D01*
X7170Y136105D01*
X7814Y135710D01*
X8512Y135421D01*
X9247Y135244D01*
X9993Y135186D01*
Y134814D01*
X9247Y134756D01*
X8512Y134579D01*
X7814Y134290D01*
X7170Y133895D01*
X6595Y133405D01*
X6124Y132853D01*
Y137147D01*
G37*
G36*
Y147147D02*X6595Y146595D01*
X7170Y146105D01*
X7814Y145710D01*
X8512Y145421D01*
X9247Y145244D01*
X9993Y145186D01*
Y144814D01*
X9247Y144756D01*
X8512Y144579D01*
X7814Y144290D01*
X7170Y143895D01*
X6595Y143405D01*
X6124Y142853D01*
Y147147D01*
G37*
G36*
Y157147D02*X6595Y156595D01*
X7170Y156105D01*
X7814Y155710D01*
X8512Y155421D01*
X9247Y155244D01*
X9993Y155186D01*
Y154814D01*
X9247Y154756D01*
X8512Y154579D01*
X7814Y154290D01*
X7170Y153895D01*
X6595Y153405D01*
X6124Y152853D01*
Y157147D01*
G37*
G36*
Y207406D02*X6129Y207403D01*
X7365Y206891D01*
X8666Y206579D01*
X9993Y206474D01*
Y164814D01*
X9247Y164756D01*
X8512Y164579D01*
X7814Y164290D01*
X7170Y163895D01*
X6595Y163405D01*
X6124Y162853D01*
Y207406D01*
G37*
G36*
X2500Y12500D02*Y210971D01*
X3102Y209988D01*
X3971Y208971D01*
X4988Y208102D01*
X6124Y207406D01*
Y162853D01*
X6105Y162830D01*
X5710Y162186D01*
X5421Y161488D01*
X5244Y160753D01*
X5185Y160000D01*
X5244Y159247D01*
X5421Y158512D01*
X5710Y157814D01*
X6105Y157170D01*
X6124Y157147D01*
Y152853D01*
X6105Y152830D01*
X5710Y152186D01*
X5421Y151488D01*
X5244Y150753D01*
X5185Y150000D01*
X5244Y149247D01*
X5421Y148512D01*
X5710Y147814D01*
X6105Y147170D01*
X6124Y147147D01*
Y142853D01*
X6105Y142830D01*
X5710Y142186D01*
X5421Y141488D01*
X5244Y140753D01*
X5185Y140000D01*
X5244Y139247D01*
X5421Y138512D01*
X5710Y137814D01*
X6105Y137170D01*
X6124Y137147D01*
Y132853D01*
X6105Y132830D01*
X5710Y132186D01*
X5421Y131488D01*
X5244Y130753D01*
X5185Y130000D01*
X5244Y129247D01*
X5421Y128512D01*
X5710Y127814D01*
X6105Y127170D01*
X6124Y127147D01*
Y122853D01*
X6105Y122830D01*
X5710Y122186D01*
X5421Y121488D01*
X5244Y120753D01*
X5185Y120000D01*
X5244Y119247D01*
X5421Y118512D01*
X5710Y117814D01*
X6105Y117170D01*
X6124Y117147D01*
Y112365D01*
X6022Y112334D01*
X5915Y112283D01*
X5818Y112216D01*
X5733Y112134D01*
X5661Y112040D01*
X5608Y111935D01*
X5443Y111524D01*
X5322Y111098D01*
X5241Y110663D01*
X5200Y110222D01*
Y109778D01*
X5241Y109337D01*
X5322Y108902D01*
X5443Y108476D01*
X5603Y108063D01*
X5658Y107958D01*
X5730Y107863D01*
X5816Y107781D01*
X5913Y107714D01*
X6020Y107662D01*
X6124Y107631D01*
Y102365D01*
X6022Y102334D01*
X5915Y102283D01*
X5818Y102216D01*
X5733Y102134D01*
X5661Y102040D01*
X5608Y101935D01*
X5443Y101524D01*
X5322Y101098D01*
X5241Y100663D01*
X5200Y100222D01*
Y99778D01*
X5241Y99337D01*
X5322Y98902D01*
X5443Y98476D01*
X5603Y98063D01*
X5658Y97958D01*
X5730Y97863D01*
X5816Y97781D01*
X5913Y97714D01*
X6020Y97662D01*
X6124Y97631D01*
Y92853D01*
X6105Y92830D01*
X5710Y92186D01*
X5421Y91488D01*
X5244Y90753D01*
X5185Y90000D01*
X5244Y89247D01*
X5421Y88512D01*
X5710Y87814D01*
X6105Y87170D01*
X6124Y87147D01*
Y72853D01*
X6105Y72830D01*
X5710Y72186D01*
X5421Y71488D01*
X5244Y70753D01*
X5185Y70000D01*
X5244Y69247D01*
X5421Y68512D01*
X5710Y67814D01*
X6105Y67170D01*
X6124Y67147D01*
Y62853D01*
X6105Y62830D01*
X5710Y62186D01*
X5421Y61488D01*
X5244Y60753D01*
X5185Y60000D01*
X5244Y59247D01*
X5421Y58512D01*
X5710Y57814D01*
X6105Y57170D01*
X6124Y57147D01*
Y52853D01*
X6105Y52830D01*
X5710Y52186D01*
X5421Y51488D01*
X5244Y50753D01*
X5185Y50000D01*
X5244Y49247D01*
X5421Y48512D01*
X5710Y47814D01*
X6105Y47170D01*
X6124Y47147D01*
Y42853D01*
X6105Y42830D01*
X5710Y42186D01*
X5421Y41488D01*
X5244Y40753D01*
X5185Y40000D01*
X5244Y39247D01*
X5421Y38512D01*
X5710Y37814D01*
X6105Y37170D01*
X6124Y37147D01*
Y32853D01*
X6105Y32830D01*
X5710Y32186D01*
X5421Y31488D01*
X5244Y30753D01*
X5185Y30000D01*
X5244Y29247D01*
X5421Y28512D01*
X5710Y27814D01*
X6105Y27170D01*
X6124Y27147D01*
Y22853D01*
X6105Y22830D01*
X5710Y22186D01*
X5421Y21488D01*
X5244Y20753D01*
X5185Y20000D01*
X5244Y19247D01*
X5421Y18512D01*
X5710Y17814D01*
X6105Y17170D01*
X6124Y17147D01*
Y12500D01*
X2500D01*
G37*
G36*
X119796Y14955D02*X123039Y14963D01*
X123268Y15018D01*
X123486Y15108D01*
X123688Y15232D01*
X123867Y15385D01*
X124020Y15564D01*
X124144Y15766D01*
X124234Y15984D01*
X124289Y16213D01*
X124303Y16449D01*
X124291Y22000D01*
X140000D01*
Y18526D01*
X138666Y18421D01*
X137365Y18109D01*
X136129Y17597D01*
X134988Y16898D01*
X133971Y16029D01*
X133102Y15012D01*
X132403Y13871D01*
X131891Y12635D01*
X131579Y11334D01*
X131474Y10000D01*
X131579Y8666D01*
X131891Y7365D01*
X132403Y6129D01*
X133102Y4988D01*
X133971Y3971D01*
X134988Y3102D01*
X135971Y2500D01*
X119796D01*
Y4935D01*
X119803Y4935D01*
X120509Y4991D01*
X121198Y5156D01*
X121852Y5427D01*
X122456Y5797D01*
X122995Y6257D01*
X123455Y6796D01*
X123825Y7400D01*
X124096Y8054D01*
X124261Y8743D01*
X124303Y9449D01*
X124261Y10155D01*
X124096Y10844D01*
X123825Y11498D01*
X123455Y12102D01*
X122995Y12641D01*
X122456Y13101D01*
X121852Y13471D01*
X121198Y13742D01*
X120509Y13907D01*
X119803Y13963D01*
X119796Y13962D01*
Y14955D01*
G37*
G36*
X109796Y14935D02*X109803Y14935D01*
X110509Y14991D01*
X111198Y15156D01*
X111852Y15427D01*
X112456Y15797D01*
X112995Y16257D01*
X113455Y16796D01*
X113825Y17400D01*
X114096Y18054D01*
X114261Y18743D01*
X114303Y19449D01*
X114261Y20155D01*
X114096Y20844D01*
X113825Y21498D01*
X113517Y22000D01*
X115304D01*
X115317Y16213D01*
X115372Y15984D01*
X115463Y15766D01*
X115586Y15564D01*
X115739Y15385D01*
X115919Y15232D01*
X116120Y15108D01*
X116338Y15018D01*
X116568Y14963D01*
X116803Y14949D01*
X119796Y14955D01*
Y13962D01*
X119097Y13907D01*
X118408Y13742D01*
X117754Y13471D01*
X117150Y13101D01*
X116611Y12641D01*
X116151Y12102D01*
X115781Y11498D01*
X115510Y10844D01*
X115345Y10155D01*
X115289Y9449D01*
X115345Y8743D01*
X115510Y8054D01*
X115781Y7400D01*
X116151Y6796D01*
X116611Y6257D01*
X117150Y5797D01*
X117754Y5427D01*
X118408Y5156D01*
X119097Y4991D01*
X119796Y4935D01*
Y2500D01*
X109796D01*
Y4935D01*
X109803Y4935D01*
X110509Y4991D01*
X111198Y5156D01*
X111852Y5427D01*
X112456Y5797D01*
X112995Y6257D01*
X113455Y6796D01*
X113825Y7400D01*
X114096Y8054D01*
X114261Y8743D01*
X114303Y9449D01*
X114261Y10155D01*
X114096Y10844D01*
X113825Y11498D01*
X113455Y12102D01*
X112995Y12641D01*
X112456Y13101D01*
X111852Y13471D01*
X111198Y13742D01*
X110509Y13907D01*
X109803Y13963D01*
X109796Y13962D01*
Y14935D01*
G37*
G36*
X103416Y16750D02*X103455Y16796D01*
X103825Y17400D01*
X104096Y18054D01*
X104261Y18743D01*
X104303Y19449D01*
X104261Y20155D01*
X104096Y20844D01*
X103825Y21498D01*
X103517Y22000D01*
X106089D01*
X105781Y21498D01*
X105510Y20844D01*
X105345Y20155D01*
X105289Y19449D01*
X105345Y18743D01*
X105510Y18054D01*
X105781Y17400D01*
X106151Y16796D01*
X106611Y16257D01*
X107150Y15797D01*
X107754Y15427D01*
X108408Y15156D01*
X109097Y14991D01*
X109796Y14935D01*
Y13962D01*
X109097Y13907D01*
X108408Y13742D01*
X107754Y13471D01*
X107150Y13101D01*
X106611Y12641D01*
X106151Y12102D01*
X105781Y11498D01*
X105510Y10844D01*
X105345Y10155D01*
X105289Y9449D01*
X105345Y8743D01*
X105510Y8054D01*
X105781Y7400D01*
X106151Y6796D01*
X106611Y6257D01*
X107150Y5797D01*
X107754Y5427D01*
X108408Y5156D01*
X109097Y4991D01*
X109796Y4935D01*
Y2500D01*
X103416D01*
Y7302D01*
X103459Y7309D01*
X103571Y7346D01*
X103676Y7401D01*
X103771Y7471D01*
X103854Y7555D01*
X103922Y7651D01*
X103973Y7757D01*
X104121Y8165D01*
X104225Y8586D01*
X104287Y9015D01*
X104308Y9449D01*
X104287Y9882D01*
X104225Y10312D01*
X104121Y10733D01*
X103978Y11142D01*
X103925Y11249D01*
X103856Y11345D01*
X103773Y11430D01*
X103678Y11500D01*
X103572Y11555D01*
X103460Y11592D01*
X103416Y11599D01*
Y16750D01*
G37*
G36*
X99805Y14935D02*X100509Y14991D01*
X101198Y15156D01*
X101852Y15427D01*
X102456Y15797D01*
X102995Y16257D01*
X103416Y16750D01*
Y11599D01*
X103343Y11612D01*
X103224Y11612D01*
X103107Y11595D01*
X102994Y11559D01*
X102888Y11506D01*
X102791Y11437D01*
X102707Y11354D01*
X102637Y11258D01*
X102582Y11153D01*
X102544Y11040D01*
X102525Y10923D01*
X102524Y10805D01*
X102542Y10687D01*
X102580Y10575D01*
X102679Y10304D01*
X102748Y10023D01*
X102789Y9737D01*
X102803Y9449D01*
X102789Y9160D01*
X102748Y8874D01*
X102679Y8594D01*
X102583Y8321D01*
X102545Y8209D01*
X102528Y8093D01*
X102529Y7975D01*
X102548Y7858D01*
X102585Y7746D01*
X102640Y7641D01*
X102710Y7546D01*
X102794Y7463D01*
X102890Y7395D01*
X102995Y7342D01*
X103108Y7306D01*
X103225Y7289D01*
X103343Y7290D01*
X103416Y7302D01*
Y2500D01*
X99805D01*
Y4944D01*
X100237Y4964D01*
X100666Y5027D01*
X101087Y5130D01*
X101497Y5274D01*
X101603Y5327D01*
X101700Y5396D01*
X101784Y5479D01*
X101854Y5574D01*
X101909Y5680D01*
X101946Y5792D01*
X101966Y5909D01*
X101967Y6028D01*
X101949Y6145D01*
X101913Y6258D01*
X101860Y6364D01*
X101791Y6461D01*
X101708Y6545D01*
X101612Y6615D01*
X101507Y6670D01*
X101395Y6708D01*
X101278Y6727D01*
X101159Y6728D01*
X101042Y6710D01*
X100930Y6672D01*
X100658Y6573D01*
X100378Y6504D01*
X100092Y6463D01*
X99805Y6449D01*
Y12449D01*
X100092Y12435D01*
X100378Y12393D01*
X100658Y12324D01*
X100931Y12229D01*
X101043Y12191D01*
X101159Y12173D01*
X101277Y12174D01*
X101394Y12194D01*
X101506Y12231D01*
X101611Y12285D01*
X101706Y12355D01*
X101788Y12439D01*
X101857Y12535D01*
X101910Y12641D01*
X101946Y12753D01*
X101963Y12870D01*
X101962Y12988D01*
X101943Y13105D01*
X101906Y13217D01*
X101851Y13322D01*
X101781Y13417D01*
X101697Y13499D01*
X101601Y13568D01*
X101495Y13619D01*
X101087Y13767D01*
X100666Y13871D01*
X100237Y13933D01*
X99805Y13954D01*
Y14935D01*
G37*
G36*
X96190Y16750D02*X96611Y16257D01*
X97150Y15797D01*
X97754Y15427D01*
X98408Y15156D01*
X99097Y14991D01*
X99803Y14935D01*
X99805Y14935D01*
Y13954D01*
X99803Y13954D01*
X99370Y13933D01*
X98940Y13871D01*
X98519Y13767D01*
X98110Y13624D01*
X98003Y13571D01*
X97907Y13502D01*
X97822Y13419D01*
X97752Y13323D01*
X97697Y13218D01*
X97660Y13106D01*
X97640Y12989D01*
X97640Y12870D01*
X97657Y12753D01*
X97693Y12640D01*
X97746Y12534D01*
X97815Y12437D01*
X97898Y12353D01*
X97994Y12282D01*
X98099Y12228D01*
X98212Y12190D01*
X98329Y12171D01*
X98447Y12170D01*
X98564Y12188D01*
X98677Y12226D01*
X98948Y12324D01*
X99229Y12393D01*
X99515Y12435D01*
X99803Y12449D01*
X99805Y12449D01*
Y6449D01*
X99803Y6449D01*
X99515Y6463D01*
X99229Y6504D01*
X98948Y6573D01*
X98675Y6669D01*
X98564Y6707D01*
X98447Y6724D01*
X98329Y6723D01*
X98212Y6704D01*
X98100Y6667D01*
X97996Y6612D01*
X97901Y6542D01*
X97818Y6458D01*
X97749Y6362D01*
X97696Y6257D01*
X97661Y6144D01*
X97643Y6027D01*
X97644Y5909D01*
X97663Y5793D01*
X97700Y5681D01*
X97755Y5576D01*
X97825Y5481D01*
X97909Y5398D01*
X98005Y5330D01*
X98111Y5279D01*
X98519Y5130D01*
X98940Y5027D01*
X99370Y4964D01*
X99803Y4944D01*
X99805Y4944D01*
Y2500D01*
X96190D01*
Y7298D01*
X96263Y7286D01*
X96382Y7285D01*
X96499Y7303D01*
X96612Y7339D01*
X96718Y7392D01*
X96815Y7461D01*
X96899Y7544D01*
X96970Y7639D01*
X97024Y7745D01*
X97062Y7857D01*
X97081Y7974D01*
X97082Y8093D01*
X97064Y8210D01*
X97026Y8322D01*
X96928Y8594D01*
X96859Y8874D01*
X96817Y9160D01*
X96803Y9449D01*
X96817Y9737D01*
X96859Y10023D01*
X96928Y10304D01*
X97023Y10577D01*
X97061Y10688D01*
X97079Y10805D01*
X97078Y10923D01*
X97058Y11040D01*
X97021Y11152D01*
X96967Y11256D01*
X96897Y11351D01*
X96813Y11434D01*
X96717Y11503D01*
X96611Y11556D01*
X96498Y11591D01*
X96382Y11609D01*
X96264Y11608D01*
X96190Y11596D01*
Y16750D01*
G37*
G36*
X30000Y22000D02*X96089D01*
X95781Y21498D01*
X95510Y20844D01*
X95345Y20155D01*
X95289Y19449D01*
X95345Y18743D01*
X95510Y18054D01*
X95781Y17400D01*
X96151Y16796D01*
X96190Y16750D01*
Y11596D01*
X96147Y11589D01*
X96035Y11551D01*
X95930Y11497D01*
X95835Y11427D01*
X95753Y11343D01*
X95684Y11247D01*
X95633Y11140D01*
X95485Y10733D01*
X95381Y10312D01*
X95319Y9882D01*
X95298Y9449D01*
X95319Y9015D01*
X95381Y8586D01*
X95485Y8165D01*
X95628Y7755D01*
X95681Y7649D01*
X95750Y7552D01*
X95833Y7468D01*
X95929Y7398D01*
X96034Y7343D01*
X96146Y7305D01*
X96190Y7298D01*
Y2500D01*
X34029D01*
X35012Y3102D01*
X36029Y3971D01*
X36898Y4988D01*
X37597Y6129D01*
X38109Y7365D01*
X38421Y8666D01*
X38500Y10000D01*
X38421Y11334D01*
X38109Y12635D01*
X37597Y13871D01*
X36898Y15012D01*
X36029Y16029D01*
X35012Y16898D01*
X33871Y17597D01*
X32635Y18109D01*
X31334Y18421D01*
X30000Y18526D01*
Y22000D01*
G37*
G54D36*X192000Y32000D02*Y177500D01*
X190000Y34000D02*Y176500D01*
X186000Y30000D02*X190000Y34000D01*
X174000Y202500D02*X186500D01*
X193000Y196000D01*
X200000D01*
Y186000D02*X193000D01*
X191500Y184500D01*
X174000D01*
X160000Y180500D02*X138000Y202500D01*
X153000Y165000D02*X169500D01*
X192000Y177500D02*X189000Y180500D01*
X160000D01*
X190000Y176500D02*X188000Y178500D01*
X144000D01*
X138000Y184500D01*
X10000Y30000D02*X186000D01*
X10000Y20000D02*X17000D01*
X24000Y27000D01*
X187000D01*
X192000Y32000D01*
G54D37*X10000Y150000D02*X23100D01*
G54D38*X65000Y140000D02*X113500D01*
G54D36*X73000Y135000D02*Y130500D01*
X78000Y135000D02*Y130500D01*
X83000Y135000D02*Y130500D01*
X88000Y135000D02*Y130500D01*
G54D37*X10000Y120000D02*X27000D01*
X29900Y122900D01*
Y150000D01*
G54D36*X73000Y130500D02*X84500Y119000D01*
X78000Y130500D02*X89500Y119000D01*
X83000Y130500D02*X94500Y119000D01*
X88000Y130500D02*X99500Y119000D01*
Y110000D01*
X84500Y119000D02*Y110000D01*
X89500Y119000D02*Y110000D01*
X94500Y119000D02*Y110000D01*
X84500D02*X89500Y105000D01*
X94500D01*
G54D39*X200000Y20000D03*
Y30000D03*
Y40000D03*
Y50000D03*
Y60000D03*
Y70000D03*
G54D40*X140000Y10000D03*
G54D41*X119803Y9449D03*
X109803D03*
X99803D03*
G54D35*G36*
X116803Y22449D02*Y16449D01*
X122803D01*
Y22449D01*
X116803D01*
G37*
G54D41*X109803Y19449D03*
X99803D03*
G54D39*X10000Y130000D03*
Y120000D03*
Y110000D03*
Y100000D03*
Y90000D03*
Y70000D03*
Y60000D03*
Y50000D03*
Y40000D03*
Y30000D03*
Y20000D03*
G54D40*X30000Y10000D03*
G54D39*X200000Y80000D03*
Y90000D03*
Y106000D03*
Y116000D03*
Y126000D03*
Y136000D03*
Y146000D03*
Y156000D03*
Y166000D03*
Y176000D03*
Y186000D03*
Y196000D03*
G54D40*Y210000D03*
G54D39*X10000Y160000D03*
Y150000D03*
Y140000D03*
G54D40*Y215000D03*
G54D42*X59000Y247000D03*
X49000D03*
X39000D03*
X29000D03*
X19000D03*
X9000D03*
G54D35*G36*
X113500Y251000D02*Y243000D01*
X121500D01*
Y251000D01*
X113500D01*
G37*
G36*
X75000D02*Y243000D01*
X83000D01*
Y251000D01*
X75000D01*
G37*
G54D42*X69000Y247000D03*
X97500D03*
G54D41*X29900Y150000D03*
G54D43*X28400Y151500D02*Y148500D01*
G54D41*X23100Y150000D03*
G54D43*X24600Y151500D02*Y148500D01*
G54D38*X160000Y133500D03*
X169500Y165000D03*
X153000D03*
X161600Y171000D03*
X138000Y202500D03*
Y184500D03*
X141500Y38500D03*
X174000Y202500D03*
Y184500D03*
X42000Y111000D03*
Y105000D03*
Y99000D03*
X18000Y105000D03*
X23500D03*
X29000D03*
X42500Y70000D03*
X59500D03*
X73000Y135000D03*
X83000D03*
X90000Y152000D03*
X95000D03*
X88000Y135000D03*
X78000D03*
X65000Y140000D03*
X113500D03*
X55000Y185000D03*
Y173000D03*
Y161000D03*
X50000Y185000D03*
X45000D03*
X40000D03*
Y179000D03*
X50000Y173000D03*
X45000D03*
X40000D03*
X81000Y173500D03*
X86000D03*
X50000Y161000D03*
X45000D03*
X40000D03*
Y167000D03*
X81000Y182500D03*
X86000D03*
X81000Y178000D03*
X86000D03*
X54000Y63500D03*
X59500D03*
X48000D03*
Y5500D03*
Y10500D03*
Y15500D03*
X42500Y63500D03*
Y5500D03*
Y10500D03*
Y15500D03*
X54000Y5500D03*
X59500D03*
X54000Y10500D03*
X59500D03*
X54000Y15500D03*
X59500D03*
X94500Y110000D03*
X89500D03*
X99500D03*
X94500Y105000D03*
X101000Y98500D03*
Y103500D03*
X105000Y75500D03*
X100000D03*
G54D44*G54D45*G54D46*G54D45*G54D46*G54D45*G54D46*G54D45*G54D46*G54D47*M02*
